<svg xmlns="http://www.w3.org/2000/svg" viewBox="0 0 605.17 513.15"><defs><style>.cls-1{opacity:0.36;}.cls-2{fill:#676099;}.cls-3{fill:#dcfffe;}.cls-4{fill:#fce7e9;}.cls-5{fill:#a2a5a5;}</style></defs><title>1</title><g id="Camada_2" data-name="Camada 2"><g id="casinhas"><g class="cls-1"><path class="cls-2" d="M304.33,134.36c-7.79,0-11.75-5.09-15.24-9.58s-6.38-8.21-12.43-8.21-9,3.81-12.43,8.21-7.45,9.58-15.24,9.58-11.74-5.09-15.23-9.58-6.39-8.21-12.43-8.21-9,3.81-12.43,8.21-7.45,9.58-15.24,9.58-11.74-5.09-15.24-9.58S172,116.57,166,116.57s-9,3.81-12.43,8.21-7.46,9.58-15.24,9.58-11.75-5.09-15.24-9.58-6.38-8.21-12.43-8.21-9,3.81-12.43,8.21-7.45,9.58-15.23,9.58-11.75-5.09-15.24-9.58-6.38-8.21-12.43-8.21-9,3.81-12.43,8.21-7.45,9.58-15.24,9.58-11.74-5.09-15.23-9.58S6.05,116.57,0,116.57V113c7.79,0,11.74,5.09,15.24,9.58s6.38,8.2,12.42,8.2,9-3.8,12.43-8.2S47.54,113,55.33,113s11.74,5.09,15.24,9.58S77,130.8,83,130.8s9-3.8,12.42-8.2,7.46-9.58,15.24-9.58,11.75,5.09,15.24,9.58,6.38,8.2,12.43,8.2,9-3.8,12.43-8.2S158.21,113,166,113s11.74,5.09,15.23,9.58,6.38,8.2,12.43,8.2,9-3.8,12.43-8.2,7.45-9.58,15.24-9.58,11.74,5.09,15.23,9.58,6.39,8.2,12.43,8.2,9-3.8,12.43-8.2,7.45-9.58,15.24-9.58,11.75,5.09,15.24,9.58,6.38,8.2,12.43,8.2,9-3.8,12.43-8.2S324.21,113,332,113v3.55c-6.05,0-9,3.81-12.43,8.21S312.12,134.36,304.33,134.36Z"/></g><g class="cls-1"><path class="cls-2" d="M304.33,159c-7.79,0-11.75-5.09-15.24-9.58s-6.38-8.2-12.43-8.2-9,3.8-12.43,8.2S256.78,159,249,159s-11.74-5.09-15.23-9.58-6.39-8.2-12.43-8.2-9,3.8-12.43,8.2S201.45,159,193.66,159s-11.74-5.09-15.24-9.58-6.38-8.2-12.42-8.2-9,3.8-12.43,8.2S146.11,159,138.33,159s-11.75-5.09-15.24-9.58-6.38-8.2-12.43-8.2-9,3.8-12.43,8.2S90.78,159,83,159s-11.75-5.09-15.24-9.58-6.38-8.2-12.43-8.2-9,3.8-12.43,8.2S35.45,159,27.66,159s-11.74-5.09-15.23-9.58-6.38-8.2-12.43-8.2v-3.56c7.79,0,11.74,5.09,15.24,9.58s6.38,8.21,12.42,8.21,9-3.81,12.43-8.21,7.45-9.58,15.24-9.58,11.74,5.09,15.24,9.58S77,155.41,83,155.41s9-3.81,12.42-8.21,7.46-9.58,15.24-9.58,11.75,5.09,15.24,9.58,6.38,8.21,12.43,8.21,9-3.81,12.43-8.21,7.45-9.58,15.24-9.58,11.74,5.09,15.23,9.58,6.38,8.21,12.43,8.21,9-3.81,12.43-8.21,7.45-9.58,15.24-9.58,11.74,5.09,15.23,9.58,6.39,8.21,12.43,8.21,9-3.81,12.43-8.21,7.45-9.58,15.24-9.58,11.75,5.09,15.24,9.58,6.38,8.21,12.43,8.21,9-3.81,12.43-8.21,7.45-9.58,15.24-9.58v3.56c-6.05,0-9,3.8-12.43,8.21S312.12,159,304.33,159Z"/></g><g class="cls-1"><path class="cls-2" d="M304.33,183.57c-7.79,0-11.75-5.09-15.24-9.58s-6.38-8.21-12.43-8.21-9,3.81-12.43,8.21-7.45,9.58-15.24,9.58-11.74-5.09-15.23-9.58-6.39-8.21-12.43-8.21-9,3.81-12.43,8.21-7.45,9.58-15.24,9.58-11.74-5.09-15.24-9.58S172,165.78,166,165.78s-9,3.81-12.43,8.21-7.46,9.58-15.24,9.58-11.75-5.09-15.24-9.58-6.38-8.21-12.43-8.21-9,3.81-12.43,8.21-7.45,9.58-15.23,9.58S71.25,178.48,67.76,174s-6.38-8.21-12.43-8.21-9,3.81-12.43,8.21-7.45,9.58-15.24,9.58S15.92,178.48,12.43,174,6.05,165.78,0,165.78v-3.56c7.79,0,11.74,5.09,15.24,9.58S21.62,180,27.66,180s9-3.8,12.43-8.21,7.45-9.58,15.24-9.58,11.74,5.09,15.24,9.58S77,180,83,180s9-3.8,12.42-8.21,7.46-9.58,15.24-9.58,11.75,5.09,15.24,9.58,6.38,8.21,12.43,8.21,9-3.8,12.43-8.21,7.45-9.58,15.24-9.58,11.74,5.09,15.23,9.58,6.38,8.21,12.43,8.21,9-3.8,12.43-8.21,7.45-9.58,15.24-9.58,11.74,5.09,15.23,9.58S243,180,249,180s9-3.8,12.43-8.21,7.45-9.58,15.24-9.58,11.75,5.09,15.24,9.58,6.38,8.21,12.43,8.21,9-3.8,12.43-8.21,7.45-9.58,15.24-9.58v3.56c-6.05,0-9,3.81-12.43,8.21S312.12,183.57,304.33,183.57Z"/></g><g class="cls-1"><path class="cls-2" d="M304.33,208.17c-7.79,0-11.75-5.09-15.24-9.58s-6.38-8.2-12.43-8.2-9,3.8-12.43,8.2-7.45,9.58-15.24,9.58-11.74-5.09-15.23-9.58-6.39-8.2-12.43-8.2-9,3.8-12.43,8.2-7.45,9.58-15.24,9.58-11.74-5.09-15.24-9.58-6.38-8.2-12.42-8.2-9,3.8-12.43,8.2-7.46,9.58-15.24,9.58-11.75-5.09-15.24-9.58-6.38-8.2-12.43-8.2-9,3.8-12.43,8.2-7.45,9.58-15.23,9.58-11.75-5.09-15.24-9.58-6.38-8.2-12.43-8.2-9,3.8-12.43,8.2-7.45,9.58-15.24,9.58-11.74-5.09-15.23-9.58-6.38-8.2-12.43-8.2v-3.56c7.79,0,11.74,5.09,15.24,9.58s6.38,8.2,12.42,8.2,9-3.8,12.43-8.2,7.45-9.58,15.24-9.58,11.74,5.09,15.24,9.58,6.38,8.2,12.43,8.2,9-3.8,12.42-8.2,7.46-9.58,15.24-9.58,11.75,5.09,15.24,9.58,6.38,8.2,12.43,8.2,9-3.8,12.43-8.2,7.45-9.58,15.24-9.58,11.74,5.09,15.23,9.58,6.38,8.2,12.43,8.2,9-3.8,12.43-8.2,7.45-9.58,15.24-9.58,11.74,5.09,15.23,9.58,6.39,8.2,12.43,8.2,9-3.8,12.43-8.2,7.45-9.58,15.24-9.58,11.75,5.09,15.24,9.58,6.38,8.2,12.43,8.2,9-3.8,12.43-8.2,7.45-9.58,15.24-9.58v3.56c-6.05,0-9,3.8-12.43,8.2S312.12,208.17,304.33,208.17Z"/></g><g class="cls-1"><path class="cls-2" d="M304.33,232.77c-7.79,0-11.75-5.08-15.24-9.57S282.71,215,276.66,215s-9,3.8-12.43,8.21-7.45,9.57-15.24,9.57-11.74-5.08-15.23-9.57S227.37,215,221.33,215s-9,3.8-12.43,8.21-7.45,9.57-15.24,9.57-11.74-5.08-15.24-9.57S172,215,166,215s-9,3.8-12.43,8.21-7.46,9.57-15.24,9.57-11.75-5.08-15.24-9.57S116.71,215,110.66,215s-9,3.8-12.43,8.21-7.45,9.57-15.23,9.57-11.75-5.08-15.24-9.57S61.38,215,55.33,215s-9,3.8-12.43,8.21-7.45,9.57-15.24,9.57-11.74-5.08-15.23-9.57S6.05,215,0,215v-3.56c7.79,0,11.74,5.09,15.24,9.58s6.38,8.21,12.42,8.21,9-3.81,12.43-8.21,7.45-9.58,15.24-9.58,11.74,5.09,15.24,9.58S77,229.22,83,229.22s9-3.81,12.42-8.21,7.46-9.58,15.24-9.58,11.75,5.09,15.24,9.58,6.38,8.21,12.43,8.21,9-3.81,12.43-8.21,7.45-9.58,15.24-9.58,11.74,5.09,15.23,9.58,6.38,8.21,12.43,8.21,9-3.81,12.43-8.21,7.45-9.58,15.24-9.58,11.74,5.09,15.23,9.58,6.39,8.21,12.43,8.21,9-3.81,12.43-8.21,7.45-9.58,15.24-9.58,11.75,5.09,15.24,9.58,6.38,8.21,12.43,8.21,9-3.81,12.43-8.21,7.45-9.58,15.24-9.58V215c-6.05,0-9,3.8-12.43,8.21S312.12,232.77,304.33,232.77Z"/></g><g class="cls-1"><path class="cls-2" d="M304.33,257.38c-7.79,0-11.75-5.09-15.24-9.58s-6.38-8.21-12.43-8.21-9,3.81-12.43,8.21-7.45,9.58-15.24,9.58-11.74-5.09-15.23-9.58-6.39-8.21-12.43-8.21-9,3.81-12.43,8.21-7.45,9.58-15.24,9.58-11.74-5.09-15.24-9.58S172,239.59,166,239.59s-9,3.81-12.43,8.21-7.46,9.58-15.24,9.58-11.75-5.09-15.24-9.58-6.38-8.21-12.43-8.21-9,3.81-12.43,8.21-7.45,9.58-15.23,9.58-11.75-5.09-15.24-9.58-6.38-8.21-12.43-8.21-9,3.81-12.43,8.21-7.45,9.58-15.24,9.58-11.74-5.09-15.23-9.58S6.05,239.59,0,239.59V236c7.79,0,11.74,5.09,15.24,9.58s6.38,8.2,12.42,8.2,9-3.8,12.43-8.2S47.54,236,55.33,236s11.74,5.09,15.24,9.58,6.38,8.2,12.43,8.2,9-3.8,12.42-8.2,7.46-9.58,15.24-9.58,11.75,5.09,15.24,9.58,6.38,8.2,12.43,8.2,9-3.8,12.43-8.2S158.21,236,166,236s11.74,5.09,15.23,9.58,6.38,8.2,12.43,8.2,9-3.8,12.43-8.2,7.45-9.58,15.24-9.58,11.74,5.09,15.23,9.58,6.39,8.2,12.43,8.2,9-3.8,12.43-8.2,7.45-9.58,15.24-9.58,11.75,5.09,15.24,9.57,6.38,8.21,12.43,8.21,9-3.8,12.43-8.2S324.21,236,332,236v3.55c-6.05,0-9,3.81-12.43,8.21S312.12,257.38,304.33,257.38Z"/></g><g class="cls-1"><path class="cls-2" d="M304.33,282c-7.79,0-11.75-5.09-15.24-9.58s-6.38-8.2-12.43-8.2-9,3.8-12.43,8.2S256.78,282,249,282s-11.74-5.09-15.23-9.58-6.39-8.2-12.43-8.2-9,3.8-12.43,8.2S201.45,282,193.66,282s-11.74-5.09-15.24-9.58S172,264.2,166,264.2s-9,3.8-12.43,8.2S146.11,282,138.33,282s-11.75-5.09-15.24-9.58-6.38-8.2-12.43-8.2-9,3.8-12.43,8.2S90.78,282,83,282s-11.75-5.09-15.24-9.58-6.38-8.2-12.43-8.2-9,3.8-12.43,8.2S35.45,282,27.66,282s-11.74-5.09-15.23-9.58S6.05,264.2,0,264.2v-3.56c7.79,0,11.74,5.09,15.24,9.58s6.38,8.21,12.42,8.21,9-3.81,12.43-8.21,7.45-9.58,15.24-9.58,11.74,5.09,15.24,9.58S77,278.43,83,278.43s9-3.81,12.42-8.21,7.46-9.58,15.24-9.58,11.75,5.09,15.24,9.58,6.38,8.21,12.43,8.21,9-3.81,12.43-8.21,7.45-9.58,15.24-9.58,11.74,5.09,15.23,9.58,6.38,8.21,12.43,8.21,9-3.81,12.43-8.21,7.45-9.58,15.24-9.58,11.74,5.09,15.23,9.58,6.39,8.21,12.43,8.21,9-3.81,12.43-8.21,7.45-9.58,15.24-9.58,11.75,5.09,15.24,9.58,6.38,8.21,12.43,8.21,9-3.81,12.43-8.21,7.45-9.58,15.24-9.58v3.56c-6.05,0-9,3.8-12.43,8.2S312.12,282,304.33,282Z"/></g><circle class="cls-3" cx="283.92" cy="286.11" r="227.05"/><path class="cls-4" d="M577.33,129,451.4,1.4,295.83,0,166.18,138.54l4.22.35.25,0v0l.36,0c15.57,1.94,13.84,28.22,12.69,45.68-.28,4.25-.53,7.92-.53,10.92V454.92l-2.55,2.29,132.8,23.66v-1.08l238.64-49L553.22,132h23.89ZM175,135.12l122.61-131L441.53,5.4,303.68,143.26l.76.75Zm12.28,319.12V195.55c0-2.86.24-6.47.52-10.65,1-15,2.36-35.85-6.51-45.24l130.57,9L309.37,476ZM431.07,239.15l114.19,8.79-226,23.77V251.46Zm-1.81,168.61-110,18.58V282.47l110-11.57Zm-110,22.73L431,411.61l109,17.48L319.26,474.42Zm114.09-22.66V270.47l115.3-12.13L548,426.21Zm115.31-153.6-229.4,24.13v-2.54l229.41-24.13Zm0-10.13-115.63-8.9-1-116.3H537.9l11.24,11.24Zm-118-129.29L389,74.51l52.26-52.26,92.56,92.56ZM386.1,77.4l41.84,40.38,1,117.49L319.26,247.35V144.24Zm-70.93,172v225.9l-1.71.35ZM552.7,127.92l-110-110-1.45-1.44L313.11,144.61l-4.67-.32L447.17,5.55l-.09-.1,2.6,0L570.56,127.92Z"/><path class="cls-4" d="M469.72,290.46v66.15L511,361.1V294.87Zm37.14,63.74-27.24-3,.24-55.51,27,2.89Zm-31.09-59-.24,56.38-1.72.47V295Z"/><path class="cls-4" d="M404.6,355V289.88l-37.65,5v65.21Zm-4.09-4.67-4-1.59-.24-53.64,4.23-.57Zm-8.32-54.69.24,53L371,352.27V298.5Z"/><path class="cls-4" d="M404.6,181.37v-65.1L367,117.52V183Zm-4.09-3.92-2.65.11v-57l2.65-.09Zm-29.47-56,22.73-.76v57l-22.73,1Z"/><path class="cls-5" d="M605.17,144,479.25,16.4,323.68,15,194,153.54l4.21.34.26,0h0l.35,0c15.58,1.95,13.84,28.22,12.69,45.68-.28,4.25-.52,7.93-.52,10.92V469.91l-2.56,2.29,132.81,23.66v-1.08l238.63-49L581.07,147H605Zm-402.34,6.17,122.61-131,143.94,1.3L331.53,158.25l.75.76Zm12.28,319.11V210.54c0-2.86.24-6.47.51-10.65,1-14.95,2.37-35.85-6.51-45.24l130.57,9L337.22,491ZM458.92,254.15l114.19,8.78-226,23.77V266.46Zm-1.82,168.6-110,18.58V297.46l110-11.57Zm-110,22.73L458.88,426.6l109,17.48L347.1,489.41Zm114.09-22.65V285.46l115.3-12.13-.65,167.88ZM576.51,269.22,347.1,293.35v-2.53l229.42-24.13Zm0-10.13L460.91,250.2l-1-116.31H565.74L577,145.14Zm-118-129.29L416.84,89.5,469.1,37.25l92.55,92.55ZM413.94,92.4l41.84,40.38,1,117.48L347.1,262.34V159.24ZM343,264.36V490.25l-1.7.35ZM580.55,142.91l-110-110-1.44-1.45L341,159.6l-4.68-.32L475,20.54l-.1-.09,2.61,0L598.41,142.91Z"/><path class="cls-5" d="M497.56,305.45v66.16l41.24,4.48V309.87Zm37.15,63.74-27.25-3,.24-55.52,27,2.89Zm-31.1-59-.24,56.38-1.72.47V310Z"/><path class="cls-5" d="M432.45,370V304.88l-37.66,5v65.21Zm-4.09-4.67-4-1.58-.24-53.65,4.24-.57ZM420,310.67l.23,53-21.39,3.64V313.5Z"/><path class="cls-5" d="M432.45,196.36v-65.1l-37.66,1.26V198Zm-4.09-3.92-2.65.12v-57l2.65-.09Zm-29.48-56,22.74-.75v57l-22.74,1Z"/></g></g></svg>