<svg xmlns="http://www.w3.org/2000/svg" viewBox="0 0 282.43 566"><defs><style>.cls-1{fill:#759eef;}.cls-2{fill:#b3deef;}.cls-3{fill:#d26f31;}.cls-4{fill:#b0003f;}.cls-5{fill:#676099;}.cls-6{opacity:0.11;}</style></defs><title>10</title><g id="Camada_2" data-name="Camada 2"><g id="bonecos_direita" data-name="bonecos direita"><path class="cls-1" d="M134,121H138a15.11,15.11,0,0,1,15.11,15.11v43.51a0,0,0,0,1,0,0H118.94a0,0,0,0,1,0,0V136.12A15.11,15.11,0,0,1,134,121Z" transform="translate(118.71 -51.65) rotate(37.24)"/><path class="cls-2" d="M225.49,286.83H132.68V145.06a22.23,22.23,0,0,1,22.24-22.23h60.91A22.22,22.22,0,0,1,238,147Z"/><path class="cls-3" d="M159.89,77.46h27.22a0,0,0,0,1,0,0v45.71a13.61,13.61,0,0,1-13.61,13.61h0a13.61,13.61,0,0,1-13.61-13.61V77.46a0,0,0,0,1,0,0Z" transform="translate(-18.4 38.18) rotate(-11.93)"/><ellipse class="cls-3" cx="161.29" cy="66.3" rx="41.17" ry="46.06"/><path class="cls-1" d="M225.09,121.19h2.79a14.31,14.31,0,0,1,14.31,14.31v44.87a0,0,0,0,1,0,0H210.77a0,0,0,0,1,0,0V135.5a14.31,14.31,0,0,1,14.31-14.31Z" transform="translate(-18.28 31.94) rotate(-7.76)"/><path class="cls-3" d="M109.9,167.46,86.32,204a6.51,6.51,0,0,1-10.82.16L35,156.32,23.81,169.58l41,50.5a21.54,21.54,0,0,0,16.85,8.12h0a20.42,20.42,0,0,0,17.81-10.41l28.39-36.68Z"/><path class="cls-3" d="M220.14,182.3l20.71-2.82,3.49,34.77c.28,15.26-.06,23.46-8.52,32.58h0c-2.65,2.31-10.26,6.38-16.18,5.13l-66-14V224l65.72,6.47a2.78,2.78,0,0,0,3.19-2.9Z"/><path class="cls-3" d="M35.24,157.54a1.28,1.28,0,0,0,.25-1.16c-.88-3.16-4.62-17.16-4-25.18.47-6.17.3-14.61.14-19.37a1.28,1.28,0,0,0-2.35-.65,30.89,30.89,0,0,0-4.56,12.41,1.27,1.27,0,0,1-2.29.59L10,107.24a1.28,1.28,0,0,0-2-.12c-1.72,1.81-4.66,5.75-2.73,10.13a1.27,1.27,0,0,1-.18,1.31c-1.41,1.71-5.06,6.57-3.85,9.49a1.16,1.16,0,0,1,0,.84c-.56,1.59-2.16,6.76-.7,10.29a1.35,1.35,0,0,1,.09.77c-.24,1.19-.73,5,2.18,7.3l20.65,22a1.27,1.27,0,0,0,1.91,0Z"/><path class="cls-3" d="M154.31,223.44a1.13,1.13,0,0,0-.49-.94c-2.42-1.65-13-9.06-17.21-14.89-3.22-4.48-8.19-10.14-11-13.3a1.14,1.14,0,0,0-2,.91,27.51,27.51,0,0,0,4,11.09A1.13,1.13,0,0,1,126.4,208l-18.22-4.43a1.15,1.15,0,0,0-1.41,1.05c-.14,2.22.13,6.6,4,8.48a1.15,1.15,0,0,1,.63,1c0,2,.32,7.39,2.83,8.69a1,1,0,0,1,.49.57c.53,1.41,2.41,5.85,5.43,7.42a1.18,1.18,0,0,1,.51.48c.52,1,2.36,3.81,5.68,3.73L153,238.15a1.14,1.14,0,0,0,1.27-1.13Z"/><path class="cls-4" d="M216.42,54.43a15.26,15.26,0,0,0-2.8-8.83,15.26,15.26,0,0,0-2.05-7.22,15.34,15.34,0,0,0-19-21.94,13.56,13.56,0,0,0-16.26-4.09,15.36,15.36,0,0,0-28.18-5,13.64,13.64,0,0,0-3.28-.4,13.82,13.82,0,0,0-3.66.51,15.36,15.36,0,0,0-22.66,18.82,15.35,15.35,0,0,0,1.53,26.44A13.59,13.59,0,0,0,140.22,60a13.56,13.56,0,0,0,21.13,1,13.55,13.55,0,0,0,8.09,5,13.59,13.59,0,0,0,12.44,19.11,13.3,13.3,0,0,0,3.86-.57c0,.19,0,.38,0,.57a12.57,12.57,0,1,0,22.49-7.68,12.45,12.45,0,0,0,2.64-7.67,12.83,12.83,0,0,0-.42-3.18A15.33,15.33,0,0,0,216.42,54.43ZM145.67,39.55q.15-.36.27-.72c.06.18.12.35.19.53Z"/><polygon class="cls-5" points="132.68 286.83 120.81 400.58 126.4 500.38 144.54 500.38 152.91 393.6 185.38 286.83 132.68 286.83"/><polygon class="cls-5" points="226.19 286.83 226.19 376.85 238.06 500.38 210.14 500.38 198.28 382.43 173.5 286.83 226.19 286.83"/><path d="M129.87,500.37c-.74,1.52-5.17,17.46-13.28,22S98.15,526.18,91.51,533c-1.05,1.07,5.16,10.62,16.23,10.62s25.81-12.14,25.81-12.14l3.13-1a9.4,9.4,0,0,0,6.46-9V500.37Z"/><path d="M215.8,500.37l-.05,17.73c0,5-2.81,10.89,1.63,13.11l3.93,2,15.49,12.5a15.34,15.34,0,0,0,14.72,2.53c7.73-2.74,16.51-7.69,6.77-14.33-12.17-8.3-15.69-16.68-18.94-19.21a5.37,5.37,0,0,1-1.54-1.94,17.15,17.15,0,0,0-.95-1.8l-4.39-10.55Z"/><ellipse class="cls-6" cx="173.58" cy="544.23" rx="108.85" ry="21.77"/></g></g></svg>