<svg xmlns="http://www.w3.org/2000/svg" viewBox="0 0 1035.61 706.22"><defs><style>.cls-1{fill:#676099;}.cls-2{font-size:60px;font-family:OpenSans-CondensedBold, Open Sans Condensed;font-weight:700;}.cls-2,.cls-3{fill:#fff;}.cls-4{opacity:0.36;}.cls-5{fill:#ffe078;}</style></defs><title>16</title><g id="Camada_2" data-name="Camada 2"><g id="imgs_p2_p3" data-name="imgs p2 p3"><path class="cls-1" d="M19.51,324.82c-81.5,208,104.36,318.3,334,267,50.6-11.31,82.28-30,128.87-8.53,36.4,16.79,52.91,43.28,99.69,46.75,90,6.66,220.33-58.66,287.63-119.95,131.08-119.37,176.93-281.72,69.78-391.83C870.84,47.69,779.8,44.06,678.33,22.49c-84.85-18-161.62-27.26-254.06-20C340.77,9,275.64,15.8,212.69,77.88,145.23,144.38,80.49,208.81,19.51,324.82Z"/><text class="cls-2" transform="translate(272.71 165.58)">Abajur inteligente Xiaomi</text><path class="cls-3" d="M159.74,224.35c0,3.54-.66,6.27-2,8.17a7.13,7.13,0,0,1-11.41,0q-2-2.85-2-8.21c0-3.55.67-6.26,2-8.15a6.58,6.58,0,0,1,5.74-2.84,6.49,6.49,0,0,1,5.68,2.85Q159.74,219,159.74,224.35Zm-11.32,0a13.22,13.22,0,0,0,.92,5.58,2.92,2.92,0,0,0,2.71,1.92q3.6,0,3.6-7.5t-3.57-7.5a2.92,2.92,0,0,0-2.74,1.91A13.21,13.21,0,0,0,148.42,224.35Z"/><path class="cls-3" d="M177.92,235.08l-4.07-18.23h-.16a30.49,30.49,0,0,1,.27,3.86v14.37h-3.69V213.67h6.13l3.66,16.83h.11l3.64-16.83H190v21.41h-3.78V220.57a36,36,0,0,1,.2-3.69h-.11l-4.06,18.2Z"/><path class="cls-3" d="M193.43,214.5A2.07,2.07,0,0,1,194,213a2.14,2.14,0,0,1,1.57-.56,2.09,2.09,0,0,1,1.52.56,2.07,2.07,0,0,1,.57,1.53,2,2,0,0,1-.58,1.55,2.1,2.1,0,0,1-1.51.55,2.16,2.16,0,0,1-1.55-.55A2,2,0,0,1,193.43,214.5Zm4.06,20.58h-3.9V218.77h3.9Z"/><path class="cls-3" d="M200.35,242.29a4.83,4.83,0,0,1-2-.37v-3.23a3.59,3.59,0,0,0,1.26.26q1.38,0,1.38-2.49V218.77h3.89V237a5.9,5.9,0,0,1-1.18,3.94A4.11,4.11,0,0,1,200.35,242.29Zm.45-27.79a2.1,2.1,0,0,1,.56-1.53,2.14,2.14,0,0,1,1.56-.56,2,2,0,0,1,1.54.57,2.09,2.09,0,0,1,.56,1.52,2,2,0,0,1-.57,1.54,2.1,2.1,0,0,1-1.53.56,2.17,2.17,0,0,1-1.53-.54A2,2,0,0,1,200.8,214.5Z"/><path class="cls-3" d="M208,214.5a2.07,2.07,0,0,1,.57-1.53,2.14,2.14,0,0,1,1.57-.56,2.09,2.09,0,0,1,1.52.56,2.07,2.07,0,0,1,.57,1.53,2,2,0,0,1-.58,1.55,2.11,2.11,0,0,1-1.51.55,2.16,2.16,0,0,1-1.55-.55A2,2,0,0,1,208,214.5Zm4.06,20.58h-3.9V218.77h3.9Z"/><path class="cls-3" d="M223.42,235.08l-.78-2.22h-.09a5.53,5.53,0,0,1-1.78,2,4.49,4.49,0,0,1-2.33.55A3.37,3.37,0,0,1,215.6,234a6,6,0,0,1-1-3.75,4.85,4.85,0,0,1,1.41-3.83,6.68,6.68,0,0,1,4.23-1.39l2.17-.08V223.8q0-2.28-2-2.28a6.77,6.77,0,0,0-3.37,1.14L215.68,220a9.68,9.68,0,0,1,5.29-1.54,5.06,5.06,0,0,1,3.95,1.49,6,6,0,0,1,1.35,4.21v11ZM220,232.33a2,2,0,0,0,1.71-1,4.6,4.6,0,0,0,.64-2.56v-1.37l-1.2.06a2.69,2.69,0,0,0-2,.76,2.94,2.94,0,0,0-.62,2.05C218.6,231.66,219.08,232.33,220,232.33Z"/><path class="cls-3" d="M237.07,213.67h5.46q3.34,0,4.87,1.29a5.16,5.16,0,0,1,1.52,4.13,5.6,5.6,0,0,1-.81,3.11,3.24,3.24,0,0,1-2.19,1.52v.14a4.19,4.19,0,0,1,2.62,1.7,6,6,0,0,1,.8,3.31,6.38,6.38,0,0,1-1.56,4.57,5.62,5.62,0,0,1-4.27,1.64h-6.44Zm3.75,8.61h1.83a2.08,2.08,0,0,0,1.77-.67,3.31,3.31,0,0,0,.52-2,2.61,2.61,0,0,0-.59-1.91,2.53,2.53,0,0,0-1.85-.58h-1.68Zm0,3.33v6h2a2.25,2.25,0,0,0,1.85-.76,3.81,3.81,0,0,0,.61-2.36c0-1.92-.84-2.87-2.52-2.87Z"/><path class="cls-3" d="M258.06,235.38a5.9,5.9,0,0,1-4.83-2.18,9.57,9.57,0,0,1-1.76-6.16,10.86,10.86,0,0,1,1.59-6.31,5.13,5.13,0,0,1,4.46-2.27,5,5,0,0,1,4.2,1.94,8.53,8.53,0,0,1,1.54,5.44v2.08h-7.84a5.31,5.31,0,0,0,.9,3.25,2.84,2.84,0,0,0,2.34,1.06,7.63,7.63,0,0,0,3.9-1.19v3.21A8.59,8.59,0,0,1,258.06,235.38Zm-.57-13.92a1.59,1.59,0,0,0-1.38.89,6,6,0,0,0-.63,2.74h4a6,6,0,0,0-.54-2.71A1.59,1.59,0,0,0,257.49,221.46Z"/><path class="cls-3" d="M270.13,235.38a4,4,0,0,1-3.56-2.23,12.3,12.3,0,0,1-1.3-6.2,12.79,12.79,0,0,1,1.27-6.24,3.9,3.9,0,0,1,3.52-2.25A3.31,3.31,0,0,1,272,219a4.85,4.85,0,0,1,1.5,1.85h.24q-.18-2.22-.18-3.12v-5.45h3.9v22.79h-2.9l-.66-2.12h-.13A3.92,3.92,0,0,1,270.13,235.38Zm1.26-3.3a1.66,1.66,0,0,0,1.58-1,9.31,9.31,0,0,0,.54-3.59V227a11.06,11.06,0,0,0-.5-4,1.71,1.71,0,0,0-1.66-1.15c-.73,0-1.25.44-1.58,1.32a11.62,11.62,0,0,0-.49,3.86,11,11,0,0,0,.5,3.8A1.69,1.69,0,0,0,271.39,232.08Z"/><path class="cls-3" d="M289.48,230.31a5,5,0,0,1-1.4,3.73,5.75,5.75,0,0,1-4.12,1.34,7.59,7.59,0,0,1-4-1V231a7.48,7.48,0,0,0,1.88.92,5.87,5.87,0,0,0,1.9.37,1.93,1.93,0,0,0,1.38-.45,1.54,1.54,0,0,0,.48-1.18,1.91,1.91,0,0,0-.5-1.3,8.52,8.52,0,0,0-1.83-1.36,7.63,7.63,0,0,1-2.54-2.25A5.14,5.14,0,0,1,280,223a4.11,4.11,0,0,1,1.43-3.3,5.85,5.85,0,0,1,3.92-1.21,7.86,7.86,0,0,1,4.08,1.14l-1.27,2.8a5.92,5.92,0,0,0-2.76-.85,1.5,1.5,0,0,0-1.12.39,1.41,1.41,0,0,0-.37,1,1.68,1.68,0,0,0,.46,1.17,8.26,8.26,0,0,0,1.72,1.28,11.07,11.07,0,0,1,2.14,1.56,4.59,4.59,0,0,1,.95,1.47A5,5,0,0,1,289.48,230.31Z"/><path class="cls-3" d="M291.81,214.5a2.1,2.1,0,0,1,.56-1.53,2.16,2.16,0,0,1,1.58-.56,2.09,2.09,0,0,1,1.52.56,2.07,2.07,0,0,1,.57,1.53,2,2,0,0,1-.58,1.55,2.11,2.11,0,0,1-1.51.55,2.15,2.15,0,0,1-1.55-.55A2,2,0,0,1,291.81,214.5Zm4.06,20.58H292V218.77h3.9Z"/><path class="cls-3" d="M303.5,235.38a4,4,0,0,1-3.56-2.23,12.3,12.3,0,0,1-1.3-6.2,12.79,12.79,0,0,1,1.27-6.24,3.9,3.9,0,0,1,3.52-2.25,3.31,3.31,0,0,1,1.92.55,4.85,4.85,0,0,1,1.5,1.85h.24q-.18-2.22-.18-3.12v-5.45h3.9v22.79h-2.9l-.66-2.12h-.13A3.92,3.92,0,0,1,303.5,235.38Zm1.26-3.3a1.66,1.66,0,0,0,1.58-1,9.31,9.31,0,0,0,.54-3.59V227a11.29,11.29,0,0,0-.5-4,1.71,1.71,0,0,0-1.66-1.15c-.73,0-1.25.44-1.58,1.32a11.62,11.62,0,0,0-.49,3.86,11,11,0,0,0,.5,3.8A1.69,1.69,0,0,0,304.76,232.08Z"/><path class="cls-3" d="M320.11,235.38a5.9,5.9,0,0,1-4.83-2.18,9.57,9.57,0,0,1-1.76-6.16,10.79,10.79,0,0,1,1.6-6.31,5.11,5.11,0,0,1,4.45-2.27,5,5,0,0,1,4.2,1.94,8.53,8.53,0,0,1,1.54,5.44v2.08h-7.84a5.31,5.31,0,0,0,.9,3.25,2.85,2.85,0,0,0,2.34,1.06,7.63,7.63,0,0,0,3.9-1.19v3.21A8.59,8.59,0,0,1,320.11,235.38Zm-.57-13.92a1.59,1.59,0,0,0-1.38.89,6,6,0,0,0-.63,2.74h4a6,6,0,0,0-.54-2.71A1.58,1.58,0,0,0,319.54,221.46Z"/><path class="cls-3" d="M335.54,235.08V213.67h4V231.6H345v3.48Z"/><path class="cls-3" d="M355.35,235.08l-.77-2.22h-.09a5.55,5.55,0,0,1-1.79,2,4.44,4.44,0,0,1-2.33.55,3.37,3.37,0,0,1-2.83-1.35,6,6,0,0,1-1-3.75,4.85,4.85,0,0,1,1.41-3.83,6.68,6.68,0,0,1,4.23-1.39l2.16-.08V223.8c0-1.52-.65-2.28-2-2.28a6.77,6.77,0,0,0-3.37,1.14L347.62,220a9.66,9.66,0,0,1,5.29-1.54,5.06,5.06,0,0,1,3.95,1.49,6,6,0,0,1,1.35,4.21v11ZM352,232.33a2,2,0,0,0,1.71-1,4.6,4.6,0,0,0,.63-2.56v-1.37l-1.2.06a2.68,2.68,0,0,0-1.95.76,2.94,2.94,0,0,0-.62,2.05C350.54,231.66,351,232.33,352,232.33Z"/><path class="cls-3" d="M377.56,235.08v-9.72c0-2.4-.59-3.59-1.77-3.59a1.91,1.91,0,0,0-1.85,1.28,11.14,11.14,0,0,0-.55,4.11v7.92h-3.93v-9.72c0-2.4-.6-3.59-1.8-3.59a1.9,1.9,0,0,0-1.83,1.27,11.16,11.16,0,0,0-.57,4.21v7.83h-3.9V218.77h3.09l.47,2.09h.25a3.89,3.89,0,0,1,1.6-1.82,4.32,4.32,0,0,1,2.18-.58,3.87,3.87,0,0,1,4,2.83h.15a4.16,4.16,0,0,1,4-2.83,3.85,3.85,0,0,1,3.29,1.52,7.51,7.51,0,0,1,1.12,4.45v10.65Z"/><path class="cls-3" d="M391.92,235.38a3.59,3.59,0,0,1-1.87-.48,4.6,4.6,0,0,1-1.52-1.68h-.2c.15,1.33.23,2.13.23,2.41v6.66h-3.92V218.77h3l.68,2.12h.17a3.82,3.82,0,0,1,3.53-2.43,3.86,3.86,0,0,1,3.49,2.2,12.7,12.7,0,0,1,1.26,6.24,12.46,12.46,0,0,1-1.3,6.22A4,4,0,0,1,391.92,235.38Zm-1.2-13.61a1.7,1.7,0,0,0-1.65,1.06,9,9,0,0,0-.54,3.52v.52a10.75,10.75,0,0,0,.52,3.92,1.74,1.74,0,0,0,1.7,1.23c1.36,0,2.05-1.73,2.05-5.18a10.74,10.74,0,0,0-.51-3.81A1.68,1.68,0,0,0,390.72,221.77Z"/><path class="cls-3" d="M417.85,235.08H406.36v-3l3.81-5.39c1-1.48,1.76-2.59,2.15-3.3a10.44,10.44,0,0,0,.87-2.07,7.73,7.73,0,0,0,.28-2,2.74,2.74,0,0,0-.55-1.85,1.84,1.84,0,0,0-1.43-.61,2.68,2.68,0,0,0-1.45.41,7.73,7.73,0,0,0-1.64,1.48l-2.23-2.35A9.93,9.93,0,0,1,409,214a6.54,6.54,0,0,1,2.85-.64,5.35,5.35,0,0,1,4.05,1.52,5.9,5.9,0,0,1,1.46,4.24,10.33,10.33,0,0,1-.26,2.33,11,11,0,0,1-.8,2.2A18.12,18.12,0,0,1,415,226q-.81,1.2-4.16,5.47v.12h7Z"/><path class="cls-3" d="M434.25,235.38a5.86,5.86,0,0,1-4.82-2.18,9.52,9.52,0,0,1-1.77-6.16,10.79,10.79,0,0,1,1.6-6.31,5.12,5.12,0,0,1,4.45-2.27,5,5,0,0,1,4.2,1.94,8.53,8.53,0,0,1,1.54,5.44v2.08h-7.84a5.31,5.31,0,0,0,.9,3.25,2.85,2.85,0,0,0,2.34,1.06,7.63,7.63,0,0,0,3.9-1.19v3.21A8.59,8.59,0,0,1,434.25,235.38Zm-2.58-18.47v-.4a17.6,17.6,0,0,0,1.39-2.21c.53-1,.91-1.69,1.13-2.2h4.66v.31a11.68,11.68,0,0,1-1.74,2c-.93.93-1.83,1.75-2.7,2.47Zm2,4.55a1.59,1.59,0,0,0-1.38.89,6,6,0,0,0-.63,2.74h4a6,6,0,0,0-.54-2.71A1.58,1.58,0,0,0,433.68,221.46Z"/><path class="cls-3" d="M454.83,235.38a5.13,5.13,0,0,1-4.44-2.13,10.68,10.68,0,0,1-1.52-6.24q0-4.31,1.44-6.43a5,5,0,0,1,4.46-2.12,7.75,7.75,0,0,1,1.91.26,6.71,6.71,0,0,1,1.79.76l-1.12,3a4.36,4.36,0,0,0-2.15-.72,1.87,1.87,0,0,0-1.8,1.29,10.63,10.63,0,0,0-.55,3.89,10.07,10.07,0,0,0,.55,3.79,1.83,1.83,0,0,0,1.77,1.25,5.69,5.69,0,0,0,3.06-1v3.42A6.28,6.28,0,0,1,454.83,235.38Z"/><path class="cls-3" d="M472.66,226.9a10.13,10.13,0,0,1-1.7,6.24,5.91,5.91,0,0,1-8,1.21,6.48,6.48,0,0,1-2.21-2.95,11.94,11.94,0,0,1-.78-4.5,10.07,10.07,0,0,1,1.69-6.21,5.51,5.51,0,0,1,4.67-2.23,5.45,5.45,0,0,1,4.59,2.28A10,10,0,0,1,472.66,226.9Zm-8.67,0a10.32,10.32,0,0,0,.55,3.85,1.87,1.87,0,0,0,1.79,1.3c1.56,0,2.35-1.72,2.35-5.15a9.78,9.78,0,0,0-.57-3.83,1.89,1.89,0,0,0-3.57,0A10,10,0,0,0,464,226.9Z"/><path class="cls-3" d="M491.6,235.08v-9.72c0-2.4-.59-3.59-1.77-3.59a1.91,1.91,0,0,0-1.85,1.28,11.14,11.14,0,0,0-.55,4.11v7.92H483.5v-9.72c0-2.4-.6-3.59-1.8-3.59a1.9,1.9,0,0,0-1.83,1.27,11.16,11.16,0,0,0-.57,4.21v7.83h-3.9V218.77h3.09l.47,2.09h.25a3.89,3.89,0,0,1,1.6-1.82,4.32,4.32,0,0,1,2.18-.58,3.87,3.87,0,0,1,4,2.83h.15a4.16,4.16,0,0,1,4-2.83,3.85,3.85,0,0,1,3.29,1.52,7.51,7.51,0,0,1,1.12,4.45v10.65Z"/><path class="cls-3" d="M506,235.38a3.59,3.59,0,0,1-1.87-.48,4.6,4.6,0,0,1-1.52-1.68h-.2c.15,1.33.23,2.13.23,2.41v6.66h-3.92V218.77h3l.68,2.12h.17a3.82,3.82,0,0,1,3.53-2.43,3.86,3.86,0,0,1,3.49,2.2,12.7,12.7,0,0,1,1.26,6.24,12.57,12.57,0,0,1-1.3,6.22A4,4,0,0,1,506,235.38Zm-1.21-13.61a1.69,1.69,0,0,0-1.64,1.06,9,9,0,0,0-.54,3.52v.52a11,11,0,0,0,.51,3.92,1.76,1.76,0,0,0,1.7,1.23q2.06,0,2.05-5.18a10.78,10.78,0,0,0-.5-3.81A1.68,1.68,0,0,0,504.75,221.77Z"/><path class="cls-3" d="M521.56,235.08l-.78-2.22h-.09a5.46,5.46,0,0,1-1.79,2,4.43,4.43,0,0,1-2.32.55,3.37,3.37,0,0,1-2.84-1.35,6,6,0,0,1-1-3.75,4.85,4.85,0,0,1,1.41-3.83,6.68,6.68,0,0,1,4.23-1.39l2.17-.08V223.8q0-2.28-2-2.28a6.77,6.77,0,0,0-3.37,1.14L513.82,220a9.68,9.68,0,0,1,5.29-1.54,5.06,5.06,0,0,1,3.95,1.49,6,6,0,0,1,1.35,4.21v11Zm-3.39-2.75a2,2,0,0,0,1.71-1,4.6,4.6,0,0,0,.64-2.56v-1.37l-1.21.06a2.68,2.68,0,0,0-1.95.76,2.94,2.94,0,0,0-.62,2.05C516.74,231.66,517.22,232.33,518.17,232.33Z"/><path class="cls-3" d="M533.23,232.08a4.52,4.52,0,0,0,1.77-.41v3.05a5,5,0,0,1-2.85.66,3.82,3.82,0,0,1-3.15-1.27,5.92,5.92,0,0,1-1-3.8v-8.45h-1.58v-1.75l2-1.4,1-3.46h2.49v3.52h3v3.09h-3v8.58C531.91,231.53,532.35,232.08,533.23,232.08Z"/><path class="cls-3" d="M537.29,216.91v-.4a18.84,18.84,0,0,0,1.39-2.21c.53-1,.9-1.69,1.13-2.2h4.66v.31a12.39,12.39,0,0,1-1.75,2c-.92.93-1.82,1.75-2.69,2.47Zm3.92,18.17h-3.89V218.77h3.89Z"/><path class="cls-3" d="M547.16,235.08l-4.26-16.31h4l2.08,9.44c.09.44.19,1.09.32,1.93s.19,1.45.22,1.82h.06a12.15,12.15,0,0,1,.13-1.26c.07-.54.15-1,.22-1.5s.83-3.94,2.26-10.43h4L552,235.08Z"/><path class="cls-3" d="M564,235.38a5.9,5.9,0,0,1-4.83-2.18,9.52,9.52,0,0,1-1.76-6.16,10.86,10.86,0,0,1,1.59-6.31,5.13,5.13,0,0,1,4.46-2.27,5.05,5.05,0,0,1,4.2,1.94,8.53,8.53,0,0,1,1.54,5.44v2.08h-7.84a5.31,5.31,0,0,0,.9,3.25,2.84,2.84,0,0,0,2.34,1.06,7.63,7.63,0,0,0,3.9-1.19v3.21A8.59,8.59,0,0,1,564,235.38Zm-.57-13.92a1.59,1.59,0,0,0-1.38.89,6,6,0,0,0-.63,2.74h4a5.82,5.82,0,0,0-.55-2.71A1.56,1.56,0,0,0,563.38,221.46Z"/><path class="cls-3" d="M575.62,235.08h-3.89V212.29h3.89Z"/><path class="cls-3" d="M591.69,235.38a5.13,5.13,0,0,1-4.44-2.13,10.68,10.68,0,0,1-1.52-6.24q0-4.31,1.44-6.43a5,5,0,0,1,4.46-2.12,7.75,7.75,0,0,1,1.91.26,6.71,6.71,0,0,1,1.79.76l-1.12,3a4.36,4.36,0,0,0-2.15-.72,1.87,1.87,0,0,0-1.8,1.29,10.67,10.67,0,0,0-.54,3.89,10.1,10.1,0,0,0,.54,3.79A1.83,1.83,0,0,0,592,232a5.69,5.69,0,0,0,3.06-1v3.42A6.28,6.28,0,0,1,591.69,235.38Z"/><path class="cls-3" d="M609.52,226.9a10.13,10.13,0,0,1-1.7,6.24,5.91,5.91,0,0,1-8,1.21,6.55,6.55,0,0,1-2.21-2.95,11.94,11.94,0,0,1-.78-4.5,10.14,10.14,0,0,1,1.69-6.21,5.51,5.51,0,0,1,4.67-2.23,5.42,5.42,0,0,1,4.59,2.28A10,10,0,0,1,609.52,226.9Zm-8.67,0a10.32,10.32,0,0,0,.55,3.85,1.87,1.87,0,0,0,1.79,1.3c1.56,0,2.35-1.72,2.35-5.15a9.78,9.78,0,0,0-.57-3.83,1.89,1.89,0,0,0-3.57,0A10,10,0,0,0,600.85,226.9Z"/><path class="cls-3" d="M628.46,235.08v-9.72c0-2.4-.59-3.59-1.77-3.59a1.91,1.91,0,0,0-1.85,1.28,11.14,11.14,0,0,0-.55,4.11v7.92h-3.93v-9.72c0-2.4-.6-3.59-1.8-3.59a1.9,1.9,0,0,0-1.83,1.27,11.16,11.16,0,0,0-.57,4.21v7.83h-3.9V218.77h3.09l.47,2.09h.25a3.89,3.89,0,0,1,1.6-1.82,4.32,4.32,0,0,1,2.18-.58,3.87,3.87,0,0,1,4,2.83H624a4.16,4.16,0,0,1,4-2.83,3.85,3.85,0,0,1,3.29,1.52,7.51,7.51,0,0,1,1.12,4.45v10.65Z"/><path class="cls-3" d="M651,235.08l-.78-2.22h-.09a5.46,5.46,0,0,1-1.79,2,4.43,4.43,0,0,1-2.32.55,3.37,3.37,0,0,1-2.84-1.35,6,6,0,0,1-1-3.75,4.85,4.85,0,0,1,1.41-3.83,6.68,6.68,0,0,1,4.23-1.39l2.17-.08V223.8q0-2.28-2-2.28a6.77,6.77,0,0,0-3.37,1.14L643.21,220a9.68,9.68,0,0,1,5.29-1.54,5.06,5.06,0,0,1,4,1.49,6,6,0,0,1,1.35,4.21v11Zm-3.39-2.75a2,2,0,0,0,1.71-1,4.6,4.6,0,0,0,.64-2.56v-1.37l-1.21.06a2.68,2.68,0,0,0-2,.76,2.94,2.94,0,0,0-.62,2.05C646.13,231.66,646.6,232.33,647.56,232.33Z"/><path class="cls-3" d="M664.23,235.38a3.64,3.64,0,0,1-1.87-.48,4.58,4.58,0,0,1-1.51-1.68h-.21c.16,1.33.24,2.13.24,2.41v6.66H657V218.77h3l.67,2.12h.18a3.82,3.82,0,0,1,3.53-2.43,3.87,3.87,0,0,1,3.49,2.2,12.7,12.7,0,0,1,1.26,6.24,12.46,12.46,0,0,1-1.31,6.22A4,4,0,0,1,664.23,235.38ZM663,221.77a1.71,1.71,0,0,0-1.65,1.06,9.26,9.26,0,0,0-.53,3.52v.52a11,11,0,0,0,.51,3.92,1.75,1.75,0,0,0,1.7,1.23q2.06,0,2.05-5.18a10.74,10.74,0,0,0-.51-3.81A1.67,1.67,0,0,0,663,221.77Z"/><path class="cls-3" d="M675.73,235.08h-3.9V212.29h3.9Z"/><path class="cls-3" d="M678.87,214.5a2.06,2.06,0,0,1,.56-1.53,2.15,2.15,0,0,1,1.57-.56,2.1,2.1,0,0,1,1.53.56,2.07,2.07,0,0,1,.57,1.53,2,2,0,0,1-.59,1.55,2.1,2.1,0,0,1-1.51.55,2.16,2.16,0,0,1-1.55-.55A2,2,0,0,1,678.87,214.5Zm4,20.58H679V218.77h3.89Z"/><path class="cls-3" d="M691.65,235.38a5.1,5.1,0,0,1-4.43-2.13q-1.53-2.12-1.53-6.24,0-4.31,1.45-6.43a5,5,0,0,1,4.46-2.12,7.67,7.67,0,0,1,1.9.26,6.71,6.71,0,0,1,1.79.76l-1.12,3a4.33,4.33,0,0,0-2.15-.72,1.85,1.85,0,0,0-1.79,1.29,10.42,10.42,0,0,0-.55,3.89,10.1,10.1,0,0,0,.54,3.79A1.83,1.83,0,0,0,692,232a5.69,5.69,0,0,0,3.06-1v3.42A6.28,6.28,0,0,1,691.65,235.38Z"/><path class="cls-3" d="M705.39,235.08l-.77-2.22h-.09a5.55,5.55,0,0,1-1.79,2,4.44,4.44,0,0,1-2.33.55,3.37,3.37,0,0,1-2.83-1.35,6,6,0,0,1-1-3.75,4.85,4.85,0,0,1,1.41-3.83,6.68,6.68,0,0,1,4.23-1.39l2.16-.08V223.8c0-1.52-.66-2.28-2-2.28a6.77,6.77,0,0,0-3.37,1.14L697.66,220a9.66,9.66,0,0,1,5.29-1.54,5.06,5.06,0,0,1,3.95,1.49,6,6,0,0,1,1.35,4.21v11ZM702,232.33a2,2,0,0,0,1.71-1,4.6,4.6,0,0,0,.63-2.56v-1.37l-1.2.06a2.66,2.66,0,0,0-1.95.76,2.94,2.94,0,0,0-.63,2.05C700.57,231.66,701.05,232.33,702,232.33Z"/><path class="cls-3" d="M717.07,232.08a4.52,4.52,0,0,0,1.77-.41v3.05a5,5,0,0,1-2.86.66,3.81,3.81,0,0,1-3.14-1.27,5.92,5.92,0,0,1-1-3.8v-8.45h-1.58v-1.75l2-1.4,1-3.46h2.49v3.52h3v3.09h-3v8.58C715.75,231.53,716.19,232.08,717.07,232.08Z"/><path class="cls-3" d="M721,214.5a2.07,2.07,0,0,1,.57-1.53,2.14,2.14,0,0,1,1.57-.56,2.1,2.1,0,0,1,1.53.56,2.07,2.07,0,0,1,.57,1.53,2,2,0,0,1-.59,1.55,2.1,2.1,0,0,1-1.51.55,2.16,2.16,0,0,1-1.55-.55A2,2,0,0,1,721,214.5Zm4.06,20.58h-3.89V218.77h3.89Z"/><path class="cls-3" d="M731,235.08l-4.26-16.31h4l2.08,9.44c.09.44.19,1.09.31,1.93s.2,1.45.23,1.82h.06q0-.44.12-1.26c.08-.54.15-1,.23-1.5s.83-3.94,2.26-10.43h4l-4.28,16.31Z"/><path class="cls-3" d="M753.85,226.9a10.13,10.13,0,0,1-1.7,6.24,5.91,5.91,0,0,1-8,1.21A6.55,6.55,0,0,1,742,231.4a11.94,11.94,0,0,1-.78-4.5,10.14,10.14,0,0,1,1.69-6.21,5.51,5.51,0,0,1,4.67-2.23,5.42,5.42,0,0,1,4.59,2.28A10,10,0,0,1,753.85,226.9Zm-8.67,0a10.09,10.09,0,0,0,.56,3.85,1.85,1.85,0,0,0,1.78,1.3q2.36,0,2.35-5.15a9.78,9.78,0,0,0-.57-3.83,1.88,1.88,0,0,0-3.56,0A9.81,9.81,0,0,0,745.18,226.9Z"/><path class="cls-3" d="M780.2,235.08v-9.72c0-2.4-.59-3.59-1.77-3.59a1.9,1.9,0,0,0-1.84,1.28,10.88,10.88,0,0,0-.56,4.11v7.92H772.1v-9.72c0-2.4-.6-3.59-1.8-3.59a1.9,1.9,0,0,0-1.83,1.27,11.16,11.16,0,0,0-.57,4.21v7.83H764V218.77h3.09l.47,2.09h.25a3.91,3.91,0,0,1,1.61-1.82,4.25,4.25,0,0,1,2.17-.58,3.87,3.87,0,0,1,4,2.83h.15a4.16,4.16,0,0,1,4-2.83A3.84,3.84,0,0,1,783,220a7.44,7.44,0,0,1,1.12,4.45v10.65Z"/><path class="cls-3" d="M787.15,214.5a2.06,2.06,0,0,1,.56-1.53,2.16,2.16,0,0,1,1.58-.56,2.09,2.09,0,0,1,1.52.56,2.07,2.07,0,0,1,.57,1.53,2,2,0,0,1-.59,1.55,2.09,2.09,0,0,1-1.5.55,2.17,2.17,0,0,1-1.56-.55A2,2,0,0,1,787.15,214.5Zm4.05,20.58h-3.89V218.77h3.89Z"/><path class="cls-3" d="M794.06,242.29a4.86,4.86,0,0,1-2-.37v-3.23a3.59,3.59,0,0,0,1.26.26q1.38,0,1.38-2.49V218.77h3.9V237a6,6,0,0,1-1.18,3.94A4.13,4.13,0,0,1,794.06,242.29Zm.46-27.79a2.06,2.06,0,0,1,.56-1.53,2.13,2.13,0,0,1,1.56-.56,2.06,2.06,0,0,1,1.54.57,2.09,2.09,0,0,1,.55,1.52,2,2,0,0,1-.57,1.54,2.09,2.09,0,0,1-1.52.56,2.18,2.18,0,0,1-1.54-.54A2,2,0,0,1,794.52,214.5Z"/><path class="cls-3" d="M801.74,214.5a2.06,2.06,0,0,1,.56-1.53,2.16,2.16,0,0,1,1.58-.56,2.09,2.09,0,0,1,1.52.56,2.07,2.07,0,0,1,.57,1.53,2,2,0,0,1-.59,1.55,2.09,2.09,0,0,1-1.5.55,2.17,2.17,0,0,1-1.56-.55A2,2,0,0,1,801.74,214.5Zm4,20.58H801.9V218.77h3.89Z"/><path class="cls-3" d="M817.13,235.08l-.77-2.22h-.09a5.55,5.55,0,0,1-1.79,2,4.44,4.44,0,0,1-2.33.55,3.37,3.37,0,0,1-2.83-1.35,6,6,0,0,1-1-3.75,4.86,4.86,0,0,1,1.42-3.83,6.67,6.67,0,0,1,4.22-1.39l2.17-.08V223.8q0-2.28-2-2.28a6.77,6.77,0,0,0-3.36,1.14L809.4,220a9.66,9.66,0,0,1,5.29-1.54,5,5,0,0,1,3.94,1.49,6,6,0,0,1,1.36,4.21v11Zm-3.38-2.75a2,2,0,0,0,1.71-1,4.6,4.6,0,0,0,.63-2.56v-1.37l-1.2.06a2.66,2.66,0,0,0-1.95.76,2.94,2.94,0,0,0-.63,2.05C812.31,231.66,812.79,232.33,813.75,232.33Z"/><path class="cls-3" d="M836.57,235.38a5.9,5.9,0,0,1-4.83-2.18A9.57,9.57,0,0,1,830,227a10.79,10.79,0,0,1,1.6-6.31,5.11,5.11,0,0,1,4.45-2.27,5,5,0,0,1,4.2,1.94,8.53,8.53,0,0,1,1.54,5.44v2.08h-7.84a5.31,5.31,0,0,0,.9,3.25,2.85,2.85,0,0,0,2.34,1.06,7.63,7.63,0,0,0,3.9-1.19v3.21A8.59,8.59,0,0,1,836.57,235.38ZM836,221.46a1.59,1.59,0,0,0-1.38.89,6,6,0,0,0-.63,2.74h4a6,6,0,0,0-.54-2.71A1.58,1.58,0,0,0,836,221.46Z"/><path class="cls-3" d="M859.76,235.08l-.78-2.22h-.08a5.64,5.64,0,0,1-1.79,2,4.47,4.47,0,0,1-2.33.55,3.39,3.39,0,0,1-2.84-1.35,6.1,6.1,0,0,1-1-3.75,4.85,4.85,0,0,1,1.41-3.83,6.73,6.73,0,0,1,4.23-1.39l2.17-.08V223.8q0-2.28-2-2.28a6.8,6.8,0,0,0-3.37,1.14L852,220a9.71,9.71,0,0,1,5.29-1.54,5,5,0,0,1,4,1.49,6,6,0,0,1,1.36,4.21v11Zm-3.38-2.75a2,2,0,0,0,1.7-1,4.52,4.52,0,0,0,.64-2.56v-1.37l-1.2.06a2.7,2.7,0,0,0-2,.76,3,3,0,0,0-.62,2.05C854.94,231.66,855.42,232.33,856.38,232.33Z"/><path class="cls-3" d="M873.05,235.38a3.59,3.59,0,0,1-1.87-.48,4.6,4.6,0,0,1-1.52-1.68h-.2c.15,1.33.23,2.13.23,2.41v6.66h-3.92V218.77h3l.68,2.12h.17a3.82,3.82,0,0,1,3.53-2.43,3.86,3.86,0,0,1,3.49,2.2,12.7,12.7,0,0,1,1.26,6.24,12.46,12.46,0,0,1-1.31,6.22A4,4,0,0,1,873.05,235.38Zm-1.21-13.61a1.69,1.69,0,0,0-1.64,1.06,9,9,0,0,0-.54,3.52v.52a11,11,0,0,0,.51,3.92,1.76,1.76,0,0,0,1.7,1.23q2.05,0,2-5.18a10.78,10.78,0,0,0-.5-3.81A1.68,1.68,0,0,0,871.84,221.77Z"/><path class="cls-3" d="M887.93,235.38a3.62,3.62,0,0,1-1.87-.48,4.6,4.6,0,0,1-1.52-1.68h-.2c.16,1.33.23,2.13.23,2.41v6.66h-3.92V218.77h3l.67,2.12h.18a3.81,3.81,0,0,1,3.53-2.43,3.86,3.86,0,0,1,3.48,2.2,12.7,12.7,0,0,1,1.26,6.24,12.46,12.46,0,0,1-1.3,6.22A4,4,0,0,1,887.93,235.38Zm-1.2-13.61a1.71,1.71,0,0,0-1.65,1.06,9,9,0,0,0-.54,3.52v.52a11,11,0,0,0,.52,3.92,1.75,1.75,0,0,0,1.7,1.23c1.36,0,2-1.73,2-5.18a10.74,10.74,0,0,0-.51-3.81A1.67,1.67,0,0,0,886.73,221.77Z"/><path class="cls-3" d="M899.43,235.08h-3.9V212.29h3.9Z"/><path class="cls-3" d="M908.71,235.38a5.86,5.86,0,0,1-4.82-2.18,9.52,9.52,0,0,1-1.77-6.16,10.79,10.79,0,0,1,1.6-6.31,5.52,5.52,0,0,1,8.66-.33,8.59,8.59,0,0,1,1.53,5.44v2.08h-7.83a5.32,5.32,0,0,0,.89,3.25,2.86,2.86,0,0,0,2.34,1.06,7.63,7.63,0,0,0,3.9-1.19v3.21A8.59,8.59,0,0,1,908.71,235.38Zm-.57-13.92a1.59,1.59,0,0,0-1.37.89,5.72,5.72,0,0,0-.63,2.74h4a6,6,0,0,0-.54-2.71A1.57,1.57,0,0,0,908.14,221.46Z"/><path class="cls-3" d="M152.9,271.08v-9.72c0-2.4-.6-3.59-1.8-3.59a1.92,1.92,0,0,0-1.89,1.41,11.91,11.91,0,0,0-.54,4.07v7.83h-3.9V248.29h3.9v5.07c0,.65-.06,1.82-.18,3.5h.2a3.83,3.83,0,0,1,3.61-2.4,4,4,0,0,1,3.38,1.51,7.37,7.37,0,0,1,1.14,4.46v10.65Z"/><path class="cls-3" d="M172.06,262.9a10.13,10.13,0,0,1-1.7,6.24,5.91,5.91,0,0,1-8,1.21,6.48,6.48,0,0,1-2.21-3,11.94,11.94,0,0,1-.78-4.5,10.07,10.07,0,0,1,1.69-6.21,5.51,5.51,0,0,1,4.67-2.23,5.45,5.45,0,0,1,4.59,2.28A10,10,0,0,1,172.06,262.9Zm-8.67,0a10.32,10.32,0,0,0,.55,3.85,1.86,1.86,0,0,0,1.79,1.3q2.34,0,2.34-5.15a9.81,9.81,0,0,0-.56-3.83,1.89,1.89,0,0,0-3.57,0A10,10,0,0,0,163.39,262.9Z"/><path class="cls-3" d="M191,271.08v-9.72c0-2.4-.59-3.59-1.77-3.59a1.91,1.91,0,0,0-1.85,1.28,11.09,11.09,0,0,0-.56,4.11v7.92H182.9v-9.72c0-2.4-.6-3.59-1.8-3.59a1.9,1.9,0,0,0-1.83,1.27,11.12,11.12,0,0,0-.58,4.21v7.83H174.8V254.77h3.09l.47,2.09h.25a3.89,3.89,0,0,1,1.6-1.82,4.29,4.29,0,0,1,2.18-.58,3.87,3.87,0,0,1,4,2.83h.15a4.16,4.16,0,0,1,4-2.83,3.85,3.85,0,0,1,3.29,1.52,7.51,7.51,0,0,1,1.12,4.45v10.65Z"/><path class="cls-3" d="M204.1,271.38a5.87,5.87,0,0,1-4.83-2.18A9.52,9.52,0,0,1,197.5,263a10.86,10.86,0,0,1,1.6-6.31,5.52,5.52,0,0,1,8.66-.33,8.59,8.59,0,0,1,1.54,5.44v2.08h-7.84a5.38,5.38,0,0,0,.89,3.25,2.87,2.87,0,0,0,2.35,1.06,7.59,7.59,0,0,0,3.89-1.19v3.21A8.58,8.58,0,0,1,204.1,271.38Zm-.58-13.92a1.59,1.59,0,0,0-1.37.89,6,6,0,0,0-.63,2.74h3.95a6,6,0,0,0-.54-2.71A1.57,1.57,0,0,0,203.52,257.46Z"/><path class="cls-3" d="M215.71,262.29l1-1.94,3.23-5.58h4.13l-4.13,6.69,4.4,9.62h-4.08l-3-6.9-1.52,1.38v5.52h-3.9V248.29h3.9V259l-.18,3.26Z"/><path class="cls-3" d="M225.88,250.5a2.06,2.06,0,0,1,.56-1.53,2.16,2.16,0,0,1,1.58-.56,2.09,2.09,0,0,1,1.52.56,2.07,2.07,0,0,1,.57,1.53,2,2,0,0,1-.59,1.55,2.09,2.09,0,0,1-1.5.55,2.17,2.17,0,0,1-1.56-.55A2,2,0,0,1,225.88,250.5Zm4.06,20.58H226V254.77h3.9Z"/><path class="cls-3" d="M238.94,268.08a4.61,4.61,0,0,0,1.78-.41v3.05a5.06,5.06,0,0,1-2.86.66,3.82,3.82,0,0,1-3.15-1.27,6,6,0,0,1-1-3.8v-8.45H232.1v-1.75l2-1.4,1-3.46h2.49v3.52h3v3.09h-3v8.58C237.63,267.53,238.06,268.08,238.94,268.08Z"/><path class="cls-3" d="M247.65,267.93a45.32,45.32,0,0,1-2.58,7h-3q1-3.9,1.48-7.35h3.87Z"/><path class="cls-3" d="M270.6,262.9a10.13,10.13,0,0,1-1.7,6.24,5.91,5.91,0,0,1-8,1.21,6.48,6.48,0,0,1-2.21-3,11.94,11.94,0,0,1-.78-4.5,10.07,10.07,0,0,1,1.69-6.21,5.51,5.51,0,0,1,4.67-2.23,5.45,5.45,0,0,1,4.59,2.28A10,10,0,0,1,270.6,262.9Zm-8.67,0a10.32,10.32,0,0,0,.55,3.85,1.86,1.86,0,0,0,1.79,1.3q2.34,0,2.34-5.15a9.81,9.81,0,0,0-.56-3.83,1.89,1.89,0,0,0-3.57,0A10,10,0,0,0,261.93,262.9Z"/><path class="cls-3" d="M285,271.38a4,4,0,0,1-3.57-2.23,12.42,12.42,0,0,1-1.29-6.2,12.74,12.74,0,0,1,1.27-6.24,3.87,3.87,0,0,1,3.49-2.25,3.51,3.51,0,0,1,2,.55,5,5,0,0,1,1.51,1.85h.2l.43-2.09h3.29v23.52h-3.89v-6.87c0-.35.05-1.17.17-2.46h-.15A4.59,4.59,0,0,1,287,270.8,3.49,3.49,0,0,1,285,271.38Zm1.19-3.27a1.71,1.71,0,0,0,1.66-1.06,9,9,0,0,0,.54-3.52V263a10.75,10.75,0,0,0-.52-3.92,1.74,1.74,0,0,0-1.68-1.23q-2,0-2,5.18a11.46,11.46,0,0,0,.49,3.85A1.66,1.66,0,0,0,286.23,268.11Z"/><path class="cls-3" d="M304.45,271.08,304,269h-.21a4.14,4.14,0,0,1-3.83,2.39,3.9,3.9,0,0,1-3.33-1.5,7.34,7.34,0,0,1-1.13-4.46V254.77h3.94v9.71a6.45,6.45,0,0,0,.43,2.69,1.42,1.42,0,0,0,1.37.91,1.92,1.92,0,0,0,1.84-1.26,10.93,10.93,0,0,0,.58-4.23v-7.82h3.94v16.31Z"/><path class="cls-3" d="M316.86,271.38A5.9,5.9,0,0,1,312,269.2a9.52,9.52,0,0,1-1.76-6.16,10.86,10.86,0,0,1,1.59-6.31,5.13,5.13,0,0,1,4.46-2.27,5.05,5.05,0,0,1,4.2,1.94,8.53,8.53,0,0,1,1.54,5.44v2.08h-7.84a5.31,5.31,0,0,0,.9,3.25,2.84,2.84,0,0,0,2.34,1.06,7.63,7.63,0,0,0,3.9-1.19v3.21A8.59,8.59,0,0,1,316.86,271.38Zm-.57-13.92a1.59,1.59,0,0,0-1.38.89,6,6,0,0,0-.63,2.74h4a5.82,5.82,0,0,0-.55-2.71A1.56,1.56,0,0,0,316.29,257.46Z"/><path class="cls-3" d="M339.33,271.38a3.62,3.62,0,0,1-1.87-.48,4.5,4.5,0,0,1-1.51-1.68h-.21c.16,1.33.24,2.13.24,2.41v6.66h-3.93V254.77h3l.67,2.12h.18a3.81,3.81,0,0,1,3.53-2.43,3.86,3.86,0,0,1,3.48,2.2,12.7,12.7,0,0,1,1.26,6.24,12.46,12.46,0,0,1-1.3,6.22A4,4,0,0,1,339.33,271.38Zm-1.2-13.61a1.71,1.71,0,0,0-1.65,1.06,9.06,9.06,0,0,0-.53,3.52v.52a11,11,0,0,0,.51,3.92,1.75,1.75,0,0,0,1.7,1.23c1.36,0,2-1.73,2-5.18a10.74,10.74,0,0,0-.51-3.81A1.67,1.67,0,0,0,338.13,257.77Z"/><path class="cls-3" d="M359,262.9a10.13,10.13,0,0,1-1.7,6.24,5.91,5.91,0,0,1-8,1.21,6.42,6.42,0,0,1-2.21-3,11.94,11.94,0,0,1-.78-4.5,10.07,10.07,0,0,1,1.69-6.21,5.51,5.51,0,0,1,4.67-2.23,5.45,5.45,0,0,1,4.59,2.28A10,10,0,0,1,359,262.9Zm-8.67,0a10.32,10.32,0,0,0,.55,3.85,1.86,1.86,0,0,0,1.79,1.3q2.34,0,2.34-5.15a10,10,0,0,0-.56-3.83,1.89,1.89,0,0,0-3.57,0A10,10,0,0,0,350.35,262.9Z"/><path class="cls-3" d="M370.52,266.31a5,5,0,0,1-1.4,3.73,5.78,5.78,0,0,1-4.13,1.34,7.62,7.62,0,0,1-4-1V267a7.55,7.55,0,0,0,1.89.92,5.86,5.86,0,0,0,1.89.37,2,2,0,0,0,1.39-.45,1.53,1.53,0,0,0,.47-1.18,1.9,1.9,0,0,0-.49-1.3,9.08,9.08,0,0,0-1.83-1.36,7.68,7.68,0,0,1-2.55-2.25A5.14,5.14,0,0,1,361,259a4.11,4.11,0,0,1,1.43-3.3,5.85,5.85,0,0,1,3.92-1.21,7.87,7.87,0,0,1,4.09,1.14l-1.28,2.8a5.89,5.89,0,0,0-2.75-.85,1.48,1.48,0,0,0-1.12.39,1.37,1.37,0,0,0-.37,1,1.68,1.68,0,0,0,.46,1.17,8.26,8.26,0,0,0,1.72,1.28,11.4,11.4,0,0,1,2.14,1.56,4.76,4.76,0,0,1,.95,1.47A5.14,5.14,0,0,1,370.52,266.31Z"/><path class="cls-3" d="M381.74,266.31a5,5,0,0,1-1.4,3.73,5.78,5.78,0,0,1-4.13,1.34,7.56,7.56,0,0,1-4-1V267a7.32,7.32,0,0,0,1.88.92,5.86,5.86,0,0,0,1.89.37,2,2,0,0,0,1.39-.45,1.53,1.53,0,0,0,.47-1.18,1.9,1.9,0,0,0-.49-1.3,9.08,9.08,0,0,0-1.83-1.36,7.68,7.68,0,0,1-2.55-2.25,5.13,5.13,0,0,1-.76-2.82,4.11,4.11,0,0,1,1.42-3.3,5.87,5.87,0,0,1,3.92-1.21,7.87,7.87,0,0,1,4.09,1.14l-1.28,2.8a5.89,5.89,0,0,0-2.75-.85,1.48,1.48,0,0,0-1.12.39,1.37,1.37,0,0,0-.37,1,1.68,1.68,0,0,0,.46,1.17,8.26,8.26,0,0,0,1.72,1.28,11.4,11.4,0,0,1,2.14,1.56,4.59,4.59,0,0,1,.95,1.47A5.14,5.14,0,0,1,381.74,266.31Z"/><path class="cls-3" d="M384.07,250.5a2.06,2.06,0,0,1,.56-1.53,2.15,2.15,0,0,1,1.57-.56,2.1,2.1,0,0,1,1.53.56,2.07,2.07,0,0,1,.57,1.53,2,2,0,0,1-.59,1.55,2.1,2.1,0,0,1-1.51.55,2.16,2.16,0,0,1-1.55-.55A2,2,0,0,1,384.07,250.5Zm4.05,20.58h-3.89V254.77h3.89Z"/><path class="cls-3" d="M398.83,254.46a3.9,3.9,0,0,1,3.5,2.21,12.56,12.56,0,0,1,1.28,6.23,12.7,12.7,0,0,1-1.28,6.27,4,4,0,0,1-3.56,2.21,3.85,3.85,0,0,1-1.94-.48,4.8,4.8,0,0,1-1.59-1.68H395l-.66,1.86h-2.87V248.29h3.9v5.33c0,.23,0,.46,0,.71s-.08,1.09-.2,2.56h.21a5,5,0,0,1,1.55-1.89A3.47,3.47,0,0,1,398.83,254.46Zm-1.35,3.31a1.66,1.66,0,0,0-1.6,1,9.67,9.67,0,0,0-.52,3.66v.4a11.29,11.29,0,0,0,.5,4,1.71,1.71,0,0,0,1.65,1.15q2.12,0,2.11-5.18T397.48,257.77Z"/><path class="cls-3" d="M406.21,250.5a2.07,2.07,0,0,1,.57-1.53,2.14,2.14,0,0,1,1.57-.56,2.1,2.1,0,0,1,1.53.56,2.07,2.07,0,0,1,.57,1.53,2,2,0,0,1-.59,1.55,2.1,2.1,0,0,1-1.51.55,2.16,2.16,0,0,1-1.55-.55A2,2,0,0,1,406.21,250.5Zm4.06,20.58h-3.89V254.77h3.89Z"/><path class="cls-3" d="M417.51,271.08h-3.9V248.29h3.9Z"/><path class="cls-3" d="M420.64,250.5a2.07,2.07,0,0,1,.57-1.53,2.42,2.42,0,0,1,3.1,0,2.07,2.07,0,0,1,.57,1.53,2,2,0,0,1-.59,1.55,2.1,2.1,0,0,1-1.51.55,2.16,2.16,0,0,1-1.55-.55A2,2,0,0,1,420.64,250.5Zm4.06,20.58h-3.9V254.77h3.9Z"/><path class="cls-3" d="M433.71,268.08a4.52,4.52,0,0,0,1.77-.41v3.05a5,5,0,0,1-2.85.66,3.82,3.82,0,0,1-3.15-1.27,5.92,5.92,0,0,1-1-3.8v-8.45h-1.58v-1.75l2-1.4,1-3.46h2.49v3.52h3v3.09h-3v8.58C432.39,267.53,432.83,268.08,433.71,268.08Z"/><path class="cls-3" d="M445.77,271.08l-.78-2.22h-.09a5.55,5.55,0,0,1-1.79,2,4.44,4.44,0,0,1-2.33.55A3.37,3.37,0,0,1,438,270a6,6,0,0,1-1-3.75,4.85,4.85,0,0,1,1.41-3.83,6.68,6.68,0,0,1,4.23-1.39l2.17-.08V259.8q0-2.28-2-2.28a6.77,6.77,0,0,0-3.37,1.14L438,256a9.66,9.66,0,0,1,5.29-1.54,5.06,5.06,0,0,1,3.95,1.49,6,6,0,0,1,1.35,4.21v10.95Zm-3.39-2.75a2,2,0,0,0,1.71-1,4.6,4.6,0,0,0,.64-2.56v-1.37l-1.21.06a2.68,2.68,0,0,0-1.95.76,2.94,2.94,0,0,0-.62,2.05C441,267.66,441.42,268.33,442.38,268.33Z"/><path class="cls-3" d="M471.27,262.9a10.13,10.13,0,0,1-1.7,6.24,5.91,5.91,0,0,1-8,1.21,6.48,6.48,0,0,1-2.21-3,11.94,11.94,0,0,1-.78-4.5,10.07,10.07,0,0,1,1.69-6.21,5.51,5.51,0,0,1,4.67-2.23,5.45,5.45,0,0,1,4.59,2.28A10,10,0,0,1,471.27,262.9Zm-8.67,0a10.32,10.32,0,0,0,.55,3.85,1.86,1.86,0,0,0,1.79,1.3q2.34,0,2.34-5.15a9.81,9.81,0,0,0-.56-3.83,1.89,1.89,0,0,0-3.57,0A10,10,0,0,0,462.6,262.9Z"/><path class="cls-3" d="M486.81,271.38a5.13,5.13,0,0,1-4.44-2.13,10.68,10.68,0,0,1-1.52-6.24q0-4.31,1.44-6.43a5,5,0,0,1,4.46-2.12,7.75,7.75,0,0,1,1.91.26,6.5,6.5,0,0,1,1.78.76l-1.11,3a4.36,4.36,0,0,0-2.15-.72,1.87,1.87,0,0,0-1.8,1.29,10.63,10.63,0,0,0-.55,3.89,10.1,10.1,0,0,0,.54,3.79,1.86,1.86,0,0,0,1.78,1.25,5.74,5.74,0,0,0,3.06-1v3.42A6.31,6.31,0,0,1,486.81,271.38Z"/><path class="cls-3" d="M504.64,262.9a10.13,10.13,0,0,1-1.7,6.24,5.91,5.91,0,0,1-8,1.21,6.42,6.42,0,0,1-2.21-3,11.94,11.94,0,0,1-.78-4.5,10.07,10.07,0,0,1,1.69-6.21,5.51,5.51,0,0,1,4.67-2.23,5.45,5.45,0,0,1,4.59,2.28A10,10,0,0,1,504.64,262.9Zm-8.67,0a10.32,10.32,0,0,0,.55,3.85,1.86,1.86,0,0,0,1.79,1.3q2.34,0,2.34-5.15a10,10,0,0,0-.56-3.83,1.89,1.89,0,0,0-3.57,0A10,10,0,0,0,496,262.9Z"/><path class="cls-3" d="M515.51,271.08v-9.72a6.6,6.6,0,0,0-.43-2.68,1.42,1.42,0,0,0-1.38-.91,1.93,1.93,0,0,0-1.84,1.25,10.86,10.86,0,0,0-.59,4.23v7.83h-3.89V254.77h3.09l.47,2.09h.25a4,4,0,0,1,3.8-2.4,3.87,3.87,0,0,1,3.34,1.52,7.59,7.59,0,0,1,1.1,4.45v10.65Z"/><path class="cls-3" d="M528.25,268.08a4.52,4.52,0,0,0,1.77-.41v3.05a5,5,0,0,1-2.85.66,3.82,3.82,0,0,1-3.15-1.27,5.92,5.92,0,0,1-1-3.8v-8.45h-1.58v-1.75l2-1.4,1-3.46h2.49v3.52h3v3.09h-3v8.58C526.93,267.53,527.37,268.08,528.25,268.08Z"/><path class="cls-3" d="M539.27,254.46a4.5,4.5,0,0,1,1.4.22l-.45,3.78a3.2,3.2,0,0,0-1.07-.15,2.46,2.46,0,0,0-2.18,1.12,5.77,5.77,0,0,0-.77,3.26v8.39h-3.89V254.77h3.21l.44,2.54h.13a6,6,0,0,1,1.4-2.19A2.64,2.64,0,0,1,539.27,254.46Z"/><path class="cls-3" d="M554.5,262.9a10.13,10.13,0,0,1-1.7,6.24,5.91,5.91,0,0,1-8,1.21,6.55,6.55,0,0,1-2.21-3,11.94,11.94,0,0,1-.78-4.5,10.14,10.14,0,0,1,1.69-6.21,5.51,5.51,0,0,1,4.67-2.23,5.42,5.42,0,0,1,4.59,2.28A10,10,0,0,1,554.5,262.9Zm-8.67,0a10.09,10.09,0,0,0,.56,3.85,1.85,1.85,0,0,0,1.78,1.3c1.56,0,2.35-1.72,2.35-5.15a9.78,9.78,0,0,0-.57-3.83,1.88,1.88,0,0,0-3.56,0A9.81,9.81,0,0,0,545.83,262.9Z"/><path class="cls-3" d="M561.14,271.08h-3.9V248.29h3.9Z"/><path class="cls-3" d="M570.42,271.38a5.86,5.86,0,0,1-4.82-2.18,9.52,9.52,0,0,1-1.77-6.16,10.79,10.79,0,0,1,1.6-6.31,5.52,5.52,0,0,1,8.66-.33,8.59,8.59,0,0,1,1.53,5.44v2.08h-7.83a5.32,5.32,0,0,0,.89,3.25,2.86,2.86,0,0,0,2.34,1.06,7.63,7.63,0,0,0,3.9-1.19v3.21A8.59,8.59,0,0,1,570.42,271.38Zm-.57-13.92a1.59,1.59,0,0,0-1.37.89,5.72,5.72,0,0,0-.63,2.74h3.95a6,6,0,0,0-.54-2.71A1.57,1.57,0,0,0,569.85,257.46Z"/><path class="cls-3" d="M589.91,271.38a4,4,0,0,1-3.56-2.23A12.3,12.3,0,0,1,585,263a12.78,12.78,0,0,1,1.28-6.24,3.9,3.9,0,0,1,3.51-2.25,3.34,3.34,0,0,1,1.93.55,5,5,0,0,1,1.5,1.85h.23c-.11-1.48-.17-2.52-.17-3.12v-5.45h3.9v22.79h-2.91l-.65-2.12h-.14A3.91,3.91,0,0,1,589.91,271.38Zm1.26-3.3a1.66,1.66,0,0,0,1.58-1,9.31,9.31,0,0,0,.54-3.59V263a11,11,0,0,0-.51-4,1.7,1.7,0,0,0-1.66-1.15c-.72,0-1.25.44-1.57,1.32a11.62,11.62,0,0,0-.49,3.86,11,11,0,0,0,.49,3.8A1.7,1.7,0,0,0,591.17,268.08Z"/><path class="cls-3" d="M608.49,271.08l-.77-2.22h-.09a5.55,5.55,0,0,1-1.79,2,4.44,4.44,0,0,1-2.33.55,3.37,3.37,0,0,1-2.83-1.35,6,6,0,0,1-1-3.75,4.85,4.85,0,0,1,1.41-3.83,6.68,6.68,0,0,1,4.23-1.39l2.16-.08V259.8c0-1.52-.65-2.28-2-2.28a6.77,6.77,0,0,0-3.37,1.14L600.76,256a9.66,9.66,0,0,1,5.29-1.54,5.06,5.06,0,0,1,4,1.49,6,6,0,0,1,1.35,4.21v10.95Zm-3.38-2.75a2,2,0,0,0,1.71-1,4.6,4.6,0,0,0,.63-2.56v-1.37l-1.2.06a2.66,2.66,0,0,0-2,.76,2.94,2.94,0,0,0-.62,2.05C603.68,267.66,604.15,268.33,605.11,268.33Z"/><path class="cls-3" d="M625.81,271.08h-3.9V248.29h3.9Z"/><path class="cls-3" d="M637.07,271.08l-.77-2.22h-.09a5.55,5.55,0,0,1-1.79,2,4.44,4.44,0,0,1-2.33.55,3.37,3.37,0,0,1-2.83-1.35,6,6,0,0,1-1-3.75,4.85,4.85,0,0,1,1.41-3.83,6.68,6.68,0,0,1,4.23-1.39L636,261V259.8c0-1.52-.66-2.28-2-2.28a6.77,6.77,0,0,0-3.37,1.14L629.34,256a9.66,9.66,0,0,1,5.29-1.54,5,5,0,0,1,3.94,1.49,6,6,0,0,1,1.36,4.21v10.95Zm.36-18.16a17.59,17.59,0,0,1-2.77-2.61,22.22,22.22,0,0,1-2.73,2.61h-2.46v-.4a35.14,35.14,0,0,0,3.18-4.4h4.06a38.62,38.62,0,0,0,3.18,4.4v.4Zm-3.74,15.41a2,2,0,0,0,1.71-1,4.6,4.6,0,0,0,.63-2.56v-1.37l-1.2.06a2.66,2.66,0,0,0-2,.76,2.94,2.94,0,0,0-.63,2.05C632.25,267.66,632.73,268.33,633.69,268.33Z"/><path class="cls-3" d="M659.28,271.08v-9.72c0-2.4-.59-3.59-1.77-3.59a1.91,1.91,0,0,0-1.85,1.28,11.14,11.14,0,0,0-.55,4.11v7.92h-3.93v-9.72c0-2.4-.6-3.59-1.8-3.59a1.9,1.9,0,0,0-1.83,1.27,11.16,11.16,0,0,0-.57,4.21v7.83h-3.9V254.77h3.09l.47,2.09h.25a3.89,3.89,0,0,1,1.6-1.82,4.32,4.32,0,0,1,2.18-.58,3.87,3.87,0,0,1,4,2.83h.15a4.16,4.16,0,0,1,4-2.83,3.85,3.85,0,0,1,3.29,1.52,7.51,7.51,0,0,1,1.12,4.45v10.65Z"/><path class="cls-3" d="M673.64,271.38a3.59,3.59,0,0,1-1.87-.48,4.6,4.6,0,0,1-1.52-1.68h-.2c.15,1.33.23,2.13.23,2.41v6.66h-3.92V254.77h3l.68,2.12h.17a3.82,3.82,0,0,1,3.53-2.43,3.86,3.86,0,0,1,3.49,2.2,12.7,12.7,0,0,1,1.26,6.24,12.57,12.57,0,0,1-1.3,6.22A4,4,0,0,1,673.64,271.38Zm-1.2-13.61a1.69,1.69,0,0,0-1.65,1.06,9,9,0,0,0-.54,3.52v.52a10.75,10.75,0,0,0,.52,3.92,1.74,1.74,0,0,0,1.69,1.23q2.06,0,2.06-5.18A10.74,10.74,0,0,0,674,259,1.68,1.68,0,0,0,672.44,257.77Z"/><path class="cls-3" d="M689.24,271.08l-.78-2.22h-.09a5.53,5.53,0,0,1-1.78,2,4.49,4.49,0,0,1-2.33.55,3.39,3.39,0,0,1-2.84-1.35,6,6,0,0,1-1-3.75,4.85,4.85,0,0,1,1.41-3.83,6.68,6.68,0,0,1,4.23-1.39l2.17-.08V259.8q0-2.28-2-2.28a6.77,6.77,0,0,0-3.37,1.14L681.5,256a9.68,9.68,0,0,1,5.29-1.54,5.06,5.06,0,0,1,4,1.49,6,6,0,0,1,1.35,4.21v10.95Zm-3.39-2.75a2,2,0,0,0,1.71-1,4.6,4.6,0,0,0,.64-2.56v-1.37l-1.2.06a2.69,2.69,0,0,0-2,.76,2.94,2.94,0,0,0-.62,2.05C684.42,267.66,684.9,268.33,685.85,268.33Z"/><path class="cls-3" d="M699.53,271.38a4,4,0,0,1-3.55-2.23,12.3,12.3,0,0,1-1.31-6.2,12.78,12.78,0,0,1,1.28-6.24,3.9,3.9,0,0,1,3.51-2.25,3.34,3.34,0,0,1,1.93.55,5,5,0,0,1,1.5,1.85h.23c-.11-1.48-.17-2.52-.17-3.12v-5.45h3.89v22.79h-2.9l-.66-2.12h-.13A3.91,3.91,0,0,1,699.53,271.38Zm1.26-3.3a1.67,1.67,0,0,0,1.59-1,9.31,9.31,0,0,0,.54-3.59V263a11,11,0,0,0-.51-4,1.7,1.7,0,0,0-1.66-1.15c-.72,0-1.25.44-1.57,1.32a11.62,11.62,0,0,0-.49,3.86,11,11,0,0,0,.49,3.8A1.7,1.7,0,0,0,700.79,268.08Z"/><path class="cls-3" d="M718.12,271.08l-.77-2.22h-.09a5.55,5.55,0,0,1-1.79,2,4.44,4.44,0,0,1-2.33.55,3.37,3.37,0,0,1-2.83-1.35,6,6,0,0,1-1-3.75,4.85,4.85,0,0,1,1.41-3.83,6.68,6.68,0,0,1,4.23-1.39l2.16-.08V259.8c0-1.52-.66-2.28-2-2.28a6.77,6.77,0,0,0-3.37,1.14L710.39,256a9.66,9.66,0,0,1,5.29-1.54,5,5,0,0,1,3.94,1.49,6,6,0,0,1,1.36,4.21v10.95Zm-3.38-2.75a2,2,0,0,0,1.71-1,4.6,4.6,0,0,0,.63-2.56v-1.37l-1.2.06a2.66,2.66,0,0,0-2,.76,2.94,2.94,0,0,0-.63,2.05C713.3,267.66,713.78,268.33,714.74,268.33Z"/><path class="cls-3" d="M739.54,271.08l-.78-2.22h-.08a5.64,5.64,0,0,1-1.79,2,4.47,4.47,0,0,1-2.33.55,3.39,3.39,0,0,1-2.84-1.35,6.1,6.1,0,0,1-1-3.75,4.85,4.85,0,0,1,1.41-3.83,6.73,6.73,0,0,1,4.23-1.39l2.17-.08V259.8q0-2.28-2-2.28a6.8,6.8,0,0,0-3.37,1.14L731.81,256a9.65,9.65,0,0,1,5.28-1.54,5,5,0,0,1,3.95,1.49,6,6,0,0,1,1.36,4.21v10.95Zm-3.38-2.75a2,2,0,0,0,1.7-1,4.52,4.52,0,0,0,.64-2.56v-1.37l-1.2.06a2.7,2.7,0,0,0-2,.76,3,3,0,0,0-.62,2.05C734.72,267.66,735.2,268.33,736.16,268.33Z"/><path class="cls-3" d="M751.21,268.08a4.61,4.61,0,0,0,1.78-.41v3.05a5.06,5.06,0,0,1-2.86.66,3.82,3.82,0,0,1-3.15-1.27,6,6,0,0,1-1-3.8v-8.45h-1.59v-1.75l2-1.4,1-3.46h2.49v3.52h3v3.09h-3v8.58C749.9,267.53,750.34,268.08,751.21,268.08Z"/><path class="cls-3" d="M762.23,254.46a4.52,4.52,0,0,1,1.41.22l-.46,3.78a3.16,3.16,0,0,0-1.07-.15,2.48,2.48,0,0,0-2.18,1.12,5.78,5.78,0,0,0-.76,3.26v8.39h-3.9V254.77h3.21l.44,2.54h.13a5.91,5.91,0,0,1,1.41-2.19A2.63,2.63,0,0,1,762.23,254.46Z"/><path class="cls-3" d="M773.38,271.08l-.78-2.22h-.09a5.53,5.53,0,0,1-1.78,2,4.49,4.49,0,0,1-2.33.55,3.39,3.39,0,0,1-2.84-1.35,6,6,0,0,1-1-3.75,4.85,4.85,0,0,1,1.41-3.83,6.7,6.7,0,0,1,4.23-1.39l2.17-.08V259.8q0-2.28-2-2.28a6.77,6.77,0,0,0-3.37,1.14L765.64,256a9.68,9.68,0,0,1,5.29-1.54,5,5,0,0,1,4,1.49,6,6,0,0,1,1.35,4.21v10.95ZM770,268.33a2,2,0,0,0,1.71-1,4.6,4.6,0,0,0,.64-2.56v-1.37l-1.2.06a2.7,2.7,0,0,0-2,.76,3,3,0,0,0-.62,2.05C768.56,267.66,769,268.33,770,268.33Z"/><path class="cls-3" d="M782,271.08l-4.26-16.31h4l2.08,9.44c.09.44.19,1.09.32,1.93s.19,1.45.22,1.82h.06a12.15,12.15,0,0,1,.13-1.26c.07-.54.15-1.05.22-1.5s.83-3.94,2.26-10.43h4l-4.28,16.31Z"/><path class="cls-3" d="M798.78,271.38A5.9,5.9,0,0,1,794,269.2a9.52,9.52,0,0,1-1.76-6.16,10.86,10.86,0,0,1,1.59-6.31,5.13,5.13,0,0,1,4.46-2.27,5.06,5.06,0,0,1,4.2,1.94,8.53,8.53,0,0,1,1.54,5.44v2.08h-7.84a5.38,5.38,0,0,0,.89,3.25,2.87,2.87,0,0,0,2.35,1.06,7.57,7.57,0,0,0,3.89-1.19v3.21A8.55,8.55,0,0,1,798.78,271.38Zm-2.58-18.47v-.4a18.84,18.84,0,0,0,1.39-2.21c.53-1,.9-1.69,1.13-2.2h4.66v.31a12.39,12.39,0,0,1-1.75,2c-.92.93-1.82,1.75-2.69,2.47Zm2,4.55a1.59,1.59,0,0,0-1.38.89,6,6,0,0,0-.63,2.74h3.95a5.83,5.83,0,0,0-.54-2.71A1.56,1.56,0,0,0,798.21,257.46Z"/><path class="cls-3" d="M815.32,266.31a5,5,0,0,1-1.4,3.73,5.78,5.78,0,0,1-4.13,1.34,7.62,7.62,0,0,1-4-1V267a7.55,7.55,0,0,0,1.89.92,5.86,5.86,0,0,0,1.89.37,2,2,0,0,0,1.39-.45,1.57,1.57,0,0,0,.47-1.18,1.9,1.9,0,0,0-.49-1.3A8.92,8.92,0,0,0,809.1,264a7.74,7.74,0,0,1-2.54-2.25,5.14,5.14,0,0,1-.77-2.82,4.11,4.11,0,0,1,1.43-3.3,5.85,5.85,0,0,1,3.92-1.21,7.87,7.87,0,0,1,4.09,1.14L814,258.4a5.89,5.89,0,0,0-2.75-.85,1.48,1.48,0,0,0-1.12.39,1.37,1.37,0,0,0-.37,1,1.68,1.68,0,0,0,.46,1.17,8.26,8.26,0,0,0,1.72,1.28,11.4,11.4,0,0,1,2.14,1.56,4.76,4.76,0,0,1,1,1.47A5.14,5.14,0,0,1,815.32,266.31Z"/><path class="cls-3" d="M829.48,271.38a4,4,0,0,1-3.56-2.23,12.3,12.3,0,0,1-1.3-6.2,12.79,12.79,0,0,1,1.27-6.24,3.9,3.9,0,0,1,3.52-2.25,3.31,3.31,0,0,1,1.92.55,4.87,4.87,0,0,1,1.51,1.85h.23q-.18-2.22-.18-3.12v-5.45h3.9v22.79h-2.9l-.66-2.12h-.13A3.92,3.92,0,0,1,829.48,271.38Zm1.26-3.3a1.66,1.66,0,0,0,1.58-1,9.12,9.12,0,0,0,.54-3.59V263a11.06,11.06,0,0,0-.5-4,1.71,1.71,0,0,0-1.66-1.15c-.73,0-1.25.44-1.58,1.32a11.62,11.62,0,0,0-.49,3.86,11,11,0,0,0,.5,3.8A1.69,1.69,0,0,0,830.74,268.08Z"/><path class="cls-3" d="M852.16,262.9a10.13,10.13,0,0,1-1.7,6.24,5.91,5.91,0,0,1-8,1.21,6.42,6.42,0,0,1-2.21-3,11.94,11.94,0,0,1-.78-4.5,10.07,10.07,0,0,1,1.69-6.21,5.51,5.51,0,0,1,4.67-2.23,5.45,5.45,0,0,1,4.59,2.28A10,10,0,0,1,852.16,262.9Zm-8.68,0a10.29,10.29,0,0,0,.56,3.85,1.86,1.86,0,0,0,1.79,1.3q2.34,0,2.34-5.15a10,10,0,0,0-.56-3.83,1.89,1.89,0,0,0-3.57,0A10,10,0,0,0,843.48,262.9Z"/><path class="cls-3" d="M863.66,266.31a5,5,0,0,1-1.4,3.73,5.78,5.78,0,0,1-4.13,1.34,7.62,7.62,0,0,1-4-1V267A7.55,7.55,0,0,0,856,268a5.81,5.81,0,0,0,1.89.37,2,2,0,0,0,1.39-.45,1.57,1.57,0,0,0,.47-1.18,1.9,1.9,0,0,0-.49-1.3,8.92,8.92,0,0,0-1.84-1.36,7.74,7.74,0,0,1-2.54-2.25,5.14,5.14,0,0,1-.77-2.82,4.11,4.11,0,0,1,1.43-3.3,5.85,5.85,0,0,1,3.92-1.21,7.87,7.87,0,0,1,4.09,1.14l-1.28,2.8a5.89,5.89,0,0,0-2.75-.85,1.48,1.48,0,0,0-1.12.39,1.37,1.37,0,0,0-.37,1,1.68,1.68,0,0,0,.46,1.17,8,8,0,0,0,1.72,1.28,11.4,11.4,0,0,1,2.14,1.56,4.76,4.76,0,0,1,1,1.47A5.14,5.14,0,0,1,863.66,266.31Z"/><path class="cls-3" d="M881.53,271.08l-.78-2.22h-.09a5.53,5.53,0,0,1-1.78,2,4.49,4.49,0,0,1-2.33.55,3.39,3.39,0,0,1-2.84-1.35,6,6,0,0,1-1-3.75,4.85,4.85,0,0,1,1.41-3.83,6.68,6.68,0,0,1,4.23-1.39l2.17-.08V259.8q0-2.28-2-2.28a6.77,6.77,0,0,0-3.37,1.14L873.79,256a9.68,9.68,0,0,1,5.29-1.54,5.06,5.06,0,0,1,3.95,1.49,6,6,0,0,1,1.35,4.21v10.95Zm-3.39-2.75a2,2,0,0,0,1.71-1,4.6,4.6,0,0,0,.64-2.56v-1.37l-1.2.06a2.69,2.69,0,0,0-2,.76,2.94,2.94,0,0,0-.62,2.05C876.71,267.66,877.19,268.33,878.14,268.33Z"/><path class="cls-3" d="M894.81,271.38a3.58,3.58,0,0,1-1.86-.48,4.51,4.51,0,0,1-1.52-1.68h-.21c.16,1.33.24,2.13.24,2.41v6.66h-3.93V254.77h3l.67,2.12h.18a3.82,3.82,0,0,1,3.53-2.43,3.87,3.87,0,0,1,3.49,2.2,12.7,12.7,0,0,1,1.26,6.24,12.46,12.46,0,0,1-1.31,6.22A4,4,0,0,1,894.81,271.38Zm-1.2-13.61a1.71,1.71,0,0,0-1.65,1.06,9.26,9.26,0,0,0-.53,3.52v.52a11,11,0,0,0,.51,3.92,1.75,1.75,0,0,0,1.7,1.23q2.05,0,2.05-5.18a11,11,0,0,0-.5-3.81A1.69,1.69,0,0,0,893.61,257.77Z"/><path class="cls-3" d="M906.31,271.08h-3.89V248.29h3.89Z"/><path class="cls-3" d="M909.45,250.5A2.06,2.06,0,0,1,910,249a2.16,2.16,0,0,1,1.58-.56,2.09,2.09,0,0,1,1.52.56,2.07,2.07,0,0,1,.57,1.53,2,2,0,0,1-.59,1.55,2.09,2.09,0,0,1-1.5.55,2.17,2.17,0,0,1-1.56-.55A2,2,0,0,1,909.45,250.5Zm4,20.58h-3.89V254.77h3.89Z"/><path class="cls-3" d="M916.24,264.76v-3.43h7.37v3.43Z"/><path class="cls-3" d="M150.16,307.38a5.13,5.13,0,0,1-4.44-2.13A10.68,10.68,0,0,1,144.2,299q0-4.31,1.44-6.43a5,5,0,0,1,4.46-2.12,7.75,7.75,0,0,1,1.91.26,6.5,6.5,0,0,1,1.78.76l-1.11,3a4.36,4.36,0,0,0-2.15-.72,1.87,1.87,0,0,0-1.8,1.29,10.63,10.63,0,0,0-.55,3.89,10.1,10.1,0,0,0,.54,3.79A1.86,1.86,0,0,0,150.5,304a5.74,5.74,0,0,0,3.06-1v3.42A6.31,6.31,0,0,1,150.16,307.38Z"/><path class="cls-3" d="M163.9,307.08l-.78-2.22H163a5.64,5.64,0,0,1-1.79,2,4.47,4.47,0,0,1-2.33.55,3.39,3.39,0,0,1-2.84-1.35,6.1,6.1,0,0,1-1-3.75,4.82,4.82,0,0,1,1.42-3.83,6.67,6.67,0,0,1,4.22-1.39l2.17-.08V295.8q0-2.28-2-2.28a6.8,6.8,0,0,0-3.37,1.14L156.17,292a9.65,9.65,0,0,1,5.28-1.54,5,5,0,0,1,4,1.49,6,6,0,0,1,1.36,4.21v10.95Zm-3.38-2.75a2,2,0,0,0,1.7-1,4.52,4.52,0,0,0,.64-2.56v-1.37l-1.2.06a2.7,2.7,0,0,0-2,.76,3,3,0,0,0-.62,2.05C159.08,303.66,159.56,304.33,160.52,304.33Z"/><path class="cls-3" d="M175.57,304.08a4.61,4.61,0,0,0,1.78-.41v3.05a5.06,5.06,0,0,1-2.86.66,3.82,3.82,0,0,1-3.15-1.27,6,6,0,0,1-1-3.8v-8.45h-1.59v-1.75l2-1.4,1-3.46h2.49v3.52h3v3.09h-3v8.58C174.26,303.53,174.7,304.08,175.57,304.08Z"/><path class="cls-3" d="M179.5,286.5a2.1,2.1,0,0,1,.56-1.53,2.18,2.18,0,0,1,1.58-.56,2.09,2.09,0,0,1,1.52.56,2.07,2.07,0,0,1,.57,1.53,2,2,0,0,1-.58,1.55,2.11,2.11,0,0,1-1.51.55,2.15,2.15,0,0,1-1.55-.55A2,2,0,0,1,179.5,286.5Zm4.06,20.58h-3.9V290.77h3.9Z"/><path class="cls-3" d="M189.51,307.08l-4.27-16.31h4l2.08,9.44c.08.44.19,1.09.31,1.93s.2,1.45.23,1.82H192q0-.43.12-1.26c.07-.54.15-1.05.23-1.5s.83-3.94,2.25-10.43h4.05l-4.28,16.31Z"/><path class="cls-3" d="M212.36,298.9a10.13,10.13,0,0,1-1.7,6.24,5.91,5.91,0,0,1-8,1.21,6.42,6.42,0,0,1-2.21-3,11.94,11.94,0,0,1-.78-4.5,10.07,10.07,0,0,1,1.69-6.21,5.51,5.51,0,0,1,4.67-2.23,5.45,5.45,0,0,1,4.59,2.28A10,10,0,0,1,212.36,298.9Zm-8.67,0a10.32,10.32,0,0,0,.55,3.85,1.86,1.86,0,0,0,1.79,1.3q2.34,0,2.34-5.15a10,10,0,0,0-.56-3.83,1.89,1.89,0,0,0-3.57,0A10,10,0,0,0,203.69,298.9Z"/><path class="cls-3" d="M223.86,302.31a5,5,0,0,1-1.4,3.73,5.78,5.78,0,0,1-4.13,1.34,7.62,7.62,0,0,1-4-1V303a7.55,7.55,0,0,0,1.89.92,5.86,5.86,0,0,0,1.89.37,2,2,0,0,0,1.39-.45,1.57,1.57,0,0,0,.47-1.18,1.9,1.9,0,0,0-.49-1.3,9.08,9.08,0,0,0-1.83-1.36,7.68,7.68,0,0,1-2.55-2.25,5.14,5.14,0,0,1-.77-2.82,4.11,4.11,0,0,1,1.43-3.3,5.85,5.85,0,0,1,3.92-1.21,7.87,7.87,0,0,1,4.09,1.14l-1.28,2.8a5.89,5.89,0,0,0-2.75-.85,1.48,1.48,0,0,0-1.12.39,1.37,1.37,0,0,0-.37,1,1.68,1.68,0,0,0,.46,1.17,8.26,8.26,0,0,0,1.72,1.28,11.4,11.4,0,0,1,2.14,1.56,4.76,4.76,0,0,1,1,1.47A5.14,5.14,0,0,1,223.86,302.31Z"/><path class="cls-3" d="M231,303.93a45.32,45.32,0,0,1-2.58,7h-3c.63-2.6,1.13-5.05,1.48-7.35h3.87Z"/><path class="cls-3" d="M258,307.08v-9.72c0-2.4-.59-3.59-1.77-3.59a1.91,1.91,0,0,0-1.85,1.28,11.14,11.14,0,0,0-.55,4.11v7.92h-3.93v-9.72c0-2.4-.6-3.59-1.8-3.59A1.9,1.9,0,0,0,246.3,295a11.16,11.16,0,0,0-.57,4.21v7.83h-3.9V290.77h3.09l.47,2.09h.25a3.89,3.89,0,0,1,1.6-1.82,4.32,4.32,0,0,1,2.18-.58,3.87,3.87,0,0,1,4,2.83h.15a4.16,4.16,0,0,1,4-2.83,3.85,3.85,0,0,1,3.29,1.52,7.51,7.51,0,0,1,1.12,4.45v10.65Z"/><path class="cls-3" d="M273.1,307.08l-.77-2.22h-.09a5.55,5.55,0,0,1-1.79,2,4.44,4.44,0,0,1-2.33.55,3.37,3.37,0,0,1-2.83-1.35,6,6,0,0,1-1-3.75,4.85,4.85,0,0,1,1.41-3.83,6.68,6.68,0,0,1,4.23-1.39l2.16-.08V295.8c0-1.52-.66-2.28-2-2.28a6.77,6.77,0,0,0-3.37,1.14L265.37,292a9.66,9.66,0,0,1,5.29-1.54,5,5,0,0,1,3.94,1.49,6,6,0,0,1,1.36,4.21v10.95Zm-3.38-2.75a2,2,0,0,0,1.71-1,4.6,4.6,0,0,0,.63-2.56v-1.37l-1.2.06a2.66,2.66,0,0,0-1.95.76,2.94,2.94,0,0,0-.63,2.05C268.28,303.66,268.76,304.33,269.72,304.33Z"/><path class="cls-3" d="M287.87,302.31a5,5,0,0,1-1.4,3.73,5.75,5.75,0,0,1-4.12,1.34,7.59,7.59,0,0,1-4-1V303a7.48,7.48,0,0,0,1.88.92,5.87,5.87,0,0,0,1.9.37,1.94,1.94,0,0,0,1.38-.45,1.54,1.54,0,0,0,.48-1.18,1.91,1.91,0,0,0-.5-1.3,8.52,8.52,0,0,0-1.83-1.36,7.63,7.63,0,0,1-2.54-2.25,5.05,5.05,0,0,1-.77-2.82,4.08,4.08,0,0,1,1.43-3.3,5.83,5.83,0,0,1,3.91-1.21,7.87,7.87,0,0,1,4.09,1.14l-1.27,2.8a6,6,0,0,0-2.76-.85,1.5,1.5,0,0,0-1.12.39,1.37,1.37,0,0,0-.37,1,1.68,1.68,0,0,0,.46,1.17,8.26,8.26,0,0,0,1.72,1.28,11.07,11.07,0,0,1,2.14,1.56,4.59,4.59,0,0,1,.95,1.47A5,5,0,0,1,287.87,302.31Z"/><path class="cls-3" d="M305.87,307.08v-9.72c0-2.4-.6-3.59-1.8-3.59a1.92,1.92,0,0,0-1.89,1.41,11.91,11.91,0,0,0-.54,4.07v7.83h-3.9V284.29h3.9v5.07c0,.65-.06,1.82-.18,3.5h.21a3.81,3.81,0,0,1,3.6-2.4,4,4,0,0,1,3.39,1.51,7.37,7.37,0,0,1,1.14,4.46v10.65Z"/><path class="cls-3" d="M321,307.08l-.78-2.22h-.09a5.46,5.46,0,0,1-1.79,2,4.43,4.43,0,0,1-2.32.55,3.37,3.37,0,0,1-2.84-1.35,6,6,0,0,1-1-3.75,4.85,4.85,0,0,1,1.41-3.83,6.68,6.68,0,0,1,4.23-1.39l2.17-.08V295.8q0-2.28-2-2.28a6.77,6.77,0,0,0-3.37,1.14L313.21,292a9.68,9.68,0,0,1,5.29-1.54,5.06,5.06,0,0,1,3.95,1.49,6,6,0,0,1,1.35,4.21v10.95Zm-3.39-2.75a2,2,0,0,0,1.71-1,4.6,4.6,0,0,0,.64-2.56v-1.37l-1.21.06a2.68,2.68,0,0,0-1.95.76,2.94,2.94,0,0,0-.62,2.05C316.13,303.66,316.6,304.33,317.56,304.33Zm-1-15.42v-.4A18.84,18.84,0,0,0,318,286.3c.52-1,.9-1.69,1.12-2.2h4.66v.31a11.68,11.68,0,0,1-1.74,2c-.93.93-1.83,1.75-2.7,2.47Z"/><path class="cls-3" d="M340,304.08a4.61,4.61,0,0,0,1.78-.41v3.05a5.06,5.06,0,0,1-2.86.66,3.82,3.82,0,0,1-3.15-1.27,6,6,0,0,1-1-3.8v-8.45h-1.58v-1.75l2-1.4,1-3.46h2.49v3.52h3v3.09h-3v8.58C338.71,303.53,339.15,304.08,340,304.08Z"/><path class="cls-3" d="M352.09,307.08l-.78-2.22h-.09a5.53,5.53,0,0,1-1.78,2,4.47,4.47,0,0,1-2.33.55,3.39,3.39,0,0,1-2.84-1.35,6.1,6.1,0,0,1-1-3.75,4.85,4.85,0,0,1,1.41-3.83,6.73,6.73,0,0,1,4.23-1.39l2.17-.08V295.8q0-2.28-2-2.28a6.77,6.77,0,0,0-3.37,1.14L344.35,292a9.71,9.71,0,0,1,5.29-1.54,5,5,0,0,1,3.95,1.49,6,6,0,0,1,1.35,4.21v10.95Zm-3.39-2.75a2,2,0,0,0,1.71-1,4.52,4.52,0,0,0,.64-2.56v-1.37l-1.2.06a2.7,2.7,0,0,0-2,.76,3,3,0,0,0-.62,2.05C347.27,303.66,347.75,304.33,348.7,304.33Z"/><path class="cls-3" d="M374.3,307.08v-9.72c0-2.4-.6-3.59-1.78-3.59a1.9,1.9,0,0,0-1.84,1.28,11.09,11.09,0,0,0-.56,4.11v7.92h-3.93v-9.72c0-2.4-.6-3.59-1.8-3.59a1.9,1.9,0,0,0-1.83,1.27,11.16,11.16,0,0,0-.57,4.21v7.83h-3.9V290.77h3.1l.46,2.09h.25a3.91,3.91,0,0,1,1.61-1.82,4.28,4.28,0,0,1,2.17-.58,3.89,3.89,0,0,1,4,2.83h.14a4.17,4.17,0,0,1,4-2.83A3.84,3.84,0,0,1,377.1,292a7.44,7.44,0,0,1,1.12,4.45v10.65Z"/><path class="cls-3" d="M388.74,290.46a3.91,3.91,0,0,1,3.5,2.21,16,16,0,0,1,0,12.5,4,4,0,0,1-3.55,2.21,3.85,3.85,0,0,1-1.94-.48,4.8,4.8,0,0,1-1.59-1.68h-.25l-.66,1.86h-2.87V284.29h3.9v5.33c0,.23,0,.46,0,.71s-.07,1.09-.19,2.56h.21a4.94,4.94,0,0,1,1.55-1.89A3.47,3.47,0,0,1,388.74,290.46Zm-1.35,3.31a1.65,1.65,0,0,0-1.6,1,9.67,9.67,0,0,0-.52,3.66v.4a11.29,11.29,0,0,0,.5,4,1.71,1.71,0,0,0,1.65,1.15q2.11,0,2.11-5.18T387.39,293.77Z"/><path class="cls-3" d="M402.27,307.38a5.86,5.86,0,0,1-4.82-2.18,9.52,9.52,0,0,1-1.77-6.16,10.79,10.79,0,0,1,1.6-6.31,5.52,5.52,0,0,1,8.66-.33,8.59,8.59,0,0,1,1.53,5.44v2.08h-7.83a5.32,5.32,0,0,0,.89,3.25,2.86,2.86,0,0,0,2.34,1.06,7.63,7.63,0,0,0,3.9-1.19v3.21A8.59,8.59,0,0,1,402.27,307.38Zm-2.57-18.47v-.4a18.84,18.84,0,0,0,1.39-2.21c.52-1,.9-1.69,1.13-2.2h4.65v.31a11.68,11.68,0,0,1-1.74,2c-.93.93-1.83,1.75-2.69,2.47Zm2,4.55a1.59,1.59,0,0,0-1.37.89,5.72,5.72,0,0,0-.63,2.74h3.95a6,6,0,0,0-.54-2.71A1.57,1.57,0,0,0,401.7,293.46Z"/><path class="cls-3" d="M426.25,307.08v-9.72c0-2.4-.59-3.59-1.77-3.59a1.9,1.9,0,0,0-1.84,1.28,10.88,10.88,0,0,0-.56,4.11v7.92h-3.93v-9.72c0-2.4-.6-3.59-1.8-3.59a1.9,1.9,0,0,0-1.83,1.27,11.16,11.16,0,0,0-.57,4.21v7.83h-3.9V290.77h3.09l.47,2.09h.25a3.91,3.91,0,0,1,1.61-1.82,4.25,4.25,0,0,1,2.17-.58,3.87,3.87,0,0,1,4,2.83h.15a4.16,4.16,0,0,1,4-2.83,3.84,3.84,0,0,1,3.29,1.52,7.44,7.44,0,0,1,1.12,4.45v10.65Z"/><path class="cls-3" d="M448.74,307.08l-.78-2.22h-.09a5.53,5.53,0,0,1-1.78,2,4.47,4.47,0,0,1-2.33.55,3.39,3.39,0,0,1-2.84-1.35,6.1,6.1,0,0,1-1-3.75,4.85,4.85,0,0,1,1.41-3.83,6.73,6.73,0,0,1,4.23-1.39l2.17-.08V295.8q0-2.28-2-2.28a6.77,6.77,0,0,0-3.37,1.14L441,292a9.71,9.71,0,0,1,5.29-1.54,5,5,0,0,1,3.95,1.49,6,6,0,0,1,1.36,4.21v10.95Zm-3.39-2.75a2,2,0,0,0,1.71-1,4.52,4.52,0,0,0,.64-2.56v-1.37l-1.2.06a2.7,2.7,0,0,0-2,.76,3,3,0,0,0-.62,2.05C443.92,303.66,444.4,304.33,445.35,304.33Z"/><path class="cls-3" d="M469.44,307.38a3.59,3.59,0,0,1-1.87-.48,4.6,4.6,0,0,1-1.52-1.68h-.2c.15,1.33.23,2.13.23,2.41v6.66h-3.92V290.77h3l.68,2.12H466a3.82,3.82,0,0,1,3.53-2.43,3.86,3.86,0,0,1,3.49,2.2,12.7,12.7,0,0,1,1.26,6.24,12.46,12.46,0,0,1-1.3,6.22A4,4,0,0,1,469.44,307.38Zm-1.2-13.61a1.7,1.7,0,0,0-1.65,1.06,9,9,0,0,0-.54,3.52v.52a10.75,10.75,0,0,0,.52,3.92,1.74,1.74,0,0,0,1.7,1.23c1.36,0,2.05-1.73,2.05-5.18a10.74,10.74,0,0,0-.51-3.81A1.68,1.68,0,0,0,468.24,293.77Z"/><path class="cls-3" d="M489.12,298.9a10.13,10.13,0,0,1-1.69,6.24,5.55,5.55,0,0,1-4.66,2.24,5.49,5.49,0,0,1-3.31-1,6.5,6.5,0,0,1-2.22-3,12.15,12.15,0,0,1-.77-4.5,10.14,10.14,0,0,1,1.68-6.21,5.53,5.53,0,0,1,4.68-2.23,5.45,5.45,0,0,1,4.59,2.28A10,10,0,0,1,489.12,298.9Zm-8.67,0a10.29,10.29,0,0,0,.56,3.85,1.86,1.86,0,0,0,1.79,1.3q2.34,0,2.34-5.15a10,10,0,0,0-.56-3.83,1.89,1.89,0,0,0-3.57,0A10,10,0,0,0,480.45,298.9Z"/><path class="cls-3" d="M500.62,302.31a4.91,4.91,0,0,1-1.4,3.73,5.74,5.74,0,0,1-4.12,1.34,7.62,7.62,0,0,1-4-1V303A7.65,7.65,0,0,0,493,304a5.87,5.87,0,0,0,1.9.37,2,2,0,0,0,1.39-.45,1.57,1.57,0,0,0,.47-1.18,1.86,1.86,0,0,0-.5-1.3,8.52,8.52,0,0,0-1.83-1.36,7.63,7.63,0,0,1-2.54-2.25,5.14,5.14,0,0,1-.77-2.82,4.11,4.11,0,0,1,1.43-3.3,5.85,5.85,0,0,1,3.92-1.21,7.9,7.9,0,0,1,4.09,1.14l-1.28,2.8a5.89,5.89,0,0,0-2.75-.85,1.48,1.48,0,0,0-1.12.39,1.38,1.38,0,0,0-.38,1,1.73,1.73,0,0,0,.46,1.17,8.39,8.39,0,0,0,1.73,1.28,11.25,11.25,0,0,1,2.13,1.56,4.79,4.79,0,0,1,1,1.47A5.15,5.15,0,0,1,500.62,302.31Z"/><path class="cls-3" d="M511.84,302.31a4.91,4.91,0,0,1-1.4,3.73,5.74,5.74,0,0,1-4.12,1.34,7.62,7.62,0,0,1-4-1V303a7.65,7.65,0,0,0,1.88.92,5.92,5.92,0,0,0,1.9.37,2,2,0,0,0,1.39-.45,1.57,1.57,0,0,0,.47-1.18,1.86,1.86,0,0,0-.5-1.3,8.52,8.52,0,0,0-1.83-1.36,7.63,7.63,0,0,1-2.54-2.25,5.14,5.14,0,0,1-.77-2.82,4.11,4.11,0,0,1,1.43-3.3,5.85,5.85,0,0,1,3.92-1.21,7.9,7.9,0,0,1,4.09,1.14l-1.28,2.8a5.89,5.89,0,0,0-2.75-.85,1.48,1.48,0,0,0-1.12.39,1.38,1.38,0,0,0-.38,1,1.73,1.73,0,0,0,.46,1.17,8.39,8.39,0,0,0,1.73,1.28,11.4,11.4,0,0,1,2.14,1.56,4.76,4.76,0,0,1,.95,1.47A5.15,5.15,0,0,1,511.84,302.31Z"/><path class="cls-3" d="M514.17,286.5a2.07,2.07,0,0,1,.57-1.53,2.42,2.42,0,0,1,3.1,0,2.07,2.07,0,0,1,.57,1.53,2,2,0,0,1-.59,1.55,2.1,2.1,0,0,1-1.51.55,2.16,2.16,0,0,1-1.55-.55A2,2,0,0,1,514.17,286.5Zm4.06,20.58h-3.9V290.77h3.9Z"/><path class="cls-3" d="M528.94,290.46a3.91,3.91,0,0,1,3.5,2.21,16,16,0,0,1,0,12.5,4,4,0,0,1-3.55,2.21,3.85,3.85,0,0,1-1.94-.48,4.8,4.8,0,0,1-1.59-1.68h-.25l-.66,1.86h-2.87V284.29h3.9v5.33c0,.23,0,.46,0,.71s-.07,1.09-.19,2.56h.21A4.94,4.94,0,0,1,527,291,3.47,3.47,0,0,1,528.94,290.46Zm-1.35,3.31a1.65,1.65,0,0,0-1.6,1,9.67,9.67,0,0,0-.52,3.66v.4a11.29,11.29,0,0,0,.5,4,1.71,1.71,0,0,0,1.65,1.15q2.11,0,2.11-5.18T527.59,293.77Z"/><path class="cls-3" d="M536.32,286.5a2.07,2.07,0,0,1,.57-1.53,2.14,2.14,0,0,1,1.57-.56,2,2,0,0,1,2.1,2.09,2,2,0,0,1-.59,1.55,2.1,2.1,0,0,1-1.51.55,2.16,2.16,0,0,1-1.55-.55A2,2,0,0,1,536.32,286.5Zm4.06,20.58h-3.9V290.77h3.9Z"/><path class="cls-3" d="M547.62,307.08h-3.9V284.29h3.9Z"/><path class="cls-3" d="M550.75,286.5a2.1,2.1,0,0,1,.56-1.53,2.18,2.18,0,0,1,1.58-.56,2.09,2.09,0,0,1,1.52.56,2.07,2.07,0,0,1,.57,1.53,2,2,0,0,1-.58,1.55,2.11,2.11,0,0,1-1.51.55,2.15,2.15,0,0,1-1.55-.55A2,2,0,0,1,550.75,286.5Zm4.06,20.58h-3.9V290.77h3.9Z"/><path class="cls-3" d="M562.44,307.38a4,4,0,0,1-3.56-2.23,12.3,12.3,0,0,1-1.3-6.2,12.79,12.79,0,0,1,1.27-6.24,3.9,3.9,0,0,1,3.52-2.25,3.31,3.31,0,0,1,1.92.55,4.85,4.85,0,0,1,1.5,1.85H566q-.18-2.22-.18-3.12v-5.45h3.9v22.79h-2.9l-.66-2.12h-.13A3.92,3.92,0,0,1,562.44,307.38Zm1.26-3.3a1.66,1.66,0,0,0,1.58-1,9.31,9.31,0,0,0,.54-3.59V299a11.29,11.29,0,0,0-.5-4,1.71,1.71,0,0,0-1.66-1.15c-.73,0-1.25.44-1.58,1.32a11.62,11.62,0,0,0-.49,3.86,11,11,0,0,0,.5,3.8A1.69,1.69,0,0,0,563.7,304.08Z"/><path class="cls-3" d="M581,307.08l-.78-2.22h-.09a5.53,5.53,0,0,1-1.78,2,4.47,4.47,0,0,1-2.33.55,3.39,3.39,0,0,1-2.84-1.35,6.1,6.1,0,0,1-1-3.75,4.85,4.85,0,0,1,1.41-3.83,6.73,6.73,0,0,1,4.23-1.39L580,297V295.8q0-2.28-2-2.28a6.77,6.77,0,0,0-3.37,1.14L573.29,292a9.71,9.71,0,0,1,5.29-1.54,5,5,0,0,1,3.95,1.49,6,6,0,0,1,1.36,4.21v10.95Zm-3.38-2.75a2,2,0,0,0,1.7-1,4.52,4.52,0,0,0,.64-2.56v-1.37l-1.2.06a2.7,2.7,0,0,0-2,.76,3,3,0,0,0-.62,2.05C576.21,303.66,576.69,304.33,577.65,304.33Z"/><path class="cls-3" d="M591.33,307.38a4,4,0,0,1-3.56-2.23,12.3,12.3,0,0,1-1.31-6.2,12.78,12.78,0,0,1,1.28-6.24,3.9,3.9,0,0,1,3.51-2.25,3.32,3.32,0,0,1,1.93.55,5,5,0,0,1,1.5,1.85h.24q-.18-2.22-.18-3.12v-5.45h3.9v22.79h-2.9l-.66-2.12h-.14A3.91,3.91,0,0,1,591.33,307.38Zm1.26-3.3a1.66,1.66,0,0,0,1.58-1,9.31,9.31,0,0,0,.54-3.59V299a11.29,11.29,0,0,0-.5-4,1.72,1.72,0,0,0-1.67-1.15c-.72,0-1.25.44-1.57,1.32a11.62,11.62,0,0,0-.49,3.86,10.75,10.75,0,0,0,.5,3.8A1.68,1.68,0,0,0,592.59,304.08Z"/><path class="cls-3" d="M607.94,307.38a5.9,5.9,0,0,1-4.83-2.18,9.52,9.52,0,0,1-1.76-6.16,10.86,10.86,0,0,1,1.59-6.31,5.13,5.13,0,0,1,4.46-2.27,5.06,5.06,0,0,1,4.2,1.94,8.53,8.53,0,0,1,1.54,5.44v2.08H605.3a5.38,5.38,0,0,0,.89,3.25,2.87,2.87,0,0,0,2.35,1.06,7.63,7.63,0,0,0,3.9-1.19v3.21A8.59,8.59,0,0,1,607.94,307.38Zm-.57-13.92a1.59,1.59,0,0,0-1.38.89,6,6,0,0,0-.63,2.74h3.95a5.83,5.83,0,0,0-.54-2.71A1.56,1.56,0,0,0,607.37,293.46Z"/><path class="cls-3" d="M627.42,307.38a4,4,0,0,1-3.56-2.23,12.3,12.3,0,0,1-1.3-6.2,12.79,12.79,0,0,1,1.27-6.24,3.9,3.9,0,0,1,3.52-2.25,3.31,3.31,0,0,1,1.92.55,4.85,4.85,0,0,1,1.5,1.85H631q-.18-2.22-.18-3.12v-5.45h3.9v22.79h-2.9l-.66-2.12H631A3.92,3.92,0,0,1,627.42,307.38Zm1.26-3.3a1.66,1.66,0,0,0,1.58-1,9.31,9.31,0,0,0,.54-3.59V299a11.06,11.06,0,0,0-.5-4,1.71,1.71,0,0,0-1.66-1.15c-.73,0-1.25.44-1.58,1.32a11.62,11.62,0,0,0-.49,3.86,11,11,0,0,0,.5,3.8A1.69,1.69,0,0,0,628.68,304.08Z"/><path class="cls-3" d="M644,307.38a5.86,5.86,0,0,1-4.82-2.18,9.52,9.52,0,0,1-1.77-6.16,10.79,10.79,0,0,1,1.6-6.31,5.12,5.12,0,0,1,4.45-2.27,5,5,0,0,1,4.2,1.94,8.53,8.53,0,0,1,1.54,5.44v2.08H641.4a5.25,5.25,0,0,0,.89,3.25,2.85,2.85,0,0,0,2.34,1.06,7.63,7.63,0,0,0,3.9-1.19v3.21A8.59,8.59,0,0,1,644,307.38Zm-.57-13.92a1.59,1.59,0,0,0-1.38.89,6,6,0,0,0-.63,2.74h4a6,6,0,0,0-.54-2.71A1.58,1.58,0,0,0,643.46,293.46Z"/><path class="cls-3" d="M664.61,307.38a5.13,5.13,0,0,1-4.44-2.13,10.68,10.68,0,0,1-1.52-6.24q0-4.31,1.44-6.43a5,5,0,0,1,4.46-2.12,7.75,7.75,0,0,1,1.91.26,6.71,6.71,0,0,1,1.79.76l-1.12,3a4.36,4.36,0,0,0-2.15-.72,1.87,1.87,0,0,0-1.8,1.29,10.67,10.67,0,0,0-.54,3.89,10.1,10.1,0,0,0,.54,3.79A1.83,1.83,0,0,0,665,304a5.69,5.69,0,0,0,3.06-1v3.42A6.28,6.28,0,0,1,664.61,307.38Z"/><path class="cls-3" d="M682.44,298.9a10.13,10.13,0,0,1-1.7,6.24,5.91,5.91,0,0,1-8,1.21,6.48,6.48,0,0,1-2.21-3,11.94,11.94,0,0,1-.78-4.5,10.14,10.14,0,0,1,1.69-6.21,5.51,5.51,0,0,1,4.67-2.23,5.43,5.43,0,0,1,4.59,2.28A10,10,0,0,1,682.44,298.9Zm-8.67,0a10.32,10.32,0,0,0,.55,3.85,1.87,1.87,0,0,0,1.79,1.3c1.56,0,2.35-1.72,2.35-5.15a9.78,9.78,0,0,0-.57-3.83,1.89,1.89,0,0,0-3.57,0A10,10,0,0,0,673.77,298.9Z"/><path class="cls-3" d="M701.38,307.08v-9.72c0-2.4-.59-3.59-1.77-3.59a1.91,1.91,0,0,0-1.85,1.28,11.14,11.14,0,0,0-.55,4.11v7.92h-3.93v-9.72c0-2.4-.6-3.59-1.8-3.59a1.9,1.9,0,0,0-1.83,1.27,11.16,11.16,0,0,0-.57,4.21v7.83h-3.9V290.77h3.09l.47,2.09H689a3.89,3.89,0,0,1,1.6-1.82,4.32,4.32,0,0,1,2.18-.58,3.87,3.87,0,0,1,4,2.83h.15a4.16,4.16,0,0,1,4-2.83,3.85,3.85,0,0,1,3.29,1.52,7.51,7.51,0,0,1,1.12,4.45v10.65Z"/><path class="cls-3" d="M716.45,307.08l-.77-2.22h-.09a5.55,5.55,0,0,1-1.79,2,4.44,4.44,0,0,1-2.33.55,3.37,3.37,0,0,1-2.83-1.35,6,6,0,0,1-1-3.75,4.85,4.85,0,0,1,1.41-3.83,6.68,6.68,0,0,1,4.23-1.39l2.16-.08V295.8c0-1.52-.66-2.28-2-2.28a6.77,6.77,0,0,0-3.37,1.14L708.72,292a9.66,9.66,0,0,1,5.29-1.54,5,5,0,0,1,3.94,1.49,6,6,0,0,1,1.36,4.21v10.95Zm-3.38-2.75a2,2,0,0,0,1.71-1,4.6,4.6,0,0,0,.63-2.56v-1.37l-1.2.06a2.66,2.66,0,0,0-2,.76,2.94,2.94,0,0,0-.63,2.05C711.63,303.66,712.11,304.33,713.07,304.33Z"/><path class="cls-3" d="M730.59,307.08v-9.72a6.43,6.43,0,0,0-.43-2.68,1.42,1.42,0,0,0-1.37-.91,1.94,1.94,0,0,0-1.85,1.25,10.9,10.9,0,0,0-.58,4.23v7.83h-3.9V290.77h3.09l.47,2.09h.25a4,4,0,0,1,3.81-2.4,3.86,3.86,0,0,1,3.33,1.52,7.51,7.51,0,0,1,1.11,4.45v10.65Z"/><path class="cls-3" d="M742,307.38a4,4,0,0,1-3.56-2.23,12.3,12.3,0,0,1-1.31-6.2,12.78,12.78,0,0,1,1.28-6.24,3.9,3.9,0,0,1,3.51-2.25,3.32,3.32,0,0,1,1.93.55,5,5,0,0,1,1.5,1.85h.24q-.18-2.22-.18-3.12v-5.45h3.9v22.79h-2.9l-.66-2.12h-.14A3.91,3.91,0,0,1,742,307.38Zm1.26-3.3a1.66,1.66,0,0,0,1.58-1,9.31,9.31,0,0,0,.54-3.59V299a11.29,11.29,0,0,0-.5-4,1.72,1.72,0,0,0-1.67-1.15c-.72,0-1.25.44-1.57,1.32a11.62,11.62,0,0,0-.49,3.86,11,11,0,0,0,.49,3.8A1.7,1.7,0,0,0,743.22,304.08Z"/><path class="cls-3" d="M760.55,307.08l-.78-2.22h-.09a5.55,5.55,0,0,1-1.79,2,4.44,4.44,0,0,1-2.33.55,3.37,3.37,0,0,1-2.83-1.35,6,6,0,0,1-1-3.75,4.85,4.85,0,0,1,1.41-3.83,6.68,6.68,0,0,1,4.23-1.39l2.17-.08V295.8q0-2.28-2-2.28a6.77,6.77,0,0,0-3.37,1.14L752.81,292a9.66,9.66,0,0,1,5.29-1.54,5.06,5.06,0,0,1,3.95,1.49,6,6,0,0,1,1.35,4.21v10.95Zm-3.39-2.75a2,2,0,0,0,1.71-1,4.6,4.6,0,0,0,.64-2.56v-1.37l-1.21.06a2.68,2.68,0,0,0-1.95.76,2.94,2.94,0,0,0-.62,2.05C755.73,303.66,756.2,304.33,757.16,304.33Zm-1-15.42v-.4a17.48,17.48,0,0,0,1.4-2.21c.52-1,.9-1.69,1.12-2.2h4.66v.31a11.68,11.68,0,0,1-1.74,2c-.93.93-1.83,1.75-2.7,2.47Z"/><path class="cls-3" d="M766,300.76v-3.43h7.37v3.43Z"/><path class="cls-3" d="M779.93,307.08H776V284.29h3.9Z"/><path class="cls-3" d="M791.19,307.08l-.78-2.22h-.08a5.64,5.64,0,0,1-1.79,2,4.47,4.47,0,0,1-2.33.55,3.39,3.39,0,0,1-2.84-1.35,6.1,6.1,0,0,1-1-3.75,4.82,4.82,0,0,1,1.42-3.83,6.67,6.67,0,0,1,4.22-1.39l2.17-.08V295.8q0-2.28-2-2.28a6.8,6.8,0,0,0-3.37,1.14L783.46,292a9.65,9.65,0,0,1,5.28-1.54,5,5,0,0,1,4,1.49,6,6,0,0,1,1.36,4.21v10.95Zm-3.38-2.75a2,2,0,0,0,1.7-1,4.52,4.52,0,0,0,.64-2.56v-1.37l-1.2.06a2.7,2.7,0,0,0-2,.76,3,3,0,0,0-.62,2.05C786.37,303.66,786.85,304.33,787.81,304.33Z"/><path class="cls-3" d="M811.89,307.38a3.62,3.62,0,0,1-1.87-.48,4.6,4.6,0,0,1-1.52-1.68h-.2c.16,1.33.23,2.13.23,2.41v6.66h-3.92V290.77h3l.67,2.12h.18a3.81,3.81,0,0,1,3.53-2.43,3.86,3.86,0,0,1,3.48,2.2,12.7,12.7,0,0,1,1.26,6.24,12.46,12.46,0,0,1-1.3,6.22A4,4,0,0,1,811.89,307.38Zm-1.2-13.61a1.71,1.71,0,0,0-1.65,1.06,9,9,0,0,0-.54,3.52v.52a11,11,0,0,0,.52,3.92,1.75,1.75,0,0,0,1.7,1.23c1.36,0,2-1.73,2-5.18a10.74,10.74,0,0,0-.51-3.81A1.67,1.67,0,0,0,810.69,293.77Z"/><path class="cls-3" d="M831.58,298.9a10.13,10.13,0,0,1-1.7,6.24,5.55,5.55,0,0,1-4.66,2.24,5.49,5.49,0,0,1-3.31-1,6.42,6.42,0,0,1-2.21-3,11.94,11.94,0,0,1-.78-4.5,10.14,10.14,0,0,1,1.68-6.21,5.53,5.53,0,0,1,4.68-2.23,5.45,5.45,0,0,1,4.59,2.28A10,10,0,0,1,831.58,298.9Zm-8.68,0a10.29,10.29,0,0,0,.56,3.85,1.86,1.86,0,0,0,1.79,1.3q2.34,0,2.34-5.15a10,10,0,0,0-.56-3.83,1.89,1.89,0,0,0-3.57,0A10,10,0,0,0,822.9,298.9Z"/><path class="cls-3" d="M841.27,290.46a4.52,4.52,0,0,1,1.41.22l-.45,3.78a3.2,3.2,0,0,0-1.07-.15,2.49,2.49,0,0,0-2.19,1.12,5.86,5.86,0,0,0-.76,3.26v8.39h-3.9V290.77h3.21l.44,2.54h.13a5.91,5.91,0,0,1,1.41-2.19A2.63,2.63,0,0,1,841.27,290.46Z"/><path class="cls-3" d="M854.44,307.08l-4.26-16.31h4l2.08,9.44c.09.44.19,1.09.32,1.93s.19,1.45.22,1.82h.06a12.15,12.15,0,0,1,.13-1.26c.07-.54.15-1.05.22-1.5s.83-3.94,2.26-10.43h4l-4.27,16.31Z"/><path class="cls-3" d="M877.29,298.9a10.06,10.06,0,0,1-1.7,6.24,5.9,5.9,0,0,1-8,1.21,6.5,6.5,0,0,1-2.22-3,12.15,12.15,0,0,1-.77-4.5,10.14,10.14,0,0,1,1.68-6.21,5.51,5.51,0,0,1,4.67-2.23,5.45,5.45,0,0,1,4.6,2.28A10.08,10.08,0,0,1,877.29,298.9Zm-8.67,0a10.29,10.29,0,0,0,.56,3.85,1.86,1.86,0,0,0,1.79,1.3q2.34,0,2.34-5.15a9.78,9.78,0,0,0-.57-3.83,1.88,1.88,0,0,0-3.56,0A10,10,0,0,0,868.62,298.9Z"/><path class="cls-3" d="M888.48,307.08H879v-2.49l5-10.67H879.3v-3.15h9v2.75l-4.86,10.41h5.06Z"/><path class="cls-3" d="M890.71,305.08a2.45,2.45,0,0,1,.61-1.78,2.92,2.92,0,0,1,3.62,0,2.42,2.42,0,0,1,.62,1.78,2.36,2.36,0,0,1-.64,1.77,2.43,2.43,0,0,1-1.79.63,2.37,2.37,0,0,1-1.8-.64A2.42,2.42,0,0,1,890.71,305.08Z"/><path class="cls-3" d="M159.74,368.35c0,3.54-.66,6.27-2,8.17a7.13,7.13,0,0,1-11.41,0q-2-2.85-2-8.21c0-3.55.67-6.26,2-8.15a6.58,6.58,0,0,1,5.74-2.84,6.49,6.49,0,0,1,5.68,2.85Q159.74,363,159.74,368.35Zm-11.32,0a13.22,13.22,0,0,0,.92,5.58,2.92,2.92,0,0,0,2.71,1.92q3.6,0,3.6-7.5t-3.57-7.5a2.92,2.92,0,0,0-2.74,1.91A13.21,13.21,0,0,0,148.42,368.35Z"/><path class="cls-3" d="M177.32,379.38a3.59,3.59,0,0,1-1.87-.48,4.6,4.6,0,0,1-1.52-1.68h-.2c.16,1.33.23,2.13.23,2.41v6.66H170V362.77h3l.67,2.12h.17a3.82,3.82,0,0,1,7-.23,12.7,12.7,0,0,1,1.26,6.24,12.46,12.46,0,0,1-1.3,6.22A4,4,0,0,1,177.32,379.38Zm-1.2-13.61a1.7,1.7,0,0,0-1.65,1.06,9,9,0,0,0-.54,3.52v.52a10.75,10.75,0,0,0,.52,3.92,1.74,1.74,0,0,0,1.7,1.23c1.36,0,2-1.73,2-5.18a10.74,10.74,0,0,0-.51-3.81A1.68,1.68,0,0,0,176.12,365.77Z"/><path class="cls-3" d="M191.88,362.46a4.41,4.41,0,0,1,1.4.22l-.45,3.78a3.16,3.16,0,0,0-1.07-.15,2.47,2.47,0,0,0-2.18,1.12,5.78,5.78,0,0,0-.76,3.26v8.39h-3.9V362.77h3.21l.44,2.54h.13a5.91,5.91,0,0,1,1.41-2.19A2.59,2.59,0,0,1,191.88,362.46Z"/><path class="cls-3" d="M201.05,379.38a5.9,5.9,0,0,1-4.83-2.18,9.52,9.52,0,0,1-1.76-6.16,10.86,10.86,0,0,1,1.59-6.31,5.13,5.13,0,0,1,4.46-2.27,5.05,5.05,0,0,1,4.2,1.94,8.53,8.53,0,0,1,1.54,5.44v2.08h-7.84a5.31,5.31,0,0,0,.9,3.25,2.84,2.84,0,0,0,2.34,1.06,7.63,7.63,0,0,0,3.9-1.19v3.21A8.59,8.59,0,0,1,201.05,379.38Zm-.57-13.92a1.59,1.59,0,0,0-1.38.89,6,6,0,0,0-.63,2.74h4a5.82,5.82,0,0,0-.55-2.71A1.56,1.56,0,0,0,200.48,365.46Z"/><path class="cls-3" d="M214.22,379.38a5.1,5.1,0,0,1-4.44-2.13c-1-1.41-1.52-3.49-1.52-6.24s.48-5,1.44-6.43a5,5,0,0,1,4.46-2.12,7.67,7.67,0,0,1,1.9.26,6.57,6.57,0,0,1,1.79.76l-1.11,3a4.36,4.36,0,0,0-2.16-.72,1.86,1.86,0,0,0-1.79,1.29,10.42,10.42,0,0,0-.55,3.89,10.1,10.1,0,0,0,.54,3.79,1.83,1.83,0,0,0,1.77,1.25,5.74,5.74,0,0,0,3.07-1v3.42A6.31,6.31,0,0,1,214.22,379.38Zm2.37,3.51a3.17,3.17,0,0,1-1,2.49,4.78,4.78,0,0,1-3.22.91,5.49,5.49,0,0,1-1.92-.31v-2.25a6.81,6.81,0,0,0,1.77.25c.86,0,1.29-.33,1.29-1,0-.82-.77-1.36-2.3-1.61l1.16-2.32h2.53l-.54,1.12a3.22,3.22,0,0,1,1.63.92A2.45,2.45,0,0,1,216.59,382.89Z"/><path class="cls-3" d="M232,370.9a10.13,10.13,0,0,1-1.69,6.24,5.55,5.55,0,0,1-4.66,2.24,5.49,5.49,0,0,1-3.31-1,6.5,6.5,0,0,1-2.22-3,12.15,12.15,0,0,1-.77-4.5,10.14,10.14,0,0,1,1.68-6.21,5.53,5.53,0,0,1,4.68-2.23,5.45,5.45,0,0,1,4.59,2.28A10,10,0,0,1,232,370.9Zm-8.67,0a10.29,10.29,0,0,0,.56,3.85,1.86,1.86,0,0,0,1.79,1.3q2.34,0,2.34-5.15a10,10,0,0,0-.56-3.83,1.89,1.89,0,0,0-3.57,0A10,10,0,0,0,223.37,370.9Z"/><path class="cls-3" d="M246.49,379.38a4,4,0,0,1-3.56-2.23,12.3,12.3,0,0,1-1.31-6.2,12.78,12.78,0,0,1,1.28-6.24,3.9,3.9,0,0,1,3.51-2.25,3.32,3.32,0,0,1,1.93.55,5,5,0,0,1,1.5,1.85h.24q-.18-2.22-.18-3.12v-5.45h3.9v22.79h-2.9l-.66-2.12h-.13A3.92,3.92,0,0,1,246.49,379.38Zm1.26-3.3a1.66,1.66,0,0,0,1.58-1,9.31,9.31,0,0,0,.54-3.59V371a11.29,11.29,0,0,0-.5-4,1.72,1.72,0,0,0-1.67-1.15c-.72,0-1.24.44-1.57,1.32a11.62,11.62,0,0,0-.49,3.86,10.75,10.75,0,0,0,.5,3.8A1.69,1.69,0,0,0,247.75,376.08Z"/><path class="cls-3" d="M265.08,379.08l-.78-2.22h-.09a5.53,5.53,0,0,1-1.78,2,4.49,4.49,0,0,1-2.33.55,3.39,3.39,0,0,1-2.84-1.35,6,6,0,0,1-1-3.75,4.85,4.85,0,0,1,1.41-3.83,6.68,6.68,0,0,1,4.23-1.39L264,369V367.8q0-2.28-2-2.28a6.77,6.77,0,0,0-3.37,1.14L257.34,364a9.68,9.68,0,0,1,5.29-1.54,5.06,5.06,0,0,1,3.95,1.49,6,6,0,0,1,1.35,4.21v10.95Zm-3.39-2.75a2,2,0,0,0,1.71-1,4.6,4.6,0,0,0,.64-2.56v-1.37l-1.2.06a2.69,2.69,0,0,0-2,.76,2.94,2.94,0,0,0-.62,2.05C260.26,375.66,260.74,376.33,261.69,376.33Z"/><path class="cls-3" d="M282.39,379.08h-3.9V356.29h3.9Z"/><path class="cls-3" d="M293.66,379.08l-.78-2.22h-.09a5.46,5.46,0,0,1-1.79,2,4.43,4.43,0,0,1-2.32.55,3.37,3.37,0,0,1-2.84-1.35,6,6,0,0,1-1-3.75,4.85,4.85,0,0,1,1.41-3.83,6.68,6.68,0,0,1,4.23-1.39l2.17-.08V367.8q0-2.28-2-2.28a6.77,6.77,0,0,0-3.37,1.14L285.92,364a9.68,9.68,0,0,1,5.29-1.54,5.06,5.06,0,0,1,4,1.49,6,6,0,0,1,1.35,4.21v10.95Zm-3.39-2.75a2,2,0,0,0,1.71-1,4.6,4.6,0,0,0,.64-2.56v-1.37l-1.21.06a2.68,2.68,0,0,0-2,.76,2.94,2.94,0,0,0-.62,2.05C288.84,375.66,289.31,376.33,290.27,376.33Z"/><path class="cls-3" d="M315.86,379.08v-9.72c0-2.4-.59-3.59-1.77-3.59a1.92,1.92,0,0,0-1.85,1.28,11.14,11.14,0,0,0-.55,4.11v7.92h-3.93v-9.72c0-2.4-.6-3.59-1.8-3.59a1.9,1.9,0,0,0-1.83,1.27,11.16,11.16,0,0,0-.57,4.21v7.83h-3.9V362.77h3.09l.47,2.09h.25a3.94,3.94,0,0,1,1.6-1.82,4.32,4.32,0,0,1,2.18-.58,3.87,3.87,0,0,1,4,2.83h.15a4.16,4.16,0,0,1,4-2.83,3.85,3.85,0,0,1,3.29,1.52,7.51,7.51,0,0,1,1.12,4.45v10.65Z"/><path class="cls-3" d="M330.22,379.38a3.62,3.62,0,0,1-1.87-.48,4.6,4.6,0,0,1-1.52-1.68h-.2c.16,1.33.23,2.13.23,2.41v6.66h-3.92V362.77h3l.67,2.12h.18a3.81,3.81,0,0,1,3.53-2.43,3.86,3.86,0,0,1,3.48,2.2,12.7,12.7,0,0,1,1.26,6.24,12.46,12.46,0,0,1-1.3,6.22A4,4,0,0,1,330.22,379.38ZM329,365.77a1.71,1.71,0,0,0-1.65,1.06,9,9,0,0,0-.54,3.52v.52a11,11,0,0,0,.52,3.92,1.75,1.75,0,0,0,1.7,1.23c1.36,0,2.05-1.73,2.05-5.18a10.74,10.74,0,0,0-.51-3.81A1.67,1.67,0,0,0,329,365.77Z"/><path class="cls-3" d="M345.82,379.08l-.78-2.22H345a5.53,5.53,0,0,1-1.78,2,4.47,4.47,0,0,1-2.33.55A3.39,3.39,0,0,1,338,378a6.1,6.1,0,0,1-1-3.75,4.85,4.85,0,0,1,1.41-3.83,6.73,6.73,0,0,1,4.23-1.39l2.17-.08V367.8q0-2.28-2-2.28a6.77,6.77,0,0,0-3.37,1.14L338.08,364a9.71,9.71,0,0,1,5.29-1.54,5,5,0,0,1,3.95,1.49,6,6,0,0,1,1.36,4.21v10.95Zm-3.38-2.75a2,2,0,0,0,1.7-1,4.52,4.52,0,0,0,.64-2.56v-1.37l-1.2.06a2.7,2.7,0,0,0-2,.76,3,3,0,0,0-.62,2.05C341,375.66,341.48,376.33,342.44,376.33Z"/><path class="cls-3" d="M358.78,362.46a4.52,4.52,0,0,1,1.41.22l-.46,3.78a3.14,3.14,0,0,0-1.06-.15,2.49,2.49,0,0,0-2.19,1.12,5.86,5.86,0,0,0-.76,3.26v8.39h-3.9V362.77H355l.44,2.54h.13a5.91,5.91,0,0,1,1.41-2.19A2.63,2.63,0,0,1,358.78,362.46Z"/><path class="cls-3" d="M361.8,358.5a2.1,2.1,0,0,1,.56-1.53,2.18,2.18,0,0,1,1.58-.56,2.09,2.09,0,0,1,1.52.56,2.07,2.07,0,0,1,.57,1.53,2,2,0,0,1-.58,1.55,2.11,2.11,0,0,1-1.51.55,2.15,2.15,0,0,1-1.55-.55A2,2,0,0,1,361.8,358.5Zm4.06,20.58H362V362.77h3.9Z"/><path class="cls-3" d="M377.33,379.08v-9.72a6.43,6.43,0,0,0-.43-2.68,1.42,1.42,0,0,0-1.37-.91,1.94,1.94,0,0,0-1.85,1.25,10.86,10.86,0,0,0-.59,4.23v7.83H369.2V362.77h3.09l.47,2.09H373a4,4,0,0,1,3.8-2.4,3.87,3.87,0,0,1,3.34,1.52,7.59,7.59,0,0,1,1.1,4.45v10.65Z"/><path class="cls-3" d="M392.4,379.08l-.78-2.22h-.08a5.64,5.64,0,0,1-1.79,2,4.47,4.47,0,0,1-2.33.55,3.36,3.36,0,0,1-2.83-1.35,6,6,0,0,1-1-3.75,4.82,4.82,0,0,1,1.42-3.83,6.67,6.67,0,0,1,4.22-1.39l2.17-.08V367.8q0-2.28-2-2.28a6.8,6.8,0,0,0-3.37,1.14L384.67,364a9.65,9.65,0,0,1,5.28-1.54,5,5,0,0,1,3.95,1.49,6,6,0,0,1,1.36,4.21v10.95ZM389,376.33a2,2,0,0,0,1.7-1,4.52,4.52,0,0,0,.64-2.56v-1.37l-1.2.06a2.7,2.7,0,0,0-2,.76,3,3,0,0,0-.62,2.05C387.58,375.66,388.06,376.33,389,376.33Z"/><path class="cls-3" d="M414,379.08v-9.72a6.43,6.43,0,0,0-.43-2.68,1.42,1.42,0,0,0-1.37-.91A1.94,1.94,0,0,0,410.3,367a10.9,10.9,0,0,0-.58,4.23v7.83h-3.9V362.77h3.09l.47,2.09h.25a4,4,0,0,1,3.81-2.4,3.86,3.86,0,0,1,3.33,1.52,7.52,7.52,0,0,1,1.1,4.45v10.65Z"/><path class="cls-3" d="M433.11,370.9a10.13,10.13,0,0,1-1.7,6.24,5.91,5.91,0,0,1-8,1.21,6.48,6.48,0,0,1-2.21-3,11.94,11.94,0,0,1-.78-4.5,10.07,10.07,0,0,1,1.69-6.21,5.51,5.51,0,0,1,4.67-2.23,5.45,5.45,0,0,1,4.59,2.28A10,10,0,0,1,433.11,370.9Zm-8.67,0a10.32,10.32,0,0,0,.55,3.85,1.86,1.86,0,0,0,1.79,1.3q2.34,0,2.34-5.15a9.81,9.81,0,0,0-.56-3.83,1.89,1.89,0,0,0-3.57,0A10,10,0,0,0,424.44,370.9Z"/><path class="cls-3" d="M459.46,379.08v-9.72c0-2.4-.59-3.59-1.77-3.59a1.91,1.91,0,0,0-1.85,1.28,11.14,11.14,0,0,0-.55,4.11v7.92h-3.93v-9.72c0-2.4-.6-3.59-1.8-3.59a1.9,1.9,0,0,0-1.83,1.27,11.16,11.16,0,0,0-.57,4.21v7.83h-3.9V362.77h3.09l.47,2.09h.25a3.89,3.89,0,0,1,1.6-1.82,4.32,4.32,0,0,1,2.18-.58,3.87,3.87,0,0,1,4,2.83H455a4.16,4.16,0,0,1,4-2.83,3.85,3.85,0,0,1,3.29,1.52,7.51,7.51,0,0,1,1.12,4.45v10.65Z"/><path class="cls-3" d="M472.56,379.38a5.9,5.9,0,0,1-4.83-2.18A9.52,9.52,0,0,1,466,371a10.86,10.86,0,0,1,1.59-6.31,5.13,5.13,0,0,1,4.46-2.27,5.06,5.06,0,0,1,4.2,1.94,8.59,8.59,0,0,1,1.54,5.44v2.08h-7.84a5.38,5.38,0,0,0,.89,3.25,2.87,2.87,0,0,0,2.35,1.06,7.57,7.57,0,0,0,3.89-1.19v3.21A8.55,8.55,0,0,1,472.56,379.38ZM472,365.46a1.59,1.59,0,0,0-1.38.89,6,6,0,0,0-.63,2.74h3.95a6,6,0,0,0-.54-2.71A1.56,1.56,0,0,0,472,365.46Z"/><path class="cls-3" d="M487.29,362.46a4.52,4.52,0,0,1,1.41.22l-.45,3.78a3.2,3.2,0,0,0-1.07-.15,2.49,2.49,0,0,0-2.19,1.12,5.86,5.86,0,0,0-.76,3.26v8.39h-3.89V362.77h3.2l.44,2.54h.13a5.91,5.91,0,0,1,1.41-2.19A2.63,2.63,0,0,1,487.29,362.46Z"/><path class="cls-3" d="M495.83,379.38a5.1,5.1,0,0,1-4.43-2.13q-1.53-2.12-1.53-6.24,0-4.31,1.44-6.43a5,5,0,0,1,4.46-2.12,7.68,7.68,0,0,1,1.91.26,6.71,6.71,0,0,1,1.79.76l-1.12,3a4.36,4.36,0,0,0-2.15-.72,1.87,1.87,0,0,0-1.8,1.29,10.67,10.67,0,0,0-.54,3.89,10.1,10.1,0,0,0,.54,3.79,1.83,1.83,0,0,0,1.77,1.25,5.69,5.69,0,0,0,3.06-1v3.42A6.28,6.28,0,0,1,495.83,379.38Z"/><path class="cls-3" d="M509.57,379.08l-.77-2.22h-.09a5.55,5.55,0,0,1-1.79,2,4.44,4.44,0,0,1-2.33.55,3.37,3.37,0,0,1-2.83-1.35,6,6,0,0,1-1-3.75,4.85,4.85,0,0,1,1.41-3.83,6.68,6.68,0,0,1,4.23-1.39l2.16-.08V367.8c0-1.52-.66-2.28-2-2.28a6.77,6.77,0,0,0-3.37,1.14L501.84,364a9.66,9.66,0,0,1,5.29-1.54,5,5,0,0,1,3.94,1.49,6,6,0,0,1,1.36,4.21v10.95Zm-3.38-2.75a2,2,0,0,0,1.71-1,4.6,4.6,0,0,0,.63-2.56v-1.37l-1.2.06a2.66,2.66,0,0,0-1.95.76,2.94,2.94,0,0,0-.63,2.05C504.75,375.66,505.23,376.33,506.19,376.33Z"/><path class="cls-3" d="M519.87,379.38a4,4,0,0,1-3.56-2.23A12.3,12.3,0,0,1,515,371a12.79,12.79,0,0,1,1.27-6.24,3.9,3.9,0,0,1,3.52-2.25,3.36,3.36,0,0,1,1.93.55,5,5,0,0,1,1.5,1.85h.23q-.18-2.22-.18-3.12v-5.45h3.9v22.79h-2.9l-.66-2.12h-.13A3.92,3.92,0,0,1,519.87,379.38Zm1.26-3.3a1.66,1.66,0,0,0,1.58-1,9.07,9.07,0,0,0,.55-3.59V371a11,11,0,0,0-.51-4,1.71,1.71,0,0,0-1.66-1.15c-.73,0-1.25.44-1.58,1.32A11.89,11.89,0,0,0,519,371a11,11,0,0,0,.5,3.8A1.69,1.69,0,0,0,521.13,376.08Z"/><path class="cls-3" d="M542.55,370.9a10.13,10.13,0,0,1-1.7,6.24,5.91,5.91,0,0,1-8,1.21,6.48,6.48,0,0,1-2.21-3,11.94,11.94,0,0,1-.78-4.5,10.07,10.07,0,0,1,1.69-6.21,5.51,5.51,0,0,1,4.67-2.23,5.45,5.45,0,0,1,4.59,2.28A10,10,0,0,1,542.55,370.9Zm-8.67,0a10.32,10.32,0,0,0,.55,3.85,1.86,1.86,0,0,0,1.79,1.3q2.34,0,2.34-5.15a10,10,0,0,0-.56-3.83,1.89,1.89,0,0,0-3.57,0A10,10,0,0,0,533.88,370.9Z"/><path class="cls-3" d="M556.6,379.08h-3.9V356.29h3.9Z"/><path class="cls-3" d="M559.73,358.5a2.1,2.1,0,0,1,.56-1.53,2.16,2.16,0,0,1,1.58-.56,2.09,2.09,0,0,1,1.52.56,2.07,2.07,0,0,1,.57,1.53,2,2,0,0,1-.58,1.55,2.11,2.11,0,0,1-1.51.55,2.15,2.15,0,0,1-1.55-.55A2,2,0,0,1,559.73,358.5Zm4.06,20.58h-3.9V362.77h3.9Z"/><path class="cls-3" d="M569.73,379.08l-4.26-16.31h4l2.08,9.44c.08.44.19,1.09.31,1.93s.2,1.45.23,1.82h.06q0-.43.12-1.26c.07-.54.15-1.05.23-1.5s.83-3.94,2.25-10.43h4.05l-4.28,16.31Z"/><path class="cls-3" d="M587.46,362.46a4.52,4.52,0,0,1,1.41.22l-.46,3.78a3.16,3.16,0,0,0-1.07-.15,2.48,2.48,0,0,0-2.18,1.12,5.78,5.78,0,0,0-.76,3.26v8.39h-3.9V362.77h3.21l.44,2.54h.13a5.91,5.91,0,0,1,1.41-2.19A2.61,2.61,0,0,1,587.46,362.46Z"/><path class="cls-3" d="M596.63,379.38a5.9,5.9,0,0,1-4.83-2.18A9.57,9.57,0,0,1,590,371a10.86,10.86,0,0,1,1.59-6.31,5.13,5.13,0,0,1,4.46-2.27,5.05,5.05,0,0,1,4.2,1.94,8.53,8.53,0,0,1,1.54,5.44v2.08H594a5.31,5.31,0,0,0,.9,3.25,2.84,2.84,0,0,0,2.34,1.06,7.63,7.63,0,0,0,3.9-1.19v3.21A8.59,8.59,0,0,1,596.63,379.38Zm-.57-13.92a1.59,1.59,0,0,0-1.38.89,6,6,0,0,0-.63,2.74h4a5.82,5.82,0,0,0-.55-2.71A1.56,1.56,0,0,0,596.06,365.46Z"/><path class="cls-3" d="M617.84,379.38A5.9,5.9,0,0,1,613,377.2a9.57,9.57,0,0,1-1.76-6.16,10.79,10.79,0,0,1,1.6-6.31,5.11,5.11,0,0,1,4.45-2.27,5,5,0,0,1,4.2,1.94,8.53,8.53,0,0,1,1.54,5.44v2.08H615.2a5.31,5.31,0,0,0,.9,3.25,2.84,2.84,0,0,0,2.34,1.06,7.63,7.63,0,0,0,3.9-1.19v3.21A8.59,8.59,0,0,1,617.84,379.38Zm-.57-13.92a1.59,1.59,0,0,0-1.38.89,6,6,0,0,0-.63,2.74h4a6,6,0,0,0-.54-2.71A1.59,1.59,0,0,0,617.27,365.46Z"/><path class="cls-3" d="M634.38,374.31A5,5,0,0,1,633,378a5.75,5.75,0,0,1-4.12,1.34,7.57,7.57,0,0,1-4-1V375a7.32,7.32,0,0,0,1.88.92,5.87,5.87,0,0,0,1.9.37,1.94,1.94,0,0,0,1.38-.45,1.54,1.54,0,0,0,.48-1.18,1.91,1.91,0,0,0-.5-1.3,8.52,8.52,0,0,0-1.83-1.36,7.63,7.63,0,0,1-2.54-2.25,5.05,5.05,0,0,1-.77-2.82,4.08,4.08,0,0,1,1.43-3.3,5.83,5.83,0,0,1,3.91-1.21,7.87,7.87,0,0,1,4.09,1.14L633,366.4a6,6,0,0,0-2.76-.85,1.48,1.48,0,0,0-1.12.39,1.37,1.37,0,0,0-.37,1,1.68,1.68,0,0,0,.46,1.17,8.26,8.26,0,0,0,1.72,1.28,11.07,11.07,0,0,1,2.14,1.56,4.59,4.59,0,0,1,.95,1.47A5,5,0,0,1,634.38,374.31Z"/><path class="cls-3" d="M642.51,376.08a4.52,4.52,0,0,0,1.77-.41v3.05a5,5,0,0,1-2.86.66,3.84,3.84,0,0,1-3.15-1.27,6,6,0,0,1-1-3.8v-8.45h-1.58v-1.75l2-1.4,1-3.46h2.49v3.52h3v3.09h-3v8.58C641.19,375.53,641.63,376.08,642.51,376.08Z"/><path class="cls-3" d="M654.56,379.08l-.77-2.22h-.09a5.55,5.55,0,0,1-1.79,2,4.44,4.44,0,0,1-2.33.55,3.37,3.37,0,0,1-2.83-1.35,6,6,0,0,1-1-3.75,4.85,4.85,0,0,1,1.41-3.83,6.68,6.68,0,0,1,4.23-1.39l2.16-.08V367.8c0-1.52-.66-2.28-2-2.28a6.77,6.77,0,0,0-3.37,1.14L646.83,364a9.66,9.66,0,0,1,5.29-1.54,5,5,0,0,1,3.94,1.49,6,6,0,0,1,1.36,4.21v10.95Zm-3.38-2.75a2,2,0,0,0,1.71-1,4.6,4.6,0,0,0,.63-2.56v-1.37l-1.2.06a2.66,2.66,0,0,0-2,.76,2.94,2.94,0,0,0-.63,2.05C649.74,375.66,650.22,376.33,651.18,376.33Zm-1-15.42v-.4a17.6,17.6,0,0,0,1.39-2.21c.53-1,.91-1.69,1.13-2.2h4.66v.31a11.68,11.68,0,0,1-1.74,2c-.93.93-1.83,1.75-2.7,2.47Z"/><path class="cls-3" d="M672.27,379.38a4,4,0,0,1-3.56-2.23,12.41,12.41,0,0,1-1.3-6.2,12.78,12.78,0,0,1,1.28-6.24,3.89,3.89,0,0,1,3.51-2.25,3.36,3.36,0,0,1,1.93.55,5,5,0,0,1,1.5,1.85h.23c-.11-1.48-.17-2.52-.17-3.12v-5.45h3.89v22.79h-2.9L676,377h-.13A3.91,3.91,0,0,1,672.27,379.38Zm1.26-3.3a1.67,1.67,0,0,0,1.59-1,9.31,9.31,0,0,0,.54-3.59V371a11,11,0,0,0-.51-4,1.71,1.71,0,0,0-1.66-1.15c-.72,0-1.25.44-1.58,1.32a11.89,11.89,0,0,0-.49,3.86,11,11,0,0,0,.5,3.8A1.69,1.69,0,0,0,673.53,376.08Z"/><path class="cls-3" d="M688.89,379.38a5.87,5.87,0,0,1-4.83-2.18,9.52,9.52,0,0,1-1.77-6.16,10.86,10.86,0,0,1,1.6-6.31,5.52,5.52,0,0,1,8.66-.33,8.59,8.59,0,0,1,1.54,5.44v2.08h-7.84a5.38,5.38,0,0,0,.89,3.25,2.87,2.87,0,0,0,2.35,1.06,7.59,7.59,0,0,0,3.89-1.19v3.21A8.58,8.58,0,0,1,688.89,379.38Zm-.58-13.92a1.59,1.59,0,0,0-1.37.89,6,6,0,0,0-.63,2.74h4a6,6,0,0,0-.54-2.71A1.57,1.57,0,0,0,688.31,365.46Z"/><path class="cls-3" d="M715,379.08H703.5v-3l3.81-5.39a38.3,38.3,0,0,0,2.16-3.3,9.81,9.81,0,0,0,.86-2.07,7.33,7.33,0,0,0,.28-2,2.69,2.69,0,0,0-.55-1.85,1.82,1.82,0,0,0-1.43-.61,2.68,2.68,0,0,0-1.45.41,8,8,0,0,0-1.64,1.48l-2.23-2.35a9.93,9.93,0,0,1,2.86-2.39,6.55,6.55,0,0,1,2.86-.64,5.37,5.37,0,0,1,4.05,1.52,5.9,5.9,0,0,1,1.45,4.24,9.79,9.79,0,0,1-.26,2.33,10.46,10.46,0,0,1-.8,2.2,17,17,0,0,1-1.34,2.3q-.79,1.2-4.16,5.47v.12h7Z"/><path class="cls-3" d="M729.11,368.38c0,3.87-.47,6.68-1.4,8.4a4.74,4.74,0,0,1-4.5,2.6,4.64,4.64,0,0,1-4.46-2.61q-1.37-2.61-1.36-8.39t1.42-8.43a5.14,5.14,0,0,1,8.92-.06Q729.11,362.46,729.11,368.38Zm-7.73,0a30.34,30.34,0,0,0,.38,6.05c.26,1,.75,1.56,1.48,1.56a1.26,1.26,0,0,0,1.13-.67,5.91,5.91,0,0,0,.58-2.24,44.55,44.55,0,0,0,.18-4.7,29.31,29.31,0,0,0-.41-6c-.28-1.07-.77-1.61-1.48-1.61s-1.22.53-1.48,1.6A30.75,30.75,0,0,0,721.38,368.38Z"/><path class="cls-3" d="M732.83,379.08l6-17.85h-7.47V357.7h11.48v2.69L737,379.08Z"/><path class="cls-3" d="M750.38,375.93a45.32,45.32,0,0,1-2.58,7h-3c.63-2.6,1.13-5.05,1.48-7.35h3.86Z"/><path class="cls-3" d="M764.9,367q0,12.38-8.28,12.38a9.18,9.18,0,0,1-2.29-.24v-3.35a6.27,6.27,0,0,0,1.86.32,4.36,4.36,0,0,0,3.72-1.7,9.64,9.64,0,0,0,1.4-5.35h-.13a4.12,4.12,0,0,1-1.34,1.81,3.38,3.38,0,0,1-2.08.66,3.85,3.85,0,0,1-3.38-1.79,8.72,8.72,0,0,1-1.2-4.91,8.55,8.55,0,0,1,1.57-5.43,5.08,5.08,0,0,1,4.21-2,4.86,4.86,0,0,1,4.4,2.48C764.39,361.52,764.9,363.89,764.9,367ZM759,360.79a1.58,1.58,0,0,0-1.4.95,6.63,6.63,0,0,0-.52,3,6.2,6.2,0,0,0,.46,2.63,1.46,1.46,0,0,0,1.37.95,1.74,1.74,0,0,0,1.45-1,3.89,3.89,0,0,0,.62-2.19,7.87,7.87,0,0,0-.54-3.14C760.07,361.2,759.59,360.79,759,360.79Z"/><path class="cls-3" d="M773,357.39a5.52,5.52,0,0,1,4,1.42,5.08,5.08,0,0,1,1.5,3.87,5.39,5.39,0,0,1-.7,2.73,7.29,7.29,0,0,1-2.36,2.34,8.71,8.71,0,0,1,2.66,2.73,6.06,6.06,0,0,1,.79,3,5.72,5.72,0,0,1-1.61,4.24,5.78,5.78,0,0,1-4.27,1.61,6,6,0,0,1-4.34-1.49,5.58,5.58,0,0,1-1.57-4.24,6.53,6.53,0,0,1,.79-3.26,7,7,0,0,1,2.42-2.47,8,8,0,0,1-2.17-2.45,5.86,5.86,0,0,1-.66-2.79,5,5,0,0,1,1.55-3.85A5.59,5.59,0,0,1,773,357.39Zm-2.13,16.05a3.52,3.52,0,0,0,.54,2.06,1.76,1.76,0,0,0,1.53.76,1.87,1.87,0,0,0,1.62-.76,3.59,3.59,0,0,0,.53-2.06,3.78,3.78,0,0,0-.42-1.74,7.17,7.17,0,0,0-1.64-1.89l-.21-.2a5.07,5.07,0,0,0-1.45,1.6A4.6,4.6,0,0,0,770.9,373.44Zm2.1-13a1.42,1.42,0,0,0-1.26.61,2.93,2.93,0,0,0-.43,1.73,3.86,3.86,0,0,0,.35,1.69A4.74,4.74,0,0,0,773,366a4.42,4.42,0,0,0,1.32-1.49,3.92,3.92,0,0,0,.36-1.72Q774.71,360.48,773,360.48Z"/><path class="cls-3" d="M796,362.46a4.52,4.52,0,0,1,1.41.22l-.46,3.78a3.16,3.16,0,0,0-1.07-.15,2.48,2.48,0,0,0-2.18,1.12,5.78,5.78,0,0,0-.76,3.26v8.39H789V362.77h3.21l.44,2.54h.13a5.91,5.91,0,0,1,1.41-2.19A2.63,2.63,0,0,1,796,362.46Z"/><path class="cls-3" d="M805.15,379.38a5.9,5.9,0,0,1-4.83-2.18,9.57,9.57,0,0,1-1.76-6.16,10.86,10.86,0,0,1,1.59-6.31,5.13,5.13,0,0,1,4.46-2.27,5,5,0,0,1,4.2,1.94,8.53,8.53,0,0,1,1.54,5.44v2.08h-7.84a5.31,5.31,0,0,0,.9,3.25,2.84,2.84,0,0,0,2.34,1.06,7.63,7.63,0,0,0,3.9-1.19v3.21A8.59,8.59,0,0,1,805.15,379.38Zm-.57-13.92a1.59,1.59,0,0,0-1.38.89,6,6,0,0,0-.63,2.74h4a5.82,5.82,0,0,0-.55-2.71A1.56,1.56,0,0,0,804.58,365.46Z"/><path class="cls-3" d="M820.93,379.08l-.78-2.22h-.09a5.46,5.46,0,0,1-1.79,2,4.43,4.43,0,0,1-2.32.55,3.37,3.37,0,0,1-2.84-1.35,6,6,0,0,1-1-3.75,4.85,4.85,0,0,1,1.41-3.83,6.68,6.68,0,0,1,4.23-1.39l2.17-.08V367.8q0-2.28-2-2.28a6.77,6.77,0,0,0-3.37,1.14L813.19,364a9.68,9.68,0,0,1,5.29-1.54,5.06,5.06,0,0,1,3.95,1.49,6,6,0,0,1,1.35,4.21v10.95Zm-3.39-2.75a2,2,0,0,0,1.71-1,4.6,4.6,0,0,0,.64-2.56v-1.37l-1.2.06a2.69,2.69,0,0,0-2,.76,2.94,2.94,0,0,0-.62,2.05C816.11,375.66,816.59,376.33,817.54,376.33Z"/><path class="cls-3" d="M826.8,358.5a2.1,2.1,0,0,1,.56-1.53,2.18,2.18,0,0,1,1.58-.56,2.09,2.09,0,0,1,1.52.56,2.07,2.07,0,0,1,.57,1.53,2,2,0,0,1-.58,1.55,2.11,2.11,0,0,1-1.51.55,2.15,2.15,0,0,1-1.55-.55A2,2,0,0,1,826.8,358.5Zm4.06,20.58H827V362.77h3.9Z"/><path class="cls-3" d="M843,374.31a5,5,0,0,1-1.4,3.73,5.75,5.75,0,0,1-4.12,1.34,7.57,7.57,0,0,1-4-1V375a7.32,7.32,0,0,0,1.88.92,5.87,5.87,0,0,0,1.9.37,1.94,1.94,0,0,0,1.38-.45,1.54,1.54,0,0,0,.48-1.18,1.91,1.91,0,0,0-.5-1.3,8.52,8.52,0,0,0-1.83-1.36,7.68,7.68,0,0,1-2.55-2.25,5.13,5.13,0,0,1-.76-2.82,4.11,4.11,0,0,1,1.42-3.3,5.87,5.87,0,0,1,3.92-1.21,7.87,7.87,0,0,1,4.09,1.14l-1.27,2.8a6,6,0,0,0-2.76-.85,1.48,1.48,0,0,0-1.12.39,1.37,1.37,0,0,0-.37,1,1.68,1.68,0,0,0,.46,1.17,8.26,8.26,0,0,0,1.72,1.28,11.07,11.07,0,0,1,2.14,1.56,4.59,4.59,0,0,1,1,1.47A5,5,0,0,1,843,374.31Z"/><path class="cls-3" d="M845.39,377.08a2.45,2.45,0,0,1,.61-1.78,2.92,2.92,0,0,1,3.62,0,2.42,2.42,0,0,1,.62,1.78,2.4,2.4,0,0,1-.64,1.77,2.43,2.43,0,0,1-1.79.63,2.18,2.18,0,0,1-2.42-2.4Z"/><path class="cls-3" d="M870.82,379.08h-9.65V357.67h9.65v3.44h-5.67v5.1h5.26v3.46h-5.26v5.93h5.67Z"/><path class="cls-3" d="M889.25,379.08v-9.72a6.6,6.6,0,0,0-.43-2.68,1.42,1.42,0,0,0-1.38-.91A1.93,1.93,0,0,0,885.6,367a10.86,10.86,0,0,0-.59,4.23v7.83h-3.89V362.77h3.09l.47,2.09h.25a4,4,0,0,1,3.8-2.4,3.87,3.87,0,0,1,3.34,1.52,7.59,7.59,0,0,1,1.1,4.45v10.65Z"/><path class="cls-3" d="M908.41,370.9a10.13,10.13,0,0,1-1.7,6.24,5.91,5.91,0,0,1-8,1.21,6.42,6.42,0,0,1-2.21-3,11.94,11.94,0,0,1-.78-4.5,10.07,10.07,0,0,1,1.69-6.21,5.51,5.51,0,0,1,4.67-2.23,5.45,5.45,0,0,1,4.59,2.28A10,10,0,0,1,908.41,370.9Zm-8.68,0a10.29,10.29,0,0,0,.56,3.85,1.86,1.86,0,0,0,1.79,1.3q2.34,0,2.34-5.15a10,10,0,0,0-.56-3.83,1.89,1.89,0,0,0-3.57,0A10,10,0,0,0,899.73,370.9Z"/><path class="cls-3" d="M152.77,415.08l-.78-2.22h-.09a5.53,5.53,0,0,1-1.78,2,4.49,4.49,0,0,1-2.33.55A3.39,3.39,0,0,1,145,414a6,6,0,0,1-1-3.75,4.85,4.85,0,0,1,1.41-3.83,6.68,6.68,0,0,1,4.23-1.39l2.17-.08V403.8q0-2.28-2-2.28a6.77,6.77,0,0,0-3.37,1.14L145,400a9.68,9.68,0,0,1,5.29-1.54,5.06,5.06,0,0,1,4,1.49,6,6,0,0,1,1.35,4.21v10.95Zm-3.39-2.75a2,2,0,0,0,1.71-1,4.6,4.6,0,0,0,.64-2.56v-1.37l-1.2.06a2.69,2.69,0,0,0-2,.76,2.94,2.94,0,0,0-.62,2.05C148,411.66,148.43,412.33,149.38,412.33Z"/><path class="cls-3" d="M162.67,415.08h-3.9V392.29h3.9Z"/><path class="cls-3" d="M165.8,394.5a2.07,2.07,0,0,1,.57-1.53,2.14,2.14,0,0,1,1.57-.56,2.1,2.1,0,0,1,1.53.56,2.07,2.07,0,0,1,.57,1.53,2,2,0,0,1-.59,1.55,2.1,2.1,0,0,1-1.51.55,2.16,2.16,0,0,1-1.55-.55A2,2,0,0,1,165.8,394.5Zm4.06,20.58H166V398.77h3.89Z"/><path class="cls-3" d="M183.09,415.08h-9.65V393.67h9.65v3.44h-5.67v5.1h5.26v3.46h-5.26v5.93h5.67Z"/><path class="cls-3" d="M188.79,406.75l-4.07-8h4l2.17,5,2-5h4l-4.1,8,4.27,8.33h-4.07l-2.31-5.21-2.16,5.21h-4.06Z"/><path class="cls-3" d="M206.28,415.38a3.59,3.59,0,0,1-1.87-.48,4.6,4.6,0,0,1-1.52-1.68h-.2c.16,1.33.23,2.13.23,2.41v6.66H199V398.77h3l.67,2.12h.17a3.82,3.82,0,0,1,7-.23,12.7,12.7,0,0,1,1.26,6.24,12.46,12.46,0,0,1-1.3,6.22A4,4,0,0,1,206.28,415.38Zm-1.2-13.61a1.7,1.7,0,0,0-1.65,1.06,9,9,0,0,0-.54,3.52v.52a10.75,10.75,0,0,0,.52,3.92,1.74,1.74,0,0,0,1.7,1.23c1.36,0,2-1.73,2-5.18a10.74,10.74,0,0,0-.51-3.81A1.68,1.68,0,0,0,205.08,401.77Z"/><path class="cls-3" d="M220.84,398.46a4.41,4.41,0,0,1,1.4.22l-.45,3.78a3.16,3.16,0,0,0-1.07-.15,2.47,2.47,0,0,0-2.18,1.12,5.78,5.78,0,0,0-.76,3.26v8.39h-3.9V398.77h3.21l.44,2.54h.13a5.91,5.91,0,0,1,1.41-2.19A2.59,2.59,0,0,1,220.84,398.46Z"/><path class="cls-3" d="M230,415.38a5.9,5.9,0,0,1-4.83-2.18,9.52,9.52,0,0,1-1.76-6.16,10.86,10.86,0,0,1,1.59-6.31,5.13,5.13,0,0,1,4.46-2.27,5.05,5.05,0,0,1,4.2,1.94,8.53,8.53,0,0,1,1.54,5.44v2.08h-7.84a5.31,5.31,0,0,0,.9,3.25,2.84,2.84,0,0,0,2.34,1.06,7.63,7.63,0,0,0,3.9-1.19v3.21A8.59,8.59,0,0,1,230,415.38Zm-.57-13.92a1.59,1.59,0,0,0-1.38.89,6,6,0,0,0-.63,2.74h4a5.82,5.82,0,0,0-.55-2.71A1.56,1.56,0,0,0,229.44,401.46Z"/><path class="cls-3" d="M246.55,410.31a5,5,0,0,1-1.4,3.73,5.78,5.78,0,0,1-4.13,1.34,7.62,7.62,0,0,1-4-1V411a7.55,7.55,0,0,0,1.89.92,5.86,5.86,0,0,0,1.89.37,2,2,0,0,0,1.39-.45,1.53,1.53,0,0,0,.47-1.18,1.9,1.9,0,0,0-.49-1.3,9.08,9.08,0,0,0-1.83-1.36,7.68,7.68,0,0,1-2.55-2.25A5.14,5.14,0,0,1,237,403a4.11,4.11,0,0,1,1.43-3.3,5.85,5.85,0,0,1,3.92-1.21,7.87,7.87,0,0,1,4.09,1.14l-1.28,2.8a5.89,5.89,0,0,0-2.75-.85,1.48,1.48,0,0,0-1.12.39,1.37,1.37,0,0,0-.37,1,1.68,1.68,0,0,0,.46,1.17,8.26,8.26,0,0,0,1.72,1.28,11.4,11.4,0,0,1,2.14,1.56,4.76,4.76,0,0,1,1,1.47A5.14,5.14,0,0,1,246.55,410.31Z"/><path class="cls-3" d="M257.77,410.31a5,5,0,0,1-1.4,3.73,5.76,5.76,0,0,1-4.13,1.34,7.56,7.56,0,0,1-4-1V411a7.32,7.32,0,0,0,1.88.92,5.86,5.86,0,0,0,1.89.37,2,2,0,0,0,1.39-.45,1.54,1.54,0,0,0,.48-1.18,1.91,1.91,0,0,0-.5-1.3,8.79,8.79,0,0,0-1.83-1.36,7.68,7.68,0,0,1-2.55-2.25,5.13,5.13,0,0,1-.76-2.82,4.11,4.11,0,0,1,1.42-3.3,5.87,5.87,0,0,1,3.92-1.21,7.87,7.87,0,0,1,4.09,1.14l-1.28,2.8a5.89,5.89,0,0,0-2.75-.85,1.48,1.48,0,0,0-1.12.39,1.37,1.37,0,0,0-.37,1,1.68,1.68,0,0,0,.46,1.17,8.26,8.26,0,0,0,1.72,1.28,11.4,11.4,0,0,1,2.14,1.56,4.59,4.59,0,0,1,.95,1.47A5.14,5.14,0,0,1,257.77,410.31Z"/><path class="cls-3" d="M264.87,411.93a45.32,45.32,0,0,1-2.58,7h-3c.63-2.6,1.13-5.05,1.48-7.35h3.87Z"/><path class="cls-3" d="M280,415.38a4,4,0,0,1-3.56-2.23,12.3,12.3,0,0,1-1.3-6.2,12.79,12.79,0,0,1,1.27-6.24,3.91,3.91,0,0,1,3.52-2.25,3.36,3.36,0,0,1,1.93.55,5,5,0,0,1,1.5,1.85h.23c-.12-1.48-.17-2.52-.17-3.12v-5.45h3.89v22.79h-2.9l-.66-2.12h-.13A3.92,3.92,0,0,1,280,415.38Zm1.26-3.3a1.65,1.65,0,0,0,1.58-1,9.07,9.07,0,0,0,.55-3.59V407a11,11,0,0,0-.51-4,1.71,1.71,0,0,0-1.66-1.15c-.72,0-1.25.44-1.58,1.32a11.89,11.89,0,0,0-.49,3.86,11,11,0,0,0,.5,3.8A1.69,1.69,0,0,0,281.29,412.08Z"/><path class="cls-3" d="M296.64,415.38a5.86,5.86,0,0,1-4.82-2.18,9.52,9.52,0,0,1-1.77-6.16,10.79,10.79,0,0,1,1.6-6.31,5.52,5.52,0,0,1,8.66-.33,8.59,8.59,0,0,1,1.53,5.44v2.08H294a5.32,5.32,0,0,0,.89,3.25,2.86,2.86,0,0,0,2.34,1.06,7.63,7.63,0,0,0,3.9-1.19v3.21A8.59,8.59,0,0,1,296.64,415.38Zm-.57-13.92a1.59,1.59,0,0,0-1.37.89,5.72,5.72,0,0,0-.63,2.74H298a6,6,0,0,0-.54-2.71A1.57,1.57,0,0,0,296.07,401.46Z"/><path class="cls-3" d="M320.86,415.08h-3.93V402.52c0-1.37.07-2.94.21-4.72-.07.1-.32.39-.76.89s-1.28,1.39-2.54,2.68l-2.23-2.43,5.7-5.27h3.55Z"/><path class="cls-3" d="M336.63,415.08H325.15v-3l3.81-5.39c1-1.48,1.76-2.59,2.15-3.3a10.44,10.44,0,0,0,.87-2.07,7.72,7.72,0,0,0,.27-2,2.69,2.69,0,0,0-.55-1.85,1.8,1.8,0,0,0-1.42-.61,2.68,2.68,0,0,0-1.45.41,7.73,7.73,0,0,0-1.64,1.48L325,396.39a9.8,9.8,0,0,1,2.86-2.39,6.51,6.51,0,0,1,2.85-.64,5.35,5.35,0,0,1,4.05,1.52,5.9,5.9,0,0,1,1.46,4.24,10.33,10.33,0,0,1-.26,2.33,11.71,11.71,0,0,1-.8,2.2,19.4,19.4,0,0,1-1.34,2.3q-.81,1.2-4.16,5.47v.12h7Z"/><path class="cls-3" d="M350.1,398.49a5.65,5.65,0,0,1-1,3.39,5.16,5.16,0,0,1-2.81,1.9v.11a4.6,4.6,0,0,1,4.23,5,6.21,6.21,0,0,1-1.84,4.72,7,7,0,0,1-5,1.76,10.23,10.23,0,0,1-4.77-1v-3.58a8.73,8.73,0,0,0,2.09.92,7.36,7.36,0,0,0,2.17.34,3.7,3.7,0,0,0,2.56-.78,3.18,3.18,0,0,0,.87-2.48c0-2.14-1.32-3.21-3.94-3.21h-1.22v-3h1.16a3.9,3.9,0,0,0,2.67-.82,3.07,3.07,0,0,0,.93-2.44,2.8,2.8,0,0,0-.59-1.93,2.18,2.18,0,0,0-1.68-.65,4.8,4.8,0,0,0-3.22,1.41l-1.8-2.64a7.37,7.37,0,0,1,5.46-2.17,6.1,6.1,0,0,1,4.23,1.37A4.79,4.79,0,0,1,350.1,398.49Z"/><path class="cls-3" d="M358.14,411.93a45.32,45.32,0,0,1-2.58,7h-3q.95-3.9,1.48-7.35h3.86Z"/><path class="cls-3" d="M367.26,401.68a4.76,4.76,0,0,1,3.85,1.69,6.91,6.91,0,0,1,1.43,4.61,7.83,7.83,0,0,1-1.78,5.45,6.37,6.37,0,0,1-4.95,1.95,8.63,8.63,0,0,1-4.55-1.07v-3.72a7.8,7.8,0,0,0,1.92,1,6.56,6.56,0,0,0,2.19.41q3.15,0,3.15-3.66,0-3.41-3.06-3.41a7.76,7.76,0,0,0-2.58.47l-1.28-.95.65-10.74h9.15v3.56h-5.73l-.3,4.63A8.92,8.92,0,0,1,367.26,401.68Z"/><path class="cls-3" d="M381.15,401.68a4.79,4.79,0,0,1,3.85,1.69,6.91,6.91,0,0,1,1.42,4.61,7.82,7.82,0,0,1-1.77,5.45,6.37,6.37,0,0,1-4.95,1.95,8.63,8.63,0,0,1-4.55-1.07v-3.72a7.46,7.46,0,0,0,1.92,1,6.56,6.56,0,0,0,2.19.41q3.15,0,3.15-3.66,0-3.41-3.06-3.41a7.76,7.76,0,0,0-2.58.47l-1.29-.95.66-10.74h9.14v3.56h-5.73l-.29,4.63A8.92,8.92,0,0,1,381.15,401.68Z"/><path class="cls-3" d="M389.34,413.08a2.45,2.45,0,0,1,.61-1.78,2.92,2.92,0,0,1,3.62,0,2.42,2.42,0,0,1,.62,1.78,2.36,2.36,0,0,1-.64,1.77,2.43,2.43,0,0,1-1.79.63,2.18,2.18,0,0,1-2.42-2.4Z"/><g class="cls-4"><path class="cls-5" d="M992.61,476.79c-12.1,0-18.26-7.91-23.69-14.89S959,449.14,949.6,449.14s-14,5.91-19.31,12.76-11.58,14.89-23.69,14.89-18.25-7.91-23.68-14.89S873,449.14,863.6,449.14s-14,5.91-19.31,12.76-11.58,14.89-23.69,14.89-18.25-7.91-23.68-14.89-9.92-12.76-19.31-12.76-14,5.91-19.32,12.76-11.58,14.89-23.68,14.89-18.26-7.91-23.69-14.89-9.92-12.76-19.31-12.76-14,5.91-19.32,12.76-11.58,14.89-23.68,14.89-18.26-7.91-23.69-14.89-9.91-12.76-19.31-12.76-14,5.91-19.32,12.76-11.58,14.89-23.68,14.89-18.25-7.91-23.68-14.89-9.92-12.76-19.32-12.76v-5.52c12.11,0,18.26,7.91,23.68,14.88s9.92,12.76,19.32,12.76,14-5.91,19.32-12.76,11.58-14.88,23.68-14.88,18.25,7.91,23.68,14.88,9.92,12.76,19.32,12.76,14-5.91,19.31-12.76,11.58-14.88,23.69-14.88,18.25,7.91,23.68,14.88,9.92,12.76,19.32,12.76,14-5.91,19.31-12.76,11.58-14.88,23.69-14.88,18.25,7.91,23.68,14.88,9.92,12.76,19.31,12.76,14-5.91,19.32-12.76,11.58-14.88,23.68-14.88,18.26,7.91,23.69,14.88,9.92,12.76,19.31,12.76,14-5.91,19.32-12.76,11.58-14.88,23.68-14.88,18.26,7.91,23.69,14.88,9.92,12.76,19.32,12.76,14-5.91,19.32-12.76,11.58-14.88,23.68-14.88v5.52c-9.4,0-14,5.91-19.32,12.76S1004.71,476.79,992.61,476.79Z"/></g><g class="cls-4"><path class="cls-5" d="M992.61,515c-12.1,0-18.26-7.91-23.69-14.89S959,487.38,949.6,487.38s-14,5.91-19.31,12.76S918.71,515,906.6,515s-18.25-7.91-23.68-14.89S873,487.38,863.6,487.38s-14,5.91-19.31,12.76S832.71,515,820.6,515s-18.25-7.91-23.68-14.89-9.92-12.76-19.31-12.76-14,5.91-19.32,12.76S746.71,515,734.61,515s-18.26-7.91-23.69-14.89-9.92-12.76-19.31-12.76-14,5.91-19.32,12.76S660.71,515,648.61,515s-18.26-7.91-23.69-14.89-9.91-12.76-19.31-12.76-14,5.91-19.32,12.76S574.71,515,562.61,515s-18.25-7.91-23.68-14.89-9.92-12.76-19.32-12.76v-5.53c12.11,0,18.26,7.91,23.68,14.89s9.92,12.76,19.32,12.76,14-5.91,19.32-12.76,11.58-14.89,23.68-14.89,18.25,7.91,23.68,14.89,9.92,12.76,19.32,12.76,14-5.91,19.31-12.76,11.58-14.89,23.69-14.89,18.25,7.91,23.68,14.89,9.92,12.76,19.32,12.76,14-5.91,19.31-12.76,11.58-14.89,23.69-14.89,18.25,7.91,23.68,14.89,9.92,12.76,19.31,12.76,14-5.91,19.32-12.76,11.58-14.89,23.68-14.89,18.26,7.91,23.69,14.89,9.92,12.76,19.31,12.76,14-5.91,19.32-12.76,11.58-14.89,23.68-14.89,18.26,7.91,23.69,14.89,9.92,12.76,19.32,12.76,14-5.91,19.32-12.76,11.58-14.89,23.68-14.89v5.53c-9.4,0-14,5.91-19.32,12.76S1004.71,515,992.61,515Z"/></g><g class="cls-4"><path class="cls-5" d="M992.61,553.27c-12.1,0-18.26-7.91-23.69-14.89S959,525.62,949.6,525.62s-14,5.91-19.31,12.76-11.58,14.89-23.69,14.89-18.25-7.91-23.68-14.89S873,525.62,863.6,525.62s-14,5.91-19.31,12.76-11.58,14.89-23.69,14.89-18.25-7.91-23.68-14.89-9.92-12.76-19.31-12.76-14,5.91-19.32,12.76-11.58,14.89-23.68,14.89-18.26-7.91-23.69-14.89-9.92-12.76-19.31-12.76-14,5.91-19.32,12.76-11.58,14.89-23.68,14.89-18.26-7.91-23.69-14.89-9.91-12.76-19.31-12.76-14,5.91-19.32,12.76-11.58,14.89-23.68,14.89-18.25-7.91-23.68-14.89-9.92-12.76-19.32-12.76v-5.53c12.11,0,18.26,7.91,23.68,14.89s9.92,12.76,19.32,12.76,14-5.91,19.32-12.76,11.58-14.89,23.68-14.89S623.86,528,629.29,535s9.92,12.76,19.32,12.76,14-5.91,19.31-12.76,11.58-14.89,23.69-14.89S709.86,528,715.29,535s9.92,12.76,19.32,12.76,14-5.91,19.31-12.76,11.58-14.89,23.69-14.89S795.86,528,801.29,535s9.92,12.76,19.31,12.76,14-5.91,19.32-12.76,11.58-14.89,23.68-14.89S881.86,528,887.29,535s9.92,12.76,19.31,12.76,14-5.91,19.32-12.76,11.58-14.89,23.68-14.89S967.86,528,973.29,535s9.92,12.76,19.32,12.76,14-5.91,19.32-12.76,11.58-14.89,23.68-14.89v5.53c-9.4,0-14,5.91-19.32,12.76S1004.71,553.27,992.61,553.27Z"/></g><g class="cls-4"><path class="cls-5" d="M992.61,591.5c-12.1,0-18.26-7.91-23.69-14.88S959,563.86,949.6,563.86s-14,5.91-19.31,12.76S918.71,591.5,906.6,591.5s-18.25-7.91-23.68-14.88S873,563.86,863.6,563.86s-14,5.91-19.31,12.76S832.71,591.5,820.6,591.5s-18.25-7.91-23.68-14.88-9.92-12.76-19.31-12.76-14,5.91-19.32,12.76-11.58,14.88-23.68,14.88-18.26-7.91-23.69-14.88-9.92-12.76-19.31-12.76-14,5.91-19.32,12.76-11.58,14.88-23.68,14.88-18.26-7.91-23.69-14.88-9.91-12.76-19.31-12.76-14,5.91-19.32,12.76-11.58,14.88-23.68,14.88-18.25-7.91-23.68-14.88-9.92-12.76-19.32-12.76v-5.53c12.11,0,18.26,7.91,23.68,14.89S553.21,586,562.61,586s14-5.91,19.32-12.76,11.58-14.89,23.68-14.89,18.25,7.91,23.68,14.89S639.21,586,648.61,586s14-5.91,19.31-12.76,11.58-14.89,23.69-14.89,18.25,7.91,23.68,14.89S725.21,586,734.61,586s14-5.91,19.31-12.76,11.58-14.89,23.69-14.89,18.25,7.91,23.68,14.89S811.21,586,820.6,586s14-5.91,19.32-12.76,11.58-14.89,23.68-14.89,18.26,7.91,23.69,14.89S897.21,586,906.6,586s14-5.91,19.32-12.76,11.58-14.89,23.68-14.89,18.26,7.91,23.69,14.89S983.21,586,992.61,586s14-5.91,19.32-12.76,11.58-14.89,23.68-14.89v5.53c-9.4,0-14,5.91-19.32,12.76S1004.71,591.5,992.61,591.5Z"/></g><g class="cls-4"><path class="cls-5" d="M992.61,629.74c-12.1,0-18.26-7.91-23.69-14.88S959,602.1,949.6,602.1s-14,5.91-19.31,12.76-11.58,14.88-23.69,14.88-18.25-7.91-23.68-14.88S873,602.1,863.6,602.1s-14,5.91-19.31,12.76-11.58,14.88-23.69,14.88-18.25-7.91-23.68-14.88S787,602.1,777.61,602.1s-14,5.91-19.32,12.76-11.58,14.88-23.68,14.88-18.26-7.91-23.69-14.88S701,602.1,691.61,602.1s-14,5.91-19.32,12.76-11.58,14.88-23.68,14.88-18.26-7.91-23.69-14.88S615,602.1,605.61,602.1s-14,5.91-19.32,12.76-11.58,14.88-23.68,14.88-18.25-7.91-23.68-14.88S529,602.1,519.61,602.1v-5.53c12.11,0,18.26,7.91,23.68,14.89s9.92,12.76,19.32,12.76,14-5.92,19.32-12.76,11.58-14.89,23.68-14.89,18.25,7.91,23.68,14.89,9.92,12.76,19.32,12.76,14-5.92,19.31-12.76,11.58-14.89,23.69-14.89,18.25,7.91,23.68,14.89,9.92,12.76,19.32,12.76,14-5.92,19.31-12.76,11.58-14.89,23.69-14.89,18.25,7.91,23.68,14.89,9.92,12.76,19.31,12.76,14-5.92,19.32-12.76,11.58-14.89,23.68-14.89,18.26,7.91,23.69,14.89,9.92,12.76,19.31,12.76,14-5.92,19.32-12.76,11.58-14.89,23.68-14.89,18.26,7.91,23.69,14.89,9.92,12.76,19.32,12.76,14-5.92,19.32-12.76,11.58-14.89,23.68-14.89v5.53c-9.4,0-14,5.91-19.32,12.76S1004.71,629.74,992.61,629.74Z"/></g><g class="cls-4"><path class="cls-5" d="M992.61,668c-12.1,0-18.26-7.91-23.69-14.89S959,640.34,949.6,640.34s-14,5.91-19.31,12.75S918.71,668,906.6,668s-18.25-7.91-23.68-14.89S873,640.34,863.6,640.34s-14,5.91-19.31,12.75S832.71,668,820.6,668s-18.25-7.91-23.68-14.89-9.92-12.75-19.31-12.75-14,5.91-19.32,12.75S746.71,668,734.61,668s-18.26-7.91-23.69-14.89-9.92-12.75-19.31-12.75-14,5.91-19.32,12.75S660.71,668,648.61,668s-18.26-7.91-23.69-14.89-9.91-12.75-19.31-12.75-14,5.91-19.32,12.75S574.71,668,562.61,668s-18.25-7.91-23.68-14.89-9.92-12.75-19.32-12.75v-5.53c12.11,0,18.26,7.91,23.68,14.89s9.92,12.75,19.32,12.75,14-5.91,19.32-12.75,11.58-14.89,23.68-14.89,18.25,7.91,23.68,14.89,9.92,12.75,19.32,12.75,14-5.91,19.31-12.75,11.58-14.89,23.69-14.89,18.25,7.91,23.68,14.89,9.92,12.75,19.32,12.75,14-5.91,19.31-12.75,11.58-14.89,23.69-14.89,18.25,7.91,23.68,14.89,9.92,12.75,19.31,12.75,14-5.91,19.32-12.75,11.58-14.89,23.68-14.89,18.26,7.91,23.69,14.89,9.92,12.75,19.31,12.75,14-5.91,19.32-12.75,11.58-14.89,23.68-14.89,18.26,7.91,23.69,14.89,9.92,12.75,19.32,12.75,14-5.91,19.32-12.75,11.58-14.89,23.68-14.89v5.53c-9.4,0-14,5.91-19.32,12.76S1004.71,668,992.61,668Z"/></g><g class="cls-4"><path class="cls-5" d="M992.61,706.22c-12.1,0-18.26-7.91-23.69-14.89S959,678.58,949.6,678.58s-14,5.91-19.31,12.75-11.58,14.89-23.69,14.89-18.25-7.91-23.68-14.89S873,678.58,863.6,678.58s-14,5.91-19.31,12.75-11.58,14.89-23.69,14.89-18.25-7.91-23.68-14.89-9.92-12.75-19.31-12.75-14,5.91-19.32,12.75-11.58,14.89-23.68,14.89-18.26-7.91-23.69-14.89-9.92-12.75-19.31-12.75-14,5.91-19.32,12.75-11.58,14.89-23.68,14.89-18.26-7.91-23.69-14.89-9.91-12.75-19.31-12.75-14,5.91-19.32,12.75-11.58,14.89-23.68,14.89-18.25-7.91-23.68-14.89-9.92-12.75-19.32-12.75v-5.53c12.11,0,18.26,7.91,23.68,14.89s9.92,12.75,19.32,12.75,14-5.91,19.32-12.75,11.58-14.89,23.68-14.89,18.25,7.91,23.68,14.89,9.92,12.75,19.32,12.75,14-5.91,19.31-12.75,11.58-14.89,23.69-14.89,18.25,7.91,23.68,14.89,9.92,12.75,19.32,12.75,14-5.91,19.31-12.75,11.58-14.89,23.69-14.89,18.25,7.91,23.68,14.89,9.92,12.75,19.31,12.75,14-5.91,19.32-12.75,11.58-14.89,23.68-14.89,18.26,7.91,23.69,14.89,9.92,12.75,19.31,12.75,14-5.91,19.32-12.75,11.58-14.89,23.68-14.89,18.26,7.91,23.69,14.89,9.92,12.75,19.32,12.75,14-5.91,19.32-12.75,11.58-14.89,23.68-14.89v5.53c-9.4,0-14,5.91-19.32,12.75S1004.71,706.22,992.61,706.22Z"/></g></g></g></svg>