<svg xmlns="http://www.w3.org/2000/svg" viewBox="0 0 845.39 565.69"><defs><style>.cls-1{fill:#676099;}.cls-2{font-size:60px;font-family:OpenSans-CondensedBold, Open Sans Condensed;font-weight:700;}.cls-2,.cls-3{fill:#fff;}</style></defs><title>18</title><g id="Camada_2" data-name="Camada 2"><g id="imgs_p2_p3" data-name="imgs p2 p3"><path class="cls-1" d="M14.11,277.25C-49.5,460.49,111.55,564,305.41,524.5c42.72-8.71,69.14-24.52,109.34-4.08,31.41,16,46.17,40,86,44.41,76.75,8.41,185.74-46.28,241.29-99.11,108.18-102.88,142.73-246.42,48.6-347.55C730.38,53.37,652.87,47.64,566,25.63,493.37,7.22,427.84-3.11,349.44.83c-70.82,3.56-126,7.81-177.84,61.46C116.07,119.76,62.78,175.45,14.11,277.25Z"/><text class="cls-2" transform="translate(175.59 175.25)">Persianas inteligentes</text><path class="cls-3" d="M58,244.75l-1.23-5.4H51.21L50,244.75H46l5.31-21.5h5.4L62,244.75Zm-2-8.93-1.14-5c-.07-.3-.22-1.06-.46-2.27s-.39-2-.43-2.44c-.13.84-.29,1.76-.49,2.77s-.7,3.32-1.52,6.93Z"/><path class="cls-3" d="M72.43,240A4.87,4.87,0,0,1,71,243.7,5.69,5.69,0,0,1,66.91,245a7.62,7.62,0,0,1-4-.95v-3.38a7.65,7.65,0,0,0,1.88.92,5.87,5.87,0,0,0,1.9.37,1.91,1.91,0,0,0,1.38-.45,1.54,1.54,0,0,0,.48-1.18,1.89,1.89,0,0,0-.5-1.3,8.2,8.2,0,0,0-1.83-1.36,7.63,7.63,0,0,1-2.54-2.25,5.14,5.14,0,0,1-.77-2.82,4.11,4.11,0,0,1,1.43-3.3,5.85,5.85,0,0,1,3.92-1.21,7.84,7.84,0,0,1,4.08,1.14l-1.27,2.8a5.89,5.89,0,0,0-2.75-.85,1.48,1.48,0,0,0-1.12.39,1.38,1.38,0,0,0-.38,1,1.73,1.73,0,0,0,.46,1.17A8.07,8.07,0,0,0,69,235a11.21,11.21,0,0,1,2.13,1.57,4.79,4.79,0,0,1,1,1.47A5.07,5.07,0,0,1,72.43,240Z"/><path class="cls-3" d="M89.59,245a3.58,3.58,0,0,1-1.87-.47,4.6,4.6,0,0,1-1.52-1.68H86c.15,1.33.23,2.13.23,2.4V252H82.31V228.43h3l.68,2.13h.17a3.82,3.82,0,0,1,3.53-2.43,3.86,3.86,0,0,1,3.49,2.2,15.8,15.8,0,0,1,0,12.46A4,4,0,0,1,89.59,245Zm-1.21-13.6a1.69,1.69,0,0,0-1.64,1.06A9,9,0,0,0,86.2,236v.51a10.77,10.77,0,0,0,.52,3.93,1.74,1.74,0,0,0,1.69,1.23q2.06,0,2.06-5.19a10.71,10.71,0,0,0-.51-3.8A1.68,1.68,0,0,0,88.38,231.44Z"/><path class="cls-3" d="M103.21,245a5.89,5.89,0,0,1-4.83-2.17,9.57,9.57,0,0,1-1.76-6.16,10.84,10.84,0,0,1,1.59-6.31,5.13,5.13,0,0,1,4.46-2.27,5.05,5.05,0,0,1,4.2,1.94,8.51,8.51,0,0,1,1.54,5.44v2.08h-7.84a5.3,5.3,0,0,0,.9,3.24,2.82,2.82,0,0,0,2.34,1.07,7.63,7.63,0,0,0,3.9-1.19v3.21A8.59,8.59,0,0,1,103.21,245Zm-.57-13.91a1.58,1.58,0,0,0-1.38.88,6,6,0,0,0-.63,2.75h4a5.82,5.82,0,0,0-.55-2.71A1.56,1.56,0,0,0,102.64,231.13Z"/><path class="cls-3" d="M118,228.13a4.8,4.8,0,0,1,1.4.21l-.45,3.78a3.51,3.51,0,0,0-1.07-.14,2.46,2.46,0,0,0-2.18,1.12,5.77,5.77,0,0,0-.77,3.26v8.39H111V228.43h3.21l.43,2.55h.14a6.09,6.09,0,0,1,1.4-2.2A2.63,2.63,0,0,1,118,228.13Z"/><path class="cls-3" d="M129.85,240a4.9,4.9,0,0,1-1.39,3.72,5.74,5.74,0,0,1-4.13,1.34,7.62,7.62,0,0,1-4-.95v-3.38a7.55,7.55,0,0,0,1.89.92,5.81,5.81,0,0,0,1.89.37,2,2,0,0,0,1.39-.45,1.57,1.57,0,0,0,.47-1.18,1.84,1.84,0,0,0-.5-1.3,8.2,8.2,0,0,0-1.83-1.36,7.74,7.74,0,0,1-2.54-2.25,5.14,5.14,0,0,1-.77-2.82,4.11,4.11,0,0,1,1.43-3.3,5.85,5.85,0,0,1,3.92-1.21,7.87,7.87,0,0,1,4.09,1.14l-1.28,2.8a5.89,5.89,0,0,0-2.75-.85,1.48,1.48,0,0,0-1.12.39,1.38,1.38,0,0,0-.38,1,1.69,1.69,0,0,0,.47,1.17,7.7,7.7,0,0,0,1.72,1.27,11.35,11.35,0,0,1,2.14,1.57,4.76,4.76,0,0,1,1,1.47A5.07,5.07,0,0,1,129.85,240Z"/><path class="cls-3" d="M132.18,224.17a2.07,2.07,0,0,1,.57-1.53,2.1,2.1,0,0,1,1.57-.57,2,2,0,0,1,2.1,2.1,2,2,0,0,1-.59,1.55,2.13,2.13,0,0,1-1.51.54,2.2,2.2,0,0,1-1.55-.54A2,2,0,0,1,132.18,224.17Zm4.06,20.58h-3.9V228.43h3.9Z"/><path class="cls-3" d="M147.58,244.75l-.78-2.23h-.08a5.59,5.59,0,0,1-1.79,2,4.56,4.56,0,0,1-2.33.54,3.41,3.41,0,0,1-2.84-1.34,6.1,6.1,0,0,1-1-3.75,4.85,4.85,0,0,1,1.41-3.83,6.73,6.73,0,0,1,4.23-1.39l2.17-.09v-1.17q0-2.28-2-2.28a6.8,6.8,0,0,0-3.37,1.14l-1.35-2.7a9.78,9.78,0,0,1,5.29-1.53,5.07,5.07,0,0,1,4,1.48,6.05,6.05,0,0,1,1.36,4.21v11ZM144.2,242a2,2,0,0,0,1.7-1,4.52,4.52,0,0,0,.64-2.56V237.1l-1.2.06a2.79,2.79,0,0,0-2,.76,3,3,0,0,0-.62,2.06C142.76,241.32,143.24,242,144.2,242Z"/><path class="cls-3" d="M161.72,244.75V235a6.63,6.63,0,0,0-.43-2.68,1.42,1.42,0,0,0-1.38-.9,1.92,1.92,0,0,0-1.84,1.25,10.8,10.8,0,0,0-.59,4.22v7.84h-3.89V228.43h3.09l.46,2.1h.25a4.29,4.29,0,0,1,1.51-1.77,4.18,4.18,0,0,1,2.3-.63,3.85,3.85,0,0,1,3.34,1.52,7.57,7.57,0,0,1,1.1,4.45v10.65Z"/><path class="cls-3" d="M176.79,244.75l-.78-2.23h-.09a5.49,5.49,0,0,1-1.78,2,4.56,4.56,0,0,1-2.33.54A3.41,3.41,0,0,1,169,243.7a6.1,6.1,0,0,1-1-3.75,4.85,4.85,0,0,1,1.41-3.83,6.73,6.73,0,0,1,4.23-1.39l2.17-.09v-1.17q0-2.28-2-2.28a6.77,6.77,0,0,0-3.37,1.14l-1.35-2.7a9.78,9.78,0,0,1,5.29-1.53,5.07,5.07,0,0,1,3.95,1.48,6.05,6.05,0,0,1,1.35,4.21v11ZM173.4,242a2,2,0,0,0,1.71-1,4.52,4.52,0,0,0,.64-2.56V237.1l-1.2.06a2.79,2.79,0,0,0-2,.76A3,3,0,0,0,172,240C172,241.32,172.45,242,173.4,242Z"/><path class="cls-3" d="M191.55,240a4.87,4.87,0,0,1-1.4,3.72A5.69,5.69,0,0,1,186,245a7.62,7.62,0,0,1-4-.95v-3.38a7.65,7.65,0,0,0,1.88.92,5.87,5.87,0,0,0,1.9.37,2,2,0,0,0,1.39-.45,1.57,1.57,0,0,0,.47-1.18,1.84,1.84,0,0,0-.5-1.3,8.2,8.2,0,0,0-1.83-1.36,7.63,7.63,0,0,1-2.54-2.25,5.14,5.14,0,0,1-.77-2.82,4.11,4.11,0,0,1,1.43-3.3,5.85,5.85,0,0,1,3.92-1.21,7.9,7.9,0,0,1,4.09,1.14l-1.28,2.8a5.89,5.89,0,0,0-2.75-.85,1.48,1.48,0,0,0-1.12.39,1.38,1.38,0,0,0-.38,1,1.73,1.73,0,0,0,.46,1.17,8.07,8.07,0,0,0,1.73,1.27,11.21,11.21,0,0,1,2.13,1.57,4.61,4.61,0,0,1,1,1.47A5.07,5.07,0,0,1,191.55,240Z"/><path class="cls-3" d="M210.19,240a4.91,4.91,0,0,1-1.4,3.72,5.74,5.74,0,0,1-4.13,1.34,7.56,7.56,0,0,1-4-.95v-3.38a7.32,7.32,0,0,0,1.88.92,5.86,5.86,0,0,0,1.89.37,2,2,0,0,0,1.39-.45,1.53,1.53,0,0,0,.47-1.18,1.88,1.88,0,0,0-.49-1.3,8.71,8.71,0,0,0-1.83-1.36,7.68,7.68,0,0,1-2.55-2.25,5.13,5.13,0,0,1-.76-2.82,4.11,4.11,0,0,1,1.42-3.3,5.87,5.87,0,0,1,3.92-1.21,7.87,7.87,0,0,1,4.09,1.14l-1.28,2.8a5.89,5.89,0,0,0-2.75-.85,1.48,1.48,0,0,0-1.12.39,1.37,1.37,0,0,0-.37,1,1.68,1.68,0,0,0,.46,1.17,8,8,0,0,0,1.72,1.27,11.35,11.35,0,0,1,2.14,1.57,4.59,4.59,0,0,1,.95,1.47A5.07,5.07,0,0,1,210.19,240Z"/><path class="cls-3" d="M220.65,244.75l-.78-2.23h-.09a5.42,5.42,0,0,1-1.79,2,4.53,4.53,0,0,1-2.32.54,3.39,3.39,0,0,1-2.84-1.34,6,6,0,0,1-1-3.75,4.85,4.85,0,0,1,1.41-3.83,6.68,6.68,0,0,1,4.23-1.39l2.17-.09v-1.17q0-2.28-2-2.28a6.77,6.77,0,0,0-3.37,1.14l-1.35-2.7a9.76,9.76,0,0,1,5.29-1.53,5.09,5.09,0,0,1,4,1.48,6.05,6.05,0,0,1,1.35,4.21v11ZM216.56,225a.89.89,0,0,0-.73.35,2.81,2.81,0,0,0-.41,1.25h-2.07a6.16,6.16,0,0,1,1-3.32,2.66,2.66,0,0,1,2.21-1.09,2.57,2.57,0,0,1,1.13.24,7.84,7.84,0,0,1,.95.54l.85.53a1.66,1.66,0,0,0,.85.24.76.76,0,0,0,.72-.38,4,4,0,0,0,.39-1.2h2.07a6.09,6.09,0,0,1-1,3.32,2.78,2.78,0,0,1-3.34.85,6.58,6.58,0,0,1-.94-.54c-.29-.2-.56-.38-.83-.54A1.58,1.58,0,0,0,216.56,225Zm.7,17a2,2,0,0,0,1.71-1,4.6,4.6,0,0,0,.64-2.56V237.1l-1.21.06a2.76,2.76,0,0,0-2,.76,3,3,0,0,0-.62,2.06C215.83,241.32,216.3,242,217.26,242Z"/><path class="cls-3" d="M238.74,236.56a10.14,10.14,0,0,1-1.7,6.25,5.94,5.94,0,0,1-8,1.21,6.47,6.47,0,0,1-2.21-3,12,12,0,0,1-.78-4.51,10.13,10.13,0,0,1,1.68-6.2,5.54,5.54,0,0,1,4.68-2.23A5.44,5.44,0,0,1,237,230.4,10.05,10.05,0,0,1,238.74,236.56Zm-8.68,0a10.22,10.22,0,0,0,.56,3.85,1.87,1.87,0,0,0,1.79,1.31q2.34,0,2.34-5.16a10,10,0,0,0-.56-3.83,1.89,1.89,0,0,0-3.57,0A10,10,0,0,0,230.06,236.56Z"/><path class="cls-3" d="M256.14,231.52h-2.7v13.23h-3.89V231.52h-1.89v-2l1.89-1.17v-1.23a6.12,6.12,0,0,1,1.13-4,4.52,4.52,0,0,1,3.63-1.32,6.67,6.67,0,0,1,2.94.66l-1,3a3.5,3.5,0,0,0-1.5-.35,1,1,0,0,0-1,.53,3.36,3.36,0,0,0-.31,1.62v1.2h2.7Z"/><path class="cls-3" d="M263.87,245a5.86,5.86,0,0,1-4.82-2.17,9.52,9.52,0,0,1-1.77-6.16,10.77,10.77,0,0,1,1.6-6.31,5.52,5.52,0,0,1,8.66-.33,8.57,8.57,0,0,1,1.53,5.44v2.08h-7.83a5.3,5.3,0,0,0,.89,3.24,2.84,2.84,0,0,0,2.34,1.07,7.63,7.63,0,0,0,3.9-1.19v3.21A8.59,8.59,0,0,1,263.87,245Zm-.57-13.91a1.58,1.58,0,0,0-1.37.88,5.8,5.8,0,0,0-.63,2.75h3.95a6,6,0,0,0-.54-2.71A1.57,1.57,0,0,0,263.3,231.13Z"/><path class="cls-3" d="M271.52,224.17a2.1,2.1,0,0,1,.56-1.53,2.13,2.13,0,0,1,1.58-.57,2,2,0,0,1,2.09,2.1,2,2,0,0,1-.58,1.55,2.15,2.15,0,0,1-1.51.54,2.18,2.18,0,0,1-1.55-.54A2,2,0,0,1,271.52,224.17Zm4.06,20.58h-3.9V228.43h3.9Z"/><path class="cls-3" d="M284.59,241.75a4.6,4.6,0,0,0,1.77-.41v3a5.15,5.15,0,0,1-2.86.65,3.84,3.84,0,0,1-3.15-1.26,6,6,0,0,1-1-3.8v-8.46h-1.58v-1.74l2-1.41,1-3.45h2.49v3.51h3v3.09h-3v8.59C283.27,241.2,283.71,241.75,284.59,241.75Z"/><path class="cls-3" d="M296.64,244.75l-.77-2.23h-.09a5.5,5.5,0,0,1-1.79,2,4.54,4.54,0,0,1-2.33.54,3.39,3.39,0,0,1-2.83-1.34,6,6,0,0,1-1-3.75,4.82,4.82,0,0,1,1.42-3.83,6.67,6.67,0,0,1,4.22-1.39l2.17-.09v-1.17q0-2.28-2-2.28a6.74,6.74,0,0,0-3.36,1.14l-1.35-2.7a9.73,9.73,0,0,1,5.29-1.53,5.06,5.06,0,0,1,3.94,1.48,6,6,0,0,1,1.36,4.21v11ZM293.26,242a2,2,0,0,0,1.71-1,4.6,4.6,0,0,0,.63-2.56V237.1l-1.2.06a2.74,2.74,0,0,0-1.95.76,3,3,0,0,0-.63,2.06C291.82,241.32,292.3,242,293.26,242Z"/><path class="cls-3" d="M311.41,240a4.91,4.91,0,0,1-1.4,3.72,5.72,5.72,0,0,1-4.13,1.34,7.56,7.56,0,0,1-4-.95v-3.38a7.32,7.32,0,0,0,1.88.92,5.87,5.87,0,0,0,1.9.37,1.94,1.94,0,0,0,1.38-.45,1.54,1.54,0,0,0,.48-1.18,1.89,1.89,0,0,0-.5-1.3,8.2,8.2,0,0,0-1.83-1.36,7.68,7.68,0,0,1-2.55-2.25,5.13,5.13,0,0,1-.76-2.82,4.11,4.11,0,0,1,1.42-3.3,5.87,5.87,0,0,1,3.92-1.21,7.87,7.87,0,0,1,4.09,1.14l-1.27,2.8a6,6,0,0,0-2.76-.85,1.48,1.48,0,0,0-1.12.39,1.37,1.37,0,0,0-.37,1,1.68,1.68,0,0,0,.46,1.17A8,8,0,0,0,308,235a11,11,0,0,1,2.14,1.57,4.59,4.59,0,0,1,.95,1.47A4.88,4.88,0,0,1,311.41,240Z"/><path class="cls-3" d="M325.57,245a4,4,0,0,1-3.56-2.22,12.33,12.33,0,0,1-1.3-6.2,12.79,12.79,0,0,1,1.27-6.24,3.91,3.91,0,0,1,3.52-2.25,3.44,3.44,0,0,1,1.93.54,5.07,5.07,0,0,1,1.5,1.86h.23C329,229,329,228,329,227.41V222h3.89v22.79H330l-.66-2.12h-.13A3.91,3.91,0,0,1,325.57,245Zm1.26-3.29a1.66,1.66,0,0,0,1.58-1,9.1,9.1,0,0,0,.55-3.6v-.51a11,11,0,0,0-.51-4,1.72,1.72,0,0,0-1.66-1.16c-.72,0-1.25.45-1.58,1.33a11.85,11.85,0,0,0-.49,3.86,11,11,0,0,0,.5,3.8A1.69,1.69,0,0,0,326.83,241.75Z"/><path class="cls-3" d="M342.18,245a5.86,5.86,0,0,1-4.82-2.17,9.52,9.52,0,0,1-1.77-6.16,10.77,10.77,0,0,1,1.6-6.31,5.52,5.52,0,0,1,8.66-.33,8.57,8.57,0,0,1,1.53,5.44v2.08h-7.83a5.3,5.3,0,0,0,.89,3.24,2.84,2.84,0,0,0,2.34,1.07,7.63,7.63,0,0,0,3.9-1.19v3.21A8.59,8.59,0,0,1,342.18,245Zm-.57-13.91a1.58,1.58,0,0,0-1.37.88,5.8,5.8,0,0,0-.63,2.75h3.95a6,6,0,0,0-.54-2.71A1.57,1.57,0,0,0,341.61,231.13Z"/><path class="cls-3" d="M366.19,244.75l-.48-2.09h-.21a4.11,4.11,0,0,1-3.83,2.38,3.89,3.89,0,0,1-3.33-1.49,7.38,7.38,0,0,1-1.13-4.47V228.43h3.94v9.72a6.65,6.65,0,0,0,.43,2.69,1.42,1.42,0,0,0,1.38.91,1.9,1.9,0,0,0,1.83-1.26,11,11,0,0,0,.58-4.24v-7.82h3.94v16.32Z"/><path class="cls-3" d="M388.78,244.75V235c0-2.39-.59-3.58-1.77-3.58a1.89,1.89,0,0,0-1.85,1.28,11.1,11.1,0,0,0-.55,4.11v7.92h-3.93V235c0-2.39-.6-3.58-1.8-3.58a1.9,1.9,0,0,0-1.83,1.27,11.14,11.14,0,0,0-.57,4.2v7.84h-3.9V228.43h3.09l.47,2.1h.25a4,4,0,0,1,1.6-1.83,4.41,4.41,0,0,1,2.18-.57,3.88,3.88,0,0,1,4,2.82h.15a4.16,4.16,0,0,1,4-2.82,3.82,3.82,0,0,1,3.29,1.52,7.49,7.49,0,0,1,1.12,4.45v10.65Z"/><path class="cls-3" d="M408.94,241.75a4.6,4.6,0,0,0,1.77-.41v3a5.15,5.15,0,0,1-2.86.65,3.84,3.84,0,0,1-3.15-1.26,6,6,0,0,1-1-3.8v-8.46H402.1v-1.74l2-1.41,1-3.45h2.49v3.51h3v3.09h-3v8.59C407.62,241.2,408.06,241.75,408.94,241.75Z"/><path class="cls-3" d="M419,245a5.86,5.86,0,0,1-4.82-2.17,9.52,9.52,0,0,1-1.77-6.16,10.84,10.84,0,0,1,1.6-6.31,5.52,5.52,0,0,1,8.66-.33,8.57,8.57,0,0,1,1.54,5.44v2.08h-7.84a5.37,5.37,0,0,0,.89,3.24,2.85,2.85,0,0,0,2.35,1.07,7.62,7.62,0,0,0,3.89-1.19v3.21A8.59,8.59,0,0,1,419,245Zm-.57-13.91a1.58,1.58,0,0,0-1.37.88,6,6,0,0,0-.63,2.75h3.95a6,6,0,0,0-.54-2.71A1.57,1.57,0,0,0,418.44,231.13Z"/><path class="cls-3" d="M432.18,245a5.09,5.09,0,0,1-4.43-2.12,10.64,10.64,0,0,1-1.53-6.24c0-2.87.48-5,1.45-6.43a5,5,0,0,1,4.46-2.12,7.23,7.23,0,0,1,1.9.26,6.71,6.71,0,0,1,1.79.76l-1.12,3a4.31,4.31,0,0,0-2.15-.71,1.85,1.85,0,0,0-1.79,1.29,10.42,10.42,0,0,0-.55,3.89,10.1,10.1,0,0,0,.54,3.79,1.83,1.83,0,0,0,1.77,1.25,5.62,5.62,0,0,0,3.06-1v3.43A6.28,6.28,0,0,1,432.18,245Z"/><path class="cls-3" d="M437.79,224.17a2.07,2.07,0,0,1,.57-1.53,2.1,2.1,0,0,1,1.57-.57,2,2,0,0,1,2.1,2.1,2,2,0,0,1-.59,1.55,2.13,2.13,0,0,1-1.51.54,2.2,2.2,0,0,1-1.55-.54A2,2,0,0,1,437.79,224.17Zm4.06,20.58H438V228.43h3.89Z"/><path class="cls-3" d="M449.48,245a4,4,0,0,1-3.56-2.22,12.33,12.33,0,0,1-1.3-6.2,12.91,12.91,0,0,1,1.27-6.24,3.91,3.91,0,0,1,3.52-2.25,3.44,3.44,0,0,1,1.93.54,5.07,5.07,0,0,1,1.5,1.86h.23c-.11-1.49-.17-2.53-.17-3.12V222h3.89v22.79h-2.9l-.66-2.12h-.13A3.9,3.9,0,0,1,449.48,245Zm1.26-3.29a1.67,1.67,0,0,0,1.59-1,9.33,9.33,0,0,0,.54-3.6v-.51a11,11,0,0,0-.51-4,1.72,1.72,0,0,0-1.66-1.16c-.72,0-1.25.45-1.58,1.33a11.85,11.85,0,0,0-.49,3.86,11,11,0,0,0,.5,3.8A1.69,1.69,0,0,0,450.74,241.75Z"/><path class="cls-3" d="M472.16,236.56a10.14,10.14,0,0,1-1.7,6.25,5.94,5.94,0,0,1-8,1.21,6.54,6.54,0,0,1-2.21-3,12,12,0,0,1-.78-4.51,10.06,10.06,0,0,1,1.69-6.2,5.51,5.51,0,0,1,4.67-2.23,5.44,5.44,0,0,1,4.59,2.27A10.05,10.05,0,0,1,472.16,236.56Zm-8.67,0a10.25,10.25,0,0,0,.55,3.85,1.88,1.88,0,0,0,1.79,1.31c1.56,0,2.35-1.72,2.35-5.16a9.81,9.81,0,0,0-.57-3.83,1.89,1.89,0,0,0-3.57,0A10.07,10.07,0,0,0,463.49,236.56Z"/><path class="cls-3" d="M489.68,228.13a3.89,3.89,0,0,1,3.5,2.21,15.93,15.93,0,0,1,0,12.49,3.93,3.93,0,0,1-3.55,2.21,3.85,3.85,0,0,1-1.94-.47,4.8,4.8,0,0,1-1.59-1.68h-.25l-.66,1.86h-2.87V222h3.9v5.33c0,.22,0,.46,0,.7s-.07,1.1-.19,2.57h.21a4.94,4.94,0,0,1,1.55-1.89A3.47,3.47,0,0,1,489.68,228.13Zm-1.35,3.31a1.64,1.64,0,0,0-1.6,1,9.67,9.67,0,0,0-.52,3.66v.39a11.21,11.21,0,0,0,.5,4,1.72,1.72,0,0,0,1.65,1.16q2.11,0,2.11-5.19T488.33,231.44Z"/><path class="cls-3" d="M501.09,244.75h-3.9V222h3.9Z"/><path class="cls-3" d="M516.44,236.56a10.08,10.08,0,0,1-1.7,6.25,5.52,5.52,0,0,1-4.66,2.23,5.58,5.58,0,0,1-3.31-1,6.61,6.61,0,0,1-2.21-3,12,12,0,0,1-.77-4.51,10.13,10.13,0,0,1,1.68-6.2,5.51,5.51,0,0,1,4.67-2.23,5.41,5.41,0,0,1,4.59,2.27A10.05,10.05,0,0,1,516.44,236.56Zm-8.67,0a10.22,10.22,0,0,0,.56,3.85,1.86,1.86,0,0,0,1.78,1.31q2.36,0,2.35-5.16a9.81,9.81,0,0,0-.57-3.83,1.89,1.89,0,0,0-3.56,0A10,10,0,0,0,507.77,236.56Z"/><path class="cls-3" d="M524.57,245a5.12,5.12,0,0,1-4.44-2.12,10.72,10.72,0,0,1-1.52-6.24c0-2.87.48-5,1.44-6.43a5,5,0,0,1,4.46-2.12,7.3,7.3,0,0,1,1.91.26,6.5,6.5,0,0,1,1.78.76l-1.11,3a4.34,4.34,0,0,0-2.15-.71,1.87,1.87,0,0,0-1.8,1.29,10.63,10.63,0,0,0-.55,3.89,9.87,9.87,0,0,0,.55,3.79,1.83,1.83,0,0,0,1.77,1.25,5.65,5.65,0,0,0,3.06-1v3.43A6.3,6.3,0,0,1,524.57,245Z"/><path class="cls-3" d="M534.15,236l1-2,3.23-5.58h4.13l-4.13,6.7,4.4,9.62h-4.08l-2.95-6.9-1.52,1.38v5.52h-3.9V222h3.9V232.7L534,236Z"/><path class="cls-3" d="M543.85,238.42V235h7.37v3.43Z"/><path class="cls-3" d="M566,236.56a10.08,10.08,0,0,1-1.7,6.25,5.52,5.52,0,0,1-4.66,2.23,5.58,5.58,0,0,1-3.31-1,6.61,6.61,0,0,1-2.21-3,12,12,0,0,1-.77-4.51,10.13,10.13,0,0,1,1.68-6.2,5.51,5.51,0,0,1,4.67-2.23,5.41,5.41,0,0,1,4.59,2.27A10.05,10.05,0,0,1,566,236.56Zm-8.67,0a10.22,10.22,0,0,0,.56,3.85,1.86,1.86,0,0,0,1.78,1.31q2.36,0,2.35-5.16a9.81,9.81,0,0,0-.57-3.83,1.89,1.89,0,0,0-3.56,0A10,10,0,0,0,557.34,236.56Z"/><path class="cls-3" d="M577.57,244.75l-.48-2.09h-.21a4.29,4.29,0,0,1-1.54,1.75,4.25,4.25,0,0,1-2.3.63,3.89,3.89,0,0,1-3.32-1.49,7.38,7.38,0,0,1-1.13-4.47V228.43h3.94v9.72a6.48,6.48,0,0,0,.43,2.69,1.42,1.42,0,0,0,1.37.91,1.93,1.93,0,0,0,1.84-1.26,11,11,0,0,0,.58-4.24v-7.82h3.94v16.32Z"/><path class="cls-3" d="M589.63,241.75a4.6,4.6,0,0,0,1.77-.41v3a5.15,5.15,0,0,1-2.86.65,3.84,3.84,0,0,1-3.15-1.26,6,6,0,0,1-1-3.8v-8.46h-1.59v-1.74l2-1.41,1-3.45h2.49v3.51h3v3.09h-3v8.59C588.31,241.2,588.75,241.75,589.63,241.75Z"/><path class="cls-3" d="M607.12,245a5.88,5.88,0,0,1-4.83-2.17,9.52,9.52,0,0,1-1.77-6.16,10.84,10.84,0,0,1,1.6-6.31,5.52,5.52,0,0,1,8.66-.33,8.57,8.57,0,0,1,1.54,5.44v2.08h-7.84a5.37,5.37,0,0,0,.89,3.24,2.85,2.85,0,0,0,2.35,1.07,7.59,7.59,0,0,0,3.89-1.19v3.21A8.57,8.57,0,0,1,607.12,245Zm-.58-13.91a1.58,1.58,0,0,0-1.37.88,6,6,0,0,0-.63,2.75h4a6,6,0,0,0-.54-2.71A1.57,1.57,0,0,0,606.54,231.13Z"/><path class="cls-3" d="M630.3,244.75l-.77-2.23h-.09a5.5,5.5,0,0,1-1.79,2,4.54,4.54,0,0,1-2.33.54,3.39,3.39,0,0,1-2.83-1.34,6,6,0,0,1-1-3.75,4.85,4.85,0,0,1,1.41-3.83,6.68,6.68,0,0,1,4.23-1.39l2.16-.09v-1.17c0-1.52-.66-2.28-2-2.28a6.77,6.77,0,0,0-3.37,1.14l-1.35-2.7a9.73,9.73,0,0,1,5.29-1.53,5,5,0,0,1,3.94,1.48,6,6,0,0,1,1.36,4.21v11ZM626.92,242a2,2,0,0,0,1.71-1,4.6,4.6,0,0,0,.63-2.56V237.1l-1.2.06a2.74,2.74,0,0,0-1.95.76,3,3,0,0,0-.63,2.06C625.48,241.32,626,242,626.92,242Z"/><path class="cls-3" d="M641.7,245a5.12,5.12,0,0,1-4.44-2.12,10.72,10.72,0,0,1-1.52-6.24c0-2.87.48-5,1.44-6.43a5,5,0,0,1,4.46-2.12,7.3,7.3,0,0,1,1.91.26,6.5,6.5,0,0,1,1.78.76l-1.11,3a4.34,4.34,0,0,0-2.15-.71,1.87,1.87,0,0,0-1.8,1.29,10.63,10.63,0,0,0-.55,3.89,10.1,10.1,0,0,0,.54,3.79,1.86,1.86,0,0,0,1.78,1.25,5.67,5.67,0,0,0,3.06-1v3.43A6.3,6.3,0,0,1,641.7,245Z"/><path class="cls-3" d="M655.44,244.75l-.78-2.23h-.08a5.59,5.59,0,0,1-1.79,2,4.56,4.56,0,0,1-2.33.54,3.37,3.37,0,0,1-2.83-1.34,6,6,0,0,1-1-3.75,4.82,4.82,0,0,1,1.42-3.83,6.67,6.67,0,0,1,4.22-1.39l2.17-.09v-1.17q0-2.28-2-2.28a6.8,6.8,0,0,0-3.37,1.14l-1.34-2.7A9.72,9.72,0,0,1,653,228.1a5.07,5.07,0,0,1,4,1.48,6.05,6.05,0,0,1,1.36,4.21v11ZM652.06,242a2,2,0,0,0,1.7-1,4.52,4.52,0,0,0,.64-2.56V237.1l-1.2.06a2.79,2.79,0,0,0-2,.76,3,3,0,0,0-.62,2.06C650.62,241.32,651.1,242,652.06,242Z"/><path class="cls-3" d="M668.81,228.13a3.89,3.89,0,0,1,3.51,2.21,15.93,15.93,0,0,1,0,12.49,3.94,3.94,0,0,1-3.55,2.21,3.88,3.88,0,0,1-2-.47,4.7,4.7,0,0,1-1.58-1.68H665l-.66,1.86h-2.87V222h3.89v5.33c0,.22,0,.46,0,.7s-.07,1.1-.19,2.57h.2a5,5,0,0,1,1.56-1.89A3.42,3.42,0,0,1,668.81,228.13Zm-1.34,3.31a1.65,1.65,0,0,0-1.61,1,9.88,9.88,0,0,0-.52,3.66v.39a10.93,10.93,0,0,0,.51,4,1.71,1.71,0,0,0,1.65,1.16c1.4,0,2.11-1.73,2.11-5.19S668.89,231.44,667.47,231.44Z"/><path class="cls-3" d="M684.33,244.75l-.78-2.23h-.09a5.49,5.49,0,0,1-1.78,2,4.59,4.59,0,0,1-2.33.54,3.41,3.41,0,0,1-2.84-1.34,6,6,0,0,1-1-3.75,4.85,4.85,0,0,1,1.41-3.83,6.7,6.7,0,0,1,4.23-1.39l2.17-.09v-1.17q0-2.28-2-2.28a6.77,6.77,0,0,0-3.37,1.14l-1.35-2.7a9.76,9.76,0,0,1,5.29-1.53,5.07,5.07,0,0,1,4,1.48,6.05,6.05,0,0,1,1.35,4.21v11ZM680.94,242a2,2,0,0,0,1.71-1,4.6,4.6,0,0,0,.64-2.56V237.1l-1.2.06a2.79,2.79,0,0,0-2,.76,3,3,0,0,0-.62,2.06C679.51,241.32,680,242,680.94,242Z"/><path class="cls-3" d="M706.53,244.75V235c0-2.39-.59-3.58-1.77-3.58a1.88,1.88,0,0,0-1.84,1.28,11.06,11.06,0,0,0-.56,4.11v7.92h-3.93V235c0-2.39-.6-3.58-1.8-3.58a1.9,1.9,0,0,0-1.83,1.27,11.14,11.14,0,0,0-.57,4.2v7.84h-3.9V228.43h3.09l.47,2.1h.25a4,4,0,0,1,1.61-1.83,4.34,4.34,0,0,1,2.17-.57,3.89,3.89,0,0,1,4,2.82h.14a4.17,4.17,0,0,1,4-2.82,3.81,3.81,0,0,1,3.29,1.52,7.42,7.42,0,0,1,1.12,4.45v10.65Z"/><path class="cls-3" d="M719.63,245a5.89,5.89,0,0,1-4.83-2.17,9.57,9.57,0,0,1-1.76-6.16,10.84,10.84,0,0,1,1.59-6.31,5.13,5.13,0,0,1,4.46-2.27,5,5,0,0,1,4.2,1.94,8.51,8.51,0,0,1,1.54,5.44v2.08H717a5.3,5.3,0,0,0,.9,3.24,2.82,2.82,0,0,0,2.34,1.07,7.63,7.63,0,0,0,3.9-1.19v3.21A8.59,8.59,0,0,1,719.63,245Zm-.57-13.91a1.58,1.58,0,0,0-1.38.88,6,6,0,0,0-.63,2.75h4a6,6,0,0,0-.54-2.71A1.59,1.59,0,0,0,719.06,231.13Z"/><path class="cls-3" d="M735.54,244.75V235a6.46,6.46,0,0,0-.43-2.68,1.42,1.42,0,0,0-1.37-.9,1.93,1.93,0,0,0-1.85,1.25,10.8,10.8,0,0,0-.59,4.22v7.84h-3.89V228.43h3.09l.47,2.1h.25a4,4,0,0,1,3.81-2.4,3.84,3.84,0,0,1,3.33,1.52,7.57,7.57,0,0,1,1.1,4.45v10.65Z"/><path class="cls-3" d="M748.28,241.75a4.52,4.52,0,0,0,1.77-.41v3a5.09,5.09,0,0,1-2.85.65,3.81,3.81,0,0,1-3.15-1.26,6,6,0,0,1-1-3.8v-8.46h-1.58v-1.74l2-1.41,1-3.45H747v3.51h3v3.09h-3v8.59C747,241.2,747.4,241.75,748.28,241.75Z"/><path class="cls-3" d="M764.43,236.56a10.14,10.14,0,0,1-1.7,6.25,5.94,5.94,0,0,1-8,1.21,6.47,6.47,0,0,1-2.21-3,12,12,0,0,1-.78-4.51,10.13,10.13,0,0,1,1.68-6.2,5.53,5.53,0,0,1,4.68-2.23,5.44,5.44,0,0,1,4.59,2.27A10.05,10.05,0,0,1,764.43,236.56Zm-8.68,0a10.22,10.22,0,0,0,.56,3.85,1.87,1.87,0,0,0,1.79,1.31q2.34,0,2.34-5.16a10,10,0,0,0-.56-3.83,1.89,1.89,0,0,0-3.57,0A10,10,0,0,0,755.75,236.56Z"/><path class="cls-3" d="M59.73,272.56a10.08,10.08,0,0,1-1.7,6.25A5.51,5.51,0,0,1,53.38,281a5.61,5.61,0,0,1-3.32-1,6.61,6.61,0,0,1-2.21-2.95,12.2,12.2,0,0,1-.77-4.51,10.13,10.13,0,0,1,1.68-6.2,5.51,5.51,0,0,1,4.67-2.23A5.44,5.44,0,0,1,58,266.4,10.12,10.12,0,0,1,59.73,272.56Zm-8.67,0a10.22,10.22,0,0,0,.56,3.85,1.86,1.86,0,0,0,1.78,1.31q2.35,0,2.35-5.16a9.81,9.81,0,0,0-.57-3.83,1.89,1.89,0,0,0-3.56,0A10,10,0,0,0,51.06,272.56Z"/><path class="cls-3" d="M69.75,281a3.63,3.63,0,0,1-1.87-.47,4.58,4.58,0,0,1-1.51-1.68h-.21q.24,2,.24,2.4V288H62.47V264.43h3l.67,2.13h.18a3.82,3.82,0,0,1,3.53-2.43,3.87,3.87,0,0,1,3.49,2.2,12.69,12.69,0,0,1,1.26,6.23,12.5,12.5,0,0,1-1.31,6.23A4,4,0,0,1,69.75,281Zm-1.2-13.6a1.71,1.71,0,0,0-1.65,1.06,9.26,9.26,0,0,0-.53,3.52v.51a11,11,0,0,0,.51,3.93,1.75,1.75,0,0,0,1.7,1.23q2.06,0,2-5.19a11,11,0,0,0-.5-3.8A1.69,1.69,0,0,0,68.55,267.44Z"/><path class="cls-3" d="M85.35,280.75l-.77-2.23h-.09a5.5,5.5,0,0,1-1.79,2,4.54,4.54,0,0,1-2.33.54,3.39,3.39,0,0,1-2.83-1.34,6,6,0,0,1-1-3.75,4.85,4.85,0,0,1,1.41-3.83,6.67,6.67,0,0,1,4.22-1.39l2.17-.09v-1.17c0-1.52-.66-2.28-2-2.28A6.77,6.77,0,0,0,79,268.33l-1.35-2.7a9.73,9.73,0,0,1,5.29-1.53,5.06,5.06,0,0,1,3.94,1.48,6,6,0,0,1,1.36,4.21v11ZM82,278a2,2,0,0,0,1.71-1,4.6,4.6,0,0,0,.63-2.56V273.1l-1.2.06a2.74,2.74,0,0,0-2,.76,3,3,0,0,0-.63,2.06C80.53,277.32,81,278,82,278Z"/><path class="cls-3" d="M96.75,281a5.12,5.12,0,0,1-4.44-2.12,10.72,10.72,0,0,1-1.52-6.24c0-2.87.48-5,1.44-6.43a5,5,0,0,1,4.46-2.12,7.17,7.17,0,0,1,1.9.26,6.57,6.57,0,0,1,1.79.76l-1.11,3a4.34,4.34,0,0,0-2.15-.71,1.87,1.87,0,0,0-1.8,1.29,10.63,10.63,0,0,0-.55,3.89,10.1,10.1,0,0,0,.54,3.79,1.86,1.86,0,0,0,1.78,1.25,5.67,5.67,0,0,0,3.06-1v3.43A6.3,6.3,0,0,1,96.75,281Z"/><path class="cls-3" d="M114.58,272.56a10.14,10.14,0,0,1-1.7,6.25,5.94,5.94,0,0,1-8,1.21,6.47,6.47,0,0,1-2.21-2.95,12,12,0,0,1-.78-4.51,10.13,10.13,0,0,1,1.68-6.2,5.54,5.54,0,0,1,4.68-2.23,5.44,5.44,0,0,1,4.59,2.27A10.05,10.05,0,0,1,114.58,272.56Zm-8.68,0a10.22,10.22,0,0,0,.56,3.85,1.87,1.87,0,0,0,1.79,1.31q2.34,0,2.34-5.16a10,10,0,0,0-.56-3.83,1.89,1.89,0,0,0-3.57,0A10,10,0,0,0,105.9,272.56Z"/><path class="cls-3" d="M129,281a4,4,0,0,1-3.57-2.22,12.44,12.44,0,0,1-1.29-6.2,12.91,12.91,0,0,1,1.26-6.25,3.87,3.87,0,0,1,3.5-2.24,3.45,3.45,0,0,1,2,.55,4.84,4.84,0,0,1,1.51,1.85h.21l.42-2.1h3.3V288h-3.9v-6.87q0-.52.18-2.46h-.15a4.67,4.67,0,0,1-1.46,1.84A3.49,3.49,0,0,1,129,281Zm1.19-3.26a1.73,1.73,0,0,0,1.66-1.06,9.12,9.12,0,0,0,.53-3.53v-.54a11,11,0,0,0-.51-3.92,1.74,1.74,0,0,0-1.68-1.24q-2,0-2,5.19a11.2,11.2,0,0,0,.49,3.85A1.65,1.65,0,0,0,130.21,277.78Z"/><path class="cls-3" d="M148.43,280.75l-.48-2.09h-.21a4.29,4.29,0,0,1-1.54,1.75,4.25,4.25,0,0,1-2.3.63,3.89,3.89,0,0,1-3.32-1.49,7.38,7.38,0,0,1-1.13-4.47V264.43h3.94v9.72a6.68,6.68,0,0,0,.42,2.69,1.44,1.44,0,0,0,1.38.91,1.93,1.93,0,0,0,1.84-1.26,11,11,0,0,0,.58-4.24v-7.82h3.94v16.32Z"/><path class="cls-3" d="M160.84,281a5.89,5.89,0,0,1-4.83-2.17,9.52,9.52,0,0,1-1.77-6.16,10.84,10.84,0,0,1,1.6-6.31,5.13,5.13,0,0,1,4.45-2.27,5.07,5.07,0,0,1,4.21,1.94,8.57,8.57,0,0,1,1.54,5.44v2.08H158.2a5.37,5.37,0,0,0,.89,3.24,2.85,2.85,0,0,0,2.35,1.07,7.57,7.57,0,0,0,3.89-1.19v3.21A8.57,8.57,0,0,1,160.84,281Zm-.58-13.91a1.58,1.58,0,0,0-1.37.88,6,6,0,0,0-.63,2.75h4a6,6,0,0,0-.54-2.71A1.57,1.57,0,0,0,160.26,267.13Z"/><path class="cls-3" d="M183.39,264.13a3.89,3.89,0,0,1,3.51,2.21,15.93,15.93,0,0,1,0,12.49,3.94,3.94,0,0,1-3.55,2.21,3.88,3.88,0,0,1-2-.47,4.7,4.7,0,0,1-1.58-1.68h-.25l-.66,1.86H176V258h3.89v5.33c0,.22,0,.46,0,.7s-.07,1.1-.19,2.57h.2a5,5,0,0,1,1.56-1.89A3.42,3.42,0,0,1,183.39,264.13Zm-1.34,3.31a1.65,1.65,0,0,0-1.61,1,9.88,9.88,0,0,0-.52,3.66v.39a10.93,10.93,0,0,0,.51,4,1.71,1.71,0,0,0,1.65,1.16c1.4,0,2.11-1.73,2.11-5.19S183.47,267.44,182.05,267.44Z"/><path class="cls-3" d="M194.81,280.75h-3.9V258h3.9Z"/><path class="cls-3" d="M210.16,272.56a10.14,10.14,0,0,1-1.7,6.25,5.94,5.94,0,0,1-8,1.21,6.54,6.54,0,0,1-2.21-2.95,12,12,0,0,1-.78-4.51,10.06,10.06,0,0,1,1.69-6.2,5.51,5.51,0,0,1,4.67-2.23,5.44,5.44,0,0,1,4.59,2.27A10.05,10.05,0,0,1,210.16,272.56Zm-8.67,0a10.25,10.25,0,0,0,.55,3.85,1.87,1.87,0,0,0,1.79,1.31q2.34,0,2.34-5.16a10,10,0,0,0-.56-3.83,1.89,1.89,0,0,0-3.57,0A10.07,10.07,0,0,0,201.49,272.56Z"/><path class="cls-3" d="M217.19,281a4,4,0,0,1-3.58-2.22,12.56,12.56,0,0,1-1.28-6.2,12.91,12.91,0,0,1,1.26-6.25,3.87,3.87,0,0,1,3.5-2.24,3.45,3.45,0,0,1,2,.55,4.84,4.84,0,0,1,1.51,1.85h.21l.42-2.1h3.3V288h-3.9v-6.87q0-.52.18-2.46h-.15a4.67,4.67,0,0,1-1.46,1.84A3.49,3.49,0,0,1,217.19,281Zm1.19-3.26a1.73,1.73,0,0,0,1.66-1.06,9.32,9.32,0,0,0,.53-3.53v-.54a11,11,0,0,0-.51-3.92,1.74,1.74,0,0,0-1.68-1.24q-2,0-2,5.19a11.2,11.2,0,0,0,.49,3.85A1.65,1.65,0,0,0,218.38,277.78Z"/><path class="cls-3" d="M236.6,280.75l-.49-2.09h-.2a4.14,4.14,0,0,1-3.84,2.38,3.89,3.89,0,0,1-3.32-1.49,7.31,7.31,0,0,1-1.13-4.47V264.43h3.94v9.72a6.68,6.68,0,0,0,.42,2.69,1.44,1.44,0,0,0,1.38.91,1.93,1.93,0,0,0,1.84-1.26,11.16,11.16,0,0,0,.58-4.24v-7.82h3.94v16.32Z"/><path class="cls-3" d="M249,281a5.86,5.86,0,0,1-4.83-2.17,9.52,9.52,0,0,1-1.77-6.16,10.84,10.84,0,0,1,1.6-6.31,5.52,5.52,0,0,1,8.66-.33,8.57,8.57,0,0,1,1.54,5.44v2.08h-7.84a5.37,5.37,0,0,0,.89,3.24,2.85,2.85,0,0,0,2.35,1.07,7.59,7.59,0,0,0,3.89-1.19v3.21A8.57,8.57,0,0,1,249,281Zm-.58-13.91a1.58,1.58,0,0,0-1.37.88,6,6,0,0,0-.63,2.75h3.95a6,6,0,0,0-.54-2.71A1.57,1.57,0,0,0,248.43,267.13Z"/><path class="cls-3" d="M256.65,260.17a2.07,2.07,0,0,1,.57-1.53,2.1,2.1,0,0,1,1.57-.57,2,2,0,0,1,1.52.57,2.07,2.07,0,0,1,.57,1.53,2,2,0,0,1-.58,1.55,2.13,2.13,0,0,1-1.51.54,2.2,2.2,0,0,1-1.55-.54A2,2,0,0,1,256.65,260.17Zm4.06,20.58h-3.9V264.43h3.9Z"/><path class="cls-3" d="M272.05,280.75l-.78-2.23h-.09a5.49,5.49,0,0,1-1.78,2,4.59,4.59,0,0,1-2.33.54,3.41,3.41,0,0,1-2.84-1.34,6,6,0,0,1-1-3.75,4.85,4.85,0,0,1,1.41-3.83,6.68,6.68,0,0,1,4.23-1.39l2.17-.09v-1.17q0-2.28-2-2.28a6.77,6.77,0,0,0-3.37,1.14l-1.35-2.7a9.76,9.76,0,0,1,5.29-1.53,5.09,5.09,0,0,1,3.95,1.48,6.05,6.05,0,0,1,1.35,4.21v11ZM268.66,278a2,2,0,0,0,1.71-1,4.6,4.6,0,0,0,.64-2.56V273.1l-1.2.06a2.77,2.77,0,0,0-2,.76,3,3,0,0,0-.62,2.06C267.23,277.32,267.71,278,268.66,278Z"/><path class="cls-3" d="M294.25,280.75V271c0-2.39-.59-3.58-1.77-3.58a1.88,1.88,0,0,0-1.84,1.28,10.85,10.85,0,0,0-.56,4.11v7.92h-3.93V271c0-2.39-.6-3.58-1.8-3.58a1.9,1.9,0,0,0-1.83,1.27,11.14,11.14,0,0,0-.57,4.2v7.84h-3.9V264.43h3.09l.47,2.1h.25a4,4,0,0,1,1.61-1.83,4.34,4.34,0,0,1,2.17-.57,3.89,3.89,0,0,1,4,2.82h.14a4.16,4.16,0,0,1,4-2.82,3.81,3.81,0,0,1,3.29,1.52,7.42,7.42,0,0,1,1.12,4.45v10.65Z"/><path class="cls-3" d="M314.13,281a5.12,5.12,0,0,1-4.44-2.12,10.72,10.72,0,0,1-1.52-6.24c0-2.87.48-5,1.44-6.43a5,5,0,0,1,4.46-2.12,7.3,7.3,0,0,1,1.91.26,6.5,6.5,0,0,1,1.78.76l-1.11,3a4.34,4.34,0,0,0-2.15-.71,1.87,1.87,0,0,0-1.8,1.29,10.63,10.63,0,0,0-.55,3.89,10.07,10.07,0,0,0,.55,3.79,1.83,1.83,0,0,0,1.77,1.25,5.62,5.62,0,0,0,3.06-1v3.43A6.28,6.28,0,0,1,314.13,281Z"/><path class="cls-3" d="M332,272.56a10.14,10.14,0,0,1-1.7,6.25,5.94,5.94,0,0,1-8,1.21,6.54,6.54,0,0,1-2.21-2.95,12,12,0,0,1-.78-4.51,10.06,10.06,0,0,1,1.69-6.2,5.51,5.51,0,0,1,4.67-2.23,5.44,5.44,0,0,1,4.59,2.27A10.05,10.05,0,0,1,332,272.56Zm-8.67,0a10.25,10.25,0,0,0,.55,3.85,1.88,1.88,0,0,0,1.79,1.31q2.34,0,2.34-5.16a9.84,9.84,0,0,0-.56-3.83,1.89,1.89,0,0,0-3.57,0A10.07,10.07,0,0,0,323.29,272.56Z"/><path class="cls-3" d="M350.9,280.75V271c0-2.39-.59-3.58-1.77-3.58a1.89,1.89,0,0,0-1.85,1.28,11.06,11.06,0,0,0-.56,4.11v7.92H342.8V271c0-2.39-.6-3.58-1.8-3.58a1.9,1.9,0,0,0-1.83,1.27,11.09,11.09,0,0,0-.58,4.2v7.84H334.7V264.43h3.09l.47,2.1h.25a4,4,0,0,1,1.6-1.83,4.38,4.38,0,0,1,2.18-.57,3.88,3.88,0,0,1,4,2.82h.15a4.16,4.16,0,0,1,4-2.82,3.82,3.82,0,0,1,3.29,1.52,7.49,7.49,0,0,1,1.12,4.45v10.65Z"/><path class="cls-3" d="M365.26,281a3.58,3.58,0,0,1-1.87-.47,4.51,4.51,0,0,1-1.52-1.68h-.2c.15,1.33.23,2.13.23,2.4V288H358V264.43h3l.68,2.13h.17a3.82,3.82,0,0,1,3.53-2.43,3.86,3.86,0,0,1,3.49,2.2,12.69,12.69,0,0,1,1.26,6.23,12.5,12.5,0,0,1-1.31,6.23A4,4,0,0,1,365.26,281Zm-1.21-13.6a1.69,1.69,0,0,0-1.64,1.06,9,9,0,0,0-.54,3.52v.51a11,11,0,0,0,.51,3.93,1.76,1.76,0,0,0,1.7,1.23q2.06,0,2.05-5.19a10.75,10.75,0,0,0-.5-3.8A1.68,1.68,0,0,0,364.05,267.44Z"/><path class="cls-3" d="M376.75,280.75h-3.89V258h3.89Z"/><path class="cls-3" d="M386,281a5.86,5.86,0,0,1-4.82-2.17,9.52,9.52,0,0,1-1.77-6.16,10.77,10.77,0,0,1,1.6-6.31,5.11,5.11,0,0,1,4.45-2.27,5,5,0,0,1,4.2,1.94,8.51,8.51,0,0,1,1.54,5.44v2.08H383.4a5.3,5.3,0,0,0,.9,3.24,2.83,2.83,0,0,0,2.34,1.07,7.63,7.63,0,0,0,3.9-1.19v3.21A8.59,8.59,0,0,1,386,281Zm-.57-13.91a1.58,1.58,0,0,0-1.38.88,6,6,0,0,0-.63,2.75h4a6,6,0,0,0-.54-2.71A1.58,1.58,0,0,0,385.47,267.13Z"/><path class="cls-3" d="M399.49,277.75a4.52,4.52,0,0,0,1.77-.41v3.05a5.13,5.13,0,0,1-2.86.65,3.8,3.8,0,0,1-3.14-1.26,5.94,5.94,0,0,1-1-3.8v-8.46h-1.58v-1.74l2-1.41,1-3.45h2.49v3.51h3v3.09h-3v8.59C398.17,277.2,398.61,277.75,399.49,277.75Z"/><path class="cls-3" d="M411.54,280.75l-.77-2.23h-.09a5.5,5.5,0,0,1-1.79,2,4.54,4.54,0,0,1-2.33.54,3.39,3.39,0,0,1-2.83-1.34,6,6,0,0,1-1-3.75,4.85,4.85,0,0,1,1.41-3.83,6.68,6.68,0,0,1,4.23-1.39l2.16-.09v-1.17c0-1.52-.66-2.28-2-2.28a6.77,6.77,0,0,0-3.37,1.14l-1.35-2.7a9.73,9.73,0,0,1,5.29-1.53,5.09,5.09,0,0,1,3.95,1.48,6.05,6.05,0,0,1,1.35,4.21v11ZM408.16,278a2,2,0,0,0,1.71-1,4.6,4.6,0,0,0,.63-2.56V273.1l-1.2.06a2.74,2.74,0,0,0-1.95.76,3,3,0,0,0-.63,2.06C406.72,277.32,407.2,278,408.16,278Z"/><path class="cls-3" d="M433.75,280.75V271c0-2.39-.59-3.58-1.77-3.58a1.89,1.89,0,0,0-1.85,1.28,11.1,11.1,0,0,0-.55,4.11v7.92h-3.93V271c0-2.39-.6-3.58-1.8-3.58a1.9,1.9,0,0,0-1.83,1.27,11.14,11.14,0,0,0-.57,4.2v7.84h-3.9V264.43h3.09l.47,2.1h.25a4,4,0,0,1,1.6-1.83,4.41,4.41,0,0,1,2.18-.57,3.88,3.88,0,0,1,4,2.82h.15a4.16,4.16,0,0,1,4-2.82,3.82,3.82,0,0,1,3.29,1.52,7.49,7.49,0,0,1,1.12,4.45v10.65Z"/><path class="cls-3" d="M446.85,281a5.89,5.89,0,0,1-4.83-2.17,9.52,9.52,0,0,1-1.76-6.16,10.84,10.84,0,0,1,1.59-6.31,5.13,5.13,0,0,1,4.45-2.27,5.07,5.07,0,0,1,4.21,1.94,8.57,8.57,0,0,1,1.54,5.44v2.08h-7.84a5.37,5.37,0,0,0,.89,3.24,2.85,2.85,0,0,0,2.35,1.07,7.57,7.57,0,0,0,3.89-1.19v3.21A8.57,8.57,0,0,1,446.85,281Zm-.57-13.91a1.58,1.58,0,0,0-1.38.88,6,6,0,0,0-.63,2.75h4a6,6,0,0,0-.54-2.71A1.56,1.56,0,0,0,446.28,267.13Z"/><path class="cls-3" d="M462.76,280.75V271a6.63,6.63,0,0,0-.43-2.68,1.42,1.42,0,0,0-1.38-.9,1.92,1.92,0,0,0-1.84,1.25,10.8,10.8,0,0,0-.59,4.22v7.84h-3.89V264.43h3.09l.46,2.1h.25a4.29,4.29,0,0,1,1.51-1.77,4.18,4.18,0,0,1,2.3-.63,3.85,3.85,0,0,1,3.34,1.52,7.57,7.57,0,0,1,1.1,4.45v10.65Z"/><path class="cls-3" d="M475.5,277.75a4.52,4.52,0,0,0,1.77-.41v3.05a5.11,5.11,0,0,1-2.85.65,3.81,3.81,0,0,1-3.15-1.26,5.94,5.94,0,0,1-1-3.8v-8.46h-1.58v-1.74l2-1.41,1-3.45h2.49v3.51h3v3.09h-3v8.59C474.18,277.2,474.62,277.75,475.5,277.75Z"/><path class="cls-3" d="M485.58,281a5.89,5.89,0,0,1-4.83-2.17,9.52,9.52,0,0,1-1.76-6.16,10.84,10.84,0,0,1,1.59-6.31,5.13,5.13,0,0,1,4.46-2.27,5.06,5.06,0,0,1,4.2,1.94,8.57,8.57,0,0,1,1.54,5.44v2.08h-7.84a5.37,5.37,0,0,0,.89,3.24,2.85,2.85,0,0,0,2.35,1.07,7.57,7.57,0,0,0,3.89-1.19v3.21A8.55,8.55,0,0,1,485.58,281ZM485,267.13a1.58,1.58,0,0,0-1.38.88,6,6,0,0,0-.63,2.75H487a6,6,0,0,0-.54-2.71A1.56,1.56,0,0,0,485,267.13Z"/><path class="cls-3" d="M508.77,280.75l-.78-2.23h-.09a5.42,5.42,0,0,1-1.79,2,4.53,4.53,0,0,1-2.32.54A3.39,3.39,0,0,1,501,279.7a6,6,0,0,1-1-3.75,4.85,4.85,0,0,1,1.41-3.83,6.68,6.68,0,0,1,4.23-1.39l2.17-.09v-1.17q0-2.28-2-2.28a6.77,6.77,0,0,0-3.37,1.14l-1.35-2.7a9.76,9.76,0,0,1,5.29-1.53,5.09,5.09,0,0,1,3.95,1.48,6.05,6.05,0,0,1,1.35,4.21v11ZM505.38,278a2,2,0,0,0,1.71-1,4.6,4.6,0,0,0,.64-2.56V273.1l-1.21.06a2.76,2.76,0,0,0-1.95.76A3,3,0,0,0,504,276C504,277.32,504.43,278,505.38,278Z"/><path class="cls-3" d="M526.08,280.75h-3.9V258h3.9Z"/><path class="cls-3" d="M538.17,280.75l-.49-2.09h-.2a4.14,4.14,0,0,1-3.84,2.38,3.91,3.91,0,0,1-3.33-1.49,7.38,7.38,0,0,1-1.12-4.47V264.43h3.94v9.72a6.68,6.68,0,0,0,.42,2.69,1.42,1.42,0,0,0,1.38.91,1.93,1.93,0,0,0,1.84-1.26,11.2,11.2,0,0,0,.57-4.24v-7.82h3.95v16.32Z"/><path class="cls-3" d="M553,280.75h-9.5v-2.49l5-10.68h-4.69v-3.15h9v2.76l-4.86,10.41H553Z"/><path class="cls-3" d="M571.43,276a4.87,4.87,0,0,1-1.4,3.72,5.69,5.69,0,0,1-4.12,1.34,7.62,7.62,0,0,1-4-1v-3.38a7.65,7.65,0,0,0,1.88.92,5.87,5.87,0,0,0,1.9.37,1.91,1.91,0,0,0,1.38-.45,1.54,1.54,0,0,0,.48-1.18,1.89,1.89,0,0,0-.5-1.3,8.2,8.2,0,0,0-1.83-1.36,7.63,7.63,0,0,1-2.54-2.25,5.14,5.14,0,0,1-.77-2.82,4.11,4.11,0,0,1,1.43-3.3,5.85,5.85,0,0,1,3.92-1.21,7.86,7.86,0,0,1,4.08,1.14l-1.27,2.8a5.92,5.92,0,0,0-2.75-.85,1.5,1.5,0,0,0-1.13.39,1.41,1.41,0,0,0-.37,1,1.73,1.73,0,0,0,.46,1.17A8,8,0,0,0,568,271a11,11,0,0,1,2.14,1.57,4.59,4.59,0,0,1,1,1.47A4.88,4.88,0,0,1,571.43,276Z"/><path class="cls-3" d="M586,272.56a10.14,10.14,0,0,1-1.7,6.25,5.94,5.94,0,0,1-8,1.21,6.54,6.54,0,0,1-2.21-2.95,12,12,0,0,1-.78-4.51,10.06,10.06,0,0,1,1.69-6.2,5.51,5.51,0,0,1,4.67-2.23,5.44,5.44,0,0,1,4.59,2.27A10.05,10.05,0,0,1,586,272.56Zm-8.67,0a10.25,10.25,0,0,0,.55,3.85,1.87,1.87,0,0,0,1.79,1.31q2.34,0,2.34-5.16a10,10,0,0,0-.56-3.83,1.89,1.89,0,0,0-3.57,0A10.07,10.07,0,0,0,577.31,272.56Z"/><path class="cls-3" d="M592.61,280.75h-3.89V258h3.89Z"/><path class="cls-3" d="M603.88,280.75l-.78-2.23H603a5.49,5.49,0,0,1-1.78,2,4.56,4.56,0,0,1-2.33.54,3.41,3.41,0,0,1-2.84-1.34,6.1,6.1,0,0,1-1-3.75,4.85,4.85,0,0,1,1.41-3.83,6.73,6.73,0,0,1,4.23-1.39l2.17-.09v-1.17q0-2.28-2-2.28a6.77,6.77,0,0,0-3.37,1.14l-1.35-2.7a9.76,9.76,0,0,1,5.29-1.53,5.07,5.07,0,0,1,4,1.48,6.05,6.05,0,0,1,1.35,4.21v11ZM600.49,278a2,2,0,0,0,1.71-1,4.52,4.52,0,0,0,.64-2.56V273.1l-1.2.06a2.79,2.79,0,0,0-2,.76,3,3,0,0,0-.62,2.06C599.06,277.32,599.54,278,600.49,278Z"/><path class="cls-3" d="M616.84,264.13a4.82,4.82,0,0,1,1.41.21l-.46,3.78a3.47,3.47,0,0,0-1.07-.14,2.48,2.48,0,0,0-2.18,1.12,5.78,5.78,0,0,0-.76,3.26v8.39h-3.9V264.43h3.21l.44,2.55h.13a6,6,0,0,1,1.41-2.2A2.62,2.62,0,0,1,616.84,264.13Z"/><path class="cls-3" d="M620,278.74a2.43,2.43,0,0,1,.61-1.77,2.4,2.4,0,0,1,1.81-.63,2.48,2.48,0,0,1,1.82.62,2.43,2.43,0,0,1,.61,1.78,2.37,2.37,0,0,1-.64,1.78,2.42,2.42,0,0,1-4.21-1.78Z"/><path class="cls-3" d="M645.39,280.75h-9.65V259.33h9.65v3.45h-5.67v5.1H645v3.45h-5.26v5.93h5.67Z"/><path class="cls-3" d="M652.17,280.75h-3.89V258h3.89Z"/><path class="cls-3" d="M663.44,280.75l-.78-2.23h-.09a5.49,5.49,0,0,1-1.78,2,4.56,4.56,0,0,1-2.33.54,3.41,3.41,0,0,1-2.84-1.34,6.1,6.1,0,0,1-1-3.75,4.85,4.85,0,0,1,1.41-3.83,6.73,6.73,0,0,1,4.23-1.39l2.17-.09v-1.17q0-2.28-2-2.28a6.77,6.77,0,0,0-3.37,1.14l-1.35-2.7A9.78,9.78,0,0,1,661,264.1a5.07,5.07,0,0,1,4,1.48,6.05,6.05,0,0,1,1.36,4.21v11ZM660.05,278a2,2,0,0,0,1.71-1,4.52,4.52,0,0,0,.64-2.56V273.1l-1.2.06a2.79,2.79,0,0,0-2,.76,3,3,0,0,0-.62,2.06C658.62,277.32,659.1,278,660.05,278Z"/><path class="cls-3" d="M678.2,276a4.87,4.87,0,0,1-1.4,3.72,5.69,5.69,0,0,1-4.12,1.34,7.62,7.62,0,0,1-4-1v-3.38a7.65,7.65,0,0,0,1.88.92,5.92,5.92,0,0,0,1.9.37,2,2,0,0,0,1.39-.45,1.57,1.57,0,0,0,.47-1.18,1.84,1.84,0,0,0-.5-1.3,8.2,8.2,0,0,0-1.83-1.36,7.74,7.74,0,0,1-2.54-2.25,5.14,5.14,0,0,1-.77-2.82,4.11,4.11,0,0,1,1.43-3.3,5.85,5.85,0,0,1,3.92-1.21,7.9,7.9,0,0,1,4.09,1.14l-1.28,2.8a5.89,5.89,0,0,0-2.75-.85,1.48,1.48,0,0,0-1.12.39,1.38,1.38,0,0,0-.38,1,1.73,1.73,0,0,0,.46,1.17,8.07,8.07,0,0,0,1.73,1.27,11.35,11.35,0,0,1,2.14,1.57,4.76,4.76,0,0,1,1,1.47A5.07,5.07,0,0,1,678.2,276Z"/><path class="cls-3" d="M696.84,276a4.91,4.91,0,0,1-1.4,3.72,5.72,5.72,0,0,1-4.13,1.34,7.56,7.56,0,0,1-4-1v-3.38a7.32,7.32,0,0,0,1.88.92,5.86,5.86,0,0,0,1.89.37,2,2,0,0,0,1.39-.45,1.54,1.54,0,0,0,.48-1.18,1.89,1.89,0,0,0-.5-1.3,8.45,8.45,0,0,0-1.83-1.36,7.68,7.68,0,0,1-2.55-2.25,5.13,5.13,0,0,1-.76-2.82,4.11,4.11,0,0,1,1.42-3.3,5.87,5.87,0,0,1,3.92-1.21,7.87,7.87,0,0,1,4.09,1.14l-1.28,2.8a5.89,5.89,0,0,0-2.75-.85,1.48,1.48,0,0,0-1.12.39,1.37,1.37,0,0,0-.37,1,1.68,1.68,0,0,0,.46,1.17,8,8,0,0,0,1.72,1.27,11,11,0,0,1,2.14,1.57,4.59,4.59,0,0,1,1,1.47A5.07,5.07,0,0,1,696.84,276Z"/><path class="cls-3" d="M707.3,280.75l-.78-2.23h-.09a5.42,5.42,0,0,1-1.79,2,4.53,4.53,0,0,1-2.32.54,3.39,3.39,0,0,1-2.84-1.34,6,6,0,0,1-1-3.75,4.85,4.85,0,0,1,1.41-3.83,6.68,6.68,0,0,1,4.23-1.39l2.17-.09v-1.17q0-2.28-2-2.28a6.77,6.77,0,0,0-3.37,1.14l-1.35-2.7a9.76,9.76,0,0,1,5.29-1.53,5.09,5.09,0,0,1,3.95,1.48,6.05,6.05,0,0,1,1.35,4.21v11ZM703.21,261a.89.89,0,0,0-.73.35,2.81,2.81,0,0,0-.41,1.25H700a6.16,6.16,0,0,1,1-3.32,2.66,2.66,0,0,1,2.21-1.09,2.57,2.57,0,0,1,1.13.24,7.84,7.84,0,0,1,.95.54l.85.53a1.66,1.66,0,0,0,.85.24.76.76,0,0,0,.72-.38,4,4,0,0,0,.39-1.2h2.07a6.09,6.09,0,0,1-1,3.32,2.78,2.78,0,0,1-3.34.85,6.58,6.58,0,0,1-.94-.54c-.29-.2-.56-.38-.83-.54A1.58,1.58,0,0,0,703.21,261Zm.7,17a2,2,0,0,0,1.71-1,4.6,4.6,0,0,0,.64-2.56V273.1l-1.21.06a2.76,2.76,0,0,0-1.95.76,3,3,0,0,0-.62,2.06C702.48,277.32,703,278,703.91,278Z"/><path class="cls-3" d="M725.39,272.56a10.14,10.14,0,0,1-1.7,6.25,5.94,5.94,0,0,1-8,1.21,6.47,6.47,0,0,1-2.21-2.95,12,12,0,0,1-.78-4.51,10.06,10.06,0,0,1,1.69-6.2,5.51,5.51,0,0,1,4.67-2.23,5.44,5.44,0,0,1,4.59,2.27A10.05,10.05,0,0,1,725.39,272.56Zm-8.67,0a10.25,10.25,0,0,0,.55,3.85,1.87,1.87,0,0,0,1.79,1.31q2.34,0,2.34-5.16a10,10,0,0,0-.56-3.83,1.89,1.89,0,0,0-3.57,0A10.07,10.07,0,0,0,716.72,272.56Z"/><path class="cls-3" d="M740.93,281a5.12,5.12,0,0,1-4.44-2.12c-1-1.42-1.52-3.5-1.52-6.24s.48-5,1.44-6.43a5,5,0,0,1,4.46-2.12,7.17,7.17,0,0,1,1.9.26,6.57,6.57,0,0,1,1.79.76l-1.11,3a4.34,4.34,0,0,0-2.15-.71,1.87,1.87,0,0,0-1.8,1.29,10.42,10.42,0,0,0-.55,3.89,10.1,10.1,0,0,0,.54,3.79,1.85,1.85,0,0,0,1.78,1.25,5.67,5.67,0,0,0,3.06-1v3.43A6.3,6.3,0,0,1,740.93,281Z"/><path class="cls-3" d="M758.76,272.56a10.14,10.14,0,0,1-1.7,6.25,5.94,5.94,0,0,1-8,1.21,6.47,6.47,0,0,1-2.21-2.95,12,12,0,0,1-.78-4.51,10.13,10.13,0,0,1,1.68-6.2,5.54,5.54,0,0,1,4.68-2.23,5.44,5.44,0,0,1,4.59,2.27A10.05,10.05,0,0,1,758.76,272.56Zm-8.68,0a10.22,10.22,0,0,0,.56,3.85,1.87,1.87,0,0,0,1.79,1.31q2.34,0,2.34-5.16a10,10,0,0,0-.56-3.83,1.89,1.89,0,0,0-3.57,0A10,10,0,0,0,750.08,272.56Z"/><path class="cls-3" d="M769.63,280.75V271a6.63,6.63,0,0,0-.43-2.68,1.42,1.42,0,0,0-1.38-.9,1.92,1.92,0,0,0-1.84,1.25,10.8,10.8,0,0,0-.59,4.22v7.84H761.5V264.43h3.09l.46,2.1h.25a4.29,4.29,0,0,1,1.51-1.77,4.18,4.18,0,0,1,2.3-.63,3.85,3.85,0,0,1,3.34,1.52,7.57,7.57,0,0,1,1.1,4.45v10.65Z"/><path class="cls-3" d="M782.37,277.75a4.52,4.52,0,0,0,1.77-.41v3.05a5.11,5.11,0,0,1-2.85.65,3.81,3.81,0,0,1-3.15-1.26,5.94,5.94,0,0,1-1-3.8v-8.46h-1.58v-1.74l2-1.41,1-3.45h2.49v3.51h3v3.09h-3v8.59C781.05,277.2,781.49,277.75,782.37,277.75Z"/><path class="cls-3" d="M793.38,264.13a4.82,4.82,0,0,1,1.41.21l-.45,3.78a3.51,3.51,0,0,0-1.07-.14,2.46,2.46,0,0,0-2.18,1.12,5.77,5.77,0,0,0-.77,3.26v8.39h-3.89V264.43h3.2l.44,2.55h.14a6,6,0,0,1,1.4-2.2A2.62,2.62,0,0,1,793.38,264.13Z"/><path class="cls-3" d="M808.62,272.56a10.14,10.14,0,0,1-1.7,6.25,5.94,5.94,0,0,1-8,1.21,6.54,6.54,0,0,1-2.21-2.95,12,12,0,0,1-.78-4.51,10.06,10.06,0,0,1,1.69-6.2,5.51,5.51,0,0,1,4.67-2.23,5.44,5.44,0,0,1,4.59,2.27A10.05,10.05,0,0,1,808.62,272.56Zm-8.67,0a10.25,10.25,0,0,0,.55,3.85,1.88,1.88,0,0,0,1.79,1.31q2.34,0,2.34-5.16a9.84,9.84,0,0,0-.56-3.83,1.89,1.89,0,0,0-3.57,0A10.07,10.07,0,0,0,800,272.56Z"/><path class="cls-3" d="M810.76,274.42V271h7.37v3.43Z"/><path class="cls-3" d="M51.54,316.75H47.65V294h3.89Z"/><path class="cls-3" d="M62.81,316.75,62,314.52h-.09a5.49,5.49,0,0,1-1.78,2,4.56,4.56,0,0,1-2.33.54A3.41,3.41,0,0,1,55,315.7,6.1,6.1,0,0,1,54,312a4.85,4.85,0,0,1,1.41-3.83,6.73,6.73,0,0,1,4.23-1.39l2.17-.09v-1.17q0-2.28-2-2.28a6.77,6.77,0,0,0-3.37,1.14l-1.35-2.7a9.78,9.78,0,0,1,5.29-1.53,5.07,5.07,0,0,1,4,1.48,6.05,6.05,0,0,1,1.36,4.21v11ZM59.43,314a2,2,0,0,0,1.7-1,4.52,4.52,0,0,0,.64-2.56V309.1l-1.2.06a2.79,2.79,0,0,0-2,.76A3,3,0,0,0,58,312C58,313.32,58.47,314,59.43,314Z"/><path class="cls-3" d="M73.11,317a4,4,0,0,1-3.56-2.22,12.32,12.32,0,0,1-1.31-6.2,12.78,12.78,0,0,1,1.28-6.24A3.9,3.9,0,0,1,73,300.13a3.39,3.39,0,0,1,1.93.54,5.07,5.07,0,0,1,1.5,1.86h.24q-.18-2.23-.18-3.12V294h3.9v22.79h-2.9l-.66-2.12h-.14A3.9,3.9,0,0,1,73.11,317Zm1.26-3.29a1.66,1.66,0,0,0,1.58-1,9.33,9.33,0,0,0,.54-3.6v-.51a11.25,11.25,0,0,0-.5-4,1.73,1.73,0,0,0-1.67-1.16c-.72,0-1.25.45-1.57,1.33a11.58,11.58,0,0,0-.49,3.86,10.75,10.75,0,0,0,.5,3.8A1.68,1.68,0,0,0,74.37,313.75Z"/><path class="cls-3" d="M91.7,316.75l-.78-2.23h-.09a5.42,5.42,0,0,1-1.79,2,4.53,4.53,0,0,1-2.32.54,3.39,3.39,0,0,1-2.84-1.34,6,6,0,0,1-1-3.75,4.85,4.85,0,0,1,1.41-3.83,6.68,6.68,0,0,1,4.23-1.39l2.17-.09v-1.17q0-2.28-2-2.28a6.77,6.77,0,0,0-3.37,1.14L84,301.63a9.73,9.73,0,0,1,5.29-1.53,5.09,5.09,0,0,1,4,1.48,6.05,6.05,0,0,1,1.35,4.21v11ZM88.31,314A2,2,0,0,0,90,313a4.6,4.6,0,0,0,.64-2.56V309.1l-1.21.06a2.76,2.76,0,0,0-2,.76,3,3,0,0,0-.62,2.06C86.88,313.32,87.35,314,88.31,314Z"/><path class="cls-3" d="M106.46,312a4.91,4.91,0,0,1-1.4,3.72,5.69,5.69,0,0,1-4.12,1.34,7.59,7.59,0,0,1-4-1v-3.38a7.48,7.48,0,0,0,1.88.92,5.87,5.87,0,0,0,1.9.37,1.93,1.93,0,0,0,1.38-.45,1.54,1.54,0,0,0,.48-1.18,1.89,1.89,0,0,0-.5-1.3,8.2,8.2,0,0,0-1.83-1.36,7.63,7.63,0,0,1-2.54-2.25,5.14,5.14,0,0,1-.77-2.82,4.11,4.11,0,0,1,1.43-3.3,5.85,5.85,0,0,1,3.92-1.21,7.86,7.86,0,0,1,4.08,1.14l-1.27,2.8a5.92,5.92,0,0,0-2.76-.85,1.5,1.5,0,0,0-1.12.39,1.41,1.41,0,0,0-.37,1,1.73,1.73,0,0,0,.46,1.17A8,8,0,0,0,103,307a11,11,0,0,1,2.14,1.57,4.59,4.59,0,0,1,1,1.47A4.88,4.88,0,0,1,106.46,312Z"/><path class="cls-3" d="M123.29,300.13a4.82,4.82,0,0,1,1.41.21l-.46,3.78a3.44,3.44,0,0,0-1.06-.14A2.49,2.49,0,0,0,121,305.1a5.78,5.78,0,0,0-.76,3.26v8.39h-3.9V300.43h3.21L120,303h.13a6,6,0,0,1,1.41-2.2A2.62,2.62,0,0,1,123.29,300.13Z"/><path class="cls-3" d="M132.46,317a5.86,5.86,0,0,1-4.82-2.17,9.52,9.52,0,0,1-1.77-6.16,10.77,10.77,0,0,1,1.6-6.31,5.12,5.12,0,0,1,4.45-2.27,5,5,0,0,1,4.2,1.94,8.51,8.51,0,0,1,1.54,5.44v2.08h-7.83a5.24,5.24,0,0,0,.89,3.24,2.84,2.84,0,0,0,2.34,1.07,7.63,7.63,0,0,0,3.9-1.19v3.21A8.59,8.59,0,0,1,132.46,317Zm-.57-13.91a1.59,1.59,0,0,0-1.38.88,6,6,0,0,0-.63,2.75h4a6,6,0,0,0-.54-2.71A1.57,1.57,0,0,0,131.89,303.13Z"/><path class="cls-3" d="M156.44,316.75V307c0-2.39-.59-3.58-1.77-3.58a1.89,1.89,0,0,0-1.85,1.28,11.1,11.1,0,0,0-.55,4.11v7.92h-3.93V307c0-2.39-.6-3.58-1.8-3.58a1.9,1.9,0,0,0-1.83,1.27,11.14,11.14,0,0,0-.57,4.2v7.84h-3.9V300.43h3.09l.47,2.1h.25a4,4,0,0,1,1.6-1.83,4.41,4.41,0,0,1,2.18-.57,3.88,3.88,0,0,1,4,2.82H152a4.16,4.16,0,0,1,4-2.82,3.82,3.82,0,0,1,3.29,1.52,7.49,7.49,0,0,1,1.12,4.45v10.65Z"/><path class="cls-3" d="M175.6,308.56a10.08,10.08,0,0,1-1.7,6.25,5.52,5.52,0,0,1-4.66,2.23,5.58,5.58,0,0,1-3.31-1,6.61,6.61,0,0,1-2.21-2.95,12,12,0,0,1-.77-4.51,10.13,10.13,0,0,1,1.68-6.2,5.51,5.51,0,0,1,4.67-2.23,5.41,5.41,0,0,1,4.59,2.27A10.05,10.05,0,0,1,175.6,308.56Zm-8.67,0a10.22,10.22,0,0,0,.56,3.85,1.86,1.86,0,0,0,1.78,1.31q2.35,0,2.35-5.16a9.81,9.81,0,0,0-.57-3.83,1.89,1.89,0,0,0-3.56,0A10,10,0,0,0,166.93,308.56Z"/><path class="cls-3" d="M184,313.75a4.52,4.52,0,0,0,1.77-.41v3.05a5.09,5.09,0,0,1-2.85.65,3.81,3.81,0,0,1-3.15-1.26,5.94,5.94,0,0,1-1-3.8v-8.46h-1.58v-1.74l2-1.41,1-3.45h2.49v3.51h3v3.09h-3v8.59C182.69,313.2,183.13,313.75,184,313.75Z"/><path class="cls-3" d="M196.07,316.75l-.78-2.23h-.09a5.42,5.42,0,0,1-1.79,2,4.53,4.53,0,0,1-2.32.54,3.39,3.39,0,0,1-2.84-1.34,6,6,0,0,1-1-3.75,4.85,4.85,0,0,1,1.41-3.83,6.68,6.68,0,0,1,4.23-1.39l2.17-.09v-1.17q0-2.28-2-2.28a6.77,6.77,0,0,0-3.37,1.14l-1.35-2.7a9.76,9.76,0,0,1,5.29-1.53,5.09,5.09,0,0,1,3.95,1.48,6.05,6.05,0,0,1,1.35,4.21v11ZM192.68,314a2,2,0,0,0,1.71-1,4.6,4.6,0,0,0,.64-2.56V309.1l-1.21.06a2.76,2.76,0,0,0-1.95.76,3,3,0,0,0-.62,2.06C191.25,313.32,191.72,314,192.68,314Z"/><path class="cls-3" d="M218.27,316.75V307c0-2.39-.59-3.58-1.77-3.58a1.9,1.9,0,0,0-1.85,1.28,11.1,11.1,0,0,0-.55,4.11v7.92h-3.93V307c0-2.39-.6-3.58-1.8-3.58a1.9,1.9,0,0,0-1.83,1.27,11.14,11.14,0,0,0-.57,4.2v7.84h-3.9V300.43h3.09l.47,2.1h.25a4,4,0,0,1,1.6-1.83,4.41,4.41,0,0,1,2.18-.57,3.88,3.88,0,0,1,4,2.82h.15a4.16,4.16,0,0,1,4-2.82,3.82,3.82,0,0,1,3.29,1.52,7.49,7.49,0,0,1,1.12,4.45v10.65Z"/><path class="cls-3" d="M231.37,317a5.89,5.89,0,0,1-4.83-2.17,9.52,9.52,0,0,1-1.76-6.16,10.84,10.84,0,0,1,1.59-6.31,5.13,5.13,0,0,1,4.46-2.27,5.05,5.05,0,0,1,4.2,1.94,8.51,8.51,0,0,1,1.54,5.44v2.08h-7.84a5.3,5.3,0,0,0,.9,3.24A2.82,2.82,0,0,0,232,313.9a7.63,7.63,0,0,0,3.9-1.19v3.21A8.59,8.59,0,0,1,231.37,317Zm-.57-13.91a1.58,1.58,0,0,0-1.38.88,6,6,0,0,0-.63,2.75h4a5.82,5.82,0,0,0-.55-2.71A1.56,1.56,0,0,0,230.8,303.13Z"/><path class="cls-3" d="M247.28,316.75V307a6.63,6.63,0,0,0-.43-2.68,1.42,1.42,0,0,0-1.38-.9,1.92,1.92,0,0,0-1.84,1.25,10.8,10.8,0,0,0-.59,4.22v7.84h-3.89V300.43h3.09l.47,2.1H243a4,4,0,0,1,3.8-2.4,3.85,3.85,0,0,1,3.34,1.52,7.57,7.57,0,0,1,1.1,4.45v10.65Z"/><path class="cls-3" d="M260,313.75a4.52,4.52,0,0,0,1.77-.41v3.05a5.09,5.09,0,0,1-2.85.65,3.81,3.81,0,0,1-3.15-1.26,5.94,5.94,0,0,1-1-3.8v-8.46h-1.58v-1.74l2-1.41,1-3.45h2.49v3.51h3v3.09h-3v8.59C258.7,313.2,259.14,313.75,260,313.75Z"/><path class="cls-3" d="M270.1,317a5.89,5.89,0,0,1-4.83-2.17,9.52,9.52,0,0,1-1.76-6.16,10.84,10.84,0,0,1,1.59-6.31,5.13,5.13,0,0,1,4.46-2.27,5.05,5.05,0,0,1,4.2,1.94,8.51,8.51,0,0,1,1.54,5.44v2.08h-7.84a5.3,5.3,0,0,0,.9,3.24,2.82,2.82,0,0,0,2.34,1.07,7.63,7.63,0,0,0,3.9-1.19v3.21A8.59,8.59,0,0,1,270.1,317Zm-.57-13.91a1.58,1.58,0,0,0-1.38.88,6,6,0,0,0-.63,2.75h4a5.82,5.82,0,0,0-.55-2.71A1.56,1.56,0,0,0,269.53,303.13Z"/><path class="cls-3" d="M291.31,317a5.89,5.89,0,0,1-4.83-2.17,9.57,9.57,0,0,1-1.76-6.16,10.84,10.84,0,0,1,1.59-6.31,5.13,5.13,0,0,1,4.46-2.27,5,5,0,0,1,4.2,1.94,8.51,8.51,0,0,1,1.54,5.44v2.08h-7.84a5.3,5.3,0,0,0,.9,3.24,2.82,2.82,0,0,0,2.34,1.07,7.63,7.63,0,0,0,3.9-1.19v3.21A8.59,8.59,0,0,1,291.31,317Zm-.57-13.91a1.58,1.58,0,0,0-1.38.88,6,6,0,0,0-.63,2.75h4a5.82,5.82,0,0,0-.55-2.71A1.56,1.56,0,0,0,290.74,303.13Z"/><path class="cls-3" d="M315.32,316.75l-.48-2.09h-.21a4.29,4.29,0,0,1-1.54,1.75,4.25,4.25,0,0,1-2.3.63,3.89,3.89,0,0,1-3.32-1.49,7.38,7.38,0,0,1-1.13-4.47V300.43h3.94v9.72a6.68,6.68,0,0,0,.42,2.69,1.44,1.44,0,0,0,1.38.91,1.93,1.93,0,0,0,1.84-1.26,11.16,11.16,0,0,0,.58-4.24v-7.82h3.94v16.32Z"/><path class="cls-3" d="M330.47,312a4.91,4.91,0,0,1-1.4,3.72,5.74,5.74,0,0,1-4.13,1.34,7.62,7.62,0,0,1-4-1v-3.38a7.55,7.55,0,0,0,1.89.92,5.81,5.81,0,0,0,1.89.37,2,2,0,0,0,1.39-.45,1.57,1.57,0,0,0,.47-1.18,1.88,1.88,0,0,0-.49-1.3,8.57,8.57,0,0,0-1.84-1.36,7.74,7.74,0,0,1-2.54-2.25,5.14,5.14,0,0,1-.77-2.82,4.11,4.11,0,0,1,1.43-3.3,5.85,5.85,0,0,1,3.92-1.21,7.87,7.87,0,0,1,4.09,1.14l-1.28,2.8a5.89,5.89,0,0,0-2.75-.85,1.48,1.48,0,0,0-1.12.39,1.38,1.38,0,0,0-.38,1,1.69,1.69,0,0,0,.47,1.17A7.7,7.7,0,0,0,327,307a11.35,11.35,0,0,1,2.14,1.57,4.76,4.76,0,0,1,.95,1.47A5.07,5.07,0,0,1,330.47,312Z"/><path class="cls-3" d="M340.92,316.75l-.77-2.23h-.09a5.5,5.5,0,0,1-1.79,2,4.54,4.54,0,0,1-2.33.54,3.39,3.39,0,0,1-2.83-1.34,6,6,0,0,1-1-3.75,4.85,4.85,0,0,1,1.41-3.83,6.68,6.68,0,0,1,4.23-1.39l2.16-.09v-1.17c0-1.52-.66-2.28-2-2.28a6.77,6.77,0,0,0-3.37,1.14l-1.35-2.7a9.73,9.73,0,0,1,5.29-1.53,5.09,5.09,0,0,1,3.95,1.48,6.05,6.05,0,0,1,1.35,4.21v11ZM337.54,314a2,2,0,0,0,1.71-1,4.6,4.6,0,0,0,.63-2.56V309.1l-1.2.06a2.74,2.74,0,0,0-1.95.76,3,3,0,0,0-.63,2.06C336.1,313.32,336.58,314,337.54,314Z"/><path class="cls-3" d="M363.13,316.75V307c0-2.39-.59-3.58-1.77-3.58a1.89,1.89,0,0,0-1.85,1.28,11.1,11.1,0,0,0-.55,4.11v7.92H355V307c0-2.39-.6-3.58-1.8-3.58a1.9,1.9,0,0,0-1.83,1.27,11.14,11.14,0,0,0-.57,4.2v7.84h-3.9V300.43H350l.47,2.1h.25a4,4,0,0,1,1.6-1.83,4.41,4.41,0,0,1,2.18-.57,3.88,3.88,0,0,1,4,2.82h.15a4.16,4.16,0,0,1,4-2.82,3.82,3.82,0,0,1,3.29,1.52,7.49,7.49,0,0,1,1.12,4.45v10.65Z"/><path class="cls-3" d="M386.44,316.75l-.49-2.09h-.2a4.14,4.14,0,0,1-3.84,2.38,3.89,3.89,0,0,1-3.32-1.49,7.31,7.31,0,0,1-1.13-4.47V300.43h3.94v9.72a6.68,6.68,0,0,0,.42,2.69,1.43,1.43,0,0,0,1.38.91,1.93,1.93,0,0,0,1.84-1.26,11.16,11.16,0,0,0,.58-4.24v-7.82h3.94v16.32Z"/><path class="cls-3" d="M409,316.75V307c0-2.39-.59-3.58-1.77-3.58a1.88,1.88,0,0,0-1.84,1.28,11.06,11.06,0,0,0-.56,4.11v7.92h-3.93V307c0-2.39-.6-3.58-1.8-3.58a1.9,1.9,0,0,0-1.83,1.27,11.14,11.14,0,0,0-.57,4.2v7.84h-3.9V300.43h3.09l.47,2.1h.25a4,4,0,0,1,1.61-1.83,4.34,4.34,0,0,1,2.17-.57,3.89,3.89,0,0,1,4,2.82h.14a4.17,4.17,0,0,1,4-2.82,3.81,3.81,0,0,1,3.29,1.52A7.42,7.42,0,0,1,413,306.1v10.65Z"/><path class="cls-3" d="M424.1,316.75l-.78-2.23h-.09a5.49,5.49,0,0,1-1.78,2,4.59,4.59,0,0,1-2.33.54,3.41,3.41,0,0,1-2.84-1.34,6,6,0,0,1-1-3.75,4.85,4.85,0,0,1,1.41-3.83,6.7,6.7,0,0,1,4.23-1.39l2.17-.09v-1.17q0-2.28-2-2.28a6.77,6.77,0,0,0-3.37,1.14l-1.35-2.7a9.76,9.76,0,0,1,5.29-1.53,5.07,5.07,0,0,1,4,1.48,6.05,6.05,0,0,1,1.35,4.21v11ZM420.71,314a2,2,0,0,0,1.71-1,4.6,4.6,0,0,0,.64-2.56V309.1l-1.2.06a2.79,2.79,0,0,0-2,.76,3,3,0,0,0-.62,2.06C419.28,313.32,419.76,314,420.71,314Z"/><path class="cls-3" d="M444.88,300.13a3.87,3.87,0,0,1,3.5,2.21,15.87,15.87,0,0,1,0,12.49,3.94,3.94,0,0,1-3.55,2.21,3.88,3.88,0,0,1-1.95-.47,4.7,4.7,0,0,1-1.58-1.68h-.25l-.66,1.86h-2.87V294h3.89v5.33c0,.22,0,.46,0,.7s-.08,1.1-.19,2.57h.2a5,5,0,0,1,1.56-1.89A3.42,3.42,0,0,1,444.88,300.13Zm-1.34,3.31a1.65,1.65,0,0,0-1.61,1,9.67,9.67,0,0,0-.52,3.66v.39a10.93,10.93,0,0,0,.51,4,1.71,1.71,0,0,0,1.65,1.16c1.4,0,2.11-1.73,2.11-5.19S445,303.44,443.54,303.44Z"/><path class="cls-3" d="M460.4,316.75l-.78-2.23h-.09a5.49,5.49,0,0,1-1.78,2,4.59,4.59,0,0,1-2.33.54,3.41,3.41,0,0,1-2.84-1.34,6,6,0,0,1-1-3.75,4.85,4.85,0,0,1,1.41-3.83,6.68,6.68,0,0,1,4.23-1.39l2.17-.09v-1.17q0-2.28-2-2.28a6.77,6.77,0,0,0-3.37,1.14l-1.35-2.7A9.76,9.76,0,0,1,458,300.1a5.09,5.09,0,0,1,3.95,1.48,6.05,6.05,0,0,1,1.35,4.21v11ZM457,314a2,2,0,0,0,1.71-1,4.6,4.6,0,0,0,.64-2.56V309.1l-1.2.06a2.77,2.77,0,0,0-2,.76,3,3,0,0,0-.62,2.06C455.58,313.32,456.06,314,457,314Z"/><path class="cls-3" d="M472.07,313.75a4.52,4.52,0,0,0,1.77-.41v3.05A5.09,5.09,0,0,1,471,317a3.81,3.81,0,0,1-3.15-1.26,5.94,5.94,0,0,1-1-3.8v-8.46h-1.58v-1.74l2-1.41,1-3.45h2.49v3.51h3v3.09h-3v8.59C470.75,313.2,471.19,313.75,472.07,313.75Z"/><path class="cls-3" d="M482.15,317a5.89,5.89,0,0,1-4.83-2.17,9.57,9.57,0,0,1-1.76-6.16,10.84,10.84,0,0,1,1.59-6.31,5.13,5.13,0,0,1,4.46-2.27,5.05,5.05,0,0,1,4.2,1.94,8.51,8.51,0,0,1,1.54,5.44v2.08h-7.84a5.3,5.3,0,0,0,.9,3.24,2.82,2.82,0,0,0,2.34,1.07,7.63,7.63,0,0,0,3.9-1.19v3.21A8.59,8.59,0,0,1,482.15,317Zm-.57-13.91a1.58,1.58,0,0,0-1.38.88,6,6,0,0,0-.63,2.75h4a5.82,5.82,0,0,0-.55-2.71A1.56,1.56,0,0,0,481.58,303.13Z"/><path class="cls-3" d="M496.89,300.13a4.8,4.8,0,0,1,1.4.21l-.45,3.78a3.51,3.51,0,0,0-1.07-.14,2.46,2.46,0,0,0-2.18,1.12,5.77,5.77,0,0,0-.77,3.26v8.39h-3.89V300.43h3.21l.44,2.55h.13a6.09,6.09,0,0,1,1.4-2.2A2.63,2.63,0,0,1,496.89,300.13Z"/><path class="cls-3" d="M499.9,296.17a2.07,2.07,0,0,1,.57-1.53,2.39,2.39,0,0,1,3.1,0,2.07,2.07,0,0,1,.57,1.53,2,2,0,0,1-.59,1.55,2.13,2.13,0,0,1-1.51.54,2.2,2.2,0,0,1-1.55-.54A2,2,0,0,1,499.9,296.17ZM504,316.75h-3.9V300.43H504Z"/><path class="cls-3" d="M515.3,316.75l-.78-2.23h-.09a5.49,5.49,0,0,1-1.78,2,4.56,4.56,0,0,1-2.33.54,3.41,3.41,0,0,1-2.84-1.34,6.1,6.1,0,0,1-1-3.75,4.85,4.85,0,0,1,1.41-3.83,6.73,6.73,0,0,1,4.23-1.39l2.17-.09v-1.17q0-2.28-2-2.28a6.77,6.77,0,0,0-3.37,1.14l-1.35-2.7a9.78,9.78,0,0,1,5.29-1.53,5.07,5.07,0,0,1,3.95,1.48,6.05,6.05,0,0,1,1.36,4.21v11ZM511.92,314a2,2,0,0,0,1.7-1,4.52,4.52,0,0,0,.64-2.56V309.1l-1.2.06a2.79,2.79,0,0,0-2,.76,3,3,0,0,0-.62,2.06C510.48,313.32,511,314,511.92,314Z"/><path class="cls-3" d="M533,317a4,4,0,0,1-3.56-2.22,12.33,12.33,0,0,1-1.3-6.2,12.79,12.79,0,0,1,1.27-6.24,3.9,3.9,0,0,1,3.52-2.25,3.38,3.38,0,0,1,1.92.54,5.07,5.07,0,0,1,1.5,1.86h.24q-.18-2.23-.18-3.12V294h3.9v22.79h-2.9l-.66-2.12h-.13A3.91,3.91,0,0,1,533,317Zm1.26-3.29a1.66,1.66,0,0,0,1.58-1,9.33,9.33,0,0,0,.54-3.6v-.51a11.25,11.25,0,0,0-.5-4,1.72,1.72,0,0,0-1.67-1.16c-.72,0-1.24.45-1.57,1.33a11.58,11.58,0,0,0-.49,3.86,11,11,0,0,0,.5,3.8A1.69,1.69,0,0,0,534.27,313.75Z"/><path class="cls-3" d="M549.62,317a5.89,5.89,0,0,1-4.83-2.17,9.57,9.57,0,0,1-1.76-6.16,10.77,10.77,0,0,1,1.6-6.31,5.11,5.11,0,0,1,4.45-2.27,5,5,0,0,1,4.2,1.94,8.51,8.51,0,0,1,1.54,5.44v2.08H547a5.3,5.3,0,0,0,.9,3.24,2.82,2.82,0,0,0,2.34,1.07,7.63,7.63,0,0,0,3.9-1.19v3.21A8.59,8.59,0,0,1,549.62,317Zm-.57-13.91a1.58,1.58,0,0,0-1.38.88,6,6,0,0,0-.63,2.75h4a6,6,0,0,0-.54-2.71A1.59,1.59,0,0,0,549.05,303.13Z"/><path class="cls-3" d="M564.81,298.57v-.39A17.6,17.6,0,0,0,566.2,296c.53-1,.91-1.69,1.13-2.2H572v.3a12.26,12.26,0,0,1-1.74,2,34.51,34.51,0,0,1-2.7,2.47Zm3.93,18.18h-3.9V300.43h3.9Z"/><path class="cls-3" d="M584.16,308.56a10.14,10.14,0,0,1-1.7,6.25A5.52,5.52,0,0,1,577.8,317a5.58,5.58,0,0,1-3.31-1,6.61,6.61,0,0,1-2.21-2.95,12,12,0,0,1-.77-4.51,10.13,10.13,0,0,1,1.68-6.2,5.51,5.51,0,0,1,4.67-2.23,5.41,5.41,0,0,1,4.59,2.27A10.05,10.05,0,0,1,584.16,308.56Zm-8.67,0a10.22,10.22,0,0,0,.56,3.85,1.86,1.86,0,0,0,1.78,1.31q2.35,0,2.35-5.16a9.81,9.81,0,0,0-.57-3.83,1.89,1.89,0,0,0-3.56,0A10,10,0,0,0,575.49,308.56Z"/><path class="cls-3" d="M595,316.75V307a6.66,6.66,0,0,0-.42-2.68,1.44,1.44,0,0,0-1.38-.9,1.93,1.93,0,0,0-1.85,1.25,10.84,10.84,0,0,0-.58,4.22v7.84h-3.9V300.43H590l.47,2.1h.25a4,4,0,0,1,3.81-2.4,3.84,3.84,0,0,1,3.33,1.52A7.49,7.49,0,0,1,599,306.1v10.65Z"/><path class="cls-3" d="M610.87,312a4.91,4.91,0,0,1-1.4,3.72,5.74,5.74,0,0,1-4.13,1.34,7.62,7.62,0,0,1-4-1v-3.38a7.55,7.55,0,0,0,1.89.92,5.81,5.81,0,0,0,1.89.37,2,2,0,0,0,1.39-.45,1.57,1.57,0,0,0,.47-1.18,1.88,1.88,0,0,0-.49-1.3,8.57,8.57,0,0,0-1.84-1.36,7.74,7.74,0,0,1-2.54-2.25,5.14,5.14,0,0,1-.77-2.82,4.11,4.11,0,0,1,1.43-3.3,5.85,5.85,0,0,1,3.92-1.21,7.87,7.87,0,0,1,4.09,1.14l-1.28,2.8a5.89,5.89,0,0,0-2.75-.85,1.48,1.48,0,0,0-1.12.39,1.37,1.37,0,0,0-.37,1,1.68,1.68,0,0,0,.46,1.17,7.7,7.7,0,0,0,1.72,1.27,11.35,11.35,0,0,1,2.14,1.57,4.76,4.76,0,0,1,.95,1.47A5.07,5.07,0,0,1,610.87,312Z"/><path class="cls-3" d="M625,317a4,4,0,0,1-3.56-2.22,12.33,12.33,0,0,1-1.3-6.2,12.79,12.79,0,0,1,1.27-6.24,3.9,3.9,0,0,1,3.52-2.25,3.38,3.38,0,0,1,1.92.54,4.88,4.88,0,0,1,1.5,1.86h.24q-.18-2.23-.18-3.12V294h3.9v22.79h-2.9l-.66-2.12h-.13A3.91,3.91,0,0,1,625,317Zm1.26-3.29a1.66,1.66,0,0,0,1.58-1,9.33,9.33,0,0,0,.54-3.6v-.51a11,11,0,0,0-.5-4,1.72,1.72,0,0,0-1.66-1.16c-.73,0-1.25.45-1.58,1.33a11.58,11.58,0,0,0-.49,3.86,11,11,0,0,0,.5,3.8A1.69,1.69,0,0,0,626.29,313.75Z"/><path class="cls-3" d="M641.64,317a5.86,5.86,0,0,1-4.82-2.17,9.52,9.52,0,0,1-1.77-6.16,10.77,10.77,0,0,1,1.6-6.31,5.12,5.12,0,0,1,4.45-2.27,5,5,0,0,1,4.2,1.94,8.51,8.51,0,0,1,1.54,5.44v2.08H639a5.24,5.24,0,0,0,.89,3.24,2.84,2.84,0,0,0,2.34,1.07,7.63,7.63,0,0,0,3.9-1.19v3.21A8.59,8.59,0,0,1,641.64,317Zm-.57-13.91a1.58,1.58,0,0,0-1.38.88,6,6,0,0,0-.63,2.75h4a6,6,0,0,0-.54-2.71A1.58,1.58,0,0,0,641.07,303.13Z"/><path class="cls-3" d="M660.73,316.75h-3.9V294h3.9Z"/><path class="cls-3" d="M664,298.57v-.39a18.84,18.84,0,0,0,1.39-2.21c.52-1,.9-1.69,1.12-2.2h4.66v.3a11.31,11.31,0,0,1-1.74,2,34.51,34.51,0,0,1-2.7,2.47Zm3.92,18.18H664V300.43h3.9Z"/><path class="cls-3" d="M676.93,313.75a4.52,4.52,0,0,0,1.77-.41v3.05a5.09,5.09,0,0,1-2.85.65,3.81,3.81,0,0,1-3.15-1.26,5.94,5.94,0,0,1-1-3.8v-8.46h-1.58v-1.74l2-1.41,1-3.45h2.49v3.51h3v3.09h-3v8.59C675.61,313.2,676.05,313.75,676.93,313.75Z"/><path class="cls-3" d="M680.86,296.17a2.06,2.06,0,0,1,.56-1.53,2.12,2.12,0,0,1,1.57-.57,2,2,0,0,1,2.1,2.1,2,2,0,0,1-.59,1.55,2.13,2.13,0,0,1-1.51.54,2.2,2.2,0,0,1-1.55-.54A2,2,0,0,1,680.86,296.17Zm4,20.58H681V300.43h3.89Z"/><path class="cls-3" d="M700.34,308.56a10.14,10.14,0,0,1-1.7,6.25,5.94,5.94,0,0,1-8,1.21,6.54,6.54,0,0,1-2.21-2.95,12,12,0,0,1-.78-4.51,10.06,10.06,0,0,1,1.69-6.2,5.51,5.51,0,0,1,4.67-2.23,5.44,5.44,0,0,1,4.59,2.27A10.05,10.05,0,0,1,700.34,308.56Zm-8.67,0a10.25,10.25,0,0,0,.55,3.85,1.87,1.87,0,0,0,1.79,1.31q2.34,0,2.34-5.16a9.84,9.84,0,0,0-.56-3.83,1.89,1.89,0,0,0-3.57,0A10.07,10.07,0,0,0,691.67,308.56Z"/><path class="cls-3" d="M714.78,317a4,4,0,0,1-3.57-2.22,12.44,12.44,0,0,1-1.29-6.2,12.78,12.78,0,0,1,1.27-6.25,3.85,3.85,0,0,1,3.49-2.24,3.51,3.51,0,0,1,2,.55,4.93,4.93,0,0,1,1.51,1.85h.2l.43-2.1h3.29V324h-3.9v-6.87q0-.52.18-2.46h-.15a4.59,4.59,0,0,1-1.46,1.84A3.49,3.49,0,0,1,714.78,317Zm1.19-3.26a1.73,1.73,0,0,0,1.66-1.06,9.08,9.08,0,0,0,.54-3.53v-.54a10.93,10.93,0,0,0-.52-3.92,1.74,1.74,0,0,0-1.68-1.24q-2,0-2,5.19a11.2,11.2,0,0,0,.49,3.85A1.65,1.65,0,0,0,716,313.78Z"/><path class="cls-3" d="M734.19,316.75l-.48-2.09h-.21a4.11,4.11,0,0,1-3.84,2.38,3.89,3.89,0,0,1-3.32-1.49,7.38,7.38,0,0,1-1.13-4.47V300.43h3.94v9.72a6.48,6.48,0,0,0,.43,2.69,1.42,1.42,0,0,0,1.37.91,1.92,1.92,0,0,0,1.84-1.26,11,11,0,0,0,.58-4.24v-7.82h3.94v16.32Z"/><path class="cls-3" d="M746.6,317a5.89,5.89,0,0,1-4.83-2.17,9.52,9.52,0,0,1-1.76-6.16,10.84,10.84,0,0,1,1.59-6.31,5.13,5.13,0,0,1,4.46-2.27,5.06,5.06,0,0,1,4.2,1.94,8.51,8.51,0,0,1,1.54,5.44v2.08H744a5.37,5.37,0,0,0,.89,3.24,2.85,2.85,0,0,0,2.35,1.07,7.57,7.57,0,0,0,3.89-1.19v3.21A8.55,8.55,0,0,1,746.6,317ZM746,303.13a1.58,1.58,0,0,0-1.38.88,6,6,0,0,0-.63,2.75h4a5.83,5.83,0,0,0-.54-2.71A1.56,1.56,0,0,0,746,303.13Z"/><path class="cls-3" d="M769.07,317a3.61,3.61,0,0,1-1.87-.47,4.6,4.6,0,0,1-1.52-1.68h-.2c.16,1.33.23,2.13.23,2.4V324h-3.92V300.43h3l.67,2.13h.18a3.81,3.81,0,0,1,3.53-2.43,3.86,3.86,0,0,1,3.48,2.2,12.69,12.69,0,0,1,1.26,6.23,12.5,12.5,0,0,1-1.3,6.23A4,4,0,0,1,769.07,317Zm-1.2-13.6a1.71,1.71,0,0,0-1.65,1.06,9,9,0,0,0-.54,3.52v.51a11,11,0,0,0,.52,3.93,1.75,1.75,0,0,0,1.7,1.23c1.36,0,2.05-1.73,2.05-5.19a10.71,10.71,0,0,0-.51-3.8A1.67,1.67,0,0,0,767.87,303.44Z"/><path class="cls-3" d="M788.76,308.56a10.14,10.14,0,0,1-1.7,6.25,5.94,5.94,0,0,1-8,1.21,6.47,6.47,0,0,1-2.21-2.95,12,12,0,0,1-.78-4.51,10.13,10.13,0,0,1,1.68-6.2,5.54,5.54,0,0,1,4.68-2.23,5.44,5.44,0,0,1,4.59,2.27A10.05,10.05,0,0,1,788.76,308.56Zm-8.68,0a10.22,10.22,0,0,0,.56,3.85,1.87,1.87,0,0,0,1.79,1.31q2.34,0,2.34-5.16a10,10,0,0,0-.56-3.83,1.89,1.89,0,0,0-3.57,0A10,10,0,0,0,780.08,308.56Z"/><path class="cls-3" d="M795.79,317a4,4,0,0,1-3.56-2.22,12.32,12.32,0,0,1-1.31-6.2,12.78,12.78,0,0,1,1.28-6.24,3.9,3.9,0,0,1,3.51-2.25,3.39,3.39,0,0,1,1.93.54,5.07,5.07,0,0,1,1.5,1.86h.24q-.18-2.23-.18-3.12V294h3.9v22.79h-2.9l-.66-2.12h-.13A3.91,3.91,0,0,1,795.79,317Zm1.26-3.29a1.66,1.66,0,0,0,1.58-1,9.33,9.33,0,0,0,.54-3.6v-.51a11.25,11.25,0,0,0-.5-4,1.73,1.73,0,0,0-1.67-1.16c-.72,0-1.24.45-1.57,1.33a11.58,11.58,0,0,0-.49,3.86,10.75,10.75,0,0,0,.5,3.8A1.68,1.68,0,0,0,797.05,313.75Z"/><path class="cls-3" d="M812.4,317a5.89,5.89,0,0,1-4.83-2.17,9.52,9.52,0,0,1-1.76-6.16,10.84,10.84,0,0,1,1.59-6.31,5.13,5.13,0,0,1,4.46-2.27,5.05,5.05,0,0,1,4.2,1.94,8.51,8.51,0,0,1,1.54,5.44v2.08h-7.84a5.3,5.3,0,0,0,.9,3.24A2.82,2.82,0,0,0,813,313.9a7.63,7.63,0,0,0,3.9-1.19v3.21A8.59,8.59,0,0,1,812.4,317Zm-.57-13.91a1.58,1.58,0,0,0-1.38.88,6,6,0,0,0-.63,2.75h4a5.82,5.82,0,0,0-.55-2.71A1.56,1.56,0,0,0,811.83,303.13Z"/><path class="cls-3" d="M56.41,348A4.91,4.91,0,0,1,55,351.7,5.72,5.72,0,0,1,50.88,353a7.56,7.56,0,0,1-4-1v-3.38a7.32,7.32,0,0,0,1.88.92,5.87,5.87,0,0,0,1.9.37,1.94,1.94,0,0,0,1.38-.45,1.54,1.54,0,0,0,.48-1.18,1.89,1.89,0,0,0-.5-1.3,8.2,8.2,0,0,0-1.83-1.36,7.68,7.68,0,0,1-2.55-2.25,5.13,5.13,0,0,1-.76-2.82,4.11,4.11,0,0,1,1.42-3.3,5.87,5.87,0,0,1,3.92-1.21,7.87,7.87,0,0,1,4.09,1.14l-1.27,2.8a6,6,0,0,0-2.76-.85,1.48,1.48,0,0,0-1.12.39,1.37,1.37,0,0,0-.37,1,1.68,1.68,0,0,0,.46,1.17A8,8,0,0,0,53,343a11,11,0,0,1,2.14,1.57,4.59,4.59,0,0,1,1,1.47A4.88,4.88,0,0,1,56.41,348Z"/><path class="cls-3" d="M64.89,353a5.89,5.89,0,0,1-4.83-2.17,9.52,9.52,0,0,1-1.76-6.16,10.84,10.84,0,0,1,1.59-6.31,5.13,5.13,0,0,1,4.46-2.27,5.05,5.05,0,0,1,4.2,1.94,8.51,8.51,0,0,1,1.54,5.44v2.08H62.25a5.3,5.3,0,0,0,.9,3.24,2.82,2.82,0,0,0,2.34,1.07,7.63,7.63,0,0,0,3.9-1.19v3.21A8.59,8.59,0,0,1,64.89,353Zm-.57-13.91a1.58,1.58,0,0,0-1.38.88,6,6,0,0,0-.63,2.75h4a5.82,5.82,0,0,0-.55-2.71A1.56,1.56,0,0,0,64.32,339.13Z"/><path class="cls-3" d="M79.63,336.13a4.8,4.8,0,0,1,1.4.21l-.45,3.78a3.51,3.51,0,0,0-1.07-.14,2.46,2.46,0,0,0-2.18,1.12,5.77,5.77,0,0,0-.77,3.26v8.39H72.67V336.43h3.21l.43,2.55h.14a6,6,0,0,1,1.4-2.2A2.63,2.63,0,0,1,79.63,336.13Z"/><path class="cls-3" d="M95.58,353a5.1,5.1,0,0,1-4.44-2.12c-1-1.42-1.52-3.5-1.52-6.24s.48-5,1.44-6.43a5,5,0,0,1,4.46-2.12,7.23,7.23,0,0,1,1.9.26,6.57,6.57,0,0,1,1.79.76l-1.11,3a4.34,4.34,0,0,0-2.16-.71,1.86,1.86,0,0,0-1.79,1.29,10.42,10.42,0,0,0-.55,3.89,10.1,10.1,0,0,0,.54,3.79,1.83,1.83,0,0,0,1.77,1.25,5.68,5.68,0,0,0,3.07-1v3.43A6.3,6.3,0,0,1,95.58,353Z"/><path class="cls-3" d="M109.32,352.75l-.78-2.23h-.09a5.49,5.49,0,0,1-1.78,2,4.59,4.59,0,0,1-2.33.54,3.41,3.41,0,0,1-2.84-1.34,6,6,0,0,1-1-3.75,4.85,4.85,0,0,1,1.41-3.83,6.7,6.7,0,0,1,4.23-1.39l2.17-.09v-1.17q0-2.28-2-2.28a6.77,6.77,0,0,0-3.37,1.14l-1.35-2.7a9.76,9.76,0,0,1,5.29-1.53,5.07,5.07,0,0,1,3.95,1.48,6.05,6.05,0,0,1,1.35,4.21v11ZM105.93,350a2,2,0,0,0,1.71-1,4.6,4.6,0,0,0,.64-2.56V345.1l-1.2.06a2.79,2.79,0,0,0-2,.76,3,3,0,0,0-.62,2.06C104.5,349.32,105,350,105.93,350Z"/><path class="cls-3" d="M122.28,336.13a4.82,4.82,0,0,1,1.41.21l-.46,3.78a3.47,3.47,0,0,0-1.07-.14A2.48,2.48,0,0,0,120,341.1a5.78,5.78,0,0,0-.76,3.26v8.39h-3.9V336.43h3.21L119,339h.13a6,6,0,0,1,1.41-2.2A2.62,2.62,0,0,1,122.28,336.13Z"/><path class="cls-3" d="M132.39,336.13a4.82,4.82,0,0,1,1.41.21l-.46,3.78a3.47,3.47,0,0,0-1.07-.14,2.47,2.47,0,0,0-2.18,1.12,5.78,5.78,0,0,0-.76,3.26v8.39h-3.9V336.43h3.21l.44,2.55h.13a6,6,0,0,1,1.41-2.2A2.6,2.6,0,0,1,132.39,336.13Z"/><path class="cls-3" d="M141.56,353a5.89,5.89,0,0,1-4.83-2.17,9.52,9.52,0,0,1-1.76-6.16,10.84,10.84,0,0,1,1.59-6.31,5.13,5.13,0,0,1,4.46-2.27,5.05,5.05,0,0,1,4.2,1.94,8.51,8.51,0,0,1,1.54,5.44v2.08h-7.84a5.3,5.3,0,0,0,.9,3.24,2.82,2.82,0,0,0,2.34,1.07,7.63,7.63,0,0,0,3.9-1.19v3.21A8.59,8.59,0,0,1,141.56,353ZM141,339.13a1.58,1.58,0,0,0-1.38.88,6,6,0,0,0-.63,2.75h4a5.82,5.82,0,0,0-.55-2.71A1.56,1.56,0,0,0,141,339.13Z"/><path class="cls-3" d="M161.09,336.46v2.29l-2,.44a5.23,5.23,0,0,1,.57,2.57,5.6,5.6,0,0,1-1.41,4.06,5.17,5.17,0,0,1-3.92,1.47,3.67,3.67,0,0,1-1.09-.12,5.71,5.71,0,0,0-.53.56,1.19,1.19,0,0,0-.24.76q0,1,1.77,1h2.36a4.37,4.37,0,0,1,3.2,1.12A4.64,4.64,0,0,1,161,354a5.34,5.34,0,0,1-1.91,4.39,8.43,8.43,0,0,1-5.47,1.56,6.5,6.5,0,0,1-4.18-1.18,4.06,4.06,0,0,1-1.46-3.36,3.69,3.69,0,0,1,.83-2.4,4.71,4.71,0,0,1,2.31-1.5,2.91,2.91,0,0,1-1.22-.91,2.26,2.26,0,0,1-.47-1.43,2.5,2.5,0,0,1,.14-.9,3,3,0,0,1,.42-.77,8.44,8.44,0,0,1,1.11-1.06,4.13,4.13,0,0,1-1.6-1.89,6.7,6.7,0,0,1-.59-2.83,5.74,5.74,0,0,1,1.41-4.14,5.31,5.31,0,0,1,4-1.46,7.13,7.13,0,0,1,1.14.1,6.89,6.89,0,0,1,1,.23Zm-9.6,18.66a1.84,1.84,0,0,0,.61,1.49,2.55,2.55,0,0,0,1.73.52,4.34,4.34,0,0,0,2.66-.67,2.21,2.21,0,0,0,.89-1.85,1.57,1.57,0,0,0-.48-1.3,2.93,2.93,0,0,0-1.78-.38h-1.89a1.51,1.51,0,0,0-1.26.59A2.48,2.48,0,0,0,151.49,355.12Zm1.2-13.36c0,1.93.54,2.89,1.63,2.89s1.58-1,1.58-2.92-.53-3-1.58-3S152.69,339.75,152.69,341.76Z"/><path class="cls-3" d="M171.05,352.75l-.78-2.23h-.09a5.42,5.42,0,0,1-1.79,2,4.53,4.53,0,0,1-2.32.54,3.39,3.39,0,0,1-2.84-1.34,6,6,0,0,1-1-3.75,4.85,4.85,0,0,1,1.41-3.83,6.68,6.68,0,0,1,4.23-1.39l2.17-.09v-1.17q0-2.28-2-2.28a6.77,6.77,0,0,0-3.37,1.14l-1.35-2.7a9.76,9.76,0,0,1,5.29-1.53,5.09,5.09,0,0,1,4,1.48,6.05,6.05,0,0,1,1.35,4.21v11ZM167.66,350a2,2,0,0,0,1.71-1,4.6,4.6,0,0,0,.64-2.56V345.1l-1.21.06a2.76,2.76,0,0,0-2,.76,3,3,0,0,0-.62,2.06C166.23,349.32,166.71,350,167.66,350Z"/><path class="cls-3" d="M181.34,353a4,4,0,0,1-3.56-2.22,12.44,12.44,0,0,1-1.3-6.2,12.78,12.78,0,0,1,1.28-6.24,3.89,3.89,0,0,1,3.51-2.25,3.44,3.44,0,0,1,1.93.54,5.07,5.07,0,0,1,1.5,1.86h.23c-.11-1.49-.17-2.53-.17-3.12V330h3.89v22.79h-2.9l-.66-2.12H185A3.9,3.9,0,0,1,181.34,353Zm1.26-3.29a1.67,1.67,0,0,0,1.59-1,9.33,9.33,0,0,0,.54-3.6v-.51a11,11,0,0,0-.51-4,1.72,1.72,0,0,0-1.66-1.16c-.72,0-1.25.45-1.58,1.33a11.85,11.85,0,0,0-.49,3.86,11,11,0,0,0,.5,3.8A1.69,1.69,0,0,0,182.6,349.75Z"/><path class="cls-3" d="M199.93,352.75l-.77-2.23h-.09a5.5,5.5,0,0,1-1.79,2A4.54,4.54,0,0,1,195,353a3.39,3.39,0,0,1-2.83-1.34,6,6,0,0,1-1-3.75,4.85,4.85,0,0,1,1.41-3.83,6.67,6.67,0,0,1,4.22-1.39l2.17-.09v-1.17c0-1.52-.66-2.28-2-2.28a6.77,6.77,0,0,0-3.37,1.14l-1.35-2.7a9.73,9.73,0,0,1,5.29-1.53,5,5,0,0,1,3.94,1.48,6,6,0,0,1,1.36,4.21v11ZM196.55,350a2,2,0,0,0,1.71-1,4.6,4.6,0,0,0,.63-2.56V345.1l-1.2.06a2.74,2.74,0,0,0-1.95.76,3,3,0,0,0-.63,2.06C195.11,349.32,195.59,350,196.55,350Z"/><path class="cls-3" d="M221.35,352.75l-.78-2.23h-.09a5.49,5.49,0,0,1-1.78,2,4.56,4.56,0,0,1-2.33.54,3.41,3.41,0,0,1-2.84-1.34,6.1,6.1,0,0,1-1-3.75,4.85,4.85,0,0,1,1.41-3.83,6.73,6.73,0,0,1,4.23-1.39l2.17-.09v-1.17q0-2.28-2-2.28a6.77,6.77,0,0,0-3.37,1.14l-1.35-2.7a9.78,9.78,0,0,1,5.29-1.53,5.07,5.07,0,0,1,3.95,1.48,6.05,6.05,0,0,1,1.36,4.21v11ZM218,350a2,2,0,0,0,1.7-1,4.52,4.52,0,0,0,.64-2.56V345.1l-1.2.06a2.79,2.79,0,0,0-2,.76,3,3,0,0,0-.62,2.06C216.53,349.32,217,350,218,350Z"/><path class="cls-3" d="M233,349.75a4.61,4.61,0,0,0,1.78-.41v3.05a5.15,5.15,0,0,1-2.86.65,3.81,3.81,0,0,1-3.15-1.26,6,6,0,0,1-1-3.8v-8.46h-1.58v-1.74l2-1.41,1-3.45h2.49v3.51h2.95v3.09h-2.95v8.59C231.71,349.2,232.14,349.75,233,349.75Z"/><path class="cls-3" d="M244,336.13a4.82,4.82,0,0,1,1.41.21l-.46,3.78a3.47,3.47,0,0,0-1.07-.14,2.47,2.47,0,0,0-2.18,1.12,5.78,5.78,0,0,0-.76,3.26v8.39h-3.9V336.43h3.21l.44,2.55h.13a6,6,0,0,1,1.41-2.2A2.6,2.6,0,0,1,244,336.13Z"/><path class="cls-3" d="M255.19,352.75l-.78-2.23h-.09a5.49,5.49,0,0,1-1.78,2,4.59,4.59,0,0,1-2.33.54,3.41,3.41,0,0,1-2.84-1.34,6,6,0,0,1-1-3.75,4.85,4.85,0,0,1,1.41-3.83,6.68,6.68,0,0,1,4.23-1.39l2.17-.09v-1.17q0-2.28-2-2.28a6.77,6.77,0,0,0-3.37,1.14l-1.35-2.7a9.76,9.76,0,0,1,5.29-1.53,5.09,5.09,0,0,1,3.95,1.48,6.05,6.05,0,0,1,1.35,4.21v11ZM251.8,350a2,2,0,0,0,1.71-1,4.6,4.6,0,0,0,.64-2.56V345.1l-1.2.06a2.77,2.77,0,0,0-2,.76,3,3,0,0,0-.62,2.06C250.37,349.32,250.85,350,251.8,350Z"/><path class="cls-3" d="M263.8,352.75l-4.26-16.32h4l2.08,9.45c.09.44.19,1.08.31,1.93s.2,1.45.23,1.82h.06q0-.44.12-1.26c.08-.55.15-1.05.23-1.51s.83-3.93,2.26-10.43h4l-4.28,16.32Z"/><path class="cls-3" d="M280.59,353a5.89,5.89,0,0,1-4.83-2.17,9.52,9.52,0,0,1-1.76-6.16,10.84,10.84,0,0,1,1.59-6.31,5.13,5.13,0,0,1,4.46-2.27,5.06,5.06,0,0,1,4.2,1.94,8.57,8.57,0,0,1,1.54,5.44v2.08H278a5.37,5.37,0,0,0,.89,3.24,2.85,2.85,0,0,0,2.35,1.07,7.57,7.57,0,0,0,3.89-1.19v3.21A8.55,8.55,0,0,1,280.59,353ZM278,334.57v-.39A18.84,18.84,0,0,0,279.4,332c.53-1,.9-1.69,1.13-2.2h4.66v.3a12,12,0,0,1-1.75,2,32.76,32.76,0,0,1-2.69,2.47Zm2,4.56a1.58,1.58,0,0,0-1.38.88,6,6,0,0,0-.63,2.75H282a6,6,0,0,0-.54-2.71A1.56,1.56,0,0,0,280,339.13Z"/><path class="cls-3" d="M297.13,348a4.91,4.91,0,0,1-1.4,3.72A5.74,5.74,0,0,1,291.6,353a7.62,7.62,0,0,1-4-1v-3.38a7.55,7.55,0,0,0,1.89.92,5.81,5.81,0,0,0,1.89.37,2,2,0,0,0,1.39-.45,1.57,1.57,0,0,0,.47-1.18,1.88,1.88,0,0,0-.49-1.3,8.57,8.57,0,0,0-1.84-1.36,7.74,7.74,0,0,1-2.54-2.25,5.14,5.14,0,0,1-.77-2.82,4.11,4.11,0,0,1,1.43-3.3,5.85,5.85,0,0,1,3.92-1.21,7.87,7.87,0,0,1,4.09,1.14l-1.28,2.8a5.89,5.89,0,0,0-2.75-.85,1.48,1.48,0,0,0-1.12.39,1.38,1.38,0,0,0-.38,1,1.69,1.69,0,0,0,.47,1.17A7.7,7.7,0,0,0,293.7,343a11.35,11.35,0,0,1,2.14,1.57,4.76,4.76,0,0,1,1,1.47A5.07,5.07,0,0,1,297.13,348Z"/><path class="cls-3" d="M311.29,353a4,4,0,0,1-3.56-2.22,12.33,12.33,0,0,1-1.3-6.2,12.79,12.79,0,0,1,1.27-6.24,3.9,3.9,0,0,1,3.52-2.25,3.38,3.38,0,0,1,1.92.54,5,5,0,0,1,1.5,1.86h.24q-.18-2.23-.18-3.12V330h3.9v22.79h-2.9l-.66-2.12h-.13A3.91,3.91,0,0,1,311.29,353Zm1.26-3.29a1.66,1.66,0,0,0,1.58-1,9.33,9.33,0,0,0,.54-3.6v-.51a11,11,0,0,0-.5-4,1.72,1.72,0,0,0-1.66-1.16c-.73,0-1.25.45-1.58,1.33a11.58,11.58,0,0,0-.49,3.86,11,11,0,0,0,.5,3.8A1.69,1.69,0,0,0,312.55,349.75Z"/><path class="cls-3" d="M327.9,353a5.86,5.86,0,0,1-4.82-2.17,9.52,9.52,0,0,1-1.77-6.16,10.77,10.77,0,0,1,1.6-6.31,5.12,5.12,0,0,1,4.45-2.27,5,5,0,0,1,4.2,1.94,8.51,8.51,0,0,1,1.54,5.44v2.08h-7.84a5.3,5.3,0,0,0,.9,3.24,2.83,2.83,0,0,0,2.34,1.07,7.63,7.63,0,0,0,3.9-1.19v3.21A8.59,8.59,0,0,1,327.9,353Zm-.57-13.91A1.58,1.58,0,0,0,326,340a6,6,0,0,0-.63,2.75h4a6,6,0,0,0-.54-2.71A1.58,1.58,0,0,0,327.33,339.13Z"/><path class="cls-3" d="M351.91,352.75l-.48-2.09h-.21a4.29,4.29,0,0,1-1.54,1.75,4.25,4.25,0,0,1-2.3.63,3.89,3.89,0,0,1-3.32-1.49,7.38,7.38,0,0,1-1.13-4.47V336.43h3.94v9.72a6.48,6.48,0,0,0,.43,2.69,1.42,1.42,0,0,0,1.37.91,1.92,1.92,0,0,0,1.84-1.26,11,11,0,0,0,.58-4.24v-7.82H355v16.32Z"/><path class="cls-3" d="M374.5,352.75V343c0-2.39-.59-3.58-1.77-3.58a1.89,1.89,0,0,0-1.85,1.28,11.06,11.06,0,0,0-.56,4.11v7.92H366.4V343c0-2.39-.6-3.58-1.8-3.58a1.92,1.92,0,0,0-1.84,1.27,11.14,11.14,0,0,0-.57,4.2v7.84H358.3V336.43h3.09l.47,2.1h.25a4,4,0,0,1,1.6-1.83,4.37,4.37,0,0,1,2.17-.57,3.88,3.88,0,0,1,4,2.82H370a4.16,4.16,0,0,1,4-2.82,3.8,3.8,0,0,1,3.29,1.52,7.42,7.42,0,0,1,1.12,4.45v10.65Z"/><path class="cls-3" d="M394.38,353a5.1,5.1,0,0,1-4.44-2.12,10.64,10.64,0,0,1-1.53-6.24c0-2.87.48-5,1.45-6.43a5,5,0,0,1,4.46-2.12,7.23,7.23,0,0,1,1.9.26,6.57,6.57,0,0,1,1.79.76l-1.11,3a4.34,4.34,0,0,0-2.16-.71,1.85,1.85,0,0,0-1.79,1.29,10.42,10.42,0,0,0-.55,3.89,10.1,10.1,0,0,0,.54,3.79,1.83,1.83,0,0,0,1.77,1.25,5.62,5.62,0,0,0,3.06-1v3.43A6.24,6.24,0,0,1,394.38,353Z"/><path class="cls-3" d="M408.12,352.75l-.78-2.23h-.09a5.49,5.49,0,0,1-1.78,2,4.59,4.59,0,0,1-2.33.54,3.39,3.39,0,0,1-2.84-1.34,6,6,0,0,1-1-3.75,4.85,4.85,0,0,1,1.41-3.83,6.68,6.68,0,0,1,4.23-1.39l2.17-.09v-1.17q0-2.28-2-2.28a6.77,6.77,0,0,0-3.37,1.14l-1.35-2.7a9.76,9.76,0,0,1,5.29-1.53,5.09,5.09,0,0,1,3.95,1.48,6.05,6.05,0,0,1,1.35,4.21v11ZM404.73,350a2,2,0,0,0,1.71-1,4.6,4.6,0,0,0,.64-2.56V345.1l-1.2.06a2.77,2.77,0,0,0-2,.76,3,3,0,0,0-.62,2.06C403.3,349.32,403.78,350,404.73,350Z"/><path class="cls-3" d="M421.49,336.13a3.89,3.89,0,0,1,3.5,2.21,15.82,15.82,0,0,1,0,12.49,3.92,3.92,0,0,1-3.55,2.21,3.85,3.85,0,0,1-1.94-.47,4.8,4.8,0,0,1-1.59-1.68h-.25l-.66,1.86h-2.87V330H418v5.33c0,.22,0,.46,0,.7s-.07,1.1-.19,2.57H418a4.94,4.94,0,0,1,1.55-1.89A3.47,3.47,0,0,1,421.49,336.13Zm-1.35,3.31a1.65,1.65,0,0,0-1.6,1,9.67,9.67,0,0,0-.52,3.66v.39a11.21,11.21,0,0,0,.5,4,1.72,1.72,0,0,0,1.65,1.16q2.11,0,2.11-5.19T420.14,339.44Z"/><path class="cls-3" d="M441.09,344.56a10.14,10.14,0,0,1-1.7,6.25,5.52,5.52,0,0,1-4.66,2.23,5.58,5.58,0,0,1-3.31-1,6.61,6.61,0,0,1-2.21-2.95,12,12,0,0,1-.78-4.51,10.13,10.13,0,0,1,1.69-6.2,5.51,5.51,0,0,1,4.67-2.23,5.41,5.41,0,0,1,4.59,2.27A10.05,10.05,0,0,1,441.09,344.56Zm-8.67,0a10.25,10.25,0,0,0,.55,3.85,1.88,1.88,0,0,0,1.79,1.31c1.56,0,2.35-1.72,2.35-5.16a9.81,9.81,0,0,0-.57-3.83,1.89,1.89,0,0,0-3.57,0A10.07,10.07,0,0,0,432.42,344.56Z"/><path class="cls-3" d="M464.64,331.33v13.86a8.74,8.74,0,0,1-1.72,5.84,6.25,6.25,0,0,1-5,2,5.94,5.94,0,0,1-4.86-2c-1.12-1.33-1.67-3.3-1.67-5.91v-13.8h3.95v14.1c0,2.72.91,4.08,2.71,4.08a2.19,2.19,0,0,0,1.95-1,5.33,5.33,0,0,0,.69-3V331.33Z"/><path class="cls-3" d="M478.09,346.85a6.44,6.44,0,0,1-1.51,4.6A5.77,5.77,0,0,1,472.2,353a9.65,9.65,0,0,1-4.76-1.09V348a8.2,8.2,0,0,0,4.41,1.57,2.21,2.21,0,0,0,1.72-.63,2.41,2.41,0,0,0,.58-1.71,3.13,3.13,0,0,0-.69-2,10.34,10.34,0,0,0-2.27-2,10.14,10.14,0,0,1-2.09-1.82,6.37,6.37,0,0,1-1.09-2,7.41,7.41,0,0,1-.39-2.52,6.07,6.07,0,0,1,1.53-4.36,5.41,5.41,0,0,1,4.11-1.61A9,9,0,0,1,478,332.4l-1.32,3.2a11.17,11.17,0,0,0-1.47-.73,4.12,4.12,0,0,0-1.65-.33,1.84,1.84,0,0,0-1.49.64,2.71,2.71,0,0,0-.52,1.74,3,3,0,0,0,.63,1.89,9.51,9.51,0,0,0,2.17,1.83,8.87,8.87,0,0,1,2.92,2.87A6.57,6.57,0,0,1,478.09,346.85Z"/><path class="cls-3" d="M480.73,331.33h5.46a7.49,7.49,0,0,1,4.87,1.3,5.15,5.15,0,0,1,1.52,4.12,5.66,5.66,0,0,1-.81,3.12,3.23,3.23,0,0,1-2.19,1.51v.15a4.15,4.15,0,0,1,2.62,1.7,6,6,0,0,1,.8,3.31,6.37,6.37,0,0,1-1.56,4.56,5.59,5.59,0,0,1-4.27,1.65h-6.44Zm3.75,8.62h1.83a2.09,2.09,0,0,0,1.77-.68,3.28,3.28,0,0,0,.51-2,2.6,2.6,0,0,0-.58-1.91,2.53,2.53,0,0,0-1.85-.58h-1.68Zm0,3.32v6h2a2.22,2.22,0,0,0,1.85-.76,3.78,3.78,0,0,0,.61-2.35q0-2.88-2.52-2.88Z"/><path class="cls-3" d="M500.34,349.6a44,44,0,0,1-2.58,7h-3q1-3.9,1.48-7.36h3.87Z"/><path class="cls-3" d="M519.34,352.75V343a6.66,6.66,0,0,0-.42-2.68,1.43,1.43,0,0,0-1.38-.9,1.94,1.94,0,0,0-1.85,1.25,10.84,10.84,0,0,0-.58,4.22v7.84h-3.9V336.43h3.09l.47,2.1H515a4.22,4.22,0,0,1,1.51-1.77,4.15,4.15,0,0,1,2.3-.63,3.84,3.84,0,0,1,3.33,1.52,7.49,7.49,0,0,1,1.11,4.45v10.65Z"/><path class="cls-3" d="M534.42,352.75l-.78-2.23h-.09a5.5,5.5,0,0,1-1.79,2,4.54,4.54,0,0,1-2.33.54,3.39,3.39,0,0,1-2.83-1.34,6,6,0,0,1-1-3.75,4.85,4.85,0,0,1,1.41-3.83,6.68,6.68,0,0,1,4.23-1.39l2.17-.09v-1.17q0-2.28-2-2.28a6.77,6.77,0,0,0-3.37,1.14l-1.35-2.7A9.73,9.73,0,0,1,532,336.1a5.09,5.09,0,0,1,3.95,1.48,6.05,6.05,0,0,1,1.35,4.21v11ZM530.33,333a.89.89,0,0,0-.73.35,2.81,2.81,0,0,0-.41,1.25h-2.07a6.16,6.16,0,0,1,1-3.32,2.65,2.65,0,0,1,2.21-1.09,2.57,2.57,0,0,1,1.13.24,7.84,7.84,0,0,1,.95.54c.29.19.57.37.85.53a1.63,1.63,0,0,0,.85.24.76.76,0,0,0,.72-.38,4,4,0,0,0,.39-1.2h2.07a6.09,6.09,0,0,1-1,3.32,2.78,2.78,0,0,1-3.34.85,6.58,6.58,0,0,1-.94-.54c-.29-.2-.56-.38-.83-.54A1.58,1.58,0,0,0,530.33,333Zm.7,17a2,2,0,0,0,1.71-1,4.6,4.6,0,0,0,.64-2.56V345.1l-1.21.06a2.76,2.76,0,0,0-1.95.76,3,3,0,0,0-.62,2.06C529.6,349.32,530.07,350,531,350Z"/><path class="cls-3" d="M552.51,344.56a10.14,10.14,0,0,1-1.7,6.25,5.94,5.94,0,0,1-8,1.21,6.47,6.47,0,0,1-2.21-2.95,12,12,0,0,1-.78-4.51,10.13,10.13,0,0,1,1.68-6.2,5.54,5.54,0,0,1,4.68-2.23,5.44,5.44,0,0,1,4.59,2.27A10.05,10.05,0,0,1,552.51,344.56Zm-8.68,0a10.22,10.22,0,0,0,.56,3.85,1.87,1.87,0,0,0,1.79,1.31q2.34,0,2.34-5.16a10,10,0,0,0-.56-3.83,1.89,1.89,0,0,0-3.57,0A10,10,0,0,0,543.83,344.56Z"/><path class="cls-3" d="M569.94,353a3.58,3.58,0,0,1-1.87-.47,4.6,4.6,0,0,1-1.52-1.68h-.2c.16,1.33.23,2.13.23,2.4V360h-3.92V336.43h3l.67,2.13h.17a3.82,3.82,0,0,1,7-.23,12.69,12.69,0,0,1,1.26,6.23,12.5,12.5,0,0,1-1.3,6.23A4,4,0,0,1,569.94,353Zm-1.2-13.6a1.7,1.7,0,0,0-1.65,1.06,9,9,0,0,0-.54,3.52v.51a10.77,10.77,0,0,0,.52,3.93,1.74,1.74,0,0,0,1.7,1.23c1.36,0,2.05-1.73,2.05-5.19a10.71,10.71,0,0,0-.51-3.8A1.68,1.68,0,0,0,568.74,339.44Z"/><path class="cls-3" d="M584.5,336.13a4.7,4.7,0,0,1,1.4.21l-.45,3.78a3.47,3.47,0,0,0-1.07-.14,2.47,2.47,0,0,0-2.18,1.12,5.78,5.78,0,0,0-.76,3.26v8.39h-3.9V336.43h3.21l.44,2.55h.13a6,6,0,0,1,1.41-2.2A2.58,2.58,0,0,1,584.5,336.13Z"/><path class="cls-3" d="M593.67,353a5.89,5.89,0,0,1-4.83-2.17,9.52,9.52,0,0,1-1.76-6.16,10.84,10.84,0,0,1,1.59-6.31,5.13,5.13,0,0,1,4.46-2.27,5.06,5.06,0,0,1,4.2,1.94,8.51,8.51,0,0,1,1.54,5.44v2.08H591a5.3,5.3,0,0,0,.9,3.24,2.82,2.82,0,0,0,2.34,1.07,7.63,7.63,0,0,0,3.9-1.19v3.21A8.59,8.59,0,0,1,593.67,353Zm-.57-13.91a1.58,1.58,0,0,0-1.38.88,6,6,0,0,0-.63,2.75h4a5.94,5.94,0,0,0-.55-2.71A1.56,1.56,0,0,0,593.1,339.13Z"/><path class="cls-3" d="M606.84,353a5.1,5.1,0,0,1-4.44-2.12c-1-1.42-1.52-3.5-1.52-6.24s.48-5,1.44-6.43a5,5,0,0,1,4.46-2.12,7.23,7.23,0,0,1,1.9.26,6.57,6.57,0,0,1,1.79.76l-1.11,3a4.34,4.34,0,0,0-2.16-.71,1.86,1.86,0,0,0-1.79,1.29,10.42,10.42,0,0,0-.55,3.89,10.1,10.1,0,0,0,.54,3.79,1.83,1.83,0,0,0,1.77,1.25,5.68,5.68,0,0,0,3.07-1v3.43A6.3,6.3,0,0,1,606.84,353Z"/><path class="cls-3" d="M612.45,332.17a2.06,2.06,0,0,1,.56-1.53,2.13,2.13,0,0,1,1.58-.57,2,2,0,0,1,2.09,2.1,2,2,0,0,1-.59,1.55,2.12,2.12,0,0,1-1.5.54,2.21,2.21,0,0,1-1.56-.54A2,2,0,0,1,612.45,332.17Zm4.06,20.58h-3.9V336.43h3.9Z"/><path class="cls-3" d="M628.6,348a4.9,4.9,0,0,1-1.39,3.72,5.74,5.74,0,0,1-4.13,1.34,7.62,7.62,0,0,1-4-1v-3.38a7.55,7.55,0,0,0,1.89.92,5.81,5.81,0,0,0,1.89.37,2,2,0,0,0,1.39-.45,1.57,1.57,0,0,0,.47-1.18,1.84,1.84,0,0,0-.5-1.3,8.2,8.2,0,0,0-1.83-1.36,7.74,7.74,0,0,1-2.54-2.25,5.14,5.14,0,0,1-.77-2.82,4.11,4.11,0,0,1,1.43-3.3,5.85,5.85,0,0,1,3.92-1.21,7.87,7.87,0,0,1,4.09,1.14l-1.28,2.8a5.89,5.89,0,0,0-2.75-.85,1.48,1.48,0,0,0-1.12.39,1.38,1.38,0,0,0-.38,1,1.69,1.69,0,0,0,.47,1.17,7.7,7.7,0,0,0,1.72,1.27,11.35,11.35,0,0,1,2.14,1.57,4.76,4.76,0,0,1,.95,1.47A5.07,5.07,0,0,1,628.6,348Z"/><path class="cls-3" d="M639.06,352.75l-.77-2.23h-.09a5.5,5.5,0,0,1-1.79,2,4.54,4.54,0,0,1-2.33.54,3.39,3.39,0,0,1-2.83-1.34,6,6,0,0,1-1-3.75,4.85,4.85,0,0,1,1.41-3.83,6.68,6.68,0,0,1,4.23-1.39l2.16-.09v-1.17c0-1.52-.66-2.28-2-2.28a6.77,6.77,0,0,0-3.37,1.14l-1.35-2.7a9.73,9.73,0,0,1,5.29-1.53,5,5,0,0,1,3.94,1.48,6,6,0,0,1,1.36,4.21v11ZM635.68,350a2,2,0,0,0,1.71-1,4.6,4.6,0,0,0,.63-2.56V345.1l-1.2.06a2.74,2.74,0,0,0-2,.76,3,3,0,0,0-.63,2.06C634.24,349.32,634.72,350,635.68,350Z"/><path class="cls-3" d="M653.2,352.75V343a6.46,6.46,0,0,0-.43-2.68,1.42,1.42,0,0,0-1.37-.9,1.93,1.93,0,0,0-1.85,1.25,10.84,10.84,0,0,0-.58,4.22v7.84h-3.9V336.43h3.09l.47,2.1h.25a4,4,0,0,1,3.81-2.4,3.84,3.84,0,0,1,3.33,1.52,7.49,7.49,0,0,1,1.11,4.45v10.65Z"/><path class="cls-3" d="M664.57,353a4,4,0,0,1-3.56-2.22,12.32,12.32,0,0,1-1.31-6.2,12.78,12.78,0,0,1,1.28-6.24,3.9,3.9,0,0,1,3.51-2.25,3.39,3.39,0,0,1,1.93.54,5.07,5.07,0,0,1,1.5,1.86h.24q-.18-2.23-.18-3.12V330h3.9v22.79H669l-.66-2.12h-.14A3.9,3.9,0,0,1,664.57,353Zm1.26-3.29a1.66,1.66,0,0,0,1.58-1,9.33,9.33,0,0,0,.54-3.6v-.51a11.25,11.25,0,0,0-.5-4,1.73,1.73,0,0,0-1.67-1.16c-.72,0-1.25.45-1.57,1.33a11.58,11.58,0,0,0-.49,3.86,10.75,10.75,0,0,0,.5,3.8A1.68,1.68,0,0,0,665.83,349.75Z"/><path class="cls-3" d="M687.24,344.56a10.08,10.08,0,0,1-1.7,6.25,5.52,5.52,0,0,1-4.66,2.23,5.58,5.58,0,0,1-3.31-1,6.61,6.61,0,0,1-2.21-2.95,12,12,0,0,1-.77-4.51,10.13,10.13,0,0,1,1.68-6.2,5.51,5.51,0,0,1,4.67-2.23,5.44,5.44,0,0,1,4.6,2.27A10.12,10.12,0,0,1,687.24,344.56Zm-8.67,0a10.22,10.22,0,0,0,.56,3.85,1.86,1.86,0,0,0,1.78,1.31q2.36,0,2.35-5.16a9.81,9.81,0,0,0-.57-3.83,1.89,1.89,0,0,0-3.56,0A10,10,0,0,0,678.57,344.56Z"/><path class="cls-3" d="M701.69,353a4,4,0,0,1-3.56-2.22,12.32,12.32,0,0,1-1.31-6.2,12.78,12.78,0,0,1,1.28-6.24,3.9,3.9,0,0,1,3.51-2.25,3.41,3.41,0,0,1,1.93.54,5.07,5.07,0,0,1,1.5,1.86h.23c-.11-1.49-.17-2.53-.17-3.12V330H709v22.79h-2.91l-.65-2.12h-.14A3.9,3.9,0,0,1,701.69,353Zm1.26-3.29a1.66,1.66,0,0,0,1.58-1,9.33,9.33,0,0,0,.54-3.6v-.51a11,11,0,0,0-.51-4,1.71,1.71,0,0,0-1.66-1.16c-.72,0-1.25.45-1.57,1.33a11.58,11.58,0,0,0-.49,3.86,11,11,0,0,0,.49,3.8A1.7,1.7,0,0,0,703,349.75Z"/><path class="cls-3" d="M718.3,353a5.89,5.89,0,0,1-4.83-2.17,9.52,9.52,0,0,1-1.76-6.16,10.84,10.84,0,0,1,1.59-6.31,5.13,5.13,0,0,1,4.46-2.27,5.06,5.06,0,0,1,4.2,1.94,8.57,8.57,0,0,1,1.54,5.44v2.08h-7.84a5.37,5.37,0,0,0,.89,3.24,2.85,2.85,0,0,0,2.35,1.07,7.57,7.57,0,0,0,3.89-1.19v3.21A8.55,8.55,0,0,1,718.3,353Zm-.57-13.91a1.58,1.58,0,0,0-1.38.88,6,6,0,0,0-.63,2.75h3.95a6,6,0,0,0-.54-2.71A1.56,1.56,0,0,0,717.73,339.13Z"/><path class="cls-3" d="M741.62,352.75V343a6.46,6.46,0,0,0-.43-2.68,1.42,1.42,0,0,0-1.37-.9,1.93,1.93,0,0,0-1.85,1.25,10.8,10.8,0,0,0-.59,4.22v7.84h-3.89V336.43h3.09l.47,2.1h.25a4,4,0,0,1,3.8-2.4,3.85,3.85,0,0,1,3.34,1.52,7.57,7.57,0,0,1,1.1,4.45v10.65Z"/><path class="cls-3" d="M754.71,353a5.86,5.86,0,0,1-4.82-2.17,9.52,9.52,0,0,1-1.77-6.16,10.77,10.77,0,0,1,1.6-6.31,5.52,5.52,0,0,1,8.66-.33,8.57,8.57,0,0,1,1.53,5.44v2.08h-7.83a5.3,5.3,0,0,0,.89,3.24,2.84,2.84,0,0,0,2.34,1.07,7.63,7.63,0,0,0,3.9-1.19v3.21A8.59,8.59,0,0,1,754.71,353Zm-.57-13.91a1.61,1.61,0,0,0-1.38.88,6,6,0,0,0-.63,2.75h4a6,6,0,0,0-.54-2.71A1.57,1.57,0,0,0,754.14,339.13Z"/><path class="cls-3" d="M770.62,352.75V343a6.66,6.66,0,0,0-.42-2.68,1.44,1.44,0,0,0-1.38-.9,1.93,1.93,0,0,0-1.85,1.25,10.84,10.84,0,0,0-.58,4.22v7.84h-3.9V336.43h3.09l.47,2.1h.25a4,4,0,0,1,3.81-2.4,3.84,3.84,0,0,1,3.33,1.52,7.49,7.49,0,0,1,1.11,4.45v10.65Z"/><path class="cls-3" d="M785.83,352.75V343c0-2.39-.6-3.58-1.81-3.58a1.94,1.94,0,0,0-1.89,1.41,11.88,11.88,0,0,0-.54,4.06v7.84H777.7V330h3.89V335c0,.65-.06,1.82-.17,3.5h.2a3.81,3.81,0,0,1,3.61-2.4,4,4,0,0,1,3.38,1.51,7.35,7.35,0,0,1,1.14,4.46v10.65Z"/><path class="cls-3" d="M801.72,352.75l-.48-2.09H801a4.29,4.29,0,0,1-1.54,1.75,4.25,4.25,0,0,1-2.3.63,3.89,3.89,0,0,1-3.32-1.49,7.38,7.38,0,0,1-1.13-4.47V336.43h3.94v9.72a6.48,6.48,0,0,0,.43,2.69,1.42,1.42,0,0,0,1.37.91,1.93,1.93,0,0,0,1.84-1.26,11,11,0,0,0,.58-4.24v-7.82h3.94v16.32Z"/><path class="cls-3" d="M807.51,346.42V343h7.36v3.43Z"/><path class="cls-3" d="M63.85,388.75V379c0-2.39-.59-3.58-1.77-3.58a1.89,1.89,0,0,0-1.85,1.28,11.06,11.06,0,0,0-.56,4.11v7.92H55.75V379c0-2.39-.6-3.58-1.8-3.58a1.9,1.9,0,0,0-1.83,1.27,10.89,10.89,0,0,0-.58,4.2v7.84H47.65V372.43h3.09l.47,2.1h.25a4,4,0,0,1,1.6-1.83,4.38,4.38,0,0,1,2.18-.57,3.88,3.88,0,0,1,4,2.82h.15a4.16,4.16,0,0,1,4-2.82,3.79,3.79,0,0,1,3.28,1.52,7.42,7.42,0,0,1,1.12,4.45v10.65Z"/><path class="cls-3" d="M78.92,388.75l-.77-2.23h-.09a5.5,5.5,0,0,1-1.79,2,4.54,4.54,0,0,1-2.33.54,3.39,3.39,0,0,1-2.83-1.34,6,6,0,0,1-1-3.75,4.86,4.86,0,0,1,1.42-3.83,6.67,6.67,0,0,1,4.22-1.39l2.17-.09v-1.17q0-2.28-2-2.28a6.74,6.74,0,0,0-3.36,1.14l-1.35-2.7a9.73,9.73,0,0,1,5.29-1.53,5.06,5.06,0,0,1,3.94,1.48,6,6,0,0,1,1.36,4.21v11ZM75.54,386a2,2,0,0,0,1.71-1,4.6,4.6,0,0,0,.63-2.56V381.1l-1.2.06a2.74,2.74,0,0,0-2,.76A3,3,0,0,0,74.1,384C74.1,385.32,74.58,386,75.54,386Z"/><path class="cls-3" d="M92.21,368.17a2.1,2.1,0,0,1,.56-1.53,2.13,2.13,0,0,1,1.58-.57,2,2,0,0,1,2.09,2.1,2,2,0,0,1-.58,1.55,2.15,2.15,0,0,1-1.51.54,2.21,2.21,0,0,1-1.56-.54A2,2,0,0,1,92.21,368.17Zm4.06,20.58h-3.9V372.43h3.9Z"/><path class="cls-3" d="M107.74,388.75V379a6.63,6.63,0,0,0-.43-2.68,1.42,1.42,0,0,0-1.38-.9,1.92,1.92,0,0,0-1.84,1.25,10.8,10.8,0,0,0-.59,4.22v7.84H99.61V372.43h3.09l.47,2.1h.24a4.29,4.29,0,0,1,1.51-1.77,4.18,4.18,0,0,1,2.3-.63,3.85,3.85,0,0,1,3.34,1.52,7.57,7.57,0,0,1,1.1,4.45v10.65Z"/><path class="cls-3" d="M123.57,384a4.91,4.91,0,0,1-1.4,3.72,5.71,5.71,0,0,1-4.12,1.34,7.59,7.59,0,0,1-4-1v-3.38a7.48,7.48,0,0,0,1.88.92,5.87,5.87,0,0,0,1.9.37,1.94,1.94,0,0,0,1.38-.45,1.54,1.54,0,0,0,.48-1.18,1.89,1.89,0,0,0-.5-1.3,8.2,8.2,0,0,0-1.83-1.36,7.63,7.63,0,0,1-2.54-2.25,5.14,5.14,0,0,1-.77-2.82,4.08,4.08,0,0,1,1.43-3.3,5.85,5.85,0,0,1,3.92-1.21,7.86,7.86,0,0,1,4.08,1.14l-1.27,2.8a5.92,5.92,0,0,0-2.76-.85,1.5,1.5,0,0,0-1.12.39,1.41,1.41,0,0,0-.37,1,1.68,1.68,0,0,0,.46,1.17,8,8,0,0,0,1.72,1.27,11,11,0,0,1,2.14,1.57,4.59,4.59,0,0,1,1,1.47A4.88,4.88,0,0,1,123.57,384Z"/><path class="cls-3" d="M131.7,385.75a4.52,4.52,0,0,0,1.77-.41v3.05a5.09,5.09,0,0,1-2.85.65,3.81,3.81,0,0,1-3.15-1.26,5.94,5.94,0,0,1-1-3.8v-8.46h-1.58v-1.74l2-1.41,1-3.45h2.49v3.51h3v3.09h-3v8.59C130.38,385.2,130.82,385.75,131.7,385.75Z"/><path class="cls-3" d="M143.76,388.75l-.78-2.23h-.09a5.42,5.42,0,0,1-1.79,2,4.53,4.53,0,0,1-2.32.54,3.39,3.39,0,0,1-2.84-1.34,6,6,0,0,1-1-3.75,4.85,4.85,0,0,1,1.41-3.83,6.68,6.68,0,0,1,4.23-1.39l2.17-.09v-1.17q0-2.28-2-2.28a6.77,6.77,0,0,0-3.37,1.14l-1.35-2.7a9.76,9.76,0,0,1,5.29-1.53,5.09,5.09,0,0,1,3.95,1.48,6.05,6.05,0,0,1,1.35,4.21v11ZM140.37,386a2,2,0,0,0,1.71-1,4.6,4.6,0,0,0,.64-2.56V381.1l-1.21.06a2.76,2.76,0,0,0-1.95.76,3,3,0,0,0-.62,2.06C138.94,385.32,139.42,386,140.37,386Z"/><path class="cls-3" d="M153.66,388.75h-3.9V366h3.9Z"/><path class="cls-3" d="M164.92,388.75l-.77-2.23h-.09a5.5,5.5,0,0,1-1.79,2,4.54,4.54,0,0,1-2.33.54,3.39,3.39,0,0,1-2.83-1.34,6,6,0,0,1-1-3.75,4.85,4.85,0,0,1,1.41-3.83,6.68,6.68,0,0,1,4.23-1.39l2.16-.09v-1.17c0-1.52-.66-2.28-2-2.28a6.77,6.77,0,0,0-3.37,1.14l-1.35-2.7a9.73,9.73,0,0,1,5.29-1.53,5,5,0,0,1,3.94,1.48,6,6,0,0,1,1.36,4.21v11ZM161.54,386a2,2,0,0,0,1.71-1,4.6,4.6,0,0,0,.63-2.56V381.1l-1.2.06a2.74,2.74,0,0,0-2,.76,3,3,0,0,0-.63,2.06C160.1,385.32,160.58,386,161.54,386Z"/><path class="cls-3" d="M176.32,389a5.12,5.12,0,0,1-4.44-2.12,10.72,10.72,0,0,1-1.52-6.24c0-2.87.48-5,1.44-6.43a5,5,0,0,1,4.46-2.12,7.3,7.3,0,0,1,1.91.26,6.5,6.5,0,0,1,1.78.76l-1.11,3a4.34,4.34,0,0,0-2.15-.71,1.87,1.87,0,0,0-1.8,1.29,10.63,10.63,0,0,0-.55,3.89,10.1,10.1,0,0,0,.54,3.79,1.86,1.86,0,0,0,1.78,1.25,5.67,5.67,0,0,0,3.06-1v3.43A6.3,6.3,0,0,1,176.32,389Zm2.37,3.52a3.12,3.12,0,0,1-1,2.48,4.78,4.78,0,0,1-3.22.92,5.52,5.52,0,0,1-1.92-.31V393.4a6.85,6.85,0,0,0,1.77.24q1.29,0,1.29-1c0-.82-.76-1.36-2.3-1.61l1.16-2.32H177l-.54,1.11a3.26,3.26,0,0,1,1.63.93A2.45,2.45,0,0,1,178.69,392.56Z"/><path class="cls-3" d="M190.06,388.75l-.78-2.23h-.08a5.59,5.59,0,0,1-1.79,2,4.56,4.56,0,0,1-2.33.54,3.41,3.41,0,0,1-2.84-1.34,6.1,6.1,0,0,1-1-3.75,4.82,4.82,0,0,1,1.42-3.83,6.67,6.67,0,0,1,4.22-1.39l2.17-.09v-1.17q0-2.28-2-2.28a6.8,6.8,0,0,0-3.37,1.14l-1.34-2.7a9.72,9.72,0,0,1,5.28-1.53,5.07,5.07,0,0,1,3.95,1.48,6.05,6.05,0,0,1,1.36,4.21v11ZM186,369a.87.87,0,0,0-.72.35,2.93,2.93,0,0,0-.42,1.25h-2.07a6.15,6.15,0,0,1,1-3.32,2.78,2.78,0,0,1,3.34-.85,7.7,7.7,0,0,1,.94.54l.85.53a1.69,1.69,0,0,0,.85.24.78.78,0,0,0,.73-.38,4,4,0,0,0,.39-1.2h2.06a6.09,6.09,0,0,1-1,3.32,2.78,2.78,0,0,1-3.34.85,7.18,7.18,0,0,1-.94-.54c-.28-.2-.56-.38-.82-.54A1.61,1.61,0,0,0,186,369Zm.71,17a2,2,0,0,0,1.7-1,4.52,4.52,0,0,0,.64-2.56V381.1l-1.2.06a2.79,2.79,0,0,0-2,.76,3,3,0,0,0-.62,2.06C185.24,385.32,185.72,386,186.68,386Z"/><path class="cls-3" d="M208.15,380.56a10.14,10.14,0,0,1-1.7,6.25,5.52,5.52,0,0,1-4.66,2.23,5.58,5.58,0,0,1-3.31-1,6.61,6.61,0,0,1-2.21-2.95,12,12,0,0,1-.78-4.51,10.13,10.13,0,0,1,1.69-6.2,5.51,5.51,0,0,1,4.67-2.23,5.41,5.41,0,0,1,4.59,2.27A10.05,10.05,0,0,1,208.15,380.56Zm-8.67,0a10,10,0,0,0,.56,3.85,1.86,1.86,0,0,0,1.78,1.31c1.56,0,2.35-1.72,2.35-5.16a9.81,9.81,0,0,0-.57-3.83,1.89,1.89,0,0,0-3.56,0A9.84,9.84,0,0,0,199.48,380.56Z"/><path class="cls-3" d="M224.32,389a5.86,5.86,0,0,1-4.82-2.17,9.52,9.52,0,0,1-1.77-6.16,10.77,10.77,0,0,1,1.6-6.31,5.12,5.12,0,0,1,4.45-2.27,5,5,0,0,1,4.2,1.94,8.51,8.51,0,0,1,1.54,5.44v2.08h-7.83a5.3,5.3,0,0,0,.89,3.24,2.84,2.84,0,0,0,2.34,1.07,7.63,7.63,0,0,0,3.9-1.19v3.21A8.59,8.59,0,0,1,224.32,389Zm-.57-13.91a1.59,1.59,0,0,0-1.38.88,6,6,0,0,0-.63,2.75h4a6,6,0,0,0-.54-2.71A1.57,1.57,0,0,0,223.75,375.13Z"/><path class="cls-3" d="M236,388.75h-3.9V366H236Z"/><path class="cls-3" d="M245.28,389a5.86,5.86,0,0,1-4.82-2.17,9.52,9.52,0,0,1-1.77-6.16,10.77,10.77,0,0,1,1.6-6.31,5.52,5.52,0,0,1,8.66-.33,8.57,8.57,0,0,1,1.53,5.44v2.08h-7.83a5.3,5.3,0,0,0,.89,3.24,2.84,2.84,0,0,0,2.34,1.07,7.63,7.63,0,0,0,3.9-1.19v3.21A8.59,8.59,0,0,1,245.28,389Zm-2.57-18.47v-.39A18.84,18.84,0,0,0,244.1,368c.53-1,.9-1.69,1.13-2.2h4.65v.3a11.31,11.31,0,0,1-1.74,2,36.38,36.38,0,0,1-2.69,2.47Zm2,4.56a1.58,1.58,0,0,0-1.37.88,5.8,5.8,0,0,0-.63,2.75h3.95a6,6,0,0,0-.54-2.71A1.57,1.57,0,0,0,244.71,375.13Z"/><path class="cls-3" d="M258.73,385.75a4.52,4.52,0,0,0,1.77-.41v3.05a5.09,5.09,0,0,1-2.85.65,3.81,3.81,0,0,1-3.15-1.26,5.94,5.94,0,0,1-1-3.8v-8.46h-1.58v-1.74l2-1.41,1-3.45h2.49v3.51h3v3.09h-3v8.59C257.41,385.2,257.85,385.75,258.73,385.75Z"/><path class="cls-3" d="M269.75,372.13a4.75,4.75,0,0,1,1.4.21l-.45,3.78a3.47,3.47,0,0,0-1.07-.14,2.47,2.47,0,0,0-2.18,1.12,5.78,5.78,0,0,0-.76,3.26v8.39h-3.9V372.43H266l.44,2.55h.13a6.09,6.09,0,0,1,1.4-2.2A2.63,2.63,0,0,1,269.75,372.13Z"/><path class="cls-3" d="M272.76,368.17a2.07,2.07,0,0,1,.57-1.53,2.1,2.1,0,0,1,1.57-.57,2,2,0,0,1,2.1,2.1,2,2,0,0,1-.59,1.55,2.13,2.13,0,0,1-1.51.54,2.2,2.2,0,0,1-1.55-.54A2,2,0,0,1,272.76,368.17Zm4.06,20.58h-3.89V372.43h3.89Z"/><path class="cls-3" d="M285.55,389a5.12,5.12,0,0,1-4.44-2.12,10.72,10.72,0,0,1-1.52-6.24c0-2.87.48-5,1.44-6.43a5,5,0,0,1,4.46-2.12,7.3,7.3,0,0,1,1.91.26,6.71,6.71,0,0,1,1.79.76l-1.12,3a4.34,4.34,0,0,0-2.15-.71,1.87,1.87,0,0,0-1.8,1.29,10.67,10.67,0,0,0-.54,3.89,10.1,10.1,0,0,0,.54,3.79,1.83,1.83,0,0,0,1.77,1.25,5.62,5.62,0,0,0,3.06-1v3.43A6.28,6.28,0,0,1,285.55,389Z"/><path class="cls-3" d="M299.29,388.75l-.77-2.23h-.09a5.5,5.5,0,0,1-1.79,2,4.54,4.54,0,0,1-2.33.54,3.39,3.39,0,0,1-2.83-1.34,6,6,0,0,1-1-3.75,4.85,4.85,0,0,1,1.41-3.83,6.68,6.68,0,0,1,4.23-1.39l2.16-.09v-1.17c0-1.52-.66-2.28-2-2.28a6.77,6.77,0,0,0-3.37,1.14l-1.35-2.7a9.73,9.73,0,0,1,5.29-1.53,5,5,0,0,1,3.94,1.48,6,6,0,0,1,1.36,4.21v11ZM295.91,386a2,2,0,0,0,1.71-1,4.6,4.6,0,0,0,.63-2.56V381.1l-1.2.06a2.74,2.74,0,0,0-1.95.76,3,3,0,0,0-.63,2.06C294.47,385.32,295,386,295.91,386Z"/><path class="cls-3" d="M305.27,386.74a2.43,2.43,0,0,1,.61-1.77,2.4,2.4,0,0,1,1.81-.63,2.17,2.17,0,0,1,2.43,2.4,2.37,2.37,0,0,1-.64,1.78,2.42,2.42,0,0,1-4.21-1.78Z"/></g></g></svg>