<svg xmlns="http://www.w3.org/2000/svg" viewBox="0 0 651.77 536.01"><defs><style>.cls-1{fill:#fff;}.cls-2{opacity:0.36;}.cls-3,.cls-4{fill:#676099;}.cls-4{font-size:40px;font-family:OpenSans-CondensedBold, Open Sans Condensed;font-weight:700;letter-spacing:0.02em;}</style></defs><title>2</title><g id="Camada_2" data-name="Camada 2"><g id="textos_p1" data-name="textos p1"><path class="cls-1" d="M7.85,218C-33.63,369.31,95.69,463.19,244.33,438.29c32.75-5.49,52.57-17.64,84.62,1.25,25,14.77,37.51,35.64,68.62,41,59.88,10.35,142.05-31,182.87-73,79.49-81.85,100.14-201,22.82-290.07-49.53-57-109.88-65.18-178.19-87.4C368,11.53,316.7,0,256.07,0,201.3,0,158.69,1.17,120.79,44.05,80.18,90,41.24,134.51,7.85,218Z"/><g class="cls-2"><path class="cls-3" d="M605.61,411.51c-6.57,0-9.91-4.29-12.85-8.08s-5.39-6.92-10.49-6.92-7.59,3.21-10.48,6.92-6.28,8.08-12.85,8.08-9.9-4.29-12.85-8.08-5.38-6.92-10.48-6.92-7.6,3.21-10.49,6.92-6.28,8.08-12.85,8.08-9.9-4.29-12.85-8.08-5.38-6.92-10.48-6.92-7.59,3.21-10.48,6.92-6.28,8.08-12.85,8.08-9.91-4.29-12.85-8.08-5.38-6.92-10.48-6.92-7.6,3.21-10.49,6.92-6.28,8.08-12.85,8.08-9.9-4.29-12.85-8.08-5.38-6.92-10.48-6.92-7.59,3.21-10.48,6.92-6.29,8.08-12.85,8.08-9.91-4.29-12.85-8.08-5.38-6.92-10.48-6.92v-3c6.56,0,9.9,4.29,12.85,8.08s5.38,6.92,10.48,6.92,7.59-3.21,10.48-6.92,6.28-8.08,12.85-8.08,9.9,4.29,12.85,8.08,5.38,6.92,10.48,6.92,7.6-3.21,10.48-6.92,6.29-8.08,12.86-8.08,9.9,4.29,12.85,8.08,5.38,6.92,10.48,6.92,7.59-3.21,10.48-6.92,6.28-8.08,12.85-8.08,9.91,4.29,12.85,8.08,5.38,6.92,10.48,6.92,7.6-3.21,10.49-6.92,6.28-8.08,12.85-8.08,9.9,4.29,12.85,8.08,5.38,6.92,10.48,6.92,7.59-3.21,10.48-6.92,6.29-8.08,12.85-8.08,9.91,4.29,12.86,8.08,5.38,6.92,10.48,6.92,7.6-3.21,10.48-6.92,6.29-8.08,12.86-8.08v3c-5.1,0-7.6,3.21-10.49,6.92S612.18,411.51,605.61,411.51Z"/></g><g class="cls-2"><path class="cls-3" d="M605.61,432.26c-6.57,0-9.91-4.29-12.85-8.08s-5.39-6.92-10.49-6.92-7.59,3.21-10.48,6.92-6.28,8.08-12.85,8.08-9.9-4.29-12.85-8.08-5.38-6.92-10.48-6.92-7.6,3.21-10.49,6.92-6.28,8.08-12.85,8.08-9.9-4.29-12.85-8.08-5.38-6.92-10.48-6.92-7.59,3.21-10.48,6.92-6.28,8.08-12.85,8.08-9.91-4.29-12.85-8.08-5.38-6.92-10.48-6.92-7.6,3.21-10.49,6.92-6.28,8.08-12.85,8.08-9.9-4.29-12.85-8.08-5.38-6.92-10.48-6.92-7.59,3.21-10.48,6.92-6.29,8.08-12.85,8.08-9.91-4.29-12.85-8.08-5.38-6.92-10.48-6.92v-3c6.56,0,9.9,4.29,12.85,8.08s5.38,6.92,10.48,6.92,7.59-3.21,10.48-6.92,6.28-8.08,12.85-8.08,9.9,4.29,12.85,8.08,5.38,6.92,10.48,6.92,7.6-3.21,10.48-6.92,6.29-8.08,12.86-8.08,9.9,4.29,12.85,8.08,5.38,6.92,10.48,6.92,7.59-3.21,10.48-6.92,6.28-8.08,12.85-8.08,9.91,4.29,12.85,8.08,5.38,6.92,10.48,6.92,7.6-3.21,10.49-6.92,6.28-8.08,12.85-8.08,9.9,4.29,12.85,8.08,5.38,6.92,10.48,6.92,7.59-3.21,10.48-6.92,6.29-8.08,12.85-8.08,9.91,4.29,12.86,8.08,5.38,6.92,10.48,6.92,7.6-3.21,10.48-6.92,6.29-8.08,12.86-8.08v3c-5.1,0-7.6,3.21-10.49,6.92S612.18,432.26,605.61,432.26Z"/></g><g class="cls-2"><path class="cls-3" d="M605.61,453c-6.57,0-9.91-4.29-12.85-8.08S587.37,438,582.27,438s-7.59,3.21-10.48,6.92S565.51,453,558.94,453s-9.9-4.29-12.85-8.08S540.71,438,535.61,438s-7.6,3.21-10.49,6.92S518.84,453,512.27,453s-9.9-4.29-12.85-8.08S494,438,488.94,438s-7.59,3.21-10.48,6.92S472.18,453,465.61,453s-9.91-4.29-12.85-8.08S447.38,438,442.28,438s-7.6,3.21-10.49,6.92S425.51,453,418.94,453s-9.9-4.29-12.85-8.08S400.71,438,395.61,438s-7.59,3.21-10.48,6.92S378.84,453,372.28,453s-9.91-4.29-12.85-8.08S354.05,438,349,438v-3c6.56,0,9.9,4.29,12.85,8.08s5.38,6.92,10.48,6.92,7.59-3.21,10.48-6.92S389,435,395.61,435s9.9,4.29,12.85,8.08,5.38,6.92,10.48,6.92,7.6-3.21,10.48-6.92,6.29-8.08,12.86-8.08,9.9,4.29,12.85,8.08,5.38,6.92,10.48,6.92,7.59-3.21,10.48-6.92,6.28-8.08,12.85-8.08,9.91,4.29,12.85,8.08,5.38,6.92,10.48,6.92,7.6-3.21,10.49-6.92S529,435,535.61,435s9.9,4.29,12.85,8.08,5.38,6.92,10.48,6.92,7.59-3.21,10.48-6.92,6.29-8.08,12.85-8.08,9.91,4.29,12.86,8.08,5.38,6.92,10.48,6.92,7.6-3.21,10.48-6.92S622.38,435,629,435v3c-5.1,0-7.6,3.21-10.49,6.92S612.18,453,605.61,453Z"/></g><g class="cls-2"><path class="cls-3" d="M605.61,473.76c-6.57,0-9.91-4.29-12.85-8.08s-5.39-6.92-10.49-6.92-7.59,3.21-10.48,6.92-6.28,8.08-12.85,8.08-9.9-4.29-12.85-8.08-5.38-6.92-10.48-6.92-7.6,3.21-10.49,6.92-6.28,8.08-12.85,8.08-9.9-4.29-12.85-8.08-5.38-6.92-10.48-6.92-7.59,3.21-10.48,6.92-6.28,8.08-12.85,8.08-9.91-4.29-12.85-8.08-5.38-6.92-10.48-6.92-7.6,3.21-10.49,6.92-6.28,8.08-12.85,8.08-9.9-4.29-12.85-8.08-5.38-6.92-10.48-6.92S388,462,385.13,465.68s-6.29,8.08-12.85,8.08-9.91-4.29-12.85-8.08-5.38-6.92-10.48-6.92v-3c6.56,0,9.9,4.29,12.85,8.08s5.38,6.92,10.48,6.92,7.59-3.21,10.48-6.92,6.28-8.08,12.85-8.08,9.9,4.29,12.85,8.08,5.38,6.92,10.48,6.92,7.6-3.21,10.48-6.92,6.29-8.08,12.86-8.08,9.9,4.29,12.85,8.08,5.38,6.92,10.48,6.92,7.59-3.21,10.48-6.92,6.28-8.08,12.85-8.08,9.91,4.29,12.85,8.08,5.38,6.92,10.48,6.92,7.6-3.21,10.49-6.92,6.28-8.08,12.85-8.08,9.9,4.29,12.85,8.08,5.38,6.92,10.48,6.92,7.59-3.21,10.48-6.92,6.29-8.08,12.85-8.08,9.91,4.29,12.86,8.08,5.38,6.92,10.48,6.92,7.6-3.21,10.48-6.92,6.29-8.08,12.86-8.08v3c-5.1,0-7.6,3.21-10.49,6.92S612.18,473.76,605.61,473.76Z"/></g><g class="cls-2"><path class="cls-3" d="M605.61,494.51c-6.57,0-9.91-4.29-12.85-8.08s-5.39-6.92-10.49-6.92-7.59,3.21-10.48,6.92-6.28,8.08-12.85,8.08-9.9-4.29-12.85-8.08-5.38-6.92-10.48-6.92-7.6,3.21-10.49,6.92-6.28,8.08-12.85,8.08-9.9-4.29-12.85-8.08-5.38-6.92-10.48-6.92-7.59,3.21-10.48,6.92-6.28,8.08-12.85,8.08-9.91-4.29-12.85-8.08-5.38-6.92-10.48-6.92-7.6,3.21-10.49,6.92-6.28,8.08-12.85,8.08-9.9-4.29-12.85-8.08-5.38-6.92-10.48-6.92-7.59,3.21-10.48,6.92-6.29,8.08-12.85,8.08-9.91-4.29-12.85-8.08-5.38-6.92-10.48-6.92v-3c6.56,0,9.9,4.29,12.85,8.08s5.38,6.92,10.48,6.92,7.59-3.21,10.48-6.92,6.28-8.08,12.85-8.08,9.9,4.29,12.85,8.08,5.38,6.92,10.48,6.92,7.6-3.21,10.48-6.92,6.29-8.08,12.86-8.08,9.9,4.29,12.85,8.08,5.38,6.92,10.48,6.92,7.59-3.21,10.48-6.92,6.28-8.08,12.85-8.08,9.91,4.29,12.85,8.08,5.38,6.92,10.48,6.92,7.6-3.21,10.49-6.92,6.28-8.08,12.85-8.08,9.9,4.29,12.85,8.08,5.38,6.92,10.48,6.92,7.59-3.21,10.48-6.92,6.29-8.08,12.85-8.08,9.91,4.29,12.86,8.08,5.38,6.92,10.48,6.92,7.6-3.21,10.48-6.92,6.29-8.08,12.86-8.08v3c-5.1,0-7.6,3.21-10.49,6.92S612.18,494.51,605.61,494.51Z"/></g><g class="cls-2"><path class="cls-3" d="M605.61,515.26c-6.57,0-9.91-4.29-12.85-8.08s-5.39-6.92-10.49-6.92-7.59,3.21-10.48,6.92-6.28,8.08-12.85,8.08-9.9-4.29-12.85-8.08-5.38-6.92-10.48-6.92-7.6,3.21-10.49,6.92-6.28,8.08-12.85,8.08-9.9-4.29-12.85-8.08-5.38-6.92-10.48-6.92-7.59,3.21-10.48,6.92-6.28,8.08-12.85,8.08-9.91-4.29-12.85-8.08-5.38-6.92-10.48-6.92-7.6,3.21-10.49,6.92-6.28,8.08-12.85,8.08-9.9-4.29-12.85-8.08-5.38-6.92-10.48-6.92-7.59,3.21-10.48,6.92-6.29,8.08-12.85,8.08-9.91-4.29-12.85-8.08-5.38-6.92-10.48-6.92v-3c6.56,0,9.9,4.29,12.85,8.08s5.38,6.92,10.48,6.92,7.59-3.21,10.48-6.92,6.28-8.08,12.85-8.08,9.9,4.29,12.85,8.08,5.38,6.92,10.48,6.92,7.6-3.21,10.48-6.92,6.29-8.08,12.86-8.08,9.9,4.29,12.85,8.08,5.38,6.92,10.48,6.92,7.59-3.21,10.48-6.92,6.28-8.08,12.85-8.08,9.91,4.29,12.85,8.08,5.38,6.92,10.48,6.92,7.6-3.21,10.49-6.92,6.28-8.08,12.85-8.08,9.9,4.29,12.85,8.08,5.38,6.92,10.48,6.92,7.59-3.21,10.48-6.92,6.29-8.08,12.85-8.08,9.91,4.29,12.86,8.08,5.38,6.92,10.48,6.92,7.6-3.21,10.48-6.92,6.29-8.08,12.86-8.08v3c-5.1,0-7.6,3.21-10.49,6.92S612.18,515.26,605.61,515.26Z"/></g><g class="cls-2"><path class="cls-3" d="M605.61,536c-6.57,0-9.91-4.29-12.85-8.08S587.37,521,582.27,521s-7.59,3.21-10.48,6.92S565.51,536,558.94,536s-9.9-4.29-12.85-8.08S540.71,521,535.61,521s-7.6,3.21-10.49,6.92S518.84,536,512.27,536s-9.9-4.29-12.85-8.08S494,521,488.94,521s-7.59,3.21-10.48,6.92S472.18,536,465.61,536s-9.91-4.29-12.85-8.08S447.38,521,442.28,521s-7.6,3.21-10.49,6.92S425.51,536,418.94,536s-9.9-4.29-12.85-8.08S400.71,521,395.61,521s-7.59,3.21-10.48,6.92S378.84,536,372.28,536s-9.91-4.29-12.85-8.08S354.05,521,349,521v-3c6.56,0,9.9,4.29,12.85,8.08s5.38,6.92,10.48,6.92,7.59-3.21,10.48-6.92S389,518,395.61,518s9.9,4.29,12.85,8.08,5.38,6.92,10.48,6.92,7.6-3.21,10.48-6.92,6.29-8.08,12.86-8.08,9.9,4.29,12.85,8.08,5.38,6.92,10.48,6.92,7.59-3.21,10.48-6.92,6.28-8.08,12.85-8.08,9.91,4.29,12.85,8.08,5.38,6.92,10.48,6.92,7.6-3.21,10.49-6.92S529,518,535.61,518s9.9,4.29,12.85,8.08,5.38,6.92,10.48,6.92,7.59-3.21,10.48-6.92,6.29-8.08,12.85-8.08,9.91,4.29,12.86,8.08,5.38,6.92,10.48,6.92,7.6-3.21,10.48-6.92S622.38,518,629,518v3c-5.1,0-7.6,3.21-10.49,6.92S612.18,536,605.61,536Z"/></g><text class="cls-4" transform="translate(95.3 141.58)">Nossas casas são espaços de<tspan x="0" y="48">conexão e afeto, onde criamos</tspan><tspan x="0" y="96">o nosso mundo e construímos</tspan><tspan x="0" y="144">memórias. Agora a tecnologia</tspan><tspan x="0" y="192">se propõe a potencializar as</tspan><tspan x="0" y="240">experiências nesses espaços.</tspan></text></g></g></svg>