<svg xmlns="http://www.w3.org/2000/svg" viewBox="0 0 852.7 565.69"><defs><style>.cls-1{fill:#676099;}.cls-2{font-size:60px;}.cls-2,.cls-3{fill:#fff;font-family:OpenSans-CondensedBold, Open Sans Condensed;font-weight:700;}.cls-3{font-size:30px;}</style></defs><title>22</title><g id="Camada_2" data-name="Camada 2"><g id="imgs_p2_p3" data-name="imgs p2 p3"><path class="cls-1" d="M14.11,277.25C-49.5,460.49,111.55,564,305.41,524.5c42.72-8.71,69.14-24.52,109.34-4.08,31.41,16,46.17,40,86,44.41,76.75,8.41,185.74-46.28,241.29-99.11,108.18-102.88,142.73-246.42,48.6-347.55C730.38,53.37,652.87,47.64,566,25.63,493.37,7.22,427.84-3.11,349.44.83c-70.82,3.56-126,7.81-177.84,61.46C116.07,119.76,62.78,175.45,14.11,277.25Z"/><text class="cls-2" transform="translate(196.59 175.25)">Chromecast</text><text class="cls-3" transform="translate(66.99 244.75)">Acessório com a função de tornar a TV mais inteligente, tornando <tspan x="0" y="36">possível transmitir conteúdo multimídia de outros aparelhos. </tspan><tspan x="0" y="72">Pode ser controlado por voz a partir do Google Home.</tspan><tspan x="0" y="144">Custa a partir de R$200,00 em lojas brasileiras.</tspan></text></g></g></svg>