<svg xmlns="http://www.w3.org/2000/svg" viewBox="0 0 716.89 977.09"><defs><style>.cls-1{opacity:0.36;}.cls-2,.cls-5{fill:#676099;}.cls-3,.cls-4{fill:#fff;}.cls-4{font-size:80px;letter-spacing:0.02em;}.cls-4,.cls-5{font-family:OpenSans-CondensedBold, Open Sans Condensed;font-weight:700;}.cls-5{font-size:40px;letter-spacing:0.02em;}.cls-6{fill:#759eef;}.cls-7{fill:#b3deef;}.cls-8{fill:#d26f31;}.cls-9{fill:#b0003f;}.cls-10{opacity:0.11;}</style></defs><title>3</title><g id="Camada_2" data-name="Camada 2"><g id="p1"><g class="cls-1"><path class="cls-2" d="M671.19,292.45c-7.78,0-11.74-5.09-15.24-9.58s-6.38-8.21-12.43-8.21-9,3.81-12.43,8.21-7.45,9.58-15.23,9.58-11.75-5.09-15.24-9.58-6.38-8.21-12.43-8.21-9,3.81-12.43,8.21-7.45,9.58-15.24,9.58-11.74-5.09-15.23-9.58-6.39-8.21-12.43-8.21-9,3.81-12.43,8.21-7.45,9.58-15.24,9.58-11.74-5.09-15.24-9.58-6.38-8.21-12.43-8.21-9,3.81-12.42,8.21-7.46,9.58-15.24,9.58-11.75-5.09-15.24-9.58-6.38-8.21-12.43-8.21-9,3.81-12.43,8.21-7.45,9.58-15.23,9.58-11.75-5.09-15.24-9.58-6.38-8.21-12.43-8.21v-3.55c7.79,0,11.75,5.09,15.24,9.58s6.38,8.2,12.43,8.2,9-3.8,12.42-8.2,7.46-9.58,15.24-9.58,11.75,5.09,15.24,9.58,6.38,8.2,12.43,8.2,9-3.8,12.43-8.2,7.45-9.58,15.23-9.58,11.75,5.09,15.24,9.58,6.38,8.2,12.43,8.2,9-3.8,12.43-8.2,7.45-9.58,15.24-9.58,11.74,5.09,15.23,9.58,6.39,8.2,12.43,8.2,9-3.8,12.43-8.2,7.45-9.58,15.24-9.58,11.74,5.09,15.24,9.58,6.38,8.2,12.43,8.2,9-3.8,12.43-8.2,7.45-9.58,15.23-9.58,11.75,5.09,15.24,9.57,6.38,8.21,12.43,8.21,9-3.8,12.43-8.2,7.46-9.58,15.24-9.58v3.55c-6.05,0-9,3.81-12.43,8.21S679,292.45,671.19,292.45Z"/></g><g class="cls-1"><path class="cls-2" d="M671.19,317.05c-7.78,0-11.74-5.09-15.24-9.58s-6.38-8.2-12.43-8.2-9,3.8-12.43,8.2-7.45,9.58-15.23,9.58-11.75-5.09-15.24-9.58-6.38-8.2-12.43-8.2-9,3.8-12.43,8.2-7.45,9.58-15.24,9.58-11.74-5.09-15.23-9.58-6.39-8.2-12.43-8.2-9,3.8-12.43,8.2-7.45,9.58-15.24,9.58S493.45,312,490,307.47s-6.38-8.2-12.43-8.2-9,3.8-12.42,8.2-7.46,9.58-15.24,9.58-11.75-5.09-15.24-9.58-6.38-8.2-12.43-8.2-9,3.8-12.43,8.2-7.45,9.58-15.23,9.58-11.75-5.09-15.24-9.58-6.38-8.2-12.43-8.2v-3.56c7.79,0,11.75,5.09,15.24,9.58s6.38,8.21,12.43,8.21,9-3.81,12.42-8.21,7.46-9.58,15.24-9.58,11.75,5.09,15.24,9.58,6.38,8.21,12.43,8.21,9-3.81,12.43-8.21,7.45-9.58,15.23-9.58,11.75,5.09,15.24,9.58,6.38,8.21,12.43,8.21,9-3.81,12.43-8.21,7.45-9.58,15.24-9.58,11.74,5.09,15.23,9.58,6.39,8.21,12.43,8.21,9-3.81,12.43-8.21,7.45-9.58,15.24-9.58,11.74,5.09,15.24,9.58,6.38,8.21,12.43,8.21,9-3.81,12.43-8.21,7.45-9.58,15.23-9.58,11.75,5.09,15.24,9.58,6.38,8.21,12.43,8.21,9-3.81,12.43-8.21,7.46-9.58,15.24-9.58v3.56c-6.05,0-9,3.8-12.43,8.2S679,317.05,671.19,317.05Z"/></g><g class="cls-1"><path class="cls-2" d="M671.19,341.66c-7.78,0-11.74-5.09-15.24-9.58s-6.38-8.21-12.43-8.21-9,3.8-12.43,8.21-7.45,9.58-15.23,9.58-11.75-5.09-15.24-9.58-6.38-8.21-12.43-8.21-9,3.8-12.43,8.21-7.45,9.58-15.24,9.58-11.74-5.09-15.23-9.58-6.39-8.21-12.43-8.21-9,3.8-12.43,8.21-7.45,9.58-15.24,9.58-11.74-5.09-15.24-9.58-6.38-8.21-12.43-8.21-9,3.8-12.42,8.21-7.46,9.58-15.24,9.58-11.75-5.09-15.24-9.58-6.38-8.21-12.43-8.21-9,3.8-12.43,8.21-7.45,9.58-15.23,9.58-11.75-5.09-15.24-9.58-6.38-8.21-12.43-8.21v-3.56c7.79,0,11.75,5.09,15.24,9.58s6.38,8.21,12.43,8.21,9-3.8,12.42-8.21,7.46-9.58,15.24-9.58,11.75,5.09,15.24,9.58,6.38,8.21,12.43,8.21,9-3.8,12.43-8.21,7.45-9.58,15.23-9.58,11.75,5.09,15.24,9.58,6.38,8.21,12.43,8.21,9-3.8,12.43-8.21,7.45-9.58,15.24-9.58,11.74,5.09,15.23,9.58,6.39,8.21,12.43,8.21,9-3.8,12.43-8.21,7.45-9.58,15.24-9.58,11.74,5.09,15.24,9.58,6.38,8.21,12.43,8.21,9-3.8,12.43-8.21,7.45-9.58,15.23-9.58,11.75,5.09,15.24,9.58,6.38,8.21,12.43,8.21,9-3.8,12.43-8.21,7.46-9.58,15.24-9.58v3.56c-6.05,0-9,3.8-12.43,8.21S679,341.66,671.19,341.66Z"/></g><g class="cls-1"><path class="cls-2" d="M671.19,366.26c-7.78,0-11.74-5.09-15.24-9.58s-6.38-8.21-12.43-8.21-9,3.81-12.43,8.21-7.45,9.58-15.23,9.58-11.75-5.09-15.24-9.58-6.38-8.21-12.43-8.21-9,3.81-12.43,8.21-7.45,9.58-15.24,9.58-11.74-5.09-15.23-9.58-6.39-8.21-12.43-8.21-9,3.81-12.43,8.21-7.45,9.58-15.24,9.58-11.74-5.09-15.24-9.58-6.38-8.21-12.43-8.21-9,3.81-12.42,8.21-7.46,9.58-15.24,9.58-11.75-5.09-15.24-9.58-6.38-8.21-12.43-8.21-9,3.81-12.43,8.21-7.45,9.58-15.23,9.58-11.75-5.09-15.24-9.58-6.38-8.21-12.43-8.21v-3.55c7.79,0,11.75,5.09,15.24,9.58s6.38,8.2,12.43,8.2,9-3.8,12.42-8.2,7.46-9.58,15.24-9.58,11.75,5.09,15.24,9.58,6.38,8.2,12.43,8.2,9-3.8,12.43-8.2,7.45-9.58,15.23-9.58,11.75,5.09,15.24,9.58,6.38,8.2,12.43,8.2,9-3.8,12.43-8.2,7.45-9.58,15.24-9.58,11.74,5.09,15.23,9.58,6.39,8.2,12.43,8.2,9-3.8,12.43-8.2,7.45-9.58,15.24-9.58,11.74,5.09,15.24,9.58,6.38,8.2,12.43,8.2,9-3.8,12.43-8.2,7.45-9.58,15.23-9.58,11.75,5.09,15.24,9.58,6.38,8.2,12.43,8.2,9-3.8,12.43-8.2,7.46-9.58,15.24-9.58v3.55c-6.05,0-9,3.81-12.43,8.21S679,366.26,671.19,366.26Z"/></g><g class="cls-1"><path class="cls-2" d="M671.19,390.86c-7.78,0-11.74-5.09-15.24-9.58s-6.38-8.2-12.43-8.2-9,3.8-12.43,8.2-7.45,9.58-15.23,9.58-11.75-5.09-15.24-9.58-6.38-8.2-12.43-8.2-9,3.8-12.43,8.2-7.45,9.58-15.24,9.58-11.74-5.09-15.23-9.58-6.39-8.2-12.43-8.2-9,3.8-12.43,8.2-7.45,9.58-15.24,9.58-11.74-5.09-15.24-9.58-6.38-8.2-12.43-8.2-9,3.8-12.42,8.2-7.46,9.58-15.24,9.58-11.75-5.09-15.24-9.58-6.38-8.2-12.43-8.2-9,3.8-12.43,8.2-7.45,9.58-15.23,9.58-11.75-5.09-15.24-9.58-6.38-8.2-12.43-8.2v-3.56c7.79,0,11.75,5.09,15.24,9.58s6.38,8.21,12.43,8.21,9-3.81,12.42-8.21,7.46-9.58,15.24-9.58,11.75,5.09,15.24,9.58,6.38,8.21,12.43,8.21,9-3.81,12.43-8.21,7.45-9.58,15.23-9.58,11.75,5.09,15.24,9.58,6.38,8.21,12.43,8.21,9-3.81,12.43-8.21,7.45-9.58,15.24-9.58,11.74,5.09,15.23,9.58,6.39,8.21,12.43,8.21,9-3.81,12.43-8.21,7.45-9.58,15.24-9.58,11.74,5.09,15.24,9.58,6.38,8.21,12.43,8.21,9-3.81,12.43-8.21,7.45-9.58,15.23-9.58,11.75,5.09,15.24,9.58,6.38,8.21,12.43,8.21,9-3.81,12.43-8.21,7.46-9.58,15.24-9.58v3.56c-6.05,0-9,3.8-12.43,8.2S679,390.86,671.19,390.86Z"/></g><g class="cls-1"><path class="cls-2" d="M671.19,415.47c-7.78,0-11.74-5.09-15.24-9.58s-6.38-8.21-12.43-8.21-9,3.8-12.43,8.21-7.45,9.58-15.23,9.58-11.75-5.09-15.24-9.58-6.38-8.21-12.43-8.21-9,3.8-12.43,8.21-7.45,9.58-15.24,9.58-11.74-5.09-15.23-9.58-6.39-8.21-12.43-8.21-9,3.8-12.43,8.21-7.45,9.58-15.24,9.58-11.74-5.09-15.24-9.58-6.38-8.21-12.43-8.21-9,3.8-12.42,8.21-7.46,9.58-15.24,9.58-11.75-5.09-15.24-9.58-6.38-8.21-12.43-8.21-9,3.8-12.43,8.21-7.45,9.58-15.23,9.58-11.75-5.09-15.24-9.58-6.38-8.21-12.43-8.21v-3.56c7.79,0,11.75,5.09,15.24,9.58s6.38,8.21,12.43,8.21,9-3.8,12.42-8.21,7.46-9.58,15.24-9.58,11.75,5.09,15.24,9.58,6.38,8.21,12.43,8.21,9-3.8,12.43-8.21,7.45-9.58,15.23-9.58,11.75,5.09,15.24,9.58,6.38,8.21,12.43,8.21,9-3.8,12.43-8.21,7.45-9.58,15.24-9.58,11.74,5.09,15.23,9.58,6.39,8.21,12.43,8.21,9-3.8,12.43-8.21,7.45-9.58,15.24-9.58,11.74,5.09,15.24,9.58,6.38,8.21,12.43,8.21,9-3.8,12.43-8.21,7.45-9.58,15.23-9.58,11.75,5.09,15.24,9.58,6.38,8.21,12.43,8.21,9-3.8,12.43-8.21,7.46-9.58,15.24-9.58v3.56c-6.05,0-9,3.8-12.43,8.21S679,415.47,671.19,415.47Z"/></g><g class="cls-1"><path class="cls-2" d="M671.19,440.07c-7.78,0-11.74-5.09-15.24-9.58s-6.38-8.21-12.43-8.21-9,3.81-12.43,8.21-7.45,9.58-15.23,9.58-11.75-5.09-15.24-9.58-6.38-8.21-12.43-8.21-9,3.81-12.43,8.21-7.45,9.58-15.24,9.58-11.74-5.09-15.23-9.58-6.39-8.21-12.43-8.21-9,3.81-12.43,8.21-7.45,9.58-15.24,9.58S493.45,435,490,430.49s-6.38-8.21-12.43-8.21-9,3.81-12.42,8.21-7.46,9.58-15.24,9.58-11.75-5.09-15.24-9.58-6.38-8.21-12.43-8.21-9,3.81-12.43,8.21-7.45,9.58-15.23,9.58-11.75-5.09-15.24-9.58-6.38-8.21-12.43-8.21v-3.55c7.79,0,11.75,5.09,15.24,9.58s6.38,8.2,12.43,8.2,9-3.8,12.42-8.2,7.46-9.58,15.24-9.58,11.75,5.09,15.24,9.58,6.38,8.2,12.43,8.2,9-3.8,12.43-8.2,7.45-9.58,15.23-9.58,11.75,5.09,15.24,9.58,6.38,8.2,12.43,8.2,9-3.8,12.43-8.2,7.45-9.58,15.24-9.58,11.74,5.09,15.23,9.58,6.39,8.2,12.43,8.2,9-3.8,12.43-8.2,7.45-9.58,15.24-9.58,11.74,5.09,15.24,9.58,6.38,8.2,12.43,8.2,9-3.8,12.43-8.2,7.45-9.58,15.23-9.58,11.75,5.09,15.24,9.58,6.38,8.2,12.43,8.2,9-3.8,12.43-8.2,7.46-9.58,15.24-9.58v3.55c-6.05,0-9,3.81-12.43,8.21S679,440.07,671.19,440.07Z"/></g><path class="cls-3" d="M8.64,490.3C-37,656.73,105.25,760,268.74,732.6c36-6,57.82-19.4,93.07,1.38,27.54,16.24,41.27,39.2,75.48,45.11,65.86,11.39,156.25-34,201.14-80.27,87.43-90,110.14-221.11,25.1-319.05-54.48-62.74-120.86-71.68-196-96.12-62.83-20.44-119.2-33.08-185.89-33.12-60.24-.05-107.11,1.29-148.8,48.44C88.19,349.49,45.37,398.47,8.64,490.3Z"/></g><g id="textos_p1" data-name="textos p1"><text class="cls-4" transform="translate(78.78 73.44)">O QUE SÃO <tspan x="0" y="96">SMART HOMES?</tspan></text><text class="cls-5" transform="translate(81.17 419.96)">Novas tecnologias da informação<tspan x="0" y="48">e da comunicação prometem</tspan><tspan x="0" y="96">tornar nossos lares ambientes</tspan><tspan x="0" y="144">inteligentes que deixarão o cotidiano</tspan><tspan x="0" y="192">mais eficiente e conectado.</tspan></text></g><g id="bonecos"><path class="cls-6" d="M272.23,717.64h19.9a0,0,0,0,1,0,0V743a8.81,8.81,0,0,1-8.81,8.81H281a8.81,8.81,0,0,1-8.81-8.81V717.64A0,0,0,0,1,272.23,717.64Z" transform="translate(951.48 1148.85) rotate(142.76)"/><path class="cls-7" d="M230,814.32h54.12V731.67a13,13,0,0,0-13-13H235.63a13,13,0,0,0-12.91,14.12Z"/><path class="cls-8" d="M260.31,692.25h0a7.93,7.93,0,0,1,7.93,7.93v26.65a0,0,0,0,1,0,0H252.38a0,0,0,0,1,0,0V700.19A7.93,7.93,0,0,1,260.31,692.25Z" transform="translate(368.32 1457.58) rotate(-168.07)"/><ellipse class="cls-8" cx="267.43" cy="685.74" rx="24.01" ry="26.85"/><path class="cls-6" d="M220.26,717.74h18.32a0,0,0,0,1,0,0v26.16a8.35,8.35,0,0,1-8.35,8.35h-1.63a8.35,8.35,0,0,1-8.35-8.35V717.74a0,0,0,0,1,0,0Z" transform="translate(357.56 1494.23) rotate(-172.24)"/><path class="cls-8" d="M297.4,744.72,311.15,766a3.79,3.79,0,0,0,6.3.1l23.63-27.88,6.51,7.73-23.9,29.44a12.53,12.53,0,0,1-9.82,4.74h0a11.94,11.94,0,0,1-10.39-6.07l-16.55-21.39Z"/><path class="cls-8" d="M233.12,753.38l-12.07-1.65L219,772c-.17,8.9,0,13.68,5,19h0c1.55,1.35,6,3.72,9.43,3l38.5-8.15V777.7l-38.32,3.77a1.62,1.62,0,0,1-1.86-1.69Z"/><path class="cls-8" d="M340.93,738.94a.73.73,0,0,1-.15-.68c.51-1.84,2.7-10,2.34-14.68-.28-3.6-.18-8.52-.09-11.29a.74.74,0,0,1,1.37-.38,18,18,0,0,1,2.66,7.24.74.74,0,0,0,1.33.34l7.25-9.88a.75.75,0,0,1,1.14-.07c1,1.06,2.72,3.36,1.59,5.91a.73.73,0,0,0,.11.76c.82,1,2.95,3.83,2.24,5.53a.67.67,0,0,0,0,.5c.32.92,1.26,3.94.4,6a.78.78,0,0,0-.05.45,4.36,4.36,0,0,1-1.27,4.26l-12,12.82a.75.75,0,0,1-1.11,0Z"/><path class="cls-8" d="M271.5,777.36a.68.68,0,0,1,.29-.55c1.41-1,7.59-5.28,10-8.68,1.88-2.61,4.78-5.91,6.44-7.75a.66.66,0,0,1,1.15.53,15.89,15.89,0,0,1-2.35,6.46.67.67,0,0,0,.72,1l10.62-2.58a.66.66,0,0,1,.82.61c.08,1.29-.07,3.84-2.31,4.94a.66.66,0,0,0-.36.58c0,1.16-.19,4.32-1.65,5.07a.63.63,0,0,0-.29.33c-.31.82-1.4,3.42-3.17,4.33a.71.71,0,0,0-.29.28,3.9,3.9,0,0,1-3.32,2.17l-15.58,1.83a.67.67,0,0,1-.75-.66Z"/><path class="cls-9" d="M238.79,685.92a7.65,7.65,0,0,0-.24,1.86,7.28,7.28,0,0,0,1.53,4.47,7.32,7.32,0,1,0,13.11,4.48c0-.11,0-.22,0-.33a7.93,7.93,0,0,0,9.51-10.81,7.9,7.9,0,0,0,4.71-2.94,7.89,7.89,0,0,0,12.32-.56,7.91,7.91,0,0,0,11.73-4.25,9,9,0,0,0,.89-15.41,9,9,0,0,0-13.21-11,8.3,8.3,0,0,0-2.13-.29,8,8,0,0,0-1.91.23,9,9,0,0,0-16.43,2.9,7.91,7.91,0,0,0-9.49,2.38,8.81,8.81,0,0,0-3.3-.63,9,9,0,0,0-7.75,13.43,8.8,8.8,0,0,0-1.19,4.2,8.93,8.93,0,0,0,1.86,12.25ZM276.27,670l.12-.31c0,.14.1.28.15.42Z"/><polygon class="cls-2" points="284.12 814.32 291.03 880.64 287.78 938.83 277.2 938.83 272.32 876.57 253.39 814.32 284.12 814.32"/><polygon class="cls-2" points="229.59 814.32 229.59 866.81 222.68 938.83 238.95 938.83 245.87 870.06 260.31 814.32 229.59 814.32"/><path d="M285.76,938.83c.43.88,3,10.18,7.74,12.83s10.75,2.21,14.62,6.2c.61.62-3,6.19-9.46,6.19S283.61,957,283.61,957l-1.83-.58a5.46,5.46,0,0,1-3.77-5.25V938.83Z"/><path d="M235.65,938.83l0,10.33c0,2.89,1.64,6.35-1,7.64L232.44,958l-9,7.28a8.92,8.92,0,0,1-8.58,1.48c-4.51-1.6-9.63-4.48-4-8.35,7.09-4.84,9.15-9.73,11-11.21a3.09,3.09,0,0,0,.9-1.13,9.35,9.35,0,0,1,.55-1l2.56-6.15Z"/><ellipse class="cls-10" cx="260.27" cy="964.4" rx="63.46" ry="12.69"/></g></g></svg>