<svg xmlns="http://www.w3.org/2000/svg" viewBox="0 0 845.39 565.69"><defs><style>.cls-1{fill:#676099;}.cls-2{font-size:60px;font-family:OpenSans-CondensedBold, Open Sans Condensed;font-weight:700;}.cls-2,.cls-3{fill:#fff;}</style></defs><title>30</title><g id="Camada_2" data-name="Camada 2"><g id="imgs_p2_p3" data-name="imgs p2 p3"><path class="cls-1" d="M14.11,277.25C-49.5,460.49,111.55,564,305.41,524.5c42.72-8.71,69.14-24.52,109.34-4.08,31.41,16,46.17,40,86,44.41,76.75,8.41,185.74-46.28,241.29-99.11,108.18-102.88,142.73-246.42,48.6-347.55C730.38,53.37,652.87,47.64,566,25.63,493.37,7.22,427.84-3.11,349.44.83c-70.82,3.56-126,7.81-177.84,61.46C116.07,119.76,62.78,175.45,14.11,277.25Z"/><text class="cls-2" transform="translate(196.59 215.25)">Sanitário Smart Mi</text><path class="cls-3" d="M68.64,278.85a6.44,6.44,0,0,1-1.52,4.6A5.76,5.76,0,0,1,62.75,285,9.63,9.63,0,0,1,58,284V280a8.2,8.2,0,0,0,4.41,1.57,2.23,2.23,0,0,0,1.72-.63,2.46,2.46,0,0,0,.58-1.71,3.13,3.13,0,0,0-.69-2,10.58,10.58,0,0,0-2.27-2,9.88,9.88,0,0,1-2.09-1.82,6.61,6.61,0,0,1-1.1-2,7.41,7.41,0,0,1-.39-2.52,6,6,0,0,1,1.54-4.36A5.41,5.41,0,0,1,63.8,263a9.11,9.11,0,0,1,4.74,1.37l-1.32,3.2a10.71,10.71,0,0,0-1.48-.73,4.11,4.11,0,0,0-1.64-.33,1.83,1.83,0,0,0-1.49.64,2.66,2.66,0,0,0-.52,1.74,3,3,0,0,0,.62,1.89,9.61,9.61,0,0,0,2.18,1.83,9,9,0,0,1,2.92,2.87A6.67,6.67,0,0,1,68.64,278.85Z"/><path class="cls-3" d="M87.24,284.75V275c0-2.39-.59-3.58-1.77-3.58a1.89,1.89,0,0,0-1.85,1.28,11.1,11.1,0,0,0-.55,4.11v7.92H79.14V275c0-2.39-.6-3.58-1.8-3.58a1.9,1.9,0,0,0-1.83,1.27,11.14,11.14,0,0,0-.57,4.2v7.84H71V268.43h3.09l.47,2.1h.25a4,4,0,0,1,1.6-1.83,4.41,4.41,0,0,1,2.18-.57,3.88,3.88,0,0,1,4,2.82h.15a4.16,4.16,0,0,1,4-2.82,3.82,3.82,0,0,1,3.29,1.52,7.49,7.49,0,0,1,1.12,4.45v10.65Z"/><path class="cls-3" d="M102.31,284.75l-.77-2.23h-.09a5.5,5.5,0,0,1-1.79,2,4.54,4.54,0,0,1-2.33.54,3.39,3.39,0,0,1-2.83-1.34,6,6,0,0,1-1-3.75,4.85,4.85,0,0,1,1.41-3.83,6.68,6.68,0,0,1,4.23-1.39l2.16-.09v-1.17c0-1.52-.65-2.28-2-2.28a6.77,6.77,0,0,0-3.37,1.14l-1.35-2.7a9.73,9.73,0,0,1,5.29-1.53,5.09,5.09,0,0,1,3.95,1.48,6.05,6.05,0,0,1,1.35,4.21v11ZM98.93,282a2,2,0,0,0,1.71-1,4.6,4.6,0,0,0,.63-2.56V277.1l-1.2.06a2.74,2.74,0,0,0-1.95.76A3,3,0,0,0,97.5,280C97.5,281.32,98,282,98.93,282Z"/><path class="cls-3" d="M115.28,268.13a4.7,4.7,0,0,1,1.4.21l-.45,3.78a3.47,3.47,0,0,0-1.07-.14A2.47,2.47,0,0,0,113,273.1a5.78,5.78,0,0,0-.76,3.26v8.39h-3.9V268.43h3.21L112,271h.13a6,6,0,0,1,1.41-2.2A2.58,2.58,0,0,1,115.28,268.13Z"/><path class="cls-3" d="M124.1,281.75a4.6,4.6,0,0,0,1.77-.41v3.05A5.15,5.15,0,0,1,123,285a3.84,3.84,0,0,1-3.15-1.26,6,6,0,0,1-1-3.8v-8.46h-1.58v-1.74l2-1.41,1-3.45h2.49v3.51h3v3.09h-3v8.59C122.78,281.2,123.22,281.75,124.1,281.75Z"/><path class="cls-3" d="M143.45,284.75l-4.07-18.24h-.17a29.11,29.11,0,0,1,.28,3.87v14.37H135.8V263.33h6.12l3.67,16.84h.11l3.64-16.84h6.21v21.42h-3.78V270.23a36,36,0,0,1,.2-3.69h-.11l-4.06,18.21Z"/><path class="cls-3" d="M159,264.17a2.1,2.1,0,0,1,.56-1.53,2.14,2.14,0,0,1,1.58-.57,2,2,0,0,1,2.09,2.1,2,2,0,0,1-.58,1.55,2.15,2.15,0,0,1-1.51.54,2.18,2.18,0,0,1-1.55-.54A2,2,0,0,1,159,264.17ZM163,284.75h-3.9V268.43H163Z"/><path class="cls-3" d="M181.65,284.75l-4.07-18.24h-.16a30.89,30.89,0,0,1,.28,3.87v14.37H174V263.33h6.13l3.66,16.84h.12l3.63-16.84h6.21v21.42H190V270.23a33.41,33.41,0,0,1,.21-3.69h-.12L186,284.75Z"/><path class="cls-3" d="M206.11,284.75l-.48-2.09h-.2a4.32,4.32,0,0,1-1.55,1.75,4.21,4.21,0,0,1-2.29.63,3.89,3.89,0,0,1-3.33-1.49,7.38,7.38,0,0,1-1.13-4.47V268.43h3.94v9.72a6.65,6.65,0,0,0,.43,2.69,1.42,1.42,0,0,0,1.38.91,1.9,1.9,0,0,0,1.83-1.26,11,11,0,0,0,.58-4.24v-7.82h3.94v16.32Z"/><path class="cls-3" d="M216.4,284.75h-3.9V262h3.9Z"/><path class="cls-3" d="M225.33,281.75a4.52,4.52,0,0,0,1.77-.41v3.05a5.09,5.09,0,0,1-2.85.65,3.81,3.81,0,0,1-3.15-1.26,6,6,0,0,1-1-3.8v-8.46h-1.58v-1.74l2-1.41,1-3.45H224v3.51h3v3.09h-3v8.59C224,281.2,224.45,281.75,225.33,281.75Z"/><path class="cls-3" d="M229.26,264.17a2.1,2.1,0,0,1,.56-1.53,2.13,2.13,0,0,1,1.58-.57,2,2,0,0,1,2.09,2.1,2,2,0,0,1-.58,1.55,2.17,2.17,0,0,1-1.51.54,2.21,2.21,0,0,1-1.56-.54A2,2,0,0,1,229.26,264.17Zm4.06,20.58h-3.9V268.43h3.9Z"/><path class="cls-3" d="M243.91,271.52h-2.7v13.23h-3.9V271.52h-1.88v-1.95l1.88-1.17v-1.23a6.17,6.17,0,0,1,1.13-4.05,4.55,4.55,0,0,1,3.64-1.32,6.67,6.67,0,0,1,2.94.66l-1,3a3.43,3.43,0,0,0-1.49-.35,1,1,0,0,0-1,.53,3.25,3.25,0,0,0-.31,1.62v1.2h2.7Z"/><path class="cls-3" d="M254.44,284.75l-.48-2.09h-.21a4.29,4.29,0,0,1-1.54,1.75,4.25,4.25,0,0,1-2.3.63,3.89,3.89,0,0,1-3.32-1.49,7.38,7.38,0,0,1-1.13-4.47V268.43h3.94v9.72a6.68,6.68,0,0,0,.42,2.69,1.44,1.44,0,0,0,1.38.91,1.93,1.93,0,0,0,1.84-1.26,11,11,0,0,0,.58-4.24v-7.82h3.94v16.32Z"/><path class="cls-3" d="M269,284.75V275a6.63,6.63,0,0,0-.43-2.68,1.42,1.42,0,0,0-1.38-.9,1.92,1.92,0,0,0-1.84,1.25,10.8,10.8,0,0,0-.59,4.22v7.84h-3.89V268.43h3.09l.46,2.1h.25a4.29,4.29,0,0,1,1.51-1.77,4.18,4.18,0,0,1,2.3-.63,3.85,3.85,0,0,1,3.34,1.52,7.57,7.57,0,0,1,1.1,4.45v10.65Z"/><path class="cls-3" d="M281.42,285a5.12,5.12,0,0,1-4.44-2.12,10.72,10.72,0,0,1-1.52-6.24c0-2.87.48-5,1.44-6.43a5,5,0,0,1,4.46-2.12,7.3,7.3,0,0,1,1.91.26,6.5,6.5,0,0,1,1.78.76l-1.11,3a4.34,4.34,0,0,0-2.15-.71,1.87,1.87,0,0,0-1.8,1.29,10.63,10.63,0,0,0-.55,3.89,9.87,9.87,0,0,0,.55,3.79,1.83,1.83,0,0,0,1.77,1.25,5.65,5.65,0,0,0,3.06-1v3.43A6.3,6.3,0,0,1,281.42,285Z"/><path class="cls-3" d="M287,264.17a2.07,2.07,0,0,1,.57-1.53,2.1,2.1,0,0,1,1.57-.57,2,2,0,0,1,2.09,2.1,2,2,0,0,1-.58,1.55,2.13,2.13,0,0,1-1.51.54,2.2,2.2,0,0,1-1.55-.54A2,2,0,0,1,287,264.17Zm4.06,20.58h-3.9V268.43h3.9Z"/><path class="cls-3" d="M306.51,276.56a10.08,10.08,0,0,1-1.7,6.25,5.93,5.93,0,0,1-8,1.21,6.55,6.55,0,0,1-2.22-2.95,12.2,12.2,0,0,1-.77-4.51,10.13,10.13,0,0,1,1.68-6.2,5.53,5.53,0,0,1,4.68-2.23,5.44,5.44,0,0,1,4.59,2.27A10.12,10.12,0,0,1,306.51,276.56Zm-8.67,0a10.22,10.22,0,0,0,.56,3.85,1.87,1.87,0,0,0,1.79,1.31q2.34,0,2.34-5.16a10,10,0,0,0-.56-3.83,1.89,1.89,0,0,0-3.57,0A10,10,0,0,0,297.84,276.56Z"/><path class="cls-3" d="M317.38,284.75V275a6.66,6.66,0,0,0-.42-2.68,1.42,1.42,0,0,0-1.38-.9,1.92,1.92,0,0,0-1.84,1.25,10.61,10.61,0,0,0-.59,4.22v7.84h-3.9V268.43h3.09l.47,2.1h.25a4.22,4.22,0,0,1,1.51-1.77,4.15,4.15,0,0,1,2.3-.63,3.83,3.83,0,0,1,3.33,1.52,7.49,7.49,0,0,1,1.11,4.45v10.65Z"/><path class="cls-3" d="M332.46,284.75l-.78-2.23h-.09a5.42,5.42,0,0,1-1.79,2,4.53,4.53,0,0,1-2.32.54,3.39,3.39,0,0,1-2.84-1.34,6,6,0,0,1-1-3.75,4.85,4.85,0,0,1,1.41-3.83,6.68,6.68,0,0,1,4.23-1.39l2.17-.09v-1.17q0-2.28-2-2.28a6.77,6.77,0,0,0-3.37,1.14l-1.35-2.7A9.76,9.76,0,0,1,330,268.1a5.09,5.09,0,0,1,3.95,1.48,6.05,6.05,0,0,1,1.35,4.21v11ZM329.07,282a2,2,0,0,0,1.71-1,4.6,4.6,0,0,0,.64-2.56V277.1l-1.2.06a2.77,2.77,0,0,0-2,.76,3,3,0,0,0-.62,2.06C327.64,281.32,328.12,282,329.07,282Z"/><path class="cls-3" d="M342.36,284.75h-3.9V262h3.9Z"/><path class="cls-3" d="M359.06,285a5.89,5.89,0,0,1-4.83-2.17,9.52,9.52,0,0,1-1.76-6.16,10.84,10.84,0,0,1,1.59-6.31,5.13,5.13,0,0,1,4.46-2.27,5.06,5.06,0,0,1,4.2,1.94,8.51,8.51,0,0,1,1.54,5.44v2.08h-7.84a5.37,5.37,0,0,0,.89,3.24,2.85,2.85,0,0,0,2.35,1.07,7.57,7.57,0,0,0,3.89-1.19v3.21A8.55,8.55,0,0,1,359.06,285Zm-2.58-18.47v-.39a18.84,18.84,0,0,0,1.39-2.21c.53-1,.9-1.69,1.13-2.2h4.66v.3a12,12,0,0,1-1.75,2,32.76,32.76,0,0,1-2.69,2.47Zm2,4.56a1.58,1.58,0,0,0-1.38.88,6,6,0,0,0-.63,2.75h3.95a5.83,5.83,0,0,0-.54-2.71A1.56,1.56,0,0,0,358.49,271.13Z"/><path class="cls-3" d="M386.33,276.56a10.08,10.08,0,0,1-1.7,6.25,5.93,5.93,0,0,1-8,1.21,6.55,6.55,0,0,1-2.22-2.95,12.2,12.2,0,0,1-.77-4.51,10.13,10.13,0,0,1,1.68-6.2,5.51,5.51,0,0,1,4.67-2.23,5.44,5.44,0,0,1,4.6,2.27A10.12,10.12,0,0,1,386.33,276.56Zm-8.67,0a10.22,10.22,0,0,0,.56,3.85,1.86,1.86,0,0,0,1.79,1.31q2.34,0,2.34-5.16a9.81,9.81,0,0,0-.57-3.83,1.89,1.89,0,0,0-3.56,0A10,10,0,0,0,377.66,276.56Z"/><path class="cls-3" d="M404.48,284.75l-.77-2.23h-.09a5.5,5.5,0,0,1-1.79,2,4.54,4.54,0,0,1-2.33.54,3.39,3.39,0,0,1-2.83-1.34,6,6,0,0,1-1-3.75,4.86,4.86,0,0,1,1.42-3.83,6.67,6.67,0,0,1,4.22-1.39l2.17-.09v-1.17c0-1.52-.66-2.28-2-2.28a6.77,6.77,0,0,0-3.37,1.14l-1.35-2.7A9.73,9.73,0,0,1,402,268.1a5.06,5.06,0,0,1,3.94,1.48,6,6,0,0,1,1.36,4.21v11ZM401.1,282a2,2,0,0,0,1.71-1,4.6,4.6,0,0,0,.63-2.56V277.1l-1.2.06a2.74,2.74,0,0,0-1.95.76,3,3,0,0,0-.63,2.06C399.66,281.32,400.14,282,401.1,282Z"/><path class="cls-3" d="M419.25,280a4.91,4.91,0,0,1-1.4,3.72,5.71,5.71,0,0,1-4.12,1.34,7.57,7.57,0,0,1-4-1v-3.38a7.32,7.32,0,0,0,1.88.92,5.87,5.87,0,0,0,1.9.37,1.94,1.94,0,0,0,1.38-.45,1.54,1.54,0,0,0,.48-1.18,1.89,1.89,0,0,0-.5-1.3,8.2,8.2,0,0,0-1.83-1.36,7.63,7.63,0,0,1-2.54-2.25,5.05,5.05,0,0,1-.77-2.82,4.08,4.08,0,0,1,1.43-3.3,5.83,5.83,0,0,1,3.91-1.21,7.87,7.87,0,0,1,4.09,1.14l-1.27,2.8a6,6,0,0,0-2.76-.85,1.48,1.48,0,0,0-1.12.39,1.37,1.37,0,0,0-.37,1,1.68,1.68,0,0,0,.46,1.17,8,8,0,0,0,1.72,1.27,11,11,0,0,1,2.14,1.57,4.59,4.59,0,0,1,1,1.47A4.88,4.88,0,0,1,419.25,280Z"/><path class="cls-3" d="M430.47,280a4.91,4.91,0,0,1-1.4,3.72A5.71,5.71,0,0,1,425,285a7.59,7.59,0,0,1-4-1v-3.38a7.32,7.32,0,0,0,1.88.92,5.87,5.87,0,0,0,1.9.37,1.94,1.94,0,0,0,1.38-.45,1.54,1.54,0,0,0,.48-1.18,1.89,1.89,0,0,0-.5-1.3,8.2,8.2,0,0,0-1.83-1.36,7.63,7.63,0,0,1-2.54-2.25,5.05,5.05,0,0,1-.77-2.82,4.08,4.08,0,0,1,1.43-3.3,5.83,5.83,0,0,1,3.91-1.21,7.87,7.87,0,0,1,4.09,1.14l-1.27,2.8a6,6,0,0,0-2.76-.85,1.48,1.48,0,0,0-1.12.39,1.37,1.37,0,0,0-.37,1,1.68,1.68,0,0,0,.46,1.17A8,8,0,0,0,427,275a11,11,0,0,1,2.14,1.57,4.59,4.59,0,0,1,.95,1.47A4.88,4.88,0,0,1,430.47,280Z"/><path class="cls-3" d="M439,285a5.89,5.89,0,0,1-4.83-2.17,9.57,9.57,0,0,1-1.76-6.16,10.77,10.77,0,0,1,1.6-6.31,5.11,5.11,0,0,1,4.45-2.27,5,5,0,0,1,4.2,1.94,8.51,8.51,0,0,1,1.54,5.44v2.08h-7.84a5.3,5.3,0,0,0,.9,3.24,2.82,2.82,0,0,0,2.34,1.07,7.63,7.63,0,0,0,3.9-1.19v3.21A8.59,8.59,0,0,1,439,285Zm-.57-13.91A1.58,1.58,0,0,0,437,272a6,6,0,0,0-.63,2.75h4a6,6,0,0,0-.54-2.71A1.59,1.59,0,0,0,438.38,271.13Z"/><path class="cls-3" d="M454.86,284.75V275a6.46,6.46,0,0,0-.43-2.68,1.42,1.42,0,0,0-1.37-.9,1.93,1.93,0,0,0-1.85,1.25,10.84,10.84,0,0,0-.58,4.22v7.84h-3.9V268.43h3.09l.47,2.1h.25a4,4,0,0,1,3.81-2.4,3.84,3.84,0,0,1,3.33,1.52,7.49,7.49,0,0,1,1.1,4.45v10.65Z"/><path class="cls-3" d="M467.6,281.75a4.61,4.61,0,0,0,1.78-.41v3.05a5.15,5.15,0,0,1-2.86.65,3.81,3.81,0,0,1-3.15-1.26,6,6,0,0,1-1-3.8v-8.46h-1.58v-1.74l2-1.41,1-3.45h2.49v3.51h3v3.09h-3v8.59C466.28,281.2,466.72,281.75,467.6,281.75Z"/><path class="cls-3" d="M483.75,276.56a10.14,10.14,0,0,1-1.7,6.25,5.94,5.94,0,0,1-8,1.21,6.47,6.47,0,0,1-2.21-2.95,12,12,0,0,1-.78-4.51,10.13,10.13,0,0,1,1.68-6.2,5.53,5.53,0,0,1,4.68-2.23A5.44,5.44,0,0,1,482,270.4,10.05,10.05,0,0,1,483.75,276.56Zm-8.68,0a10.22,10.22,0,0,0,.56,3.85,1.87,1.87,0,0,0,1.79,1.31q2.34,0,2.34-5.16a10,10,0,0,0-.56-3.83,1.89,1.89,0,0,0-3.57,0A10,10,0,0,0,475.07,276.56Z"/><path class="cls-3" d="M498.19,285a4,4,0,0,1-3.56-2.22,12.33,12.33,0,0,1-1.3-6.2,12.79,12.79,0,0,1,1.27-6.24,3.9,3.9,0,0,1,3.52-2.25,3.38,3.38,0,0,1,1.92.54,5.07,5.07,0,0,1,1.5,1.86h.24q-.18-2.23-.18-3.12V262h3.9v22.79h-2.9l-.66-2.12h-.13A3.91,3.91,0,0,1,498.19,285Zm1.26-3.29a1.66,1.66,0,0,0,1.58-1,9.33,9.33,0,0,0,.54-3.6v-.51a11.25,11.25,0,0,0-.5-4,1.72,1.72,0,0,0-1.67-1.16c-.72,0-1.24.45-1.57,1.33a11.58,11.58,0,0,0-.49,3.86,11,11,0,0,0,.5,3.8A1.69,1.69,0,0,0,499.45,281.75Z"/><path class="cls-3" d="M514.8,285a5.89,5.89,0,0,1-4.83-2.17,9.57,9.57,0,0,1-1.76-6.16,10.84,10.84,0,0,1,1.59-6.31,5.13,5.13,0,0,1,4.46-2.27,5,5,0,0,1,4.2,1.94,8.51,8.51,0,0,1,1.54,5.44v2.08h-7.84a5.3,5.3,0,0,0,.9,3.24,2.82,2.82,0,0,0,2.34,1.07,7.63,7.63,0,0,0,3.9-1.19v3.21A8.59,8.59,0,0,1,514.8,285Zm-.57-13.91a1.58,1.58,0,0,0-1.38.88,6,6,0,0,0-.63,2.75h4a5.82,5.82,0,0,0-.55-2.71A1.56,1.56,0,0,0,514.23,271.13Z"/><path class="cls-3" d="M532.6,284.75l-4.26-16.32h4l2.08,9.45c.09.44.19,1.08.31,1.93s.2,1.45.23,1.82h.06q0-.44.12-1.26c.08-.55.15-1.05.23-1.51s.83-3.93,2.26-10.43h4l-4.28,16.32Z"/><path class="cls-3" d="M551.36,284.75l-.77-2.23h-.09a5.5,5.5,0,0,1-1.79,2,4.54,4.54,0,0,1-2.33.54,3.39,3.39,0,0,1-2.83-1.34,6,6,0,0,1-1-3.75,4.86,4.86,0,0,1,1.42-3.83,6.67,6.67,0,0,1,4.22-1.39l2.17-.09v-1.17q0-2.28-2-2.28a6.77,6.77,0,0,0-3.36,1.14l-1.35-2.7a9.73,9.73,0,0,1,5.29-1.53,5.06,5.06,0,0,1,3.94,1.48,6,6,0,0,1,1.36,4.21v11ZM548,282a2,2,0,0,0,1.71-1,4.6,4.6,0,0,0,.63-2.56V277.1l-1.2.06a2.74,2.74,0,0,0-2,.76,3,3,0,0,0-.63,2.06C546.54,281.32,547,282,548,282Z"/><path class="cls-3" d="M566.13,280a4.91,4.91,0,0,1-1.4,3.72,5.71,5.71,0,0,1-4.12,1.34,7.57,7.57,0,0,1-4-1v-3.38a7.32,7.32,0,0,0,1.88.92,5.87,5.87,0,0,0,1.9.37,1.94,1.94,0,0,0,1.38-.45,1.54,1.54,0,0,0,.48-1.18,1.89,1.89,0,0,0-.5-1.3,8.2,8.2,0,0,0-1.83-1.36,7.63,7.63,0,0,1-2.54-2.25,5.05,5.05,0,0,1-.77-2.82,4.08,4.08,0,0,1,1.43-3.3,5.83,5.83,0,0,1,3.91-1.21,7.87,7.87,0,0,1,4.09,1.14l-1.27,2.8a6,6,0,0,0-2.76-.85,1.48,1.48,0,0,0-1.12.39,1.37,1.37,0,0,0-.37,1,1.68,1.68,0,0,0,.46,1.17A8,8,0,0,0,562.7,275a11,11,0,0,1,2.14,1.57,4.59,4.59,0,0,1,.95,1.47A4.88,4.88,0,0,1,566.13,280Z"/><path class="cls-3" d="M580.67,276.56a10.08,10.08,0,0,1-1.7,6.25,5.93,5.93,0,0,1-8,1.21,6.55,6.55,0,0,1-2.22-2.95,12.2,12.2,0,0,1-.77-4.51,10.13,10.13,0,0,1,1.68-6.2,5.53,5.53,0,0,1,4.68-2.23A5.44,5.44,0,0,1,579,270.4,10.12,10.12,0,0,1,580.67,276.56Zm-8.67,0a10.22,10.22,0,0,0,.56,3.85,1.87,1.87,0,0,0,1.79,1.31q2.34,0,2.34-5.16a10,10,0,0,0-.56-3.83,1.89,1.89,0,0,0-3.57,0A10,10,0,0,0,572,276.56Z"/><path class="cls-3" d="M599.59,280a4.91,4.91,0,0,1-1.4,3.72,5.74,5.74,0,0,1-4.13,1.34,7.62,7.62,0,0,1-4-1v-3.38a7.55,7.55,0,0,0,1.89.92,5.81,5.81,0,0,0,1.89.37,2,2,0,0,0,1.39-.45,1.57,1.57,0,0,0,.47-1.18,1.88,1.88,0,0,0-.49-1.3,8.57,8.57,0,0,0-1.84-1.36,7.74,7.74,0,0,1-2.54-2.25,5.14,5.14,0,0,1-.77-2.82,4.11,4.11,0,0,1,1.43-3.3,5.85,5.85,0,0,1,3.92-1.21,7.87,7.87,0,0,1,4.09,1.14l-1.28,2.8a5.89,5.89,0,0,0-2.75-.85,1.48,1.48,0,0,0-1.12.39,1.38,1.38,0,0,0-.38,1,1.69,1.69,0,0,0,.47,1.17,7.7,7.7,0,0,0,1.72,1.27,11.35,11.35,0,0,1,2.14,1.57,4.76,4.76,0,0,1,1,1.47A5.07,5.07,0,0,1,599.59,280Z"/><path class="cls-3" d="M610,284.75l-.77-2.23h-.09a5.5,5.5,0,0,1-1.79,2,4.54,4.54,0,0,1-2.33.54,3.39,3.39,0,0,1-2.83-1.34,6,6,0,0,1-1-3.75,4.85,4.85,0,0,1,1.41-3.83,6.68,6.68,0,0,1,4.23-1.39l2.16-.09v-1.17c0-1.52-.66-2.28-2-2.28a6.77,6.77,0,0,0-3.37,1.14l-1.35-2.7a9.73,9.73,0,0,1,5.29-1.53,5.09,5.09,0,0,1,3.95,1.48,6.05,6.05,0,0,1,1.35,4.21v11ZM606.66,282a2,2,0,0,0,1.71-1,4.6,4.6,0,0,0,.63-2.56V277.1l-1.2.06a2.74,2.74,0,0,0-1.95.76,3,3,0,0,0-.63,2.06C605.22,281.32,605.7,282,606.66,282Z"/><path class="cls-3" d="M624.18,284.75V275a6.66,6.66,0,0,0-.42-2.68,1.44,1.44,0,0,0-1.38-.9,1.93,1.93,0,0,0-1.85,1.25,10.84,10.84,0,0,0-.58,4.22v7.84h-3.9V268.43h3.09l.47,2.1h.25a4,4,0,0,1,3.81-2.4,3.84,3.84,0,0,1,3.33,1.52,7.49,7.49,0,0,1,1.11,4.45v10.65Z"/><path class="cls-3" d="M631.12,264.17a2.07,2.07,0,0,1,.57-1.53,2.39,2.39,0,0,1,3.1,0,2.07,2.07,0,0,1,.57,1.53,2,2,0,0,1-.59,1.55,2.13,2.13,0,0,1-1.51.54,2.2,2.2,0,0,1-1.55-.54A2,2,0,0,1,631.12,264.17Zm4.06,20.58h-3.9V268.43h3.9Z"/><path class="cls-3" d="M644.19,281.75a4.52,4.52,0,0,0,1.77-.41v3.05a5.09,5.09,0,0,1-2.85.65,3.81,3.81,0,0,1-3.15-1.26,5.94,5.94,0,0,1-1-3.8v-8.46h-1.58v-1.74l2-1.41,1-3.45h2.49v3.51h3v3.09h-3v8.59C642.87,281.2,643.31,281.75,644.19,281.75Z"/><path class="cls-3" d="M656.25,284.75l-.78-2.23h-.09a5.5,5.5,0,0,1-1.79,2,4.54,4.54,0,0,1-2.33.54,3.39,3.39,0,0,1-2.83-1.34,6,6,0,0,1-1-3.75,4.85,4.85,0,0,1,1.41-3.83,6.68,6.68,0,0,1,4.23-1.39l2.17-.09v-1.17q0-2.28-2-2.28a6.77,6.77,0,0,0-3.37,1.14l-1.35-2.7a9.73,9.73,0,0,1,5.29-1.53,5.09,5.09,0,0,1,4,1.48,6.05,6.05,0,0,1,1.35,4.21v11ZM652.86,282a2,2,0,0,0,1.71-1,4.6,4.6,0,0,0,.64-2.56V277.1l-1.21.06a2.76,2.76,0,0,0-2,.76,3,3,0,0,0-.62,2.06C651.43,281.32,651.9,282,652.86,282Zm-1-15.43v-.39a17.48,17.48,0,0,0,1.4-2.21c.52-1,.9-1.69,1.12-2.2h4.66v.3a11.31,11.31,0,0,1-1.74,2,34.51,34.51,0,0,1-2.7,2.47Z"/><path class="cls-3" d="M669.21,268.13a4.82,4.82,0,0,1,1.41.21l-.46,3.78a3.47,3.47,0,0,0-1.07-.14,2.47,2.47,0,0,0-2.18,1.12,5.78,5.78,0,0,0-.76,3.26v8.39h-3.9V268.43h3.21l.44,2.55H666a6,6,0,0,1,1.41-2.2A2.6,2.6,0,0,1,669.21,268.13Z"/><path class="cls-3" d="M672.23,264.17a2.06,2.06,0,0,1,.56-1.53,2.13,2.13,0,0,1,1.58-.57,2.16,2.16,0,0,1,1.5,3.65,2.12,2.12,0,0,1-1.5.54,2.21,2.21,0,0,1-1.56-.54A2,2,0,0,1,672.23,264.17Zm4,20.58h-3.89V268.43h3.89Z"/><path class="cls-3" d="M691.71,276.56a10.14,10.14,0,0,1-1.7,6.25,5.94,5.94,0,0,1-8,1.21,6.54,6.54,0,0,1-2.21-2.95,12,12,0,0,1-.78-4.51,10.06,10.06,0,0,1,1.69-6.2,5.51,5.51,0,0,1,4.67-2.23A5.44,5.44,0,0,1,690,270.4,10.05,10.05,0,0,1,691.71,276.56Zm-8.67,0a10.25,10.25,0,0,0,.55,3.85,1.88,1.88,0,0,0,1.79,1.31q2.34,0,2.34-5.16a9.84,9.84,0,0,0-.56-3.83,1.89,1.89,0,0,0-3.57,0A10.07,10.07,0,0,0,683,276.56Z"/><path class="cls-3" d="M706.15,285a4,4,0,0,1-3.56-2.22,12.33,12.33,0,0,1-1.3-6.2,12.79,12.79,0,0,1,1.27-6.24,3.91,3.91,0,0,1,3.52-2.25,3.44,3.44,0,0,1,1.93.54,5.07,5.07,0,0,1,1.5,1.86h.23c-.12-1.49-.17-2.53-.17-3.12V262h3.89v22.79h-2.9l-.66-2.12h-.13A3.91,3.91,0,0,1,706.15,285Zm1.26-3.29a1.66,1.66,0,0,0,1.58-1,9.1,9.1,0,0,0,.55-3.6v-.51a11,11,0,0,0-.51-4,1.72,1.72,0,0,0-1.66-1.16c-.72,0-1.25.45-1.58,1.33a11.85,11.85,0,0,0-.49,3.86,11,11,0,0,0,.5,3.8A1.69,1.69,0,0,0,707.41,281.75Z"/><path class="cls-3" d="M724.74,284.75l-.77-2.23h-.09a5.5,5.5,0,0,1-1.79,2,4.56,4.56,0,0,1-2.33.54,3.39,3.39,0,0,1-2.83-1.34,6,6,0,0,1-1-3.75,4.82,4.82,0,0,1,1.42-3.83,6.67,6.67,0,0,1,4.22-1.39l2.17-.09v-1.17q0-2.28-2-2.28a6.8,6.8,0,0,0-3.37,1.14l-1.34-2.7a9.73,9.73,0,0,1,5.29-1.53,5.06,5.06,0,0,1,3.94,1.48,6,6,0,0,1,1.36,4.21v11ZM721.36,282a2,2,0,0,0,1.7-1,4.52,4.52,0,0,0,.64-2.56V277.1l-1.2.06a2.74,2.74,0,0,0-2,.76,3,3,0,0,0-.63,2.06C719.92,281.32,720.4,282,721.36,282Z"/><path class="cls-3" d="M750.7,284.75h-4.15l-3.06-7.68-2.84,7.68H736.5l4.9-11.13-4.53-10.29h4l2.83,7.05,2.45-7.05h4.17l-4.52,10.46Z"/><path class="cls-3" d="M752.22,264.17a2.07,2.07,0,0,1,.57-1.53,2.1,2.1,0,0,1,1.57-.57,2,2,0,0,1,1.52.57,2.07,2.07,0,0,1,.58,1.53,2,2,0,0,1-.59,1.55,2.13,2.13,0,0,1-1.51.54,2.2,2.2,0,0,1-1.55-.54A2,2,0,0,1,752.22,264.17Zm4.06,20.58h-3.9V268.43h3.9Z"/><path class="cls-3" d="M767.62,284.75l-.78-2.23h-.09a5.49,5.49,0,0,1-1.78,2,4.59,4.59,0,0,1-2.33.54,3.41,3.41,0,0,1-2.84-1.34,6,6,0,0,1-1-3.75,4.85,4.85,0,0,1,1.41-3.83,6.7,6.7,0,0,1,4.23-1.39l2.17-.09v-1.17q0-2.28-2-2.28a6.77,6.77,0,0,0-3.37,1.14l-1.35-2.7a9.76,9.76,0,0,1,5.29-1.53,5.07,5.07,0,0,1,4,1.48,6.05,6.05,0,0,1,1.35,4.21v11ZM764.23,282a2,2,0,0,0,1.71-1,4.6,4.6,0,0,0,.64-2.56V277.1l-1.2.06a2.79,2.79,0,0,0-2,.76,3,3,0,0,0-.62,2.06C762.8,281.32,763.28,282,764.23,282Z"/><path class="cls-3" d="M785.71,276.56a10.14,10.14,0,0,1-1.7,6.25,5.94,5.94,0,0,1-8,1.21,6.54,6.54,0,0,1-2.21-2.95,12,12,0,0,1-.78-4.51,10.06,10.06,0,0,1,1.69-6.2,5.51,5.51,0,0,1,4.67-2.23A5.44,5.44,0,0,1,784,270.4,10.05,10.05,0,0,1,785.71,276.56Zm-8.67,0a10.25,10.25,0,0,0,.55,3.85,1.87,1.87,0,0,0,1.79,1.31q2.34,0,2.34-5.16a9.84,9.84,0,0,0-.56-3.83,1.89,1.89,0,0,0-3.57,0A10.07,10.07,0,0,0,777,276.56Z"/><path class="cls-3" d="M804.65,284.75V275c0-2.39-.59-3.58-1.77-3.58a1.89,1.89,0,0,0-1.85,1.28,11.06,11.06,0,0,0-.56,4.11v7.92h-3.92V275c0-2.39-.6-3.58-1.8-3.58a1.9,1.9,0,0,0-1.83,1.27,10.89,10.89,0,0,0-.58,4.2v7.84h-3.89V268.43h3.09l.47,2.1h.25a4,4,0,0,1,1.6-1.83,4.38,4.38,0,0,1,2.18-.57,3.88,3.88,0,0,1,4,2.82h.15a4.16,4.16,0,0,1,4-2.82,3.79,3.79,0,0,1,3.28,1.52,7.42,7.42,0,0,1,1.12,4.45v10.65Z"/><path class="cls-3" d="M811.59,264.17a2.07,2.07,0,0,1,.57-1.53,2.1,2.1,0,0,1,1.57-.57,2,2,0,0,1,1.52.57,2.07,2.07,0,0,1,.58,1.53,2,2,0,0,1-.59,1.55,2.13,2.13,0,0,1-1.51.54,2.2,2.2,0,0,1-1.55-.54A2,2,0,0,1,811.59,264.17Zm4.06,20.58h-3.9V268.43h3.9Z"/><path class="cls-3" d="M819,282.74a2.43,2.43,0,0,1,.61-1.77,2.4,2.4,0,0,1,1.81-.63,2.17,2.17,0,0,1,2.43,2.4,2.37,2.37,0,0,1-.64,1.78,2.42,2.42,0,0,1-4.21-1.78Z"/><path class="cls-3" d="M70.56,305.93a7.36,7.36,0,0,1-1.72,5.23,6.52,6.52,0,0,1-5,1.83h-1v7.76h-4V299.33h5.44Q70.56,299.33,70.56,305.93Zm-7.69,3.6h.76a2.8,2.8,0,0,0,2.18-.8,5.13,5.13,0,0,0,.06-5.14,2.48,2.48,0,0,0-2-.81h-1Z"/><path class="cls-3" d="M85.1,312.56a10.08,10.08,0,0,1-1.7,6.25A5.51,5.51,0,0,1,78.75,321a5.61,5.61,0,0,1-3.32-1,6.61,6.61,0,0,1-2.21-2.95,12.2,12.2,0,0,1-.77-4.51,10.13,10.13,0,0,1,1.68-6.2,5.51,5.51,0,0,1,4.67-2.23,5.44,5.44,0,0,1,4.6,2.27A10.12,10.12,0,0,1,85.1,312.56Zm-8.67,0a10.22,10.22,0,0,0,.56,3.85,1.86,1.86,0,0,0,1.78,1.31q2.36,0,2.35-5.16a9.81,9.81,0,0,0-.57-3.83,1.89,1.89,0,0,0-3.56,0A10,10,0,0,0,76.43,312.56Z"/><path class="cls-3" d="M92.13,321a4,4,0,0,1-3.56-2.22,12.44,12.44,0,0,1-1.3-6.2,12.78,12.78,0,0,1,1.28-6.24,3.89,3.89,0,0,1,3.51-2.25,3.44,3.44,0,0,1,1.93.54,5.07,5.07,0,0,1,1.5,1.86h.23c-.11-1.49-.17-2.53-.17-3.12V298h3.89v22.79h-2.9l-.66-2.12h-.13A3.9,3.9,0,0,1,92.13,321Zm1.26-3.29a1.67,1.67,0,0,0,1.59-1,9.33,9.33,0,0,0,.54-3.6v-.51a11,11,0,0,0-.51-4,1.71,1.71,0,0,0-1.66-1.16c-.72,0-1.25.45-1.58,1.33a11.85,11.85,0,0,0-.49,3.86,11,11,0,0,0,.5,3.8A1.69,1.69,0,0,0,93.39,317.75Z"/><path class="cls-3" d="M108.75,321a5.86,5.86,0,0,1-4.83-2.17,9.52,9.52,0,0,1-1.77-6.16,10.84,10.84,0,0,1,1.6-6.31,5.52,5.52,0,0,1,8.66-.33,8.57,8.57,0,0,1,1.54,5.44v2.08h-7.84a5.37,5.37,0,0,0,.89,3.24,2.85,2.85,0,0,0,2.35,1.07,7.59,7.59,0,0,0,3.89-1.19v3.21A8.57,8.57,0,0,1,108.75,321Zm-.58-13.91a1.58,1.58,0,0,0-1.37.88,6,6,0,0,0-.63,2.75h4a6,6,0,0,0-.54-2.71A1.57,1.57,0,0,0,108.17,307.13Z"/><path class="cls-3" d="M132.7,316a4.91,4.91,0,0,1-1.4,3.72,5.74,5.74,0,0,1-4.13,1.34,7.62,7.62,0,0,1-4-1v-3.38a7.55,7.55,0,0,0,1.89.92A5.81,5.81,0,0,0,127,318a2,2,0,0,0,1.39-.45,1.57,1.57,0,0,0,.47-1.18,1.88,1.88,0,0,0-.49-1.3,8.57,8.57,0,0,0-1.84-1.36,7.74,7.74,0,0,1-2.54-2.25,5.14,5.14,0,0,1-.77-2.82,4.11,4.11,0,0,1,1.43-3.3,5.85,5.85,0,0,1,3.92-1.21,7.87,7.87,0,0,1,4.09,1.14l-1.28,2.8a5.89,5.89,0,0,0-2.75-.85,1.48,1.48,0,0,0-1.12.39,1.37,1.37,0,0,0-.37,1,1.68,1.68,0,0,0,.46,1.17,7.7,7.7,0,0,0,1.72,1.27,11.35,11.35,0,0,1,2.14,1.57,4.76,4.76,0,0,1,1,1.47A5.07,5.07,0,0,1,132.7,316Z"/><path class="cls-3" d="M141.18,321a5.89,5.89,0,0,1-4.83-2.17,9.52,9.52,0,0,1-1.76-6.16,10.84,10.84,0,0,1,1.59-6.31,5.13,5.13,0,0,1,4.45-2.27,5.07,5.07,0,0,1,4.21,1.94,8.57,8.57,0,0,1,1.54,5.44v2.08h-7.84a5.37,5.37,0,0,0,.89,3.24,2.85,2.85,0,0,0,2.35,1.07,7.57,7.57,0,0,0,3.89-1.19v3.21A8.55,8.55,0,0,1,141.18,321Zm-.57-13.91a1.58,1.58,0,0,0-1.38.88,6,6,0,0,0-.63,2.75h4a6,6,0,0,0-.54-2.71A1.56,1.56,0,0,0,140.61,307.13Z"/><path class="cls-3" d="M155.91,304.13a4.82,4.82,0,0,1,1.41.21l-.45,3.78a3.51,3.51,0,0,0-1.07-.14,2.49,2.49,0,0,0-2.19,1.12,5.86,5.86,0,0,0-.76,3.26v8.39H149V304.43h3.2l.44,2.55h.13a6,6,0,0,1,1.41-2.2A2.62,2.62,0,0,1,155.91,304.13Z"/><path class="cls-3" d="M175.29,320.75l-.48-2.09h-.21a4.11,4.11,0,0,1-3.83,2.38,3.89,3.89,0,0,1-3.33-1.49,7.38,7.38,0,0,1-1.13-4.47V304.43h3.94v9.72a6.65,6.65,0,0,0,.43,2.69,1.42,1.42,0,0,0,1.38.91,1.9,1.9,0,0,0,1.83-1.26,11,11,0,0,0,.58-4.24v-7.82h3.94v16.32Z"/><path class="cls-3" d="M190.44,316a4.91,4.91,0,0,1-1.4,3.72,5.71,5.71,0,0,1-4.12,1.34,7.59,7.59,0,0,1-4-1v-3.38a7.48,7.48,0,0,0,1.88.92,5.87,5.87,0,0,0,1.9.37,1.94,1.94,0,0,0,1.38-.45,1.54,1.54,0,0,0,.48-1.18,1.89,1.89,0,0,0-.5-1.3,8.2,8.2,0,0,0-1.83-1.36,7.63,7.63,0,0,1-2.54-2.25,5.14,5.14,0,0,1-.77-2.82,4.08,4.08,0,0,1,1.43-3.3,5.83,5.83,0,0,1,3.91-1.21,7.87,7.87,0,0,1,4.09,1.14l-1.27,2.8a6,6,0,0,0-2.76-.85,1.5,1.5,0,0,0-1.12.39,1.37,1.37,0,0,0-.37,1,1.68,1.68,0,0,0,.46,1.17A8,8,0,0,0,187,311a11,11,0,0,1,2.14,1.57,4.59,4.59,0,0,1,.95,1.47A4.88,4.88,0,0,1,190.44,316Z"/><path class="cls-3" d="M200.9,320.75l-.78-2.23H200a5.49,5.49,0,0,1-1.78,2,4.56,4.56,0,0,1-2.33.54,3.41,3.41,0,0,1-2.84-1.34,6.1,6.1,0,0,1-1-3.75,4.85,4.85,0,0,1,1.41-3.83,6.73,6.73,0,0,1,4.23-1.39l2.17-.09v-1.17q0-2.28-2-2.28a6.77,6.77,0,0,0-3.37,1.14l-1.35-2.7a9.78,9.78,0,0,1,5.29-1.53,5.07,5.07,0,0,1,4,1.48,6.05,6.05,0,0,1,1.36,4.21v11ZM197.51,318a2,2,0,0,0,1.71-1,4.52,4.52,0,0,0,.64-2.56V313.1l-1.2.06a2.79,2.79,0,0,0-2,.76,3,3,0,0,0-.62,2.06C196.08,317.32,196.56,318,197.51,318Z"/><path class="cls-3" d="M211.2,321a4,4,0,0,1-3.56-2.22,12.32,12.32,0,0,1-1.31-6.2,12.78,12.78,0,0,1,1.28-6.24,3.9,3.9,0,0,1,3.51-2.25,3.39,3.39,0,0,1,1.93.54,5.07,5.07,0,0,1,1.5,1.86h.24q-.18-2.23-.18-3.12V298h3.9v22.79h-2.9l-.66-2.12h-.14A3.9,3.9,0,0,1,211.2,321Zm1.26-3.29a1.66,1.66,0,0,0,1.58-1,9.33,9.33,0,0,0,.54-3.6v-.51a11.25,11.25,0,0,0-.5-4,1.73,1.73,0,0,0-1.67-1.16c-.72,0-1.25.45-1.57,1.33a11.58,11.58,0,0,0-.49,3.86,11,11,0,0,0,.49,3.8A1.7,1.7,0,0,0,212.46,317.75Z"/><path class="cls-3" d="M233.87,312.56a10.08,10.08,0,0,1-1.7,6.25,5.52,5.52,0,0,1-4.66,2.23,5.58,5.58,0,0,1-3.31-1,6.61,6.61,0,0,1-2.21-2.95,12,12,0,0,1-.77-4.51,10.13,10.13,0,0,1,1.68-6.2,5.51,5.51,0,0,1,4.67-2.23,5.44,5.44,0,0,1,4.6,2.27A10.12,10.12,0,0,1,233.87,312.56Zm-8.67,0a10.22,10.22,0,0,0,.56,3.85,1.86,1.86,0,0,0,1.78,1.31q2.36,0,2.35-5.16a9.81,9.81,0,0,0-.57-3.83,1.89,1.89,0,0,0-3.56,0A10,10,0,0,0,225.2,312.56Z"/><path class="cls-3" d="M249.41,321a5.09,5.09,0,0,1-4.43-2.12,10.64,10.64,0,0,1-1.53-6.24c0-2.87.48-5,1.45-6.43a5,5,0,0,1,4.46-2.12,7.23,7.23,0,0,1,1.9.26,6.71,6.71,0,0,1,1.79.76l-1.12,3a4.31,4.31,0,0,0-2.15-.71,1.85,1.85,0,0,0-1.79,1.29,10.42,10.42,0,0,0-.55,3.89,10.1,10.1,0,0,0,.54,3.79,1.83,1.83,0,0,0,1.77,1.25,5.62,5.62,0,0,0,3.06-1v3.43A6.28,6.28,0,0,1,249.41,321Z"/><path class="cls-3" d="M267.24,312.56a10.08,10.08,0,0,1-1.7,6.25,5.52,5.52,0,0,1-4.66,2.23,5.58,5.58,0,0,1-3.31-1,6.61,6.61,0,0,1-2.21-2.95,12,12,0,0,1-.77-4.51,10.13,10.13,0,0,1,1.68-6.2,5.51,5.51,0,0,1,4.67-2.23,5.41,5.41,0,0,1,4.59,2.27A10.05,10.05,0,0,1,267.24,312.56Zm-8.67,0a10.22,10.22,0,0,0,.56,3.85,1.86,1.86,0,0,0,1.78,1.31q2.35,0,2.35-5.16a9.81,9.81,0,0,0-.57-3.83,1.89,1.89,0,0,0-3.56,0A10,10,0,0,0,258.57,312.56Z"/><path class="cls-3" d="M286.18,320.75V311c0-2.39-.59-3.58-1.77-3.58a1.89,1.89,0,0,0-1.85,1.28,11.1,11.1,0,0,0-.55,4.11v7.92h-3.93V311c0-2.39-.6-3.58-1.8-3.58a1.9,1.9,0,0,0-1.83,1.27,11.14,11.14,0,0,0-.57,4.2v7.84H270V304.43h3.09l.47,2.1h.25a4,4,0,0,1,1.6-1.83,4.41,4.41,0,0,1,2.18-.57,3.88,3.88,0,0,1,4,2.82h.15a4.16,4.16,0,0,1,4-2.82,3.82,3.82,0,0,1,3.29,1.52,7.49,7.49,0,0,1,1.12,4.45v10.65Z"/><path class="cls-3" d="M308.67,320.75l-.78-2.23h-.09a5.49,5.49,0,0,1-1.78,2,4.59,4.59,0,0,1-2.33.54,3.41,3.41,0,0,1-2.84-1.34,6,6,0,0,1-1-3.75,4.85,4.85,0,0,1,1.41-3.83,6.7,6.7,0,0,1,4.23-1.39l2.17-.09v-1.17q0-2.28-2-2.28a6.77,6.77,0,0,0-3.37,1.14l-1.35-2.7a9.76,9.76,0,0,1,5.29-1.53,5.09,5.09,0,0,1,3.95,1.48,6.05,6.05,0,0,1,1.35,4.21v11ZM305.28,318a2,2,0,0,0,1.71-1,4.6,4.6,0,0,0,.64-2.56V313.1l-1.2.06a2.77,2.77,0,0,0-2,.76,3,3,0,0,0-.62,2.06C303.85,317.32,304.33,318,305.28,318Z"/><path class="cls-3" d="M314.19,328a4.86,4.86,0,0,1-2-.37v-3.24a3.41,3.41,0,0,0,1.26.27q1.38,0,1.38-2.49v-17.7h3.9v18.21a5.91,5.91,0,0,1-1.18,3.93A4.11,4.11,0,0,1,314.19,328Zm.45-27.79a2.2,2.2,0,1,1,2.13,2.09,2.18,2.18,0,0,1-1.54-.54A2,2,0,0,1,314.64,300.17Z"/><path class="cls-3" d="M330.82,320.75l-.49-2.09h-.2a4.14,4.14,0,0,1-3.84,2.38,3.91,3.91,0,0,1-3.33-1.49,7.38,7.38,0,0,1-1.12-4.47V304.43h3.94v9.72a6.68,6.68,0,0,0,.42,2.69,1.42,1.42,0,0,0,1.38.91,1.93,1.93,0,0,0,1.84-1.26,11.16,11.16,0,0,0,.58-4.24v-7.82h3.94v16.32Z"/><path class="cls-3" d="M346,316a4.87,4.87,0,0,1-1.4,3.72,5.69,5.69,0,0,1-4.12,1.34,7.62,7.62,0,0,1-4-1v-3.38a7.65,7.65,0,0,0,1.88.92,5.87,5.87,0,0,0,1.9.37,1.91,1.91,0,0,0,1.38-.45,1.54,1.54,0,0,0,.48-1.18,1.89,1.89,0,0,0-.5-1.3,8.2,8.2,0,0,0-1.83-1.36,7.63,7.63,0,0,1-2.54-2.25,5.14,5.14,0,0,1-.77-2.82,4.11,4.11,0,0,1,1.43-3.3,5.85,5.85,0,0,1,3.92-1.21,7.86,7.86,0,0,1,4.08,1.14l-1.27,2.8a5.92,5.92,0,0,0-2.75-.85,1.5,1.5,0,0,0-1.13.39,1.41,1.41,0,0,0-.37,1,1.73,1.73,0,0,0,.46,1.17,8,8,0,0,0,1.72,1.27,11,11,0,0,1,2.14,1.57,4.79,4.79,0,0,1,1,1.47A5.07,5.07,0,0,1,346,316Z"/><path class="cls-3" d="M354.09,317.75a4.52,4.52,0,0,0,1.77-.41v3.05A5.09,5.09,0,0,1,353,321a3.81,3.81,0,0,1-3.15-1.26,6,6,0,0,1-1-3.8v-8.46h-1.58v-1.74l2-1.41,1-3.45h2.49v3.51h3v3.09h-3v8.59C352.77,317.2,353.21,317.75,354.09,317.75Z"/><path class="cls-3" d="M364.17,321a5.89,5.89,0,0,1-4.83-2.17,9.57,9.57,0,0,1-1.76-6.16,10.77,10.77,0,0,1,1.6-6.31,5.11,5.11,0,0,1,4.45-2.27,5,5,0,0,1,4.2,1.94,8.51,8.51,0,0,1,1.54,5.44v2.08h-7.84a5.3,5.3,0,0,0,.9,3.24,2.82,2.82,0,0,0,2.34,1.07,7.63,7.63,0,0,0,3.9-1.19v3.21A8.59,8.59,0,0,1,364.17,321Zm-.57-13.91a1.58,1.58,0,0,0-1.38.88,6,6,0,0,0-.63,2.75h4a6,6,0,0,0-.54-2.71A1.59,1.59,0,0,0,363.6,307.13Z"/><path class="cls-3" d="M383.65,321a4,4,0,0,1-3.56-2.22,12.33,12.33,0,0,1-1.3-6.2,12.79,12.79,0,0,1,1.27-6.24,3.91,3.91,0,0,1,3.52-2.25,3.44,3.44,0,0,1,1.93.54,5.07,5.07,0,0,1,1.5,1.86h.23c-.12-1.49-.17-2.53-.17-3.12V298H391v22.79h-2.9l-.66-2.12h-.13A3.91,3.91,0,0,1,383.65,321Zm1.26-3.29a1.66,1.66,0,0,0,1.58-1,9.1,9.1,0,0,0,.55-3.6v-.51a11,11,0,0,0-.51-4,1.72,1.72,0,0,0-1.66-1.16c-.72,0-1.25.45-1.58,1.33a11.85,11.85,0,0,0-.49,3.86,11,11,0,0,0,.5,3.8A1.69,1.69,0,0,0,384.91,317.75Z"/><path class="cls-3" d="M400.26,321a5.86,5.86,0,0,1-4.82-2.17,9.52,9.52,0,0,1-1.77-6.16,10.77,10.77,0,0,1,1.6-6.31,5.52,5.52,0,0,1,8.66-.33,8.57,8.57,0,0,1,1.53,5.44v2.08h-7.83a5.3,5.3,0,0,0,.89,3.24,2.84,2.84,0,0,0,2.34,1.07,7.63,7.63,0,0,0,3.9-1.19v3.21A8.59,8.59,0,0,1,400.26,321Zm-.57-13.91a1.58,1.58,0,0,0-1.37.88,5.8,5.8,0,0,0-.63,2.75h3.95a6,6,0,0,0-.54-2.71A1.57,1.57,0,0,0,399.69,307.13Z"/><path class="cls-3" d="M421.12,317.75a4.61,4.61,0,0,0,1.78-.41v3.05A5.15,5.15,0,0,1,420,321a3.81,3.81,0,0,1-3.15-1.26,6,6,0,0,1-1-3.8v-8.46h-1.58v-1.74l2-1.41,1-3.45h2.49v3.51h3v3.09h-3v8.59C419.8,317.2,420.24,317.75,421.12,317.75Z"/><path class="cls-3" d="M431.2,321a5.86,5.86,0,0,1-4.82-2.17,9.52,9.52,0,0,1-1.77-6.16,10.77,10.77,0,0,1,1.6-6.31,5.12,5.12,0,0,1,4.45-2.27,5,5,0,0,1,4.2,1.94,8.51,8.51,0,0,1,1.54,5.44v2.08h-7.84a5.3,5.3,0,0,0,.9,3.24,2.83,2.83,0,0,0,2.34,1.07,7.63,7.63,0,0,0,3.9-1.19v3.21A8.59,8.59,0,0,1,431.2,321Zm-.57-13.91a1.58,1.58,0,0,0-1.38.88,6,6,0,0,0-.63,2.75h4a6,6,0,0,0-.54-2.71A1.58,1.58,0,0,0,430.63,307.13Z"/><path class="cls-3" d="M455.18,320.75V311c0-2.39-.59-3.58-1.77-3.58a1.89,1.89,0,0,0-1.85,1.28,11.1,11.1,0,0,0-.55,4.11v7.92h-3.93V311c0-2.39-.6-3.58-1.8-3.58a1.9,1.9,0,0,0-1.83,1.27,11.14,11.14,0,0,0-.57,4.2v7.84H439V304.43h3.09l.47,2.1h.25a4,4,0,0,1,1.6-1.83,4.41,4.41,0,0,1,2.18-.57,3.88,3.88,0,0,1,4,2.82h.15a4.16,4.16,0,0,1,4-2.82,3.82,3.82,0,0,1,3.29,1.52,7.49,7.49,0,0,1,1.12,4.45v10.65Z"/><path class="cls-3" d="M469.54,321a3.58,3.58,0,0,1-1.87-.47,4.6,4.6,0,0,1-1.52-1.68H466c.15,1.33.23,2.13.23,2.4V328h-3.92V304.43h3l.68,2.13h.17a3.82,3.82,0,0,1,3.53-2.43,3.86,3.86,0,0,1,3.49,2.2,12.69,12.69,0,0,1,1.26,6.23,12.5,12.5,0,0,1-1.3,6.23A4,4,0,0,1,469.54,321Zm-1.2-13.6a1.69,1.69,0,0,0-1.65,1.06,9,9,0,0,0-.54,3.52v.51a10.77,10.77,0,0,0,.52,3.93,1.74,1.74,0,0,0,1.69,1.23q2.06,0,2.06-5.19a10.71,10.71,0,0,0-.51-3.8A1.68,1.68,0,0,0,468.34,307.44Z"/><path class="cls-3" d="M483.16,321a5.89,5.89,0,0,1-4.83-2.17,9.57,9.57,0,0,1-1.76-6.16,10.84,10.84,0,0,1,1.59-6.31,5.13,5.13,0,0,1,4.46-2.27,5.05,5.05,0,0,1,4.2,1.94,8.51,8.51,0,0,1,1.54,5.44v2.08h-7.84a5.3,5.3,0,0,0,.9,3.24,2.82,2.82,0,0,0,2.34,1.07,7.63,7.63,0,0,0,3.9-1.19v3.21A8.59,8.59,0,0,1,483.16,321Zm-.57-13.91a1.58,1.58,0,0,0-1.38.88,6,6,0,0,0-.63,2.75h4a5.82,5.82,0,0,0-.55-2.71A1.56,1.56,0,0,0,482.59,307.13Z"/><path class="cls-3" d="M497.9,304.13a4.8,4.8,0,0,1,1.4.21l-.45,3.78a3.51,3.51,0,0,0-1.07-.14,2.46,2.46,0,0,0-2.18,1.12,5.77,5.77,0,0,0-.77,3.26v8.39h-3.89V304.43h3.21l.44,2.55h.13a6.09,6.09,0,0,1,1.4-2.2A2.63,2.63,0,0,1,497.9,304.13Z"/><path class="cls-3" d="M509,320.75l-.77-2.23h-.09a5.5,5.5,0,0,1-1.79,2,4.54,4.54,0,0,1-2.33.54,3.39,3.39,0,0,1-2.83-1.34,6,6,0,0,1-1-3.75,4.85,4.85,0,0,1,1.41-3.83,6.68,6.68,0,0,1,4.23-1.39l2.16-.09v-1.17c0-1.52-.66-2.28-2-2.28a6.77,6.77,0,0,0-3.37,1.14l-1.35-2.7a9.73,9.73,0,0,1,5.29-1.53,5,5,0,0,1,3.94,1.48,6,6,0,0,1,1.36,4.21v11ZM505.66,318a2,2,0,0,0,1.71-1,4.6,4.6,0,0,0,.63-2.56V313.1l-1.2.06a2.74,2.74,0,0,0-1.95.76,3,3,0,0,0-.63,2.06C504.22,317.32,504.7,318,505.66,318Z"/><path class="cls-3" d="M520.72,317.75a4.56,4.56,0,0,0,1.77-.41v3.05a5.13,5.13,0,0,1-2.86.65,3.84,3.84,0,0,1-3.15-1.26,6,6,0,0,1-1-3.8v-8.46h-1.58v-1.74l2-1.41,1-3.45h2.49v3.51h3v3.09h-3v8.59C519.4,317.2,519.84,317.75,520.72,317.75Z"/><path class="cls-3" d="M533.59,320.75l-.48-2.09h-.2a4.32,4.32,0,0,1-1.55,1.75,4.21,4.21,0,0,1-2.29.63,3.89,3.89,0,0,1-3.33-1.49,7.38,7.38,0,0,1-1.13-4.47V304.43h3.94v9.72a6.65,6.65,0,0,0,.43,2.69,1.42,1.42,0,0,0,1.38.91,1.9,1.9,0,0,0,1.83-1.26,11,11,0,0,0,.58-4.24v-7.82h3.94v16.32Z"/><path class="cls-3" d="M546.94,304.13a4.7,4.7,0,0,1,1.4.21l-.45,3.78a3.47,3.47,0,0,0-1.07-.14,2.47,2.47,0,0,0-2.18,1.12,5.78,5.78,0,0,0-.76,3.26v8.39H540V304.43h3.21l.44,2.55h.13a6,6,0,0,1,1.41-2.2A2.58,2.58,0,0,1,546.94,304.13Z"/><path class="cls-3" d="M558.09,320.75l-.78-2.23h-.09a5.42,5.42,0,0,1-1.79,2,4.53,4.53,0,0,1-2.32.54,3.39,3.39,0,0,1-2.84-1.34,6,6,0,0,1-1-3.75,4.85,4.85,0,0,1,1.41-3.83,6.68,6.68,0,0,1,4.23-1.39l2.17-.09v-1.17q0-2.28-2-2.28a6.77,6.77,0,0,0-3.37,1.14l-1.35-2.7a9.76,9.76,0,0,1,5.29-1.53,5.09,5.09,0,0,1,4,1.48,6.05,6.05,0,0,1,1.35,4.21v11ZM554.7,318a2,2,0,0,0,1.71-1,4.6,4.6,0,0,0,.64-2.56V313.1l-1.21.06a2.76,2.76,0,0,0-2,.76,3,3,0,0,0-.62,2.06C553.27,317.32,553.75,318,554.7,318Z"/><path class="cls-3" d="M577.52,321a5.86,5.86,0,0,1-4.82-2.17,9.52,9.52,0,0,1-1.77-6.16,10.84,10.84,0,0,1,1.6-6.31,5.52,5.52,0,0,1,8.66-.33,8.57,8.57,0,0,1,1.53,5.44v2.08h-7.83a5.37,5.37,0,0,0,.89,3.24,2.85,2.85,0,0,0,2.35,1.07,7.62,7.62,0,0,0,3.89-1.19v3.21A8.59,8.59,0,0,1,577.52,321ZM577,307.13a1.58,1.58,0,0,0-1.37.88,6,6,0,0,0-.63,2.75h3.95a6,6,0,0,0-.54-2.71A1.57,1.57,0,0,0,577,307.13Z"/><path class="cls-3" d="M600,307.52h-2.7v13.23h-3.9V307.52h-1.89v-1.95l1.89-1.17v-1.23a6.17,6.17,0,0,1,1.13-4.05,4.54,4.54,0,0,1,3.63-1.32,6.68,6.68,0,0,1,3,.66l-1,3a3.43,3.43,0,0,0-1.49-.35,1,1,0,0,0-1,.53,3.25,3.25,0,0,0-.31,1.62v1.2H600Z"/><path class="cls-3" d="M607.7,321a5.89,5.89,0,0,1-4.83-2.17,9.57,9.57,0,0,1-1.76-6.16,10.77,10.77,0,0,1,1.6-6.31,5.11,5.11,0,0,1,4.45-2.27,5,5,0,0,1,4.2,1.94,8.51,8.51,0,0,1,1.54,5.44v2.08h-7.84a5.3,5.3,0,0,0,.9,3.24,2.82,2.82,0,0,0,2.34,1.07,7.63,7.63,0,0,0,3.9-1.19v3.21A8.59,8.59,0,0,1,607.7,321Zm-.57-13.91a1.58,1.58,0,0,0-1.38.88,6,6,0,0,0-.63,2.75h4a6,6,0,0,0-.54-2.71A1.59,1.59,0,0,0,607.13,307.13Z"/><path class="cls-3" d="M620.87,321a5.12,5.12,0,0,1-4.44-2.12,10.72,10.72,0,0,1-1.52-6.24c0-2.87.48-5,1.44-6.43a5,5,0,0,1,4.46-2.12,7.3,7.3,0,0,1,1.91.26,6.64,6.64,0,0,1,1.78.76l-1.11,3a4.34,4.34,0,0,0-2.15-.71,1.87,1.87,0,0,0-1.8,1.29,10.63,10.63,0,0,0-.55,3.89,10.1,10.1,0,0,0,.54,3.79,1.86,1.86,0,0,0,1.78,1.25,5.67,5.67,0,0,0,3.06-1v3.43A6.3,6.3,0,0,1,620.87,321Z"/><path class="cls-3" d="M634.74,320.75V311c0-2.39-.6-3.58-1.8-3.58a1.92,1.92,0,0,0-1.89,1.41,11.88,11.88,0,0,0-.54,4.06v7.84h-3.9V298h3.9V303c0,.65-.06,1.82-.18,3.5h.21a3.81,3.81,0,0,1,3.6-2.4,4,4,0,0,1,3.38,1.51,7.28,7.28,0,0,1,1.15,4.46v10.65Z"/><path class="cls-3" d="M649.81,320.75l-.77-2.23H649a5.5,5.5,0,0,1-1.79,2,4.54,4.54,0,0,1-2.33.54A3.39,3.39,0,0,1,642,319.7a6,6,0,0,1-1-3.75,4.85,4.85,0,0,1,1.41-3.83,6.68,6.68,0,0,1,4.23-1.39l2.16-.09v-1.17c0-1.52-.65-2.28-2-2.28a6.77,6.77,0,0,0-3.37,1.14l-1.35-2.7a9.73,9.73,0,0,1,5.29-1.53,5.09,5.09,0,0,1,4,1.48,6.05,6.05,0,0,1,1.35,4.21v11ZM646.43,318a2,2,0,0,0,1.71-1,4.6,4.6,0,0,0,.63-2.56V313.1l-1.2.06a2.74,2.74,0,0,0-2,.76A3,3,0,0,0,645,316C645,317.32,645.47,318,646.43,318Z"/><path class="cls-3" d="M672,320.75V311c0-2.39-.59-3.58-1.77-3.58a1.89,1.89,0,0,0-1.85,1.28,11.1,11.1,0,0,0-.55,4.11v7.92h-3.93V311c0-2.39-.6-3.58-1.8-3.58a1.9,1.9,0,0,0-1.83,1.27,11.14,11.14,0,0,0-.57,4.2v7.84h-3.9V304.43h3.09l.47,2.1h.25a4,4,0,0,1,1.6-1.83,4.41,4.41,0,0,1,2.18-.57,3.88,3.88,0,0,1,4,2.82h.15a4.16,4.16,0,0,1,4-2.82,3.82,3.82,0,0,1,3.29,1.52A7.49,7.49,0,0,1,676,310.1v10.65Z"/><path class="cls-3" d="M685.12,321a5.89,5.89,0,0,1-4.83-2.17,9.52,9.52,0,0,1-1.76-6.16,10.84,10.84,0,0,1,1.59-6.31,5.13,5.13,0,0,1,4.46-2.27,5.06,5.06,0,0,1,4.2,1.94,8.57,8.57,0,0,1,1.54,5.44v2.08h-7.84a5.37,5.37,0,0,0,.89,3.24,2.85,2.85,0,0,0,2.35,1.07,7.57,7.57,0,0,0,3.89-1.19v3.21A8.55,8.55,0,0,1,685.12,321Zm-.57-13.91a1.58,1.58,0,0,0-1.38.88,6,6,0,0,0-.63,2.75h4a6,6,0,0,0-.54-2.71A1.56,1.56,0,0,0,684.55,307.13Z"/><path class="cls-3" d="M701,320.75V311a6.63,6.63,0,0,0-.43-2.68,1.42,1.42,0,0,0-1.38-.9,1.92,1.92,0,0,0-1.84,1.25,10.8,10.8,0,0,0-.59,4.22v7.84H692.9V304.43H696l.47,2.1h.24a4.29,4.29,0,0,1,1.51-1.77,4.18,4.18,0,0,1,2.3-.63,3.85,3.85,0,0,1,3.34,1.52,7.57,7.57,0,0,1,1.1,4.45v10.65Z"/><path class="cls-3" d="M713.77,317.75a4.52,4.52,0,0,0,1.77-.41v3.05a5.09,5.09,0,0,1-2.85.65,3.81,3.81,0,0,1-3.15-1.26,5.94,5.94,0,0,1-1-3.8v-8.46h-1.58v-1.74l2-1.41,1-3.45h2.49v3.51h3v3.09h-3v8.59C712.45,317.2,712.89,317.75,713.77,317.75Z"/><path class="cls-3" d="M729.91,312.56a10.08,10.08,0,0,1-1.7,6.25,5.52,5.52,0,0,1-4.66,2.23,5.58,5.58,0,0,1-3.31-1,6.61,6.61,0,0,1-2.21-2.95,12,12,0,0,1-.77-4.51,10.13,10.13,0,0,1,1.68-6.2,5.51,5.51,0,0,1,4.67-2.23,5.44,5.44,0,0,1,4.6,2.27A10.12,10.12,0,0,1,729.91,312.56Zm-8.67,0a10.22,10.22,0,0,0,.56,3.85,1.86,1.86,0,0,0,1.78,1.31q2.35,0,2.35-5.16a9.81,9.81,0,0,0-.57-3.83,1.89,1.89,0,0,0-3.56,0A10,10,0,0,0,721.24,312.56Z"/><path class="cls-3" d="M748.06,320.75l-.77-2.23h-.09a5.5,5.5,0,0,1-1.79,2,4.54,4.54,0,0,1-2.33.54,3.39,3.39,0,0,1-2.83-1.34,6,6,0,0,1-1-3.75,4.82,4.82,0,0,1,1.42-3.83,6.67,6.67,0,0,1,4.22-1.39l2.17-.09v-1.17q0-2.28-2-2.28a6.74,6.74,0,0,0-3.36,1.14l-1.35-2.7a9.73,9.73,0,0,1,5.29-1.53,5.06,5.06,0,0,1,3.94,1.48,6,6,0,0,1,1.36,4.21v11ZM744.68,318a2,2,0,0,0,1.7-1,4.52,4.52,0,0,0,.64-2.56V313.1l-1.2.06a2.74,2.74,0,0,0-2,.76,3,3,0,0,0-.63,2.06C743.24,317.32,743.72,318,744.68,318Z"/><path class="cls-3" d="M762.89,320.75l-.49-2.09h-.2a4.14,4.14,0,0,1-3.84,2.38,3.91,3.91,0,0,1-3.33-1.49,7.38,7.38,0,0,1-1.12-4.47V304.43h3.94v9.72a6.68,6.68,0,0,0,.42,2.69,1.42,1.42,0,0,0,1.38.91,1.93,1.93,0,0,0,1.84-1.26,11.16,11.16,0,0,0,.58-4.24v-7.82H766v16.32Z"/><path class="cls-3" d="M768.67,314.42V311H776v3.43Z"/><path class="cls-3" d="M64.32,353.75a4.6,4.6,0,0,0,1.77-.41v3.05a5.15,5.15,0,0,1-2.86.65,3.84,3.84,0,0,1-3.15-1.26,6,6,0,0,1-1-3.8v-8.46H57.48v-1.74l2-1.41,1-3.45H63v3.51h3v3.09H63v8.59C63,353.2,63.44,353.75,64.32,353.75Z"/><path class="cls-3" d="M80.46,348.56a10.14,10.14,0,0,1-1.7,6.25,5.94,5.94,0,0,1-8,1.21,6.54,6.54,0,0,1-2.21-2.95,12,12,0,0,1-.78-4.51,10.06,10.06,0,0,1,1.69-6.2,5.51,5.51,0,0,1,4.67-2.23,5.44,5.44,0,0,1,4.59,2.27A10.05,10.05,0,0,1,80.46,348.56Zm-8.67,0a10.25,10.25,0,0,0,.55,3.85,1.88,1.88,0,0,0,1.79,1.31q2.34,0,2.34-5.16a9.84,9.84,0,0,0-.56-3.83,1.89,1.89,0,0,0-3.57,0A10.07,10.07,0,0,0,71.79,348.56Z"/><path class="cls-3" d="M99.4,356.75V347c0-2.39-.59-3.58-1.77-3.58a1.89,1.89,0,0,0-1.85,1.28,11.06,11.06,0,0,0-.56,4.11v7.92H91.3V347c0-2.39-.6-3.58-1.8-3.58a1.9,1.9,0,0,0-1.83,1.27,11.09,11.09,0,0,0-.58,4.2v7.84H83.2V340.43h3.09l.47,2.1H87a4,4,0,0,1,1.6-1.83,4.38,4.38,0,0,1,2.18-.57,3.88,3.88,0,0,1,4,2.82h.15a4.16,4.16,0,0,1,4-2.82,3.82,3.82,0,0,1,3.29,1.52,7.49,7.49,0,0,1,1.12,4.45v10.65Z"/><path class="cls-3" d="M114.47,356.75l-.77-2.23h-.09a5.5,5.5,0,0,1-1.79,2,4.54,4.54,0,0,1-2.33.54,3.39,3.39,0,0,1-2.83-1.34,6,6,0,0,1-1-3.75,4.85,4.85,0,0,1,1.41-3.83,6.67,6.67,0,0,1,4.22-1.39l2.17-.09v-1.17c0-1.52-.66-2.28-2-2.28a6.77,6.77,0,0,0-3.37,1.14l-1.35-2.7A9.73,9.73,0,0,1,112,340.1a5,5,0,0,1,3.94,1.48,6,6,0,0,1,1.36,4.21v11ZM111.09,354a2,2,0,0,0,1.71-1,4.6,4.6,0,0,0,.63-2.56V349.1l-1.2.06a2.74,2.74,0,0,0-2,.76,3,3,0,0,0-.63,2.06C109.65,353.32,110.13,354,111.09,354Zm-1-15.43v-.39a17.6,17.6,0,0,0,1.39-2.21c.53-1,.91-1.69,1.13-2.2h4.66v.3a11.77,11.77,0,0,1-1.74,2,34.51,34.51,0,0,1-2.7,2.47Z"/><path class="cls-3" d="M126.15,353.75a4.56,4.56,0,0,0,1.77-.41v3.05a5.13,5.13,0,0,1-2.86.65,3.84,3.84,0,0,1-3.15-1.26,6,6,0,0,1-1-3.8v-8.46h-1.58v-1.74l2-1.41,1-3.45h2.49v3.51h3v3.09h-3v8.59C124.83,353.2,125.27,353.75,126.15,353.75Z"/><path class="cls-3" d="M130.07,336.17a2.07,2.07,0,0,1,.57-1.53,2.39,2.39,0,0,1,3.1,0,2.07,2.07,0,0,1,.57,1.53,2,2,0,0,1-.59,1.55,2.13,2.13,0,0,1-1.51.54,2.2,2.2,0,0,1-1.55-.54A2,2,0,0,1,130.07,336.17Zm4.06,20.58h-3.9V340.43h3.9Z"/><path class="cls-3" d="M142.86,357a5.12,5.12,0,0,1-4.44-2.12,10.72,10.72,0,0,1-1.52-6.24c0-2.87.48-5,1.44-6.43a5,5,0,0,1,4.46-2.12,7.3,7.3,0,0,1,1.91.26,6.5,6.5,0,0,1,1.78.76l-1.11,3a4.34,4.34,0,0,0-2.15-.71,1.87,1.87,0,0,0-1.8,1.29,10.63,10.63,0,0,0-.55,3.89,9.87,9.87,0,0,0,.55,3.79,1.83,1.83,0,0,0,1.77,1.25,5.62,5.62,0,0,0,3.06-1v3.43A6.3,6.3,0,0,1,142.86,357Z"/><path class="cls-3" d="M160.69,348.56a10.14,10.14,0,0,1-1.7,6.25,5.94,5.94,0,0,1-8,1.21,6.54,6.54,0,0,1-2.21-2.95,12,12,0,0,1-.78-4.51,10.06,10.06,0,0,1,1.69-6.2,5.51,5.51,0,0,1,4.67-2.23A5.44,5.44,0,0,1,159,342.4,10.05,10.05,0,0,1,160.69,348.56Zm-8.67,0a10.25,10.25,0,0,0,.55,3.85,1.87,1.87,0,0,0,1.79,1.31q2.34,0,2.34-5.16a9.84,9.84,0,0,0-.56-3.83,1.89,1.89,0,0,0-3.57,0A10.07,10.07,0,0,0,152,348.56Z"/><path class="cls-3" d="M168.07,353.6a46.08,46.08,0,0,1-2.58,7h-3c.63-2.6,1.13-5.05,1.48-7.36h3.87Z"/><path class="cls-3" d="M186.94,356.75l-.78-2.23h-.09a5.49,5.49,0,0,1-1.78,2A4.56,4.56,0,0,1,182,357a3.41,3.41,0,0,1-2.84-1.34,6.1,6.1,0,0,1-1-3.75,4.85,4.85,0,0,1,1.41-3.83,6.73,6.73,0,0,1,4.23-1.39l2.17-.09v-1.17q0-2.28-2-2.28a6.77,6.77,0,0,0-3.37,1.14l-1.35-2.7a9.78,9.78,0,0,1,5.29-1.53,5.07,5.07,0,0,1,3.95,1.48,6.05,6.05,0,0,1,1.36,4.21v11ZM183.55,354a2,2,0,0,0,1.71-1,4.52,4.52,0,0,0,.64-2.56V349.1l-1.2.06a2.79,2.79,0,0,0-2,.76,3,3,0,0,0-.62,2.06C182.12,353.32,182.6,354,183.55,354Z"/><path class="cls-3" d="M196.84,356.75h-3.9V334h3.9Z"/><path class="cls-3" d="M206.13,357a5.89,5.89,0,0,1-4.83-2.17,9.52,9.52,0,0,1-1.76-6.16,10.84,10.84,0,0,1,1.59-6.31,5.13,5.13,0,0,1,4.46-2.27,5.06,5.06,0,0,1,4.2,1.94,8.51,8.51,0,0,1,1.54,5.44v2.08h-7.84a5.37,5.37,0,0,0,.89,3.24,2.85,2.85,0,0,0,2.35,1.07,7.63,7.63,0,0,0,3.9-1.19v3.21A8.59,8.59,0,0,1,206.13,357Zm-2.58-18.47v-.39a18.84,18.84,0,0,0,1.39-2.21c.53-1,.9-1.69,1.13-2.2h4.66v.3a12,12,0,0,1-1.75,2,32.76,32.76,0,0,1-2.69,2.47Zm2,4.56a1.58,1.58,0,0,0-1.38.88,6,6,0,0,0-.63,2.75h4a5.94,5.94,0,0,0-.55-2.71A1.56,1.56,0,0,0,205.56,343.13Z"/><path class="cls-3" d="M230.11,356.75V347c0-2.39-.59-3.58-1.77-3.58a1.89,1.89,0,0,0-1.85,1.28,11.06,11.06,0,0,0-.56,4.11v7.92H222V347c0-2.39-.6-3.58-1.8-3.58a1.92,1.92,0,0,0-1.84,1.27,11.14,11.14,0,0,0-.57,4.2v7.84h-3.89V340.43H217l.47,2.1h.25a4,4,0,0,1,1.6-1.83,4.37,4.37,0,0,1,2.17-.57,3.89,3.89,0,0,1,4,2.82h.15a4.16,4.16,0,0,1,4-2.82,3.8,3.8,0,0,1,3.29,1.52A7.42,7.42,0,0,1,234,346.1v10.65Z"/><path class="cls-3" d="M248.89,357a4,4,0,0,1-3.56-2.22,12.32,12.32,0,0,1-1.31-6.2,12.78,12.78,0,0,1,1.28-6.24,3.9,3.9,0,0,1,3.51-2.25,3.39,3.39,0,0,1,1.93.54,5.07,5.07,0,0,1,1.5,1.86h.24q-.18-2.23-.18-3.12V334h3.9v22.79h-2.9l-.66-2.12h-.13A3.91,3.91,0,0,1,248.89,357Zm1.26-3.29a1.66,1.66,0,0,0,1.58-1,9.33,9.33,0,0,0,.54-3.6v-.51a11.25,11.25,0,0,0-.5-4,1.73,1.73,0,0,0-1.67-1.16c-.72,0-1.25.45-1.57,1.33a11.58,11.58,0,0,0-.49,3.86,10.75,10.75,0,0,0,.5,3.8A1.68,1.68,0,0,0,250.15,353.75Z"/><path class="cls-3" d="M265.5,357a5.89,5.89,0,0,1-4.83-2.17,9.52,9.52,0,0,1-1.76-6.16,10.84,10.84,0,0,1,1.59-6.31,5.13,5.13,0,0,1,4.46-2.27,5.06,5.06,0,0,1,4.2,1.94,8.51,8.51,0,0,1,1.54,5.44v2.08h-7.84a5.3,5.3,0,0,0,.9,3.24,2.82,2.82,0,0,0,2.34,1.07,7.63,7.63,0,0,0,3.9-1.19v3.21A8.59,8.59,0,0,1,265.5,357Zm-.57-13.91a1.58,1.58,0,0,0-1.38.88,6,6,0,0,0-.63,2.75h4a5.82,5.82,0,0,0-.55-2.71A1.56,1.56,0,0,0,264.93,343.13Z"/><path class="cls-3" d="M289.45,352a4.91,4.91,0,0,1-1.4,3.72,5.71,5.71,0,0,1-4.12,1.34,7.57,7.57,0,0,1-4-1v-3.38a7.32,7.32,0,0,0,1.88.92,5.87,5.87,0,0,0,1.9.37,1.94,1.94,0,0,0,1.38-.45,1.54,1.54,0,0,0,.48-1.18,1.89,1.89,0,0,0-.5-1.3,8.2,8.2,0,0,0-1.83-1.36,7.63,7.63,0,0,1-2.54-2.25,5.05,5.05,0,0,1-.77-2.82,4.08,4.08,0,0,1,1.43-3.3,5.83,5.83,0,0,1,3.91-1.21,7.87,7.87,0,0,1,4.09,1.14l-1.27,2.8a6,6,0,0,0-2.76-.85,1.48,1.48,0,0,0-1.12.39,1.37,1.37,0,0,0-.37,1,1.68,1.68,0,0,0,.46,1.17A8,8,0,0,0,286,347a11,11,0,0,1,2.14,1.57,4.59,4.59,0,0,1,.95,1.47A4.88,4.88,0,0,1,289.45,352Z"/><path class="cls-3" d="M297.93,357a5.89,5.89,0,0,1-4.83-2.17,9.57,9.57,0,0,1-1.76-6.16,10.84,10.84,0,0,1,1.59-6.31,5.13,5.13,0,0,1,4.46-2.27,5,5,0,0,1,4.2,1.94,8.51,8.51,0,0,1,1.54,5.44v2.08h-7.84a5.3,5.3,0,0,0,.9,3.24,2.82,2.82,0,0,0,2.34,1.07,7.63,7.63,0,0,0,3.9-1.19v3.21A8.59,8.59,0,0,1,297.93,357Zm-.57-13.91A1.58,1.58,0,0,0,296,344a6,6,0,0,0-.63,2.75h4a5.82,5.82,0,0,0-.55-2.71A1.56,1.56,0,0,0,297.36,343.13Z"/><path class="cls-3" d="M312.67,340.13a4.8,4.8,0,0,1,1.4.21l-.45,3.78a3.51,3.51,0,0,0-1.07-.14,2.46,2.46,0,0,0-2.18,1.12,5.77,5.77,0,0,0-.77,3.26v8.39h-3.89V340.43h3.21l.44,2.55h.13a6.09,6.09,0,0,1,1.4-2.2A2.63,2.63,0,0,1,312.67,340.13Z"/><path class="cls-3" d="M332.05,356.75l-.49-2.09h-.2a4.14,4.14,0,0,1-3.84,2.38,3.91,3.91,0,0,1-3.33-1.49,7.38,7.38,0,0,1-1.12-4.47V340.43H327v9.72a6.68,6.68,0,0,0,.42,2.69,1.43,1.43,0,0,0,1.38.91,1.93,1.93,0,0,0,1.84-1.26,11.16,11.16,0,0,0,.58-4.24v-7.82h3.94v16.32Z"/><path class="cls-3" d="M347.19,352a4.87,4.87,0,0,1-1.4,3.72,5.69,5.69,0,0,1-4.12,1.34,7.62,7.62,0,0,1-4-1v-3.38a7.65,7.65,0,0,0,1.88.92,5.87,5.87,0,0,0,1.9.37,1.91,1.91,0,0,0,1.38-.45,1.54,1.54,0,0,0,.48-1.18,1.89,1.89,0,0,0-.5-1.3,8.2,8.2,0,0,0-1.83-1.36,7.63,7.63,0,0,1-2.54-2.25,5.14,5.14,0,0,1-.77-2.82,4.11,4.11,0,0,1,1.43-3.3,5.85,5.85,0,0,1,3.92-1.21,7.84,7.84,0,0,1,4.08,1.14l-1.27,2.8a5.89,5.89,0,0,0-2.75-.85,1.48,1.48,0,0,0-1.12.39,1.38,1.38,0,0,0-.38,1,1.73,1.73,0,0,0,.46,1.17,8.22,8.22,0,0,0,1.72,1.27,11,11,0,0,1,2.14,1.57,4.79,4.79,0,0,1,1,1.47A5.07,5.07,0,0,1,347.19,352Z"/><path class="cls-3" d="M357.65,356.75l-.77-2.23h-.09a5.5,5.5,0,0,1-1.79,2,4.56,4.56,0,0,1-2.33.54,3.39,3.39,0,0,1-2.83-1.34,6,6,0,0,1-1-3.75,4.82,4.82,0,0,1,1.42-3.83,6.67,6.67,0,0,1,4.22-1.39l2.17-.09v-1.17q0-2.28-2-2.28a6.8,6.8,0,0,0-3.37,1.14l-1.34-2.7a9.73,9.73,0,0,1,5.29-1.53,5.06,5.06,0,0,1,3.94,1.48,6,6,0,0,1,1.36,4.21v11ZM354.27,354a2,2,0,0,0,1.7-1,4.52,4.52,0,0,0,.64-2.56V349.1l-1.2.06a2.74,2.74,0,0,0-2,.76,3,3,0,0,0-.63,2.06C352.83,353.32,353.31,354,354.27,354Z"/><path class="cls-3" d="M368,357a4,4,0,0,1-3.56-2.22,12.33,12.33,0,0,1-1.3-6.2,12.79,12.79,0,0,1,1.27-6.24,3.9,3.9,0,0,1,3.52-2.25,3.38,3.38,0,0,1,1.92.54,5.07,5.07,0,0,1,1.5,1.86h.24q-.18-2.23-.18-3.12V334h3.9v22.79h-2.9l-.66-2.12h-.13A3.91,3.91,0,0,1,368,357Zm1.26-3.29a1.66,1.66,0,0,0,1.58-1,9.33,9.33,0,0,0,.54-3.6v-.51a11.25,11.25,0,0,0-.5-4,1.72,1.72,0,0,0-1.66-1.16c-.73,0-1.25.45-1.58,1.33a11.58,11.58,0,0,0-.49,3.86,11,11,0,0,0,.5,3.8A1.69,1.69,0,0,0,369.21,353.75Z"/><path class="cls-3" d="M390.63,348.56a10.14,10.14,0,0,1-1.7,6.25,5.94,5.94,0,0,1-8,1.21,6.47,6.47,0,0,1-2.21-2.95,12,12,0,0,1-.78-4.51,10.13,10.13,0,0,1,1.68-6.2,5.53,5.53,0,0,1,4.68-2.23,5.44,5.44,0,0,1,4.59,2.27A10.05,10.05,0,0,1,390.63,348.56Zm-8.68,0a10.22,10.22,0,0,0,.56,3.85,1.87,1.87,0,0,0,1.79,1.31q2.34,0,2.34-5.16a10,10,0,0,0-.56-3.83,1.89,1.89,0,0,0-3.57,0A10,10,0,0,0,382,348.56Z"/><path class="cls-3" d="M406.45,353.75a4.6,4.6,0,0,0,1.77-.41v3.05a5.15,5.15,0,0,1-2.86.65,3.84,3.84,0,0,1-3.15-1.26,6,6,0,0,1-1-3.8v-8.46H399.6v-1.74l2-1.41,1-3.45h2.49v3.51h3v3.09h-3v8.59C405.13,353.2,405.57,353.75,406.45,353.75Z"/><path class="cls-3" d="M418.5,356.75l-.78-2.23h-.08a5.5,5.5,0,0,1-1.79,2,4.56,4.56,0,0,1-2.33.54,3.39,3.39,0,0,1-2.83-1.34,6,6,0,0,1-1-3.75,4.82,4.82,0,0,1,1.42-3.83,6.67,6.67,0,0,1,4.22-1.39l2.17-.09v-1.17q0-2.28-2-2.28a6.8,6.8,0,0,0-3.37,1.14l-1.34-2.7a9.72,9.72,0,0,1,5.28-1.53,5.07,5.07,0,0,1,3.95,1.48,6,6,0,0,1,1.36,4.21v11ZM415.12,354a2,2,0,0,0,1.7-1,4.52,4.52,0,0,0,.64-2.56V349.1l-1.2.06a2.79,2.79,0,0,0-2,.76,3,3,0,0,0-.62,2.06C413.68,353.32,414.16,354,415.12,354Z"/><path class="cls-3" d="M440.71,356.75V347c0-2.39-.59-3.58-1.77-3.58a1.89,1.89,0,0,0-1.85,1.28,11.06,11.06,0,0,0-.56,4.11v7.92h-3.92V347c0-2.39-.6-3.58-1.8-3.58a1.92,1.92,0,0,0-1.84,1.27,11.14,11.14,0,0,0-.57,4.2v7.84h-3.89V340.43h3.09l.47,2.1h.25a4,4,0,0,1,1.6-1.83,4.37,4.37,0,0,1,2.17-.57,3.88,3.88,0,0,1,4,2.82h.15a4.16,4.16,0,0,1,4-2.82,3.8,3.8,0,0,1,3.29,1.52,7.42,7.42,0,0,1,1.12,4.45v10.65Z"/><path class="cls-3" d="M455.15,340.13a3.88,3.88,0,0,1,3.5,2.21,15.87,15.87,0,0,1,0,12.49,3.94,3.94,0,0,1-3.56,2.21,3.85,3.85,0,0,1-1.94-.47,4.8,4.8,0,0,1-1.59-1.68h-.25l-.66,1.86h-2.87V334h3.9v5.33c0,.22,0,.46,0,.7s-.08,1.1-.2,2.57h.21a5,5,0,0,1,1.55-1.89A3.47,3.47,0,0,1,455.15,340.13Zm-1.35,3.31a1.65,1.65,0,0,0-1.6,1,9.67,9.67,0,0,0-.52,3.66v.39a11.21,11.21,0,0,0,.5,4,1.72,1.72,0,0,0,1.65,1.16q2.12,0,2.11-5.19T453.8,343.44Z"/><path class="cls-3" d="M468.69,357a5.89,5.89,0,0,1-4.83-2.17,9.52,9.52,0,0,1-1.77-6.16,10.84,10.84,0,0,1,1.6-6.31,5.13,5.13,0,0,1,4.45-2.27,5.07,5.07,0,0,1,4.21,1.94,8.57,8.57,0,0,1,1.54,5.44v2.08h-7.84a5.37,5.37,0,0,0,.89,3.24,2.85,2.85,0,0,0,2.35,1.07,7.57,7.57,0,0,0,3.89-1.19v3.21A8.57,8.57,0,0,1,468.69,357Zm-2.58-18.47v-.39A18.84,18.84,0,0,0,467.5,336c.53-1,.9-1.69,1.13-2.2h4.66v.3a12,12,0,0,1-1.75,2,32.76,32.76,0,0,1-2.69,2.47Zm2,4.56a1.58,1.58,0,0,0-1.38.88,6,6,0,0,0-.63,2.75h3.95a6,6,0,0,0-.54-2.71A1.56,1.56,0,0,0,468.12,343.13Z"/><path class="cls-3" d="M492.67,356.75V347c0-2.39-.59-3.58-1.78-3.58a1.88,1.88,0,0,0-1.84,1.28,11.06,11.06,0,0,0-.56,4.11v7.92h-3.92V347c0-2.39-.6-3.58-1.81-3.58a1.9,1.9,0,0,0-1.83,1.27,11.14,11.14,0,0,0-.57,4.2v7.84h-3.89V340.43h3.09l.46,2.1h.25a4,4,0,0,1,1.61-1.83,4.37,4.37,0,0,1,2.17-.57,3.89,3.89,0,0,1,4,2.82h.14a4.17,4.17,0,0,1,4-2.82,3.81,3.81,0,0,1,3.29,1.52,7.42,7.42,0,0,1,1.12,4.45v10.65Z"/><path class="cls-3" d="M512.54,357a5.09,5.09,0,0,1-4.43-2.12,10.64,10.64,0,0,1-1.53-6.24c0-2.87.48-5,1.45-6.43a5,5,0,0,1,4.46-2.12,7.23,7.23,0,0,1,1.9.26,6.71,6.71,0,0,1,1.79.76l-1.12,3a4.31,4.31,0,0,0-2.15-.71,1.85,1.85,0,0,0-1.79,1.29,10.42,10.42,0,0,0-.55,3.89,10.1,10.1,0,0,0,.54,3.79,1.83,1.83,0,0,0,1.77,1.25,5.62,5.62,0,0,0,3.06-1v3.43A6.28,6.28,0,0,1,512.54,357Z"/><path class="cls-3" d="M530.37,348.56a10.14,10.14,0,0,1-1.7,6.25A5.52,5.52,0,0,1,524,357a5.58,5.58,0,0,1-3.31-1,6.61,6.61,0,0,1-2.21-2.95,12,12,0,0,1-.77-4.51,10.13,10.13,0,0,1,1.68-6.2,5.51,5.51,0,0,1,4.67-2.23,5.41,5.41,0,0,1,4.59,2.27A10.05,10.05,0,0,1,530.37,348.56Zm-8.67,0a10,10,0,0,0,.56,3.85,1.86,1.86,0,0,0,1.78,1.31q2.36,0,2.35-5.16a9.81,9.81,0,0,0-.57-3.83,1.89,1.89,0,0,0-3.56,0A9.84,9.84,0,0,0,521.7,348.56Z"/><path class="cls-3" d="M549.31,356.75V347c0-2.39-.59-3.58-1.77-3.58a1.89,1.89,0,0,0-1.85,1.28,11.1,11.1,0,0,0-.55,4.11v7.92h-3.93V347c0-2.39-.6-3.58-1.8-3.58a1.9,1.9,0,0,0-1.83,1.27,11.14,11.14,0,0,0-.57,4.2v7.84h-3.9V340.43h3.09l.47,2.1h.25a4,4,0,0,1,1.6-1.83,4.41,4.41,0,0,1,2.18-.57,3.88,3.88,0,0,1,4,2.82h.15a4.16,4.16,0,0,1,4-2.82,3.82,3.82,0,0,1,3.29,1.52,7.49,7.49,0,0,1,1.12,4.45v10.65Z"/><path class="cls-3" d="M568.47,348.56a10.08,10.08,0,0,1-1.7,6.25,5.52,5.52,0,0,1-4.66,2.23,5.58,5.58,0,0,1-3.31-1,6.61,6.61,0,0,1-2.21-2.95,12,12,0,0,1-.77-4.51,10.13,10.13,0,0,1,1.68-6.2,5.51,5.51,0,0,1,4.67-2.23,5.41,5.41,0,0,1,4.59,2.27A10.05,10.05,0,0,1,568.47,348.56Zm-8.67,0a10.22,10.22,0,0,0,.56,3.85,1.86,1.86,0,0,0,1.78,1.31q2.36,0,2.35-5.16a9.81,9.81,0,0,0-.57-3.83,1.89,1.89,0,0,0-3.56,0A10,10,0,0,0,559.8,348.56Z"/><path class="cls-3" d="M586,340.13a3.88,3.88,0,0,1,3.5,2.21,15.87,15.87,0,0,1,0,12.49,3.94,3.94,0,0,1-3.56,2.21,3.85,3.85,0,0,1-1.94-.47,4.8,4.8,0,0,1-1.59-1.68h-.25l-.66,1.86h-2.87V334h3.9v5.33c0,.22,0,.46,0,.7s-.08,1.1-.2,2.57h.21a5,5,0,0,1,1.55-1.89A3.47,3.47,0,0,1,586,340.13Zm-1.35,3.31a1.65,1.65,0,0,0-1.6,1,9.67,9.67,0,0,0-.52,3.66v.39a11.21,11.21,0,0,0,.5,4,1.72,1.72,0,0,0,1.65,1.16q2.12,0,2.11-5.19T584.64,343.44Z"/><path class="cls-3" d="M593.37,336.17a2.07,2.07,0,0,1,.57-1.53,2.1,2.1,0,0,1,1.57-.57,2,2,0,0,1,2.1,2.1,2,2,0,0,1-.59,1.55,2.13,2.13,0,0,1-1.51.54,2.2,2.2,0,0,1-1.55-.54A2,2,0,0,1,593.37,336.17Zm4.06,20.58h-3.89V340.43h3.89Z"/><path class="cls-3" d="M605.06,357a4,4,0,0,1-3.56-2.22,12.33,12.33,0,0,1-1.3-6.2,12.91,12.91,0,0,1,1.27-6.24,3.91,3.91,0,0,1,3.52-2.25,3.44,3.44,0,0,1,1.93.54,5.07,5.07,0,0,1,1.5,1.86h.23c-.11-1.49-.17-2.53-.17-3.12V334h3.89v22.79h-2.9l-.66-2.12h-.13A3.9,3.9,0,0,1,605.06,357Zm1.26-3.29a1.67,1.67,0,0,0,1.59-1,9.33,9.33,0,0,0,.54-3.6v-.51a11,11,0,0,0-.51-4,1.72,1.72,0,0,0-1.66-1.16c-.72,0-1.25.45-1.58,1.33a11.85,11.85,0,0,0-.49,3.86,11,11,0,0,0,.5,3.8A1.69,1.69,0,0,0,606.32,353.75Z"/><path class="cls-3" d="M621.68,357a5.86,5.86,0,0,1-4.83-2.17,9.52,9.52,0,0,1-1.77-6.16,10.84,10.84,0,0,1,1.6-6.31,5.52,5.52,0,0,1,8.66-.33,8.57,8.57,0,0,1,1.54,5.44v2.08H619a5.37,5.37,0,0,0,.89,3.24,2.85,2.85,0,0,0,2.35,1.07,7.59,7.59,0,0,0,3.89-1.19v3.21A8.57,8.57,0,0,1,621.68,357Zm2.21-18.47a18.44,18.44,0,0,1-2.77-2.6,22.89,22.89,0,0,1-2.73,2.6h-2.46v-.39a35.75,35.75,0,0,0,3.18-4.41h4.06a37.57,37.57,0,0,0,3.18,4.41v.39Zm-2.79,4.56a1.58,1.58,0,0,0-1.37.88,6,6,0,0,0-.63,2.75h3.95a6,6,0,0,0-.54-2.71A1.57,1.57,0,0,0,621.1,343.13Z"/><path class="cls-3" d="M629.42,354.74A2.47,2.47,0,0,1,630,353a2.41,2.41,0,0,1,1.81-.63,2.48,2.48,0,0,1,1.82.62,2.43,2.43,0,0,1,.61,1.78,2.4,2.4,0,0,1-.63,1.78,2.47,2.47,0,0,1-1.8.63,2.41,2.41,0,0,1-1.8-.64A2.45,2.45,0,0,1,629.42,354.74Z"/></g></g></svg>