<svg xmlns="http://www.w3.org/2000/svg" viewBox="0 0 935.73 805.3"><defs><style>.cls-1{opacity:0.2;}.cls-2{fill:#dcfffe;}.cls-3{fill:#fce7e9;}.cls-4{fill:#a2a5a5;}.cls-10,.cls-5,.cls-6,.cls-7,.cls-8,.cls-9{fill:none;stroke:#dcfffe;stroke-miterlimit:10;stroke-width:3px;}.cls-6{stroke-dasharray:9.17 9.17;}.cls-7{stroke-dasharray:8.81 8.81;}.cls-8{stroke-dasharray:9.21 9.21;}.cls-9{stroke-dasharray:9.1 9.1;}.cls-10{stroke-dasharray:9.3 9.3;}.cls-11,.cls-12{font-size:50px;font-family:OpenSans-CondensedBold, Open Sans Condensed;font-weight:700;letter-spacing:0.02em;}.cls-11{fill:#fff;}.cls-12{fill:#676099;}</style></defs><title>4</title><g id="Camada_2" data-name="Camada 2"><g id="p1"><g class="cls-1"><path class="cls-2" d="M829.5,287.73l-33.76-25.85C615.07,123.56,391.47,64.8,166.14,96.44L124,102.35c-14.93,2.11-26.65,17.87-26.17,35.2s13,29.68,27.91,27.59l42.11-5.91C381,129.28,592.48,184.85,763.36,315.7l33.76,25.85a22.71,22.71,0,0,0,8.07,4c10.66,2.81,22.74-2.54,29.8-14.28C843.93,316.39,841.47,296.91,829.5,287.73Z"/><path class="cls-2" d="M695.37,440.91l-23.8-23.24c-130-126.9-298.3-171.13-473.89-124.52l-32.14,8.53c-14.81,3.92-25.13,20.9-23.07,37.91s15.74,27.64,30.54,23.7l32.15-8.54c159.18-42.22,311.75-2.12,429.61,112.9l23.8,23.23a23.08,23.08,0,0,0,10.27,5.9c9.65,2.54,20.63-1.54,28-11.52C707,471.46,706.33,451.6,695.37,440.91Z"/><path class="cls-2" d="M566.58,597.15,552.27,576.4C470.19,457.53,353.45,426.84,223.54,490l-22.66,11c-14.2,6.9-21.92,25.5-17.24,41.54s20,23.44,34.16,16.53l22.67-11c107.65-52.35,200.49-28,268.5,70.55l14.32,20.74a23.72,23.72,0,0,0,13.51,9.75c8,2.11,17.13-.28,24.37-7.35C573.13,630.13,575.55,610.13,566.58,597.15Z"/><ellipse class="cls-2" cx="347.63" cy="703.98" rx="74.5" ry="62.28" transform="translate(-421.59 861.28) rotate(-75.28)"/></g></g><g id="casinhas"><circle class="cls-2" cx="381.23" cy="455.67" r="160.68"/><path class="cls-3" d="M317.77,346.62h16.9l.82,211.45,168.88,34.67v.76l94-16.74-1.81-1.62V391.59c0-2.12-.17-4.72-.37-7.73-.81-12.36-2-30.95,9-32.33h.25v0h.18l3-.25-91.76-98-110.09,1-89.12,90.27Zm193,8.49.54-.53L413.71,257l101.87-.92,86.77,92.72Zm-3.49,234.94L505.5,358.37,597.9,352c-6.28,6.65-5.31,21.43-4.61,32,.2,3,.37,5.51.37,7.54V574.66Zm-7-158.89v14.32L340.3,428.66l80.82-6.22ZM422.4,444.91l77.84,8.19V554.91L422.4,541.77Zm77.84,144L344,556.86l77.16-12.37,79.1,13.36ZM338.37,554.83,337.91,436l81.6,8.59v97.21Zm-.48-123.51,162.35,17.07v1.8L337.9,433.11Zm-.33-86,7.95-8h74.92l-.73,82.31-81.83,6.29Zm10.85-10.85,65.5-65.5,37,37-29.55,28.52Zm151.83,20.83v73L422.6,419.7l.73-83.15L452.94,308Zm4.11,234.5-1.21-.25V429.67Zm-182-246.06L408,257.07h1.84l-.07.07,98.18,98.18-3.3.23-90.69-90.69-1,1L335,343.72Z"/><path class="cls-3" d="M364.59,461.88v46.86l29.18-3.17V458.75Zm2.89,2.6,19.11-2.05.17,39.29-19.28,2.14ZM390.87,462v40.38l-1.21-.33-.18-39.9Z"/><path class="cls-3" d="M466.5,508.06V461.91l-26.65-3.56v46.1Zm-23.76-46.41,3,.41-.17,38-2.83,1.13Zm20.86,2.8V502.5l-15.14-2.58.17-37.48Z"/><path class="cls-3" d="M466.5,382.7V336.37l-26.65-.89v46.07Zm-23.76-44.23,1.88.07v40.32l-1.88-.08Zm20.86,41.21-16.09-.7V338.63l16.09.54Z"/><path class="cls-4" d="M298.06,357.23H315l.82,211.45,168.88,34.67v.76l94-16.74-1.8-1.62V402.2c0-2.12-.18-4.72-.37-7.73-.82-12.36-2.05-31,9-32.33h.26l.18,0,3-.25-91.75-98-110.1,1-89.11,90.27Zm193,8.5.53-.54L394,267.63l101.86-.91,86.77,92.72Zm-3.49,234.93L485.79,369l92.4-6.35c-6.28,6.65-5.3,21.44-4.6,32,.19,3,.36,5.51.36,7.54V585.27Zm-7-158.89v14.32L320.6,439.27l80.81-6.21ZM402.7,455.52l77.84,8.19V565.52L402.7,552.38Zm77.84,144L324.27,567.47l77.17-12.37,79.1,13.36ZM318.66,565.44l-.46-118.81,81.6,8.59v97.21Zm-.47-123.51L480.54,459v1.79L318.19,443.72Zm-.34-86,8-8h74.92L400,430.26l-81.83,6.3Zm10.85-10.85,65.51-65.5,37,37-29.55,28.52Zm151.84,20.83v73l-77.65-8.55.74-83.15,29.61-28.57Zm4.1,234.5-1.21-.25V440.28Zm-181.94-246,85.54-86.65,1.84,0-.06.07,98.18,98.18-3.31.23-90.68-90.69-1,1-77.85,77.85Z"/><path class="cls-4" d="M344.88,472.49v46.86l29.18-3.17V469.36Zm2.89,2.6,19.12-2,.16,39.29-19.28,2.14Zm23.4-2.51V513l-1.22-.33-.17-39.9Z"/><path class="cls-4" d="M446.79,518.67V472.52L420.14,469v46.1ZM423,472.27l3,.4-.17,38L423,511.76Zm20.86,2.79v38.05l-15.14-2.57.17-37.49Z"/><path class="cls-4" d="M446.79,393.31V347l-26.65-.89v46.07ZM423,349.08l1.87.07v40.32l-1.87-.08Zm20.86,41.21-16.09-.7V349.24l16.09.54Z"/><line class="cls-5" x1="413.54" y1="72.2" x2="409.83" y2="74.75"/><line class="cls-6" x1="402.27" y1="79.93" x2="134.03" y2="264.06"/><line class="cls-5" x1="130.25" y1="266.65" x2="126.54" y2="269.2"/><line class="cls-5" x1="118.54" y1="345.2" x2="119.58" y2="349.58"/><line class="cls-7" x1="121.6" y1="358.16" x2="189.49" y2="645.53"/><line class="cls-5" x1="190.51" y1="649.82" x2="191.54" y2="654.2"/><line class="cls-5" x1="270.54" y1="725.2" x2="275" y2="724.6"/><line class="cls-8" x1="284.13" y1="723.37" x2="626.52" y2="677.41"/><line class="cls-5" x1="631.08" y1="676.8" x2="635.54" y2="676.2"/><line class="cls-5" x1="692.53" y1="631.69" x2="693.61" y2="627.33"/><line class="cls-9" x1="695.81" y1="618.49" x2="769.37" y2="322.49"/><line class="cls-5" x1="770.47" y1="318.07" x2="771.56" y2="313.7"/><line class="cls-5" x1="728.54" y1="234.2" x2="724.93" y2="231.52"/><line class="cls-10" x1="717.45" y1="225.98" x2="511.89" y2="73.65"/><line class="cls-5" x1="508.16" y1="70.88" x2="504.54" y2="68.2"/></g><g id="recursos_casinha_alternativo" data-name="recursos casinha alternativo"><text class="cls-11" transform="translate(66 718.85)">segurança</text><text class="cls-11" transform="translate(673 718.85)">sistema<tspan x="0" y="60">hidráulico</tspan></text><text class="cls-11" transform="translate(670 294.85)">temperatura</text><text class="cls-11" transform="translate(381 42.85)">comodidades</text><text class="cls-11" transform="translate(0 314.85)">serviços</text><text class="cls-12" transform="translate(73 730.85)">segurança</text><text class="cls-12" transform="translate(680 730.85)">sistema<tspan x="0" y="60">hidráulico</tspan></text><text class="cls-12" transform="translate(388 54.85)">comodidades</text><text class="cls-12" transform="translate(7 326.85)">serviços</text><text class="cls-12" transform="translate(677 306.85)">temperatura</text></g></g></svg>