<svg xmlns="http://www.w3.org/2000/svg" viewBox="0 0 1035.11 803.22"><defs><style>.cls-1{fill:#676099;}.cls-2{font-size:60.55px;}.cls-2,.cls-3{fill:#fff;font-family:OpenSans-CondensedBold, Open Sans Condensed;font-weight:700;}.cls-3{font-size:30.28px;}.cls-4{letter-spacing:-0.02em;}.cls-5{opacity:0.36;}.cls-6{fill:#ffe078;}</style></defs><title>7</title><g id="Camada_2" data-name="Camada 2"><g id="formas"><path class="cls-1" d="M19.51,324.82c-81.5,208,104.36,318.3,334,267,50.6-11.31,82.28-30,128.87-8.53,36.4,16.79,52.91,43.28,99.69,46.75,90,6.66,220.33-58.66,287.63-119.95,131.08-119.37,176.93-281.72,69.78-391.83C870.84,47.69,779.8,44.06,678.33,22.49c-84.85-18-161.62-27.26-254.06-20C340.77,9,275.64,15.8,212.69,77.88,145.23,144.38,80.49,208.81,19.51,324.82Z"/></g><g id="textos_p2" data-name="textos p2"><text class="cls-2" transform="translate(272.71 141.05) scale(0.99 1)">Xiaomi Ninestars</text><text class="cls-3" transform="translate(143.11 211.2) scale(0.99 1)">Produzida em parceria com uma fabricante terceirizada, a Xiaomi <tspan x="0" y="36.33">Ninestars é uma lixeira que abre a própria tampa sozinha devido a </tspan><tspan x="0" y="72.66">um mecanismo silencioso de indução e um sensor infravermelho de </tspan><tspan x="0" y="109">pr</tspan><tspan class="cls-4" x="25.22" y="109">o</tspan><tspan x="39.72" y="109">ximidade. Basta você apr</tspan><tspan class="cls-4" x="337.46" y="109">o</tspan><tspan x="351.96" y="109">ximar a mão do objeto para que a </tspan><tspan x="0" y="145.33">tampa se levante, evitando o contato do corpo com o objeto (e </tspan><tspan x="0" y="181.66">possíveis transmissões de bactérias). Além disso, a tampa tem um </tspan><tspan x="0" y="217.99">mecanismo que evita que os odores escapem e um anel de pressão </tspan><tspan x="0" y="254.32">que esconde a sacola utilizada em seu interior.</tspan></text></g><g id="imgs_p2_p3" data-name="imgs p2 p3"><g class="cls-5"><path class="cls-6" d="M992.11,573.79c-12.1,0-18.26-7.91-23.69-14.89s-9.92-12.76-19.32-12.76-14,5.91-19.31,12.76-11.58,14.89-23.69,14.89-18.25-7.91-23.68-14.89-9.92-12.76-19.32-12.76-14,5.91-19.31,12.76-11.58,14.89-23.69,14.89-18.25-7.91-23.68-14.89-9.92-12.76-19.31-12.76-14,5.91-19.32,12.76-11.58,14.89-23.68,14.89-18.26-7.91-23.69-14.89-9.92-12.76-19.31-12.76-14,5.91-19.32,12.76-11.58,14.89-23.68,14.89-18.26-7.91-23.69-14.89-9.91-12.76-19.31-12.76-14,5.91-19.32,12.76-11.58,14.89-23.68,14.89-18.25-7.91-23.68-14.89-9.92-12.76-19.32-12.76v-5.52c12.11,0,18.26,7.91,23.68,14.88s9.92,12.76,19.32,12.76,14-5.91,19.32-12.76,11.58-14.88,23.68-14.88,18.25,7.91,23.68,14.88,9.92,12.76,19.32,12.76,14-5.91,19.31-12.76,11.58-14.88,23.69-14.88,18.25,7.91,23.68,14.88,9.92,12.76,19.32,12.76,14-5.91,19.31-12.76,11.58-14.88,23.69-14.88,18.25,7.91,23.68,14.88,9.92,12.76,19.31,12.76,14-5.91,19.32-12.76S851,540.62,863.1,540.62s18.26,7.91,23.69,14.88,9.92,12.76,19.31,12.76,14-5.91,19.32-12.76S937,540.62,949.1,540.62s18.26,7.91,23.69,14.88,9.92,12.76,19.32,12.76,14-5.91,19.32-12.76,11.58-14.88,23.68-14.88v5.52c-9.4,0-14,5.91-19.32,12.76S1004.21,573.79,992.11,573.79Z"/></g><g class="cls-5"><path class="cls-6" d="M992.11,612c-12.1,0-18.26-7.91-23.69-14.89s-9.92-12.76-19.32-12.76-14,5.91-19.31,12.76S918.21,612,906.1,612s-18.25-7.91-23.68-14.89-9.92-12.76-19.32-12.76-14,5.91-19.31,12.76S832.21,612,820.1,612s-18.25-7.91-23.68-14.89-9.92-12.76-19.31-12.76-14,5.91-19.32,12.76S746.21,612,734.11,612s-18.26-7.91-23.69-14.89-9.92-12.76-19.31-12.76-14,5.91-19.32,12.76S660.21,612,648.11,612s-18.26-7.91-23.69-14.89-9.91-12.76-19.31-12.76-14,5.91-19.32,12.76S574.21,612,562.11,612s-18.25-7.91-23.68-14.89-9.92-12.76-19.32-12.76v-5.53c12.11,0,18.26,7.91,23.68,14.89s9.92,12.76,19.32,12.76,14-5.91,19.32-12.76,11.58-14.89,23.68-14.89,18.25,7.91,23.68,14.89,9.92,12.76,19.32,12.76,14-5.91,19.31-12.76,11.58-14.89,23.69-14.89,18.25,7.91,23.68,14.89,9.92,12.76,19.32,12.76,14-5.91,19.31-12.76,11.58-14.89,23.69-14.89,18.25,7.91,23.68,14.89,9.92,12.76,19.31,12.76,14-5.91,19.32-12.76S851,578.85,863.1,578.85s18.26,7.91,23.69,14.89,9.92,12.76,19.31,12.76,14-5.91,19.32-12.76S937,578.85,949.1,578.85s18.26,7.91,23.69,14.89,9.92,12.76,19.32,12.76,14-5.91,19.32-12.76,11.58-14.89,23.68-14.89v5.53c-9.4,0-14,5.91-19.32,12.76S1004.21,612,992.11,612Z"/></g><g class="cls-5"><path class="cls-6" d="M992.11,650.27c-12.1,0-18.26-7.91-23.69-14.89s-9.92-12.76-19.32-12.76-14,5.91-19.31,12.76-11.58,14.89-23.69,14.89-18.25-7.91-23.68-14.89-9.92-12.76-19.32-12.76-14,5.91-19.31,12.76-11.58,14.89-23.69,14.89-18.25-7.91-23.68-14.89-9.92-12.76-19.31-12.76-14,5.91-19.32,12.76-11.58,14.89-23.68,14.89-18.26-7.91-23.69-14.89-9.92-12.76-19.31-12.76-14,5.91-19.32,12.76-11.58,14.89-23.68,14.89-18.26-7.91-23.69-14.89-9.91-12.76-19.31-12.76-14,5.91-19.32,12.76-11.58,14.89-23.68,14.89-18.25-7.91-23.68-14.89-9.92-12.76-19.32-12.76v-5.53c12.11,0,18.26,7.91,23.68,14.89s9.92,12.76,19.32,12.76,14-5.91,19.32-12.76,11.58-14.89,23.68-14.89S623.36,625,628.79,632s9.92,12.76,19.32,12.76,14-5.91,19.31-12.76,11.58-14.89,23.69-14.89S709.36,625,714.79,632s9.92,12.76,19.32,12.76,14-5.91,19.31-12.76,11.58-14.89,23.69-14.89S795.36,625,800.79,632s9.92,12.76,19.31,12.76,14-5.91,19.32-12.76S851,617.09,863.1,617.09,881.36,625,886.79,632s9.92,12.76,19.31,12.76,14-5.91,19.32-12.76S937,617.09,949.1,617.09,967.36,625,972.79,632s9.92,12.76,19.32,12.76,14-5.91,19.32-12.76,11.58-14.89,23.68-14.89v5.53c-9.4,0-14,5.91-19.32,12.76S1004.21,650.27,992.11,650.27Z"/></g><g class="cls-5"><path class="cls-6" d="M992.11,688.5c-12.1,0-18.26-7.91-23.69-14.88s-9.92-12.76-19.32-12.76-14,5.91-19.31,12.76S918.21,688.5,906.1,688.5s-18.25-7.91-23.68-14.88-9.92-12.76-19.32-12.76-14,5.91-19.31,12.76S832.21,688.5,820.1,688.5s-18.25-7.91-23.68-14.88-9.92-12.76-19.31-12.76-14,5.91-19.32,12.76-11.58,14.88-23.68,14.88-18.26-7.91-23.69-14.88-9.92-12.76-19.31-12.76-14,5.91-19.32,12.76-11.58,14.88-23.68,14.88-18.26-7.91-23.69-14.88-9.91-12.76-19.31-12.76-14,5.91-19.32,12.76-11.58,14.88-23.68,14.88-18.25-7.91-23.68-14.88-9.92-12.76-19.32-12.76v-5.53c12.11,0,18.26,7.91,23.68,14.89S552.71,683,562.11,683s14-5.91,19.32-12.76,11.58-14.89,23.68-14.89,18.25,7.91,23.68,14.89S638.71,683,648.11,683s14-5.91,19.31-12.76,11.58-14.89,23.69-14.89,18.25,7.91,23.68,14.89S724.71,683,734.11,683s14-5.91,19.31-12.76,11.58-14.89,23.69-14.89,18.25,7.91,23.68,14.89S810.71,683,820.1,683s14-5.91,19.32-12.76S851,655.33,863.1,655.33s18.26,7.91,23.69,14.89S896.71,683,906.1,683s14-5.91,19.32-12.76S937,655.33,949.1,655.33s18.26,7.91,23.69,14.89S982.71,683,992.11,683s14-5.91,19.32-12.76,11.58-14.89,23.68-14.89v5.53c-9.4,0-14,5.91-19.32,12.76S1004.21,688.5,992.11,688.5Z"/></g><g class="cls-5"><path class="cls-6" d="M992.11,726.74c-12.1,0-18.26-7.91-23.69-14.88S958.5,699.1,949.1,699.1s-14,5.91-19.31,12.76-11.58,14.88-23.69,14.88-18.25-7.91-23.68-14.88S872.5,699.1,863.1,699.1s-14,5.91-19.31,12.76-11.58,14.88-23.69,14.88-18.25-7.91-23.68-14.88-9.92-12.76-19.31-12.76-14,5.91-19.32,12.76-11.58,14.88-23.68,14.88-18.26-7.91-23.69-14.88-9.92-12.76-19.31-12.76-14,5.91-19.32,12.76-11.58,14.88-23.68,14.88-18.26-7.91-23.69-14.88-9.91-12.76-19.31-12.76-14,5.91-19.32,12.76-11.58,14.88-23.68,14.88-18.25-7.91-23.68-14.88-9.92-12.76-19.32-12.76v-5.53c12.11,0,18.26,7.91,23.68,14.89s9.92,12.76,19.32,12.76,14-5.92,19.32-12.76,11.58-14.89,23.68-14.89,18.25,7.91,23.68,14.89,9.92,12.76,19.32,12.76,14-5.92,19.31-12.76,11.58-14.89,23.69-14.89,18.25,7.91,23.68,14.89,9.92,12.76,19.32,12.76,14-5.92,19.31-12.76,11.58-14.89,23.69-14.89,18.25,7.91,23.68,14.89,9.92,12.76,19.31,12.76,14-5.92,19.32-12.76S851,693.57,863.1,693.57s18.26,7.91,23.69,14.89,9.92,12.76,19.31,12.76,14-5.92,19.32-12.76S937,693.57,949.1,693.57s18.26,7.91,23.69,14.89,9.92,12.76,19.32,12.76,14-5.92,19.32-12.76,11.58-14.89,23.68-14.89v5.53c-9.4,0-14,5.91-19.32,12.76S1004.21,726.74,992.11,726.74Z"/></g><g class="cls-5"><path class="cls-6" d="M992.11,765c-12.1,0-18.26-7.91-23.69-14.89s-9.92-12.75-19.32-12.75-14,5.91-19.31,12.75S918.21,765,906.1,765s-18.25-7.91-23.68-14.89-9.92-12.75-19.32-12.75-14,5.91-19.31,12.75S832.21,765,820.1,765s-18.25-7.91-23.68-14.89-9.92-12.75-19.31-12.75-14,5.91-19.32,12.75S746.21,765,734.11,765s-18.26-7.91-23.69-14.89-9.92-12.75-19.31-12.75-14,5.91-19.32,12.75S660.21,765,648.11,765s-18.26-7.91-23.69-14.89-9.91-12.75-19.31-12.75-14,5.91-19.32,12.75S574.21,765,562.11,765s-18.25-7.91-23.68-14.89-9.92-12.75-19.32-12.75v-5.53c12.11,0,18.26,7.91,23.68,14.89s9.92,12.75,19.32,12.75,14-5.91,19.32-12.75,11.58-14.89,23.68-14.89,18.25,7.91,23.68,14.89,9.92,12.75,19.32,12.75,14-5.91,19.31-12.75,11.58-14.89,23.69-14.89,18.25,7.91,23.68,14.89,9.92,12.75,19.32,12.75,14-5.91,19.31-12.75,11.58-14.89,23.69-14.89,18.25,7.91,23.68,14.89,9.92,12.75,19.31,12.75,14-5.91,19.32-12.75S851,731.81,863.1,731.81s18.26,7.91,23.69,14.89,9.92,12.75,19.31,12.75,14-5.91,19.32-12.75S937,731.81,949.1,731.81s18.26,7.91,23.69,14.89,9.92,12.75,19.32,12.75,14-5.91,19.32-12.75,11.58-14.89,23.68-14.89v5.53c-9.4,0-14,5.91-19.32,12.76S1004.21,765,992.11,765Z"/></g><g class="cls-5"><path class="cls-6" d="M992.11,803.22c-12.1,0-18.26-7.91-23.69-14.89s-9.92-12.75-19.32-12.75-14,5.91-19.31,12.75-11.58,14.89-23.69,14.89-18.25-7.91-23.68-14.89-9.92-12.75-19.32-12.75-14,5.91-19.31,12.75-11.58,14.89-23.69,14.89-18.25-7.91-23.68-14.89-9.92-12.75-19.31-12.75-14,5.91-19.32,12.75-11.58,14.89-23.68,14.89-18.26-7.91-23.69-14.89-9.92-12.75-19.31-12.75-14,5.91-19.32,12.75-11.58,14.89-23.68,14.89-18.26-7.91-23.69-14.89-9.91-12.75-19.31-12.75-14,5.91-19.32,12.75-11.58,14.89-23.68,14.89-18.25-7.91-23.68-14.89-9.92-12.75-19.32-12.75v-5.53c12.11,0,18.26,7.91,23.68,14.89s9.92,12.75,19.32,12.75,14-5.91,19.32-12.75,11.58-14.89,23.68-14.89,18.25,7.91,23.68,14.89,9.92,12.75,19.32,12.75,14-5.91,19.31-12.75,11.58-14.89,23.69-14.89,18.25,7.91,23.68,14.89,9.92,12.75,19.32,12.75,14-5.91,19.31-12.75,11.58-14.89,23.69-14.89,18.25,7.91,23.68,14.89,9.92,12.75,19.31,12.75,14-5.91,19.32-12.75S851,770.05,863.1,770.05s18.26,7.91,23.69,14.89,9.92,12.75,19.31,12.75,14-5.91,19.32-12.75S937,770.05,949.1,770.05s18.26,7.91,23.69,14.89,9.92,12.75,19.32,12.75,14-5.91,19.32-12.75,11.58-14.89,23.68-14.89v5.53c-9.4,0-14,5.91-19.32,12.75S1004.21,803.22,992.11,803.22Z"/></g></g></g></svg>