<svg xmlns="http://www.w3.org/2000/svg" viewBox="0 0 845.39 565.69"><defs><style>.cls-1{fill:#676099;}.cls-2{font-size:60px;font-family:OpenSans-CondensedBold, Open Sans Condensed;font-weight:700;}.cls-2,.cls-3{fill:#fff;}</style></defs><title>9_1</title><g id="Camada_2" data-name="Camada 2"><g id="textos_p2" data-name="textos p2"><path class="cls-1" d="M14.11,277.25C-49.5,460.49,111.55,564,305.41,524.5c42.72-8.71,69.14-24.52,109.34-4.08,31.41,16,46.17,40,86,44.41,76.75,8.41,185.74-46.28,241.29-99.11,108.18-102.88,142.73-246.42,48.6-347.55C730.38,53.37,652.87,47.64,566,25.63,493.37,7.22,427.84-3.11,349.44.83c-70.82,3.56-126,7.81-177.84,61.46C116.07,119.76,62.78,175.45,14.11,277.25Z"/><text class="cls-2" transform="translate(196.59 175.25)">Cafeteira inteligente</text><path class="cls-3" d="M79,244.75l-1.23-5.4H72.21L71,244.75H67l5.31-21.5h5.4L83,244.75Zm-2-8.93-1.14-5c-.07-.31-.22-1.07-.46-2.28s-.39-2-.43-2.44c-.13.84-.29,1.76-.49,2.77s-.7,3.32-1.52,6.93Z"/><path class="cls-3" d="M107.06,234c0,3.55-.67,6.27-2,8.18a7.13,7.13,0,0,1-11.41,0q-2-2.83-2-8.21t2-8.15A6.58,6.58,0,0,1,99.39,223a6.5,6.5,0,0,1,5.69,2.85Q107.06,228.7,107.06,234Zm-11.33,0a13.14,13.14,0,0,0,.93,5.58,2.91,2.91,0,0,0,2.71,1.92q3.6,0,3.6-7.5t-3.58-7.5a2.92,2.92,0,0,0-2.73,1.92A13.14,13.14,0,0,0,95.73,234Z"/><path class="cls-3" d="M118.7,240a4.91,4.91,0,0,1-1.4,3.72,5.69,5.69,0,0,1-4.12,1.34,7.59,7.59,0,0,1-4-.95v-3.38a7.48,7.48,0,0,0,1.88.92,5.87,5.87,0,0,0,1.9.37,1.93,1.93,0,0,0,1.38-.45,1.54,1.54,0,0,0,.48-1.18,1.89,1.89,0,0,0-.5-1.3,8.2,8.2,0,0,0-1.83-1.36,7.63,7.63,0,0,1-2.54-2.25,5.14,5.14,0,0,1-.77-2.82,4.11,4.11,0,0,1,1.43-3.3,5.85,5.85,0,0,1,3.92-1.21,7.86,7.86,0,0,1,4.08,1.14l-1.27,2.8a5.92,5.92,0,0,0-2.75-.85,1.5,1.5,0,0,0-1.13.39,1.41,1.41,0,0,0-.37,1,1.73,1.73,0,0,0,.46,1.17,8,8,0,0,0,1.72,1.27,11,11,0,0,1,2.14,1.57,4.59,4.59,0,0,1,1,1.47A4.88,4.88,0,0,1,118.7,240Z"/><path class="cls-3" d="M126.83,241.75a4.52,4.52,0,0,0,1.77-.41v3a5,5,0,0,1-2.85.66,3.81,3.81,0,0,1-3.15-1.26,5.92,5.92,0,0,1-1-3.8v-8.46H120v-1.74l2-1.41,1-3.45h2.49v3.51h3v3.09h-3v8.59C125.51,241.2,126,241.75,126.83,241.75Z"/><path class="cls-3" d="M136.91,245a5.89,5.89,0,0,1-4.83-2.17,9.57,9.57,0,0,1-1.76-6.16,10.84,10.84,0,0,1,1.59-6.31,5.13,5.13,0,0,1,4.46-2.27,5.05,5.05,0,0,1,4.2,1.94,8.51,8.51,0,0,1,1.54,5.44v2.08h-7.84a5.3,5.3,0,0,0,.9,3.24,2.81,2.81,0,0,0,2.34,1.06,7.61,7.61,0,0,0,3.9-1.18v3.21A8.59,8.59,0,0,1,136.91,245Zm-.57-13.91A1.58,1.58,0,0,0,135,232a6,6,0,0,0-.63,2.75h4a5.82,5.82,0,0,0-.55-2.71A1.56,1.56,0,0,0,136.34,231.13Z"/><path class="cls-3" d="M151.65,228.13a4.8,4.8,0,0,1,1.4.21l-.45,3.78a3.51,3.51,0,0,0-1.07-.14,2.46,2.46,0,0,0-2.18,1.12,5.77,5.77,0,0,0-.77,3.26v8.39h-3.89V228.43h3.21l.44,2.55h.13a6.09,6.09,0,0,1,1.4-2.2A2.63,2.63,0,0,1,151.65,228.13Z"/><path class="cls-3" d="M166.4,244.75h-4V223.34H172v3.44H166.4v5.94h5.26v3.45H166.4Z"/><path class="cls-3" d="M178.38,244.75h-3.9V222h3.9Z"/><path class="cls-3" d="M189.64,244.75l-.77-2.23h-.09a5.5,5.5,0,0,1-1.79,2,4.54,4.54,0,0,1-2.33.54,3.39,3.39,0,0,1-2.83-1.34,6,6,0,0,1-1-3.75,4.85,4.85,0,0,1,1.41-3.83,6.68,6.68,0,0,1,4.23-1.39l2.16-.09v-1.17c0-1.52-.66-2.28-2-2.28a6.77,6.77,0,0,0-3.37,1.14l-1.35-2.7a9.73,9.73,0,0,1,5.29-1.53,5,5,0,0,1,3.94,1.48,6,6,0,0,1,1.36,4.21v11ZM186.26,242a2,2,0,0,0,1.71-1,4.6,4.6,0,0,0,.63-2.56V237.1l-1.2.06a2.74,2.74,0,0,0-2,.76,3,3,0,0,0-.63,2.06C184.82,241.32,185.3,242,186.26,242Z"/><path class="cls-3" d="M198.26,244.75,194,228.43h4l2.08,9.45c.09.44.19,1.08.31,1.93s.2,1.45.23,1.82h.06q0-.44.12-1.26c.08-.55.15-1.05.23-1.51s.83-3.93,2.26-10.43h4l-4.28,16.32Z"/><path class="cls-3" d="M221.11,236.56a10.14,10.14,0,0,1-1.7,6.25,5.94,5.94,0,0,1-8,1.21,6.48,6.48,0,0,1-2.21-3,12,12,0,0,1-.78-4.51,10.06,10.06,0,0,1,1.69-6.2,5.51,5.51,0,0,1,4.67-2.23,5.44,5.44,0,0,1,4.59,2.27A10,10,0,0,1,221.11,236.56Zm-8.67,0a10.35,10.35,0,0,0,.55,3.86,1.88,1.88,0,0,0,1.79,1.3q2.34,0,2.34-5.16a9.84,9.84,0,0,0-.56-3.83,1.89,1.89,0,0,0-3.57,0A10.07,10.07,0,0,0,212.44,236.56Z"/><path class="cls-3" d="M230.81,228.13a4.8,4.8,0,0,1,1.4.21l-.45,3.78a3.51,3.51,0,0,0-1.07-.14,2.46,2.46,0,0,0-2.18,1.12,5.77,5.77,0,0,0-.77,3.26v8.39h-3.89V228.43h3.21l.44,2.55h.13a6.09,6.09,0,0,1,1.4-2.2A2.63,2.63,0,0,1,230.81,228.13Z"/><path class="cls-3" d="M247.39,245a5.89,5.89,0,0,1-4.83-2.17,9.52,9.52,0,0,1-1.76-6.16,10.84,10.84,0,0,1,1.59-6.31,5.13,5.13,0,0,1,4.46-2.27,5.06,5.06,0,0,1,4.2,1.94,8.51,8.51,0,0,1,1.54,5.44v2.08h-7.84a5.37,5.37,0,0,0,.89,3.24,2.84,2.84,0,0,0,2.35,1.06,7.55,7.55,0,0,0,3.89-1.18v3.21A8.55,8.55,0,0,1,247.39,245Zm-2.58-18.47v-.39A18.27,18.27,0,0,0,246.2,224c.53-1,.9-1.68,1.13-2.19H252v.31a12,12,0,0,1-1.75,2,32.76,32.76,0,0,1-2.69,2.47Zm2,4.56a1.58,1.58,0,0,0-1.38.88,6,6,0,0,0-.63,2.75h3.95a5.83,5.83,0,0,0-.54-2.71A1.56,1.56,0,0,0,246.82,231.13Z"/><path class="cls-3" d="M271.4,244.75l-.49-2.09h-.2a4.14,4.14,0,0,1-3.84,2.38,3.89,3.89,0,0,1-3.32-1.49,7.33,7.33,0,0,1-1.13-4.47V228.43h3.94v9.71a6.7,6.7,0,0,0,.42,2.7,1.43,1.43,0,0,0,1.38.91,1.93,1.93,0,0,0,1.84-1.26,11.16,11.16,0,0,0,.58-4.24v-7.82h3.94v16.32Z"/><path class="cls-3" d="M294,244.75V235c0-2.39-.59-3.58-1.77-3.58a1.88,1.88,0,0,0-1.84,1.28,11.06,11.06,0,0,0-.56,4.11v7.92h-3.93V235c0-2.39-.6-3.58-1.8-3.58a1.9,1.9,0,0,0-1.83,1.27,11.14,11.14,0,0,0-.57,4.2v7.84h-3.9V228.43h3.09l.47,2.1h.25a4,4,0,0,1,1.61-1.83,4.34,4.34,0,0,1,2.17-.57,3.89,3.89,0,0,1,4,2.82h.14a4.17,4.17,0,0,1,4-2.82,3.81,3.81,0,0,1,3.29,1.52,7.42,7.42,0,0,1,1.12,4.45v10.65Z"/><path class="cls-3" d="M309.06,244.75l-.78-2.23h-.09a5.49,5.49,0,0,1-1.78,2,4.59,4.59,0,0,1-2.33.54,3.41,3.41,0,0,1-2.84-1.34,6,6,0,0,1-1-3.75,4.85,4.85,0,0,1,1.41-3.83,6.7,6.7,0,0,1,4.23-1.39l2.17-.09v-1.17q0-2.28-2-2.28a6.77,6.77,0,0,0-3.37,1.14l-1.35-2.7a9.76,9.76,0,0,1,5.29-1.53,5.07,5.07,0,0,1,3.95,1.48,6.05,6.05,0,0,1,1.35,4.21v11ZM305.67,242a2,2,0,0,0,1.71-1,4.6,4.6,0,0,0,.64-2.56V237.1l-1.2.06a2.79,2.79,0,0,0-2,.76,3,3,0,0,0-.62,2.06C304.24,241.32,304.72,242,305.67,242Z"/><path class="cls-3" d="M327.87,245a5.1,5.1,0,0,1-4.44-2.12,10.64,10.64,0,0,1-1.53-6.24q0-4.31,1.45-6.43a5,5,0,0,1,4.46-2.12,7.23,7.23,0,0,1,1.9.26,6.27,6.27,0,0,1,1.79.76l-1.11,3a4.36,4.36,0,0,0-2.16-.72,1.86,1.86,0,0,0-1.79,1.3,10.42,10.42,0,0,0-.55,3.89,10.1,10.1,0,0,0,.54,3.79,1.83,1.83,0,0,0,1.77,1.25,5.62,5.62,0,0,0,3.06-1v3.43A6.24,6.24,0,0,1,327.87,245Z"/><path class="cls-3" d="M341.61,244.75l-.78-2.23h-.09a5.49,5.49,0,0,1-1.78,2,4.59,4.59,0,0,1-2.33.54,3.41,3.41,0,0,1-2.84-1.34,6,6,0,0,1-1-3.75,4.85,4.85,0,0,1,1.41-3.83,6.68,6.68,0,0,1,4.23-1.39l2.17-.09v-1.17q0-2.28-2-2.28a6.77,6.77,0,0,0-3.37,1.14l-1.35-2.7a9.76,9.76,0,0,1,5.29-1.53,5.09,5.09,0,0,1,3.95,1.48,6.05,6.05,0,0,1,1.35,4.21v11ZM338.22,242a2,2,0,0,0,1.71-1,4.6,4.6,0,0,0,.64-2.56V237.1l-1.2.06a2.77,2.77,0,0,0-2,.76,3,3,0,0,0-.62,2.06C336.79,241.32,337.27,242,338.22,242Z"/><path class="cls-3" d="M354.86,231.52h-2.69v13.23h-3.9V231.52h-1.89v-1.94l1.89-1.18v-1.23a6.17,6.17,0,0,1,1.13-4A4.52,4.52,0,0,1,353,221.8a6.68,6.68,0,0,1,3,.66l-1,3a3.46,3.46,0,0,0-1.49-.35,1,1,0,0,0-1,.53,3.25,3.25,0,0,0-.31,1.62v1.2h2.69Z"/><path class="cls-3" d="M362.6,245a5.89,5.89,0,0,1-4.83-2.17,9.52,9.52,0,0,1-1.76-6.16,10.84,10.84,0,0,1,1.59-6.31,5.13,5.13,0,0,1,4.46-2.27,5.06,5.06,0,0,1,4.2,1.94,8.51,8.51,0,0,1,1.54,5.44v2.08H360a5.37,5.37,0,0,0,.89,3.24,2.84,2.84,0,0,0,2.35,1.06,7.55,7.55,0,0,0,3.89-1.18v3.21A8.55,8.55,0,0,1,362.6,245ZM362,231.13a1.58,1.58,0,0,0-1.38.88,6,6,0,0,0-.63,2.75h4a5.83,5.83,0,0,0-.54-2.71A1.56,1.56,0,0,0,362,231.13Z"/><path class="cls-3" d="M376.05,241.75a4.6,4.6,0,0,0,1.77-.41v3A5.06,5.06,0,0,1,375,245a3.84,3.84,0,0,1-3.15-1.26,6,6,0,0,1-1-3.8v-8.46H369.2v-1.74l2-1.41,1-3.45h2.49v3.51h3v3.09h-3v8.59C374.73,241.2,375.17,241.75,376.05,241.75Z"/><path class="cls-3" d="M386.12,245a5.86,5.86,0,0,1-4.82-2.17,9.52,9.52,0,0,1-1.77-6.16,10.77,10.77,0,0,1,1.6-6.31,5.52,5.52,0,0,1,8.66-.33,8.57,8.57,0,0,1,1.53,5.44v2.08h-7.83a5.3,5.3,0,0,0,.89,3.24,2.83,2.83,0,0,0,2.34,1.06,7.61,7.61,0,0,0,3.9-1.18v3.21A8.59,8.59,0,0,1,386.12,245Zm-.57-13.91a1.58,1.58,0,0,0-1.37.88,5.8,5.8,0,0,0-.63,2.75h3.95a6,6,0,0,0-.54-2.71A1.57,1.57,0,0,0,385.55,231.13Z"/><path class="cls-3" d="M393.77,224.17a1.94,1.94,0,0,1,2.14-2.09,2.17,2.17,0,0,1,1.51,3.64,2.15,2.15,0,0,1-1.51.54,2.18,2.18,0,0,1-1.55-.54A2,2,0,0,1,393.77,224.17Zm4.06,20.58h-3.9V228.43h3.9Z"/><path class="cls-3" d="M408.13,228.13a4.8,4.8,0,0,1,1.4.21l-.45,3.78A3.51,3.51,0,0,0,408,232a2.46,2.46,0,0,0-2.18,1.12,5.77,5.77,0,0,0-.77,3.26v8.39h-3.89V228.43h3.21l.43,2.55H405a6,6,0,0,1,1.4-2.2A2.63,2.63,0,0,1,408.13,228.13Z"/><path class="cls-3" d="M419.27,244.75l-.77-2.23h-.09a5.5,5.5,0,0,1-1.79,2,4.54,4.54,0,0,1-2.33.54,3.39,3.39,0,0,1-2.83-1.34,6,6,0,0,1-1-3.75,4.85,4.85,0,0,1,1.41-3.83,6.67,6.67,0,0,1,4.22-1.39l2.17-.09v-1.17c0-1.52-.66-2.28-2-2.28a6.77,6.77,0,0,0-3.37,1.14l-1.35-2.7a9.73,9.73,0,0,1,5.29-1.53,5.06,5.06,0,0,1,3.94,1.48,6,6,0,0,1,1.36,4.21v11ZM415.89,242a2,2,0,0,0,1.71-1,4.6,4.6,0,0,0,.63-2.56V237.1l-1.2.06a2.74,2.74,0,0,0-1.95.76,3,3,0,0,0-.63,2.06C414.45,241.32,414.93,242,415.89,242Z"/><path class="cls-3" d="M440,245a3.61,3.61,0,0,1-1.87-.47,4.58,4.58,0,0,1-1.51-1.68h-.21q.24,2,.24,2.4V252h-3.93V228.43h3l.67,2.13h.18a3.81,3.81,0,0,1,7-.23,12.69,12.69,0,0,1,1.26,6.23,12.5,12.5,0,0,1-1.3,6.23A4,4,0,0,1,440,245Zm-1.2-13.6a1.71,1.71,0,0,0-1.65,1.06,9.26,9.26,0,0,0-.53,3.52v.51a11,11,0,0,0,.51,3.93,1.75,1.75,0,0,0,1.7,1.23q2.06,0,2.05-5.19a10.67,10.67,0,0,0-.51-3.8A1.67,1.67,0,0,0,438.77,231.44Z"/><path class="cls-3" d="M454.53,228.13a4.82,4.82,0,0,1,1.41.21l-.46,3.78a3.47,3.47,0,0,0-1.07-.14,2.48,2.48,0,0,0-2.18,1.12,5.78,5.78,0,0,0-.76,3.26v8.39h-3.9V228.43h3.21l.44,2.55h.13a6,6,0,0,1,1.41-2.2A2.62,2.62,0,0,1,454.53,228.13Z"/><path class="cls-3" d="M469.77,236.56a10.14,10.14,0,0,1-1.7,6.25,5.94,5.94,0,0,1-8,1.21,6.42,6.42,0,0,1-2.21-3,12,12,0,0,1-.78-4.51,10.13,10.13,0,0,1,1.68-6.2,5.53,5.53,0,0,1,4.68-2.23,5.44,5.44,0,0,1,4.59,2.27A10,10,0,0,1,469.77,236.56Zm-8.68,0a10.32,10.32,0,0,0,.56,3.86,1.88,1.88,0,0,0,1.79,1.3q2.34,0,2.34-5.16a10,10,0,0,0-.56-3.83,1.89,1.89,0,0,0-3.57,0A10,10,0,0,0,461.09,236.56Z"/><path class="cls-3" d="M484.25,228.46v2.29l-1.95.44a5.12,5.12,0,0,1,.58,2.57,5.6,5.6,0,0,1-1.41,4.06,5.19,5.19,0,0,1-3.93,1.47,3.6,3.6,0,0,1-1.08-.12,4.72,4.72,0,0,0-.53.56,1.2,1.2,0,0,0-.25.76c0,.68.59,1,1.78,1h2.35a4.38,4.38,0,0,1,3.21,1.12,4.64,4.64,0,0,1,1.12,3.38,5.36,5.36,0,0,1-1.91,4.4,8.5,8.5,0,0,1-5.48,1.55,6.47,6.47,0,0,1-4.17-1.18,4.07,4.07,0,0,1-1.47-3.36A3.7,3.7,0,0,1,472,245a4.71,4.71,0,0,1,2.31-1.5,2.77,2.77,0,0,1-1.22-.91,2.26,2.26,0,0,1-.48-1.43,2.5,2.5,0,0,1,.15-.9,3,3,0,0,1,.42-.77,8.87,8.87,0,0,1,1.1-1.06,4.17,4.17,0,0,1-1.59-1.89,6.68,6.68,0,0,1-.59-2.82,5.75,5.75,0,0,1,1.41-4.15,5.3,5.3,0,0,1,4-1.46,7.13,7.13,0,0,1,1.14.1,7.24,7.24,0,0,1,1,.23Zm-9.59,18.66a1.84,1.84,0,0,0,.61,1.49,2.55,2.55,0,0,0,1.73.52,4.36,4.36,0,0,0,2.66-.67,2.21,2.21,0,0,0,.89-1.85,1.57,1.57,0,0,0-.48-1.3,3,3,0,0,0-1.78-.38H476.4a1.53,1.53,0,0,0-1.27.59A2.54,2.54,0,0,0,474.66,247.12Zm1.2-13.36c0,1.93.54,2.89,1.63,2.89s1.58-1,1.58-2.91-.53-3-1.58-3S475.86,231.75,475.86,233.76Z"/><path class="cls-3" d="M493.17,228.13a4.82,4.82,0,0,1,1.41.21l-.45,3.78a3.51,3.51,0,0,0-1.07-.14,2.49,2.49,0,0,0-2.19,1.12,5.86,5.86,0,0,0-.76,3.26v8.39h-3.89V228.43h3.2l.44,2.55H490a6,6,0,0,1,1.4-2.2A2.62,2.62,0,0,1,493.17,228.13Z"/><path class="cls-3" d="M504.32,244.75l-.77-2.23h-.09a5.5,5.5,0,0,1-1.79,2,4.56,4.56,0,0,1-2.33.54,3.39,3.39,0,0,1-2.83-1.34,6,6,0,0,1-1-3.75,4.82,4.82,0,0,1,1.42-3.83,6.67,6.67,0,0,1,4.22-1.39l2.17-.09v-1.17q0-2.28-2-2.28a6.8,6.8,0,0,0-3.37,1.14l-1.34-2.7a9.73,9.73,0,0,1,5.29-1.53,5.06,5.06,0,0,1,3.94,1.48,6,6,0,0,1,1.36,4.21v11ZM500.94,242a2,2,0,0,0,1.7-1,4.52,4.52,0,0,0,.64-2.56V237.1l-1.2.06a2.74,2.74,0,0,0-1.95.76,3,3,0,0,0-.63,2.06C499.5,241.32,500,242,500.94,242Z"/><path class="cls-3" d="M526.53,244.75V235c0-2.39-.59-3.58-1.77-3.58a1.89,1.89,0,0,0-1.85,1.28,11.06,11.06,0,0,0-.56,4.11v7.92h-3.92V235c0-2.39-.6-3.58-1.8-3.58a1.9,1.9,0,0,0-1.83,1.27,10.89,10.89,0,0,0-.58,4.2v7.84h-3.89V228.43h3.09l.47,2.1h.25a4,4,0,0,1,1.6-1.83,4.38,4.38,0,0,1,2.18-.57,3.88,3.88,0,0,1,4,2.82h.15a4.16,4.16,0,0,1,4-2.82,3.79,3.79,0,0,1,3.28,1.52,7.42,7.42,0,0,1,1.12,4.45v10.65Z"/><path class="cls-3" d="M541.6,244.75l-.77-2.23h-.09a5.5,5.5,0,0,1-1.79,2,4.54,4.54,0,0,1-2.33.54,3.39,3.39,0,0,1-2.83-1.34,6,6,0,0,1-1-3.75,4.82,4.82,0,0,1,1.42-3.83,6.67,6.67,0,0,1,4.22-1.39l2.17-.09v-1.17q0-2.28-2-2.28a6.74,6.74,0,0,0-3.36,1.14l-1.35-2.7a9.73,9.73,0,0,1,5.29-1.53,5.06,5.06,0,0,1,3.94,1.48,6,6,0,0,1,1.36,4.21v11ZM538.22,242a2,2,0,0,0,1.71-1,4.6,4.6,0,0,0,.63-2.56V237.1l-1.2.06a2.74,2.74,0,0,0-2,.76,3,3,0,0,0-.63,2.06C536.78,241.32,537.26,242,538.22,242Zm-1-15.43v-.39a17.11,17.11,0,0,0,1.39-2.22c.53-1,.91-1.68,1.13-2.19h4.66v.31a12.32,12.32,0,0,1-1.74,2,34.51,34.51,0,0,1-2.7,2.47Z"/><path class="cls-3" d="M550.22,244.75,546,228.43h4l2.08,9.45c.08.44.19,1.08.31,1.93s.2,1.45.23,1.82h.06q0-.44.12-1.26c.07-.55.15-1.05.23-1.51s.83-3.93,2.25-10.43h4.05l-4.28,16.32Z"/><path class="cls-3" d="M567,245a5.86,5.86,0,0,1-4.82-2.17,9.52,9.52,0,0,1-1.77-6.16,10.77,10.77,0,0,1,1.6-6.31,5.12,5.12,0,0,1,4.45-2.27,5,5,0,0,1,4.2,1.94,8.51,8.51,0,0,1,1.54,5.44v2.08h-7.83a5.24,5.24,0,0,0,.89,3.24,2.83,2.83,0,0,0,2.34,1.06,7.61,7.61,0,0,0,3.9-1.18v3.21A8.59,8.59,0,0,1,567,245Zm-.57-13.91a1.59,1.59,0,0,0-1.38.88,6,6,0,0,0-.63,2.75h4a6,6,0,0,0-.54-2.71A1.57,1.57,0,0,0,566.43,231.13Z"/><path class="cls-3" d="M578.68,244.75h-3.9V222h3.9Z"/><path class="cls-3" d="M593.65,245a4,4,0,0,1-3.58-2.22,12.44,12.44,0,0,1-1.29-6.2,12.9,12.9,0,0,1,1.27-6.25,3.87,3.87,0,0,1,3.5-2.24,3.45,3.45,0,0,1,2,.55,4.84,4.84,0,0,1,1.51,1.85h.21l.42-2.1H601V252h-3.9v-6.87q0-.53.18-2.46h-.15a4.67,4.67,0,0,1-1.46,1.84A3.49,3.49,0,0,1,593.65,245Zm1.18-3.26a1.73,1.73,0,0,0,1.67-1.06,9.32,9.32,0,0,0,.53-3.53v-.54a11.08,11.08,0,0,0-.51-3.93,1.74,1.74,0,0,0-1.69-1.23q-2,0-2,5.19a11.2,11.2,0,0,0,.49,3.85A1.65,1.65,0,0,0,594.83,241.78Z"/><path class="cls-3" d="M613.06,244.75l-.49-2.09h-.2a4.14,4.14,0,0,1-3.84,2.38,3.89,3.89,0,0,1-3.32-1.49,7.33,7.33,0,0,1-1.13-4.47V228.43H608v9.71a6.7,6.7,0,0,0,.42,2.7,1.43,1.43,0,0,0,1.38.91,1.93,1.93,0,0,0,1.84-1.26,11.16,11.16,0,0,0,.58-4.24v-7.82h3.94v16.32Z"/><path class="cls-3" d="M625.46,245a5.86,5.86,0,0,1-4.82-2.17,9.52,9.52,0,0,1-1.77-6.16,10.77,10.77,0,0,1,1.6-6.31,5.52,5.52,0,0,1,8.66-.33,8.57,8.57,0,0,1,1.53,5.44v2.08h-7.83a5.3,5.3,0,0,0,.89,3.24,2.83,2.83,0,0,0,2.34,1.06,7.61,7.61,0,0,0,3.9-1.18v3.21A8.59,8.59,0,0,1,625.46,245Zm-.57-13.91a1.58,1.58,0,0,0-1.37.88,5.8,5.8,0,0,0-.63,2.75h4a6,6,0,0,0-.54-2.71A1.57,1.57,0,0,0,624.89,231.13Z"/><path class="cls-3" d="M648.65,244.75l-.77-2.23h-.09a5.5,5.5,0,0,1-1.79,2,4.54,4.54,0,0,1-2.33.54,3.39,3.39,0,0,1-2.83-1.34,6,6,0,0,1-1-3.75,4.86,4.86,0,0,1,1.42-3.83,6.67,6.67,0,0,1,4.22-1.39l2.17-.09v-1.17q0-2.28-2-2.28a6.77,6.77,0,0,0-3.36,1.14l-1.35-2.7a9.73,9.73,0,0,1,5.29-1.53,5.06,5.06,0,0,1,3.94,1.48,6,6,0,0,1,1.36,4.21v11ZM645.27,242a2,2,0,0,0,1.71-1,4.6,4.6,0,0,0,.63-2.56V237.1l-1.2.06a2.74,2.74,0,0,0-1.95.76,3,3,0,0,0-.63,2.06C643.83,241.32,644.31,242,645.27,242Z"/><path class="cls-3" d="M654.18,252a4.83,4.83,0,0,1-2-.37v-3.24a3.41,3.41,0,0,0,1.26.27q1.38,0,1.38-2.49v-17.7h3.89v18.21a5.86,5.86,0,0,1-1.18,3.93A4.09,4.09,0,0,1,654.18,252Zm.45-27.79a1.94,1.94,0,0,1,2.12-2.09,2,2,0,0,1,1.54.57,2.09,2.09,0,0,1,.56,1.52,2.06,2.06,0,0,1-.57,1.54,2.1,2.1,0,0,1-1.53.55,2.17,2.17,0,0,1-1.53-.54A2,2,0,0,1,654.63,224.17Z"/><path class="cls-3" d="M670.8,244.75l-.48-2.09h-.21a4.11,4.11,0,0,1-3.84,2.38,3.89,3.89,0,0,1-3.32-1.49,7.4,7.4,0,0,1-1.13-4.47V228.43h3.94v9.71a6.5,6.5,0,0,0,.43,2.7,1.42,1.42,0,0,0,1.37.91,1.92,1.92,0,0,0,1.84-1.26,11,11,0,0,0,.58-4.24v-7.82h3.94v16.32Z"/><path class="cls-3" d="M681.48,245a4,4,0,0,1-3.56-2.22,12.33,12.33,0,0,1-1.3-6.2,12.74,12.74,0,0,1,1.27-6.24,3.9,3.9,0,0,1,3.52-2.25,3.38,3.38,0,0,1,1.92.54,5,5,0,0,1,1.5,1.86h.24q-.18-2.24-.18-3.12V222h3.9v22.79h-2.9l-.66-2.12h-.13A3.91,3.91,0,0,1,681.48,245Zm1.26-3.29a1.66,1.66,0,0,0,1.58-1,9.33,9.33,0,0,0,.54-3.6v-.51a11.25,11.25,0,0,0-.5-4,1.72,1.72,0,0,0-1.66-1.16c-.73,0-1.25.45-1.58,1.33a11.58,11.58,0,0,0-.49,3.86,11,11,0,0,0,.5,3.8A1.69,1.69,0,0,0,682.74,241.75Z"/><path class="cls-3" d="M700.07,244.75l-.78-2.23h-.09a5.49,5.49,0,0,1-1.78,2,4.56,4.56,0,0,1-2.33.54,3.41,3.41,0,0,1-2.84-1.34,6.1,6.1,0,0,1-1-3.75,4.85,4.85,0,0,1,1.41-3.83,6.73,6.73,0,0,1,4.23-1.39l2.17-.09v-1.17q0-2.28-2-2.28a6.77,6.77,0,0,0-3.37,1.14l-1.35-2.7a9.78,9.78,0,0,1,5.29-1.53,5.07,5.07,0,0,1,4,1.48,6.05,6.05,0,0,1,1.36,4.21v11ZM696.68,242a2,2,0,0,0,1.71-1,4.52,4.52,0,0,0,.64-2.56V237.1l-1.2.06a2.79,2.79,0,0,0-2,.76,3,3,0,0,0-.62,2.06C695.25,241.32,695.73,242,696.68,242Z"/><path class="cls-3" d="M719.51,245a5.89,5.89,0,0,1-4.83-2.17,9.52,9.52,0,0,1-1.76-6.16,10.84,10.84,0,0,1,1.59-6.31,5.13,5.13,0,0,1,4.46-2.27,5.06,5.06,0,0,1,4.2,1.94,8.57,8.57,0,0,1,1.54,5.44v2.08h-7.84a5.37,5.37,0,0,0,.89,3.24,2.84,2.84,0,0,0,2.35,1.06,7.55,7.55,0,0,0,3.89-1.18v3.21A8.55,8.55,0,0,1,719.51,245Zm-.57-13.91a1.58,1.58,0,0,0-1.38.88,6,6,0,0,0-.63,2.75h4a6,6,0,0,0-.54-2.71A1.56,1.56,0,0,0,718.94,231.13Z"/><path class="cls-3" d="M736.05,240a4.91,4.91,0,0,1-1.4,3.72,5.74,5.74,0,0,1-4.13,1.34,7.62,7.62,0,0,1-4-.95v-3.38a7.55,7.55,0,0,0,1.89.92,5.81,5.81,0,0,0,1.89.37,2,2,0,0,0,1.39-.45,1.57,1.57,0,0,0,.47-1.18,1.88,1.88,0,0,0-.49-1.3,8.57,8.57,0,0,0-1.84-1.36,7.74,7.74,0,0,1-2.54-2.25,5.14,5.14,0,0,1-.77-2.82,4.11,4.11,0,0,1,1.43-3.3,5.85,5.85,0,0,1,3.92-1.21,7.87,7.87,0,0,1,4.09,1.14l-1.28,2.8a5.89,5.89,0,0,0-2.75-.85,1.48,1.48,0,0,0-1.12.39,1.38,1.38,0,0,0-.38,1,1.69,1.69,0,0,0,.47,1.17,7.7,7.7,0,0,0,1.72,1.27,11.35,11.35,0,0,1,2.14,1.57,4.76,4.76,0,0,1,1,1.47A5.07,5.07,0,0,1,736.05,240Z"/><path class="cls-3" d="M745.79,245a3.58,3.58,0,0,1-1.87-.47,4.6,4.6,0,0,1-1.52-1.68h-.2c.15,1.33.23,2.13.23,2.4V252h-3.92V228.43h3l.68,2.13h.17a3.82,3.82,0,0,1,3.53-2.43,3.86,3.86,0,0,1,3.49,2.2,12.69,12.69,0,0,1,1.26,6.23,12.5,12.5,0,0,1-1.3,6.23A4,4,0,0,1,745.79,245Zm-1.2-13.6a1.69,1.69,0,0,0-1.65,1.06,9,9,0,0,0-.54,3.52v.51a10.77,10.77,0,0,0,.52,3.93,1.74,1.74,0,0,0,1.69,1.23q2.05,0,2.06-5.19a10.67,10.67,0,0,0-.51-3.8A1.68,1.68,0,0,0,744.59,231.44Z"/><path class="cls-3" d="M759.41,245a5.89,5.89,0,0,1-4.83-2.17,9.57,9.57,0,0,1-1.76-6.16,10.84,10.84,0,0,1,1.59-6.31,5.13,5.13,0,0,1,4.46-2.27,5.05,5.05,0,0,1,4.2,1.94,8.51,8.51,0,0,1,1.54,5.44v2.08h-7.84a5.3,5.3,0,0,0,.9,3.24,2.81,2.81,0,0,0,2.34,1.06,7.61,7.61,0,0,0,3.9-1.18v3.21A8.59,8.59,0,0,1,759.41,245Zm-.57-13.91a1.58,1.58,0,0,0-1.38.88,6,6,0,0,0-.63,2.75h4a5.82,5.82,0,0,0-.55-2.71A1.56,1.56,0,0,0,758.84,231.13Z"/><path class="cls-3" d="M772.58,245a5.11,5.11,0,0,1-4.44-2.12c-1-1.42-1.52-3.5-1.52-6.24s.48-5,1.44-6.43a5,5,0,0,1,4.46-2.12,7.17,7.17,0,0,1,1.9.26,6.27,6.27,0,0,1,1.79.76l-1.11,3a4.36,4.36,0,0,0-2.16-.72,1.87,1.87,0,0,0-1.79,1.3,10.42,10.42,0,0,0-.55,3.89,10.1,10.1,0,0,0,.54,3.79,1.84,1.84,0,0,0,1.78,1.25,5.67,5.67,0,0,0,3.06-1v3.43A6.3,6.3,0,0,1,772.58,245Z"/><path class="cls-3" d="M778.19,224.17a1.94,1.94,0,0,1,2.14-2.09,2.17,2.17,0,0,1,1.51,3.64,2.15,2.15,0,0,1-1.51.54,2.23,2.23,0,0,1-1.56-.54A2,2,0,0,1,778.19,224.17Zm4.06,20.58h-3.9V228.43h3.9Z"/><path class="cls-3" d="M793.58,244.75l-.77-2.23h-.09a5.5,5.5,0,0,1-1.79,2,4.54,4.54,0,0,1-2.33.54,3.39,3.39,0,0,1-2.83-1.34,6,6,0,0,1-1-3.75,4.85,4.85,0,0,1,1.41-3.83,6.68,6.68,0,0,1,4.23-1.39l2.16-.09v-1.17c0-1.52-.66-2.28-2-2.28a6.77,6.77,0,0,0-3.37,1.14l-1.35-2.7a9.73,9.73,0,0,1,5.29-1.53,5.09,5.09,0,0,1,4,1.48,6.05,6.05,0,0,1,1.35,4.21v11ZM790.2,242a2,2,0,0,0,1.71-1,4.6,4.6,0,0,0,.63-2.56V237.1l-1.2.06a2.74,2.74,0,0,0-2,.76,3,3,0,0,0-.63,2.06C788.76,241.32,789.24,242,790.2,242Z"/><path class="cls-3" d="M803.49,244.75h-3.9V222h3.9Z"/><path class="cls-3" d="M806.15,238.42V235h7.37v3.42Z"/><path class="cls-3" d="M84.85,280.75V271c0-2.39-.59-3.58-1.77-3.58a1.89,1.89,0,0,0-1.85,1.28,11.06,11.06,0,0,0-.56,4.11v7.92H76.75V271c0-2.39-.6-3.58-1.8-3.58a1.9,1.9,0,0,0-1.83,1.27,10.89,10.89,0,0,0-.58,4.2v7.84H68.65V264.43h3.09l.47,2.1h.25a4,4,0,0,1,1.6-1.83,4.38,4.38,0,0,1,2.18-.57,3.88,3.88,0,0,1,4,2.82h.15a4.16,4.16,0,0,1,4-2.82,3.79,3.79,0,0,1,3.28,1.52,7.42,7.42,0,0,1,1.12,4.45v10.65Z"/><path class="cls-3" d="M97.94,281a5.86,5.86,0,0,1-4.82-2.17,9.52,9.52,0,0,1-1.77-6.16A10.77,10.77,0,0,1,93,266.4a5.52,5.52,0,0,1,8.66-.33,8.57,8.57,0,0,1,1.53,5.44v2.08H95.31a5.3,5.3,0,0,0,.89,3.24,2.84,2.84,0,0,0,2.35,1.06,7.6,7.6,0,0,0,3.89-1.18v3.21A8.59,8.59,0,0,1,97.94,281Zm-.57-13.91A1.58,1.58,0,0,0,96,268a5.92,5.92,0,0,0-.63,2.75h3.95a6,6,0,0,0-.54-2.71A1.57,1.57,0,0,0,97.37,267.13Z"/><path class="cls-3" d="M113.85,280.75V271a6.66,6.66,0,0,0-.42-2.68,1.43,1.43,0,0,0-1.38-.9,1.92,1.92,0,0,0-1.84,1.25,10.61,10.61,0,0,0-.59,4.22v7.84h-3.9V264.43h3.09l.47,2.1h.25a4.22,4.22,0,0,1,1.51-1.77,4.15,4.15,0,0,1,2.3-.63,3.84,3.84,0,0,1,3.33,1.52,7.49,7.49,0,0,1,1.11,4.45v10.65Z"/><path class="cls-3" d="M126.6,277.75a4.6,4.6,0,0,0,1.77-.41v3a5.06,5.06,0,0,1-2.86.66,3.84,3.84,0,0,1-3.15-1.26,6,6,0,0,1-1-3.8v-8.46h-1.58v-1.74l2-1.41,1-3.45h2.49v3.51h3v3.09h-3v8.59C125.28,277.2,125.72,277.75,126.6,277.75Z"/><path class="cls-3" d="M136.68,281a5.86,5.86,0,0,1-4.83-2.17,9.52,9.52,0,0,1-1.77-6.16,10.84,10.84,0,0,1,1.6-6.31,5.52,5.52,0,0,1,8.66-.33,8.57,8.57,0,0,1,1.54,5.44v2.08H134a5.37,5.37,0,0,0,.89,3.24,2.84,2.84,0,0,0,2.35,1.06,7.58,7.58,0,0,0,3.89-1.18v3.21A8.57,8.57,0,0,1,136.68,281Zm-.58-13.91a1.58,1.58,0,0,0-1.37.88,6,6,0,0,0-.63,2.75h4a6,6,0,0,0-.54-2.71A1.57,1.57,0,0,0,136.1,267.13Z"/><path class="cls-3" d="M160,280.75V271a6.63,6.63,0,0,0-.43-2.68,1.42,1.42,0,0,0-1.38-.9,1.92,1.92,0,0,0-1.84,1.25,10.8,10.8,0,0,0-.59,4.22v7.84h-3.89V264.43H155l.47,2.1h.24a4.29,4.29,0,0,1,1.51-1.77,4.18,4.18,0,0,1,2.3-.63,3.85,3.85,0,0,1,3.34,1.52,7.57,7.57,0,0,1,1.1,4.45v10.65Z"/><path class="cls-3" d="M175.07,280.75l-.78-2.23h-.09a5.49,5.49,0,0,1-1.78,2,4.56,4.56,0,0,1-2.33.54,3.41,3.41,0,0,1-2.84-1.34,6.1,6.1,0,0,1-1-3.75,4.85,4.85,0,0,1,1.41-3.83,6.73,6.73,0,0,1,4.23-1.39l2.17-.09v-1.17q0-2.28-2-2.28a6.77,6.77,0,0,0-3.37,1.14l-1.35-2.7a9.78,9.78,0,0,1,5.29-1.53,5.07,5.07,0,0,1,3.95,1.48,6.05,6.05,0,0,1,1.36,4.21v11ZM171.68,278a2,2,0,0,0,1.71-1,4.52,4.52,0,0,0,.64-2.56V273.1l-1.2.06a2.79,2.79,0,0,0-2,.76,3,3,0,0,0-.62,2.06C170.25,277.32,170.73,278,171.68,278Z"/><path class="cls-3" d="M189.83,276a4.87,4.87,0,0,1-1.4,3.72,5.69,5.69,0,0,1-4.12,1.34,7.62,7.62,0,0,1-4-1v-3.38a7.65,7.65,0,0,0,1.88.92,5.92,5.92,0,0,0,1.9.37,2,2,0,0,0,1.39-.45,1.57,1.57,0,0,0,.47-1.18,1.84,1.84,0,0,0-.5-1.3,8.2,8.2,0,0,0-1.83-1.36,7.63,7.63,0,0,1-2.54-2.25,5.14,5.14,0,0,1-.77-2.82,4.11,4.11,0,0,1,1.43-3.3,5.85,5.85,0,0,1,3.92-1.21,7.9,7.9,0,0,1,4.09,1.14l-1.28,2.8a5.89,5.89,0,0,0-2.75-.85,1.48,1.48,0,0,0-1.12.39,1.38,1.38,0,0,0-.38,1,1.73,1.73,0,0,0,.46,1.17,8.07,8.07,0,0,0,1.73,1.27,11.7,11.7,0,0,1,2.14,1.57,4.76,4.76,0,0,1,.95,1.47A5.07,5.07,0,0,1,189.83,276Z"/><path class="cls-3" d="M215.91,280.75V271c0-2.39-.59-3.58-1.77-3.58a1.89,1.89,0,0,0-1.85,1.28,11.06,11.06,0,0,0-.56,4.11v7.92h-3.92V271c0-2.39-.6-3.58-1.8-3.58a1.9,1.9,0,0,0-1.83,1.27,10.89,10.89,0,0,0-.58,4.2v7.84h-3.89V264.43h3.09l.47,2.1h.25a4,4,0,0,1,1.6-1.83,4.38,4.38,0,0,1,2.18-.57,3.88,3.88,0,0,1,4,2.82h.15a4.16,4.16,0,0,1,4-2.82,3.79,3.79,0,0,1,3.28,1.52,7.42,7.42,0,0,1,1.12,4.45v10.65Z"/><path class="cls-3" d="M231,280.75l-.77-2.23h-.09a5.5,5.5,0,0,1-1.79,2A4.54,4.54,0,0,1,226,281a3.39,3.39,0,0,1-2.83-1.34,6,6,0,0,1-1-3.75,4.82,4.82,0,0,1,1.42-3.83,6.67,6.67,0,0,1,4.22-1.39l2.17-.09v-1.17q0-2.28-2-2.28a6.8,6.8,0,0,0-3.37,1.14l-1.34-2.7a9.73,9.73,0,0,1,5.29-1.53,5.06,5.06,0,0,1,3.94,1.48,6,6,0,0,1,1.36,4.21v11ZM227.6,278a2,2,0,0,0,1.7-1,4.52,4.52,0,0,0,.64-2.56V273.1l-1.2.06a2.74,2.74,0,0,0-2,.76,3,3,0,0,0-.63,2.06C226.16,277.32,226.64,278,227.6,278Z"/><path class="cls-3" d="M245.12,280.75V271a6.46,6.46,0,0,0-.43-2.68,1.42,1.42,0,0,0-1.37-.9,1.93,1.93,0,0,0-1.85,1.25,10.8,10.8,0,0,0-.59,4.22v7.84H237V264.43h3.09l.47,2.1h.25a4,4,0,0,1,3.8-2.4,3.85,3.85,0,0,1,3.34,1.52,7.57,7.57,0,0,1,1.1,4.45v10.65Z"/><path class="cls-3" d="M260.32,280.75V271c0-2.39-.6-3.58-1.8-3.58a1.92,1.92,0,0,0-1.89,1.41,11.88,11.88,0,0,0-.54,4.06v7.84h-3.9V258h3.9V263c0,.65-.06,1.82-.18,3.5h.21a3.81,3.81,0,0,1,3.6-2.4,4,4,0,0,1,3.39,1.51,7.35,7.35,0,0,1,1.14,4.46v10.65Z"/><path class="cls-3" d="M275.4,280.75l-.78-2.23h-.09a5.42,5.42,0,0,1-1.79,2,4.53,4.53,0,0,1-2.32.54,3.39,3.39,0,0,1-2.84-1.34,6,6,0,0,1-1-3.75,4.85,4.85,0,0,1,1.41-3.83,6.68,6.68,0,0,1,4.23-1.39l2.17-.09v-1.17q0-2.28-2-2.28a6.77,6.77,0,0,0-3.37,1.14l-1.35-2.7A9.76,9.76,0,0,1,273,264.1a5.09,5.09,0,0,1,3.95,1.48,6.05,6.05,0,0,1,1.35,4.21v11ZM271.31,261a.89.89,0,0,0-.73.35,2.81,2.81,0,0,0-.41,1.25H268.1a6.16,6.16,0,0,1,1-3.32,2.66,2.66,0,0,1,2.21-1.09,2.57,2.57,0,0,1,1.13.24,7.84,7.84,0,0,1,.95.54l.85.53a1.67,1.67,0,0,0,.85.25.77.77,0,0,0,.72-.39,4,4,0,0,0,.39-1.2h2.07a6.09,6.09,0,0,1-1,3.32,2.78,2.78,0,0,1-3.34.85,6.58,6.58,0,0,1-.94-.54c-.29-.2-.56-.38-.83-.54A1.58,1.58,0,0,0,271.31,261Zm.7,17a2,2,0,0,0,1.71-1,4.6,4.6,0,0,0,.64-2.56V273.1l-1.21.06a2.76,2.76,0,0,0-1.95.76,3,3,0,0,0-.62,2.06C270.58,277.32,271.05,278,272,278Z"/><path class="cls-3" d="M290.16,276a4.91,4.91,0,0,1-1.4,3.72,5.69,5.69,0,0,1-4.12,1.34,7.59,7.59,0,0,1-4-1v-3.38a7.48,7.48,0,0,0,1.88.92,5.87,5.87,0,0,0,1.9.37,1.93,1.93,0,0,0,1.38-.45,1.54,1.54,0,0,0,.48-1.18,1.89,1.89,0,0,0-.5-1.3,8.2,8.2,0,0,0-1.83-1.36,7.63,7.63,0,0,1-2.54-2.25,5.14,5.14,0,0,1-.77-2.82,4.11,4.11,0,0,1,1.43-3.3,5.85,5.85,0,0,1,3.92-1.21,7.86,7.86,0,0,1,4.08,1.14l-1.27,2.8a5.92,5.92,0,0,0-2.75-.85,1.5,1.5,0,0,0-1.13.39,1.41,1.41,0,0,0-.37,1,1.73,1.73,0,0,0,.46,1.17,8,8,0,0,0,1.72,1.27,11,11,0,0,1,2.14,1.57,4.59,4.59,0,0,1,.95,1.47A4.88,4.88,0,0,1,290.16,276Z"/><path class="cls-3" d="M304.33,281a4,4,0,0,1-3.56-2.22,12.32,12.32,0,0,1-1.31-6.2,12.73,12.73,0,0,1,1.28-6.24,3.9,3.9,0,0,1,3.51-2.25,3.39,3.39,0,0,1,1.93.54,5.07,5.07,0,0,1,1.5,1.86h.24q-.18-2.23-.18-3.12V258h3.9v22.79h-2.9l-.66-2.12h-.14A3.9,3.9,0,0,1,304.33,281Zm1.26-3.29a1.66,1.66,0,0,0,1.58-1,9.33,9.33,0,0,0,.54-3.6v-.51a11.25,11.25,0,0,0-.5-4,1.73,1.73,0,0,0-1.67-1.16c-.72,0-1.25.45-1.57,1.33a11.58,11.58,0,0,0-.49,3.86,11,11,0,0,0,.49,3.8A1.7,1.7,0,0,0,305.59,277.75Z"/><path class="cls-3" d="M320.94,281a5.89,5.89,0,0,1-4.83-2.17,9.52,9.52,0,0,1-1.76-6.16,10.84,10.84,0,0,1,1.59-6.31,5.13,5.13,0,0,1,4.46-2.27,5.06,5.06,0,0,1,4.2,1.94,8.51,8.51,0,0,1,1.54,5.44v2.08H318.3a5.37,5.37,0,0,0,.89,3.24,2.84,2.84,0,0,0,2.35,1.06,7.55,7.55,0,0,0,3.89-1.18v3.21A8.55,8.55,0,0,1,320.94,281Zm-.57-13.91A1.58,1.58,0,0,0,319,268a6,6,0,0,0-.63,2.75h3.95a5.83,5.83,0,0,0-.54-2.71A1.56,1.56,0,0,0,320.37,267.13Z"/><path class="cls-3" d="M343.41,281a3.61,3.61,0,0,1-1.87-.47,4.6,4.6,0,0,1-1.52-1.68h-.2c.16,1.33.23,2.13.23,2.4V288h-3.92V264.43h3l.67,2.13H340a3.81,3.81,0,0,1,3.53-2.43,3.86,3.86,0,0,1,3.48,2.2,12.69,12.69,0,0,1,1.26,6.23,12.5,12.5,0,0,1-1.3,6.23A4,4,0,0,1,343.41,281Zm-1.2-13.6a1.71,1.71,0,0,0-1.65,1.06A9,9,0,0,0,340,272v.51a11,11,0,0,0,.52,3.93,1.75,1.75,0,0,0,1.7,1.23c1.36,0,2.05-1.73,2.05-5.19a10.67,10.67,0,0,0-.51-3.8A1.67,1.67,0,0,0,342.21,267.44Z"/><path class="cls-3" d="M358,264.13a4.82,4.82,0,0,1,1.41.21l-.46,3.78a3.47,3.47,0,0,0-1.07-.14,2.47,2.47,0,0,0-2.18,1.12,5.78,5.78,0,0,0-.76,3.26v8.39H351V264.43h3.21l.44,2.55h.13a6,6,0,0,1,1.41-2.2A2.6,2.6,0,0,1,358,264.13Z"/><path class="cls-3" d="M367.14,281a5.89,5.89,0,0,1-4.83-2.17,9.52,9.52,0,0,1-1.76-6.16,10.84,10.84,0,0,1,1.59-6.31,5.13,5.13,0,0,1,4.46-2.27,5.05,5.05,0,0,1,4.2,1.94,8.51,8.51,0,0,1,1.54,5.44v2.08H364.5a5.3,5.3,0,0,0,.9,3.24,2.81,2.81,0,0,0,2.34,1.06,7.61,7.61,0,0,0,3.9-1.18v3.21A8.59,8.59,0,0,1,367.14,281Zm-.57-13.91a1.58,1.58,0,0,0-1.38.88,6,6,0,0,0-.63,2.75h4a5.82,5.82,0,0,0-.55-2.71A1.56,1.56,0,0,0,366.57,267.13Z"/><path class="cls-3" d="M383.68,276a4.91,4.91,0,0,1-1.4,3.72,5.74,5.74,0,0,1-4.13,1.34,7.56,7.56,0,0,1-4-1v-3.38a7.32,7.32,0,0,0,1.88.92,5.86,5.86,0,0,0,1.89.37,2,2,0,0,0,1.39-.45,1.54,1.54,0,0,0,.48-1.18,1.89,1.89,0,0,0-.5-1.3,8.45,8.45,0,0,0-1.83-1.36,7.68,7.68,0,0,1-2.55-2.25,5.13,5.13,0,0,1-.76-2.82,4.11,4.11,0,0,1,1.42-3.3,5.87,5.87,0,0,1,3.92-1.21,7.87,7.87,0,0,1,4.09,1.14l-1.28,2.8a5.89,5.89,0,0,0-2.75-.85,1.48,1.48,0,0,0-1.12.39,1.37,1.37,0,0,0-.37,1,1.68,1.68,0,0,0,.46,1.17,8,8,0,0,0,1.72,1.27,11.35,11.35,0,0,1,2.14,1.57,4.59,4.59,0,0,1,.95,1.47A5.07,5.07,0,0,1,383.68,276Z"/><path class="cls-3" d="M394.9,276a4.91,4.91,0,0,1-1.4,3.72,5.71,5.71,0,0,1-4.12,1.34,7.57,7.57,0,0,1-4-1v-3.38a7.32,7.32,0,0,0,1.88.92,5.87,5.87,0,0,0,1.9.37,1.94,1.94,0,0,0,1.38-.45,1.54,1.54,0,0,0,.48-1.18,1.89,1.89,0,0,0-.5-1.3,8.2,8.2,0,0,0-1.83-1.36,7.78,7.78,0,0,1-2.55-2.25,5.13,5.13,0,0,1-.76-2.82,4.11,4.11,0,0,1,1.42-3.3,5.87,5.87,0,0,1,3.92-1.21,7.87,7.87,0,0,1,4.09,1.14l-1.27,2.8a6,6,0,0,0-2.76-.85,1.48,1.48,0,0,0-1.12.39,1.37,1.37,0,0,0-.37,1,1.68,1.68,0,0,0,.46,1.17,8,8,0,0,0,1.72,1.27,11,11,0,0,1,2.14,1.57,4.59,4.59,0,0,1,.95,1.47A4.88,4.88,0,0,1,394.9,276Z"/><path class="cls-3" d="M405.36,280.75l-.78-2.23h-.09a5.49,5.49,0,0,1-1.78,2,4.59,4.59,0,0,1-2.33.54,3.41,3.41,0,0,1-2.84-1.34,6,6,0,0,1-1-3.75,4.85,4.85,0,0,1,1.41-3.83,6.68,6.68,0,0,1,4.23-1.39l2.17-.09v-1.17q0-2.28-2-2.28a6.77,6.77,0,0,0-3.37,1.14l-1.35-2.7a9.76,9.76,0,0,1,5.29-1.53,5.09,5.09,0,0,1,3.95,1.48,6.05,6.05,0,0,1,1.35,4.21v11ZM402,278a2,2,0,0,0,1.71-1,4.6,4.6,0,0,0,.64-2.56V273.1l-1.2.06a2.77,2.77,0,0,0-2,.76,3,3,0,0,0-.62,2.06C400.54,277.32,401,278,402,278Z"/><path class="cls-3" d="M416,277.6a46.08,46.08,0,0,1-2.58,7h-3q1-3.9,1.48-7.36h3.87Z"/><path class="cls-3" d="M434.16,281a3.58,3.58,0,0,1-1.87-.47,4.6,4.6,0,0,1-1.52-1.68h-.2c.15,1.33.23,2.13.23,2.4V288h-3.92V264.43h3l.68,2.13h.17a3.82,3.82,0,0,1,3.53-2.43,3.86,3.86,0,0,1,3.49,2.2,15.8,15.8,0,0,1,0,12.46A4,4,0,0,1,434.16,281ZM433,267.44a1.69,1.69,0,0,0-1.64,1.06,9,9,0,0,0-.54,3.52v.51a11,11,0,0,0,.51,3.93,1.76,1.76,0,0,0,1.7,1.23q2.06,0,2-5.19a10.71,10.71,0,0,0-.5-3.8A1.68,1.68,0,0,0,433,267.44Z"/><path class="cls-3" d="M453.84,272.56a10.08,10.08,0,0,1-1.7,6.25,5.93,5.93,0,0,1-8,1.21,6.5,6.5,0,0,1-2.22-2.95,12.2,12.2,0,0,1-.77-4.51,10.13,10.13,0,0,1,1.68-6.2,5.51,5.51,0,0,1,4.67-2.23,5.44,5.44,0,0,1,4.6,2.27A10.1,10.1,0,0,1,453.84,272.56Zm-8.67,0a10.32,10.32,0,0,0,.56,3.86,1.86,1.86,0,0,0,1.78,1.3q2.36,0,2.35-5.16a9.81,9.81,0,0,0-.57-3.83,1.88,1.88,0,0,0-3.56,0A10,10,0,0,0,445.17,272.56Z"/><path class="cls-3" d="M465.34,276a4.87,4.87,0,0,1-1.4,3.72,5.69,5.69,0,0,1-4.12,1.34,7.62,7.62,0,0,1-4-1v-3.38a7.65,7.65,0,0,0,1.88.92,5.87,5.87,0,0,0,1.9.37,1.91,1.91,0,0,0,1.38-.45,1.54,1.54,0,0,0,.48-1.18,1.89,1.89,0,0,0-.5-1.3,8.2,8.2,0,0,0-1.83-1.36,7.63,7.63,0,0,1-2.54-2.25,5.14,5.14,0,0,1-.77-2.82,4.11,4.11,0,0,1,1.43-3.3,5.85,5.85,0,0,1,3.92-1.21,7.86,7.86,0,0,1,4.08,1.14l-1.27,2.8a5.92,5.92,0,0,0-2.75-.85,1.5,1.5,0,0,0-1.13.39,1.41,1.41,0,0,0-.37,1,1.73,1.73,0,0,0,.46,1.17,8,8,0,0,0,1.72,1.27,11,11,0,0,1,2.14,1.57,4.79,4.79,0,0,1,1,1.47A5.07,5.07,0,0,1,465.34,276Z"/><path class="cls-3" d="M476.56,276a4.87,4.87,0,0,1-1.4,3.72A5.69,5.69,0,0,1,471,281a7.62,7.62,0,0,1-4-1v-3.38a7.65,7.65,0,0,0,1.88.92,5.87,5.87,0,0,0,1.9.37,1.91,1.91,0,0,0,1.38-.45,1.54,1.54,0,0,0,.48-1.18,1.89,1.89,0,0,0-.5-1.3,8.2,8.2,0,0,0-1.83-1.36,7.63,7.63,0,0,1-2.54-2.25,5.14,5.14,0,0,1-.77-2.82,4.11,4.11,0,0,1,1.43-3.3,5.85,5.85,0,0,1,3.92-1.21,7.84,7.84,0,0,1,4.08,1.14l-1.27,2.8a5.89,5.89,0,0,0-2.75-.85,1.48,1.48,0,0,0-1.12.39,1.38,1.38,0,0,0-.38,1,1.73,1.73,0,0,0,.46,1.17,8.22,8.22,0,0,0,1.72,1.27,11,11,0,0,1,2.14,1.57,4.79,4.79,0,0,1,1,1.47A5.07,5.07,0,0,1,476.56,276Z"/><path class="cls-3" d="M478.89,260.17a2.07,2.07,0,0,1,.57-1.53,2.1,2.1,0,0,1,1.57-.56,2,2,0,0,1,1.52.56,2.07,2.07,0,0,1,.58,1.53,2,2,0,0,1-.59,1.55,2.13,2.13,0,0,1-1.51.54,2.2,2.2,0,0,1-1.55-.54A2,2,0,0,1,478.89,260.17ZM483,280.75h-3.9V264.43H483Z"/><path class="cls-3" d="M493.66,264.13a3.89,3.89,0,0,1,3.5,2.21,15.93,15.93,0,0,1,0,12.49A3.93,3.93,0,0,1,493.6,281a3.85,3.85,0,0,1-1.94-.47,4.8,4.8,0,0,1-1.59-1.68h-.25l-.66,1.86h-2.87V258h3.9v5.33c0,.22,0,.46,0,.7s-.07,1.1-.19,2.57h.21a4.85,4.85,0,0,1,1.55-1.89A3.45,3.45,0,0,1,493.66,264.13Zm-1.35,3.31a1.64,1.64,0,0,0-1.6,1,9.67,9.67,0,0,0-.52,3.66v.39a11,11,0,0,0,.5,4,1.72,1.72,0,0,0,1.65,1.16q2.12,0,2.11-5.19T492.31,267.44Z"/><path class="cls-3" d="M501,260.17a2.1,2.1,0,0,1,.56-1.53,2.14,2.14,0,0,1,1.58-.56,2.17,2.17,0,0,1,1.51,3.64,2.15,2.15,0,0,1-1.51.54,2.18,2.18,0,0,1-1.55-.54A2,2,0,0,1,501,260.17Zm4.06,20.58h-3.9V264.43h3.9Z"/><path class="cls-3" d="M512.33,280.75h-3.89V258h3.89Z"/><path class="cls-3" d="M515.47,260.17a1.94,1.94,0,0,1,2.14-2.09,2.17,2.17,0,0,1,1.51,3.64,2.15,2.15,0,0,1-1.51.54,2.23,2.23,0,0,1-1.56-.54A2,2,0,0,1,515.47,260.17Zm4.06,20.58h-3.9V264.43h3.9Z"/><path class="cls-3" d="M528.54,277.75a4.6,4.6,0,0,0,1.77-.41v3a5.06,5.06,0,0,1-2.86.66,3.84,3.84,0,0,1-3.15-1.26,6,6,0,0,1-1-3.8v-8.46h-1.59v-1.74l2-1.41,1-3.45h2.49v3.51h3v3.09h-3v8.59C527.22,277.2,527.66,277.75,528.54,277.75Z"/><path class="cls-3" d="M540.59,280.75l-.78-2.23h-.08a5.59,5.59,0,0,1-1.79,2,4.56,4.56,0,0,1-2.33.54,3.39,3.39,0,0,1-2.83-1.34,6,6,0,0,1-1-3.75,4.82,4.82,0,0,1,1.42-3.83,6.67,6.67,0,0,1,4.22-1.39l2.17-.09v-1.17q0-2.28-2-2.28a6.8,6.8,0,0,0-3.37,1.14l-1.34-2.7a9.72,9.72,0,0,1,5.28-1.53,5.07,5.07,0,0,1,4,1.48,6,6,0,0,1,1.36,4.21v11ZM537.21,278a2,2,0,0,0,1.7-1,4.52,4.52,0,0,0,.64-2.56V273.1l-1.2.06a2.79,2.79,0,0,0-2,.76,3,3,0,0,0-.62,2.06C535.77,277.32,536.25,278,537.21,278Z"/><path class="cls-3" d="M554.73,280.75V271a6.46,6.46,0,0,0-.43-2.68,1.42,1.42,0,0,0-1.37-.9,1.93,1.93,0,0,0-1.85,1.25,10.8,10.8,0,0,0-.59,4.22v7.84H546.6V264.43h3.09l.47,2.1h.25a4,4,0,0,1,3.8-2.4,3.85,3.85,0,0,1,3.34,1.52,7.57,7.57,0,0,1,1.1,4.45v10.65Z"/><path class="cls-3" d="M566.09,281a4,4,0,0,1-3.56-2.22,12.44,12.44,0,0,1-1.3-6.2,12.73,12.73,0,0,1,1.28-6.24,3.89,3.89,0,0,1,3.51-2.25,3.44,3.44,0,0,1,1.93.54,5.07,5.07,0,0,1,1.5,1.86h.23c-.11-1.49-.17-2.53-.17-3.12V258h3.89v22.79h-2.9l-.66-2.12h-.13A3.9,3.9,0,0,1,566.09,281Zm1.26-3.29a1.67,1.67,0,0,0,1.59-1,9.33,9.33,0,0,0,.54-3.6v-.51a11,11,0,0,0-.51-4,1.72,1.72,0,0,0-1.66-1.16c-.72,0-1.25.45-1.58,1.33a11.85,11.85,0,0,0-.49,3.86,11,11,0,0,0,.5,3.8A1.69,1.69,0,0,0,567.35,277.75Z"/><path class="cls-3" d="M588.77,272.56a10.14,10.14,0,0,1-1.7,6.25,5.94,5.94,0,0,1-8,1.21,6.48,6.48,0,0,1-2.21-2.95,12,12,0,0,1-.78-4.51,10.13,10.13,0,0,1,1.69-6.2,5.51,5.51,0,0,1,4.67-2.23,5.42,5.42,0,0,1,4.59,2.27A10,10,0,0,1,588.77,272.56Zm-8.67,0a10.35,10.35,0,0,0,.55,3.86,1.88,1.88,0,0,0,1.79,1.3c1.56,0,2.35-1.72,2.35-5.16a9.81,9.81,0,0,0-.57-3.83,1.89,1.89,0,0,0-3.57,0A10.07,10.07,0,0,0,580.1,272.56Z"/><path class="cls-3" d="M606.2,281a3.63,3.63,0,0,1-1.87-.47,4.58,4.58,0,0,1-1.51-1.68h-.21q.24,2,.24,2.4V288h-3.93V264.43h3l.67,2.13h.18a3.81,3.81,0,0,1,7-.23,12.69,12.69,0,0,1,1.26,6.23,12.5,12.5,0,0,1-1.3,6.23A4,4,0,0,1,606.2,281Zm-1.2-13.6a1.71,1.71,0,0,0-1.65,1.06,9.26,9.26,0,0,0-.53,3.52v.51a11,11,0,0,0,.51,3.93,1.75,1.75,0,0,0,1.7,1.23q2.06,0,2.05-5.19a10.67,10.67,0,0,0-.51-3.8A1.67,1.67,0,0,0,605,267.44Z"/><path class="cls-3" d="M620.76,264.13a4.82,4.82,0,0,1,1.41.21l-.46,3.78a3.47,3.47,0,0,0-1.07-.14,2.48,2.48,0,0,0-2.18,1.12,5.78,5.78,0,0,0-.76,3.26v8.39h-3.9V264.43H617l.44,2.55h.13a6,6,0,0,1,1.41-2.2A2.62,2.62,0,0,1,620.76,264.13Z"/><path class="cls-3" d="M636,272.56a10.14,10.14,0,0,1-1.7,6.25,5.94,5.94,0,0,1-8,1.21,6.42,6.42,0,0,1-2.21-2.95,12,12,0,0,1-.78-4.51,10.13,10.13,0,0,1,1.68-6.2,5.54,5.54,0,0,1,4.68-2.23,5.44,5.44,0,0,1,4.59,2.27A10,10,0,0,1,636,272.56Zm-8.68,0a10.32,10.32,0,0,0,.56,3.86,1.88,1.88,0,0,0,1.79,1.3q2.34,0,2.34-5.16a10,10,0,0,0-.56-3.83,1.89,1.89,0,0,0-3.57,0A10,10,0,0,0,627.32,272.56Z"/><path class="cls-3" d="M650.48,264.46v2.29l-1.94.44a5.23,5.23,0,0,1,.57,2.57,5.6,5.6,0,0,1-1.41,4.06,5.19,5.19,0,0,1-3.93,1.47,3.64,3.64,0,0,1-1.08-.12,5.71,5.71,0,0,0-.53.56,1.2,1.2,0,0,0-.25.76c0,.68.6,1,1.78,1h2.36a4.37,4.37,0,0,1,3.2,1.12,4.64,4.64,0,0,1,1.12,3.38,5.36,5.36,0,0,1-1.91,4.4A8.5,8.5,0,0,1,643,288a6.49,6.49,0,0,1-4.17-1.18,4.07,4.07,0,0,1-1.47-3.36,3.7,3.7,0,0,1,.84-2.4,4.71,4.71,0,0,1,2.31-1.5,2.83,2.83,0,0,1-1.22-.91,2.26,2.26,0,0,1-.48-1.43,2.5,2.5,0,0,1,.15-.9,3,3,0,0,1,.42-.77,8.87,8.87,0,0,1,1.1-1.06,4.17,4.17,0,0,1-1.59-1.89,6.68,6.68,0,0,1-.59-2.82,5.75,5.75,0,0,1,1.41-4.15,5.31,5.31,0,0,1,4-1.46,7.13,7.13,0,0,1,1.14.1,6.89,6.89,0,0,1,1,.23Zm-9.59,18.66a1.84,1.84,0,0,0,.61,1.49,2.55,2.55,0,0,0,1.73.52,4.36,4.36,0,0,0,2.66-.67,2.21,2.21,0,0,0,.89-1.85,1.57,1.57,0,0,0-.48-1.3,3,3,0,0,0-1.78-.38h-1.89a1.5,1.5,0,0,0-1.26.59A2.48,2.48,0,0,0,640.89,283.12Zm1.2-13.36c0,1.93.54,2.89,1.63,2.89s1.58-1,1.58-2.91-.53-3-1.58-3S642.09,267.75,642.09,269.76Z"/><path class="cls-3" d="M659.4,264.13a4.82,4.82,0,0,1,1.41.21l-.45,3.78a3.51,3.51,0,0,0-1.07-.14,2.49,2.49,0,0,0-2.19,1.12,5.86,5.86,0,0,0-.76,3.26v8.39h-3.89V264.43h3.2l.44,2.55h.14a6,6,0,0,1,1.4-2.2A2.62,2.62,0,0,1,659.4,264.13Z"/><path class="cls-3" d="M670.55,280.75l-.77-2.23h-.09a5.5,5.5,0,0,1-1.79,2,4.54,4.54,0,0,1-2.33.54,3.39,3.39,0,0,1-2.83-1.34,6,6,0,0,1-1-3.75,4.86,4.86,0,0,1,1.42-3.83,6.67,6.67,0,0,1,4.22-1.39l2.17-.09v-1.17q0-2.28-2-2.28a6.74,6.74,0,0,0-3.36,1.14l-1.35-2.7a9.73,9.73,0,0,1,5.29-1.53,5.06,5.06,0,0,1,3.94,1.48,6,6,0,0,1,1.36,4.21v11ZM667.17,278a2,2,0,0,0,1.71-1,4.6,4.6,0,0,0,.63-2.56V273.1l-1.2.06a2.74,2.74,0,0,0-1.95.76,3,3,0,0,0-.63,2.06C665.73,277.32,666.21,278,667.17,278Z"/><path class="cls-3" d="M692.76,280.75V271c0-2.39-.59-3.58-1.77-3.58a1.89,1.89,0,0,0-1.85,1.28,11.06,11.06,0,0,0-.56,4.11v7.92h-3.92V271c0-2.39-.6-3.58-1.8-3.58a1.9,1.9,0,0,0-1.83,1.27,10.89,10.89,0,0,0-.58,4.2v7.84h-3.89V264.43h3.09l.47,2.1h.25a4,4,0,0,1,1.6-1.83,4.38,4.38,0,0,1,2.18-.57,3.88,3.88,0,0,1,4,2.82h.15a4.16,4.16,0,0,1,4-2.82,3.79,3.79,0,0,1,3.28,1.52,7.42,7.42,0,0,1,1.12,4.45v10.65Z"/><path class="cls-3" d="M707.83,280.75l-.77-2.23H707a5.5,5.5,0,0,1-1.79,2,4.54,4.54,0,0,1-2.33.54A3.39,3.39,0,0,1,700,279.7a6,6,0,0,1-1-3.75,4.86,4.86,0,0,1,1.42-3.83,6.67,6.67,0,0,1,4.22-1.39l2.17-.09v-1.17q0-2.28-2-2.28a6.77,6.77,0,0,0-3.36,1.14l-1.35-2.7a9.73,9.73,0,0,1,5.29-1.53,5.06,5.06,0,0,1,3.94,1.48,6,6,0,0,1,1.36,4.21v11ZM704.45,278a2,2,0,0,0,1.71-1,4.6,4.6,0,0,0,.63-2.56V273.1l-1.2.06a2.74,2.74,0,0,0-2,.76A3,3,0,0,0,703,276C703,277.32,703.49,278,704.45,278Z"/><path class="cls-3" d="M720.8,264.13a4.8,4.8,0,0,1,1.4.21l-.45,3.78a3.51,3.51,0,0,0-1.07-.14,2.46,2.46,0,0,0-2.18,1.12,5.77,5.77,0,0,0-.77,3.26v8.39h-3.89V264.43h3.21l.44,2.55h.13a6.09,6.09,0,0,1,1.4-2.2A2.63,2.63,0,0,1,720.8,264.13Z"/><path class="cls-3" d="M728.59,277.6a46.08,46.08,0,0,1-2.58,7h-3c.63-2.6,1.13-5.05,1.48-7.36h3.86Z"/><path class="cls-3" d="M744.85,281a5.12,5.12,0,0,1-4.44-2.12c-1-1.42-1.52-3.5-1.52-6.24s.48-5,1.44-6.43a5,5,0,0,1,4.46-2.12,7.17,7.17,0,0,1,1.9.26,6.27,6.27,0,0,1,1.79.76l-1.11,3a4.36,4.36,0,0,0-2.15-.72,1.87,1.87,0,0,0-1.8,1.3,10.42,10.42,0,0,0-.55,3.89,10.1,10.1,0,0,0,.54,3.79,1.85,1.85,0,0,0,1.78,1.25,5.67,5.67,0,0,0,3.06-1v3.43A6.3,6.3,0,0,1,744.85,281Z"/><path class="cls-3" d="M762.68,272.56a10.14,10.14,0,0,1-1.7,6.25,5.94,5.94,0,0,1-8,1.21,6.42,6.42,0,0,1-2.21-2.95,12,12,0,0,1-.78-4.51,10.13,10.13,0,0,1,1.68-6.2,5.53,5.53,0,0,1,4.68-2.23A5.44,5.44,0,0,1,761,266.4,10,10,0,0,1,762.68,272.56Zm-8.68,0a10.32,10.32,0,0,0,.56,3.86,1.88,1.88,0,0,0,1.79,1.3q2.34,0,2.34-5.16a10,10,0,0,0-.56-3.83,1.89,1.89,0,0,0-3.57,0A10,10,0,0,0,754,272.56Z"/><path class="cls-3" d="M781.62,280.75V271c0-2.39-.59-3.58-1.78-3.58a1.88,1.88,0,0,0-1.84,1.28,11.06,11.06,0,0,0-.56,4.11v7.92h-3.92V271c0-2.39-.6-3.58-1.81-3.58a1.9,1.9,0,0,0-1.83,1.27,11.14,11.14,0,0,0-.57,4.2v7.84h-3.89V264.43h3.09l.46,2.1h.25a4,4,0,0,1,1.61-1.83,4.37,4.37,0,0,1,2.17-.57,3.89,3.89,0,0,1,4,2.82h.14a4.17,4.17,0,0,1,4-2.82,3.81,3.81,0,0,1,3.29,1.52,7.42,7.42,0,0,1,1.12,4.45v10.65Z"/><path class="cls-3" d="M804.1,280.75l-.77-2.23h-.09a5.5,5.5,0,0,1-1.79,2,4.54,4.54,0,0,1-2.33.54,3.39,3.39,0,0,1-2.83-1.34,6,6,0,0,1-1-3.75,4.82,4.82,0,0,1,1.42-3.83,6.67,6.67,0,0,1,4.22-1.39l2.17-.09v-1.17q0-2.28-2-2.28a6.74,6.74,0,0,0-3.36,1.14l-1.35-2.7a9.73,9.73,0,0,1,5.29-1.53,5.06,5.06,0,0,1,3.94,1.48,6,6,0,0,1,1.36,4.21v11ZM800.72,278a2,2,0,0,0,1.71-1,4.6,4.6,0,0,0,.63-2.56V273.1l-1.2.06a2.74,2.74,0,0,0-2,.76,3,3,0,0,0-.63,2.06C799.28,277.32,799.76,278,800.72,278Z"/><path class="cls-3" d="M815.78,277.75a4.6,4.6,0,0,0,1.77-.41v3a5.06,5.06,0,0,1-2.86.66,3.84,3.84,0,0,1-3.15-1.26,6,6,0,0,1-1-3.8v-8.46h-1.58v-1.74l2-1.41,1-3.45h2.49v3.51h3v3.09h-3v8.59C814.46,277.2,814.9,277.75,815.78,277.75Z"/><path class="cls-3" d="M825.85,281a5.86,5.86,0,0,1-4.82-2.17,9.52,9.52,0,0,1-1.77-6.16,10.84,10.84,0,0,1,1.6-6.31,5.52,5.52,0,0,1,8.66-.33,8.57,8.57,0,0,1,1.53,5.44v2.08h-7.83a5.37,5.37,0,0,0,.89,3.24,2.84,2.84,0,0,0,2.35,1.06,7.6,7.6,0,0,0,3.89-1.18v3.21A8.59,8.59,0,0,1,825.85,281Zm-2.57-18.47v-.39a18.27,18.27,0,0,0,1.39-2.22c.53-.95.9-1.68,1.13-2.19h4.65v.31a11.36,11.36,0,0,1-1.74,2,36.38,36.38,0,0,1-2.69,2.47Zm2,4.56a1.58,1.58,0,0,0-1.37.88,6,6,0,0,0-.63,2.75h4a6,6,0,0,0-.54-2.71A1.57,1.57,0,0,0,825.28,267.13Z"/><path class="cls-3" d="M79.56,316.75H68.08v-3l3.8-5.39A38.06,38.06,0,0,0,74,305.08,9.53,9.53,0,0,0,74.9,303a7.35,7.35,0,0,0,.28-2,2.66,2.66,0,0,0-.55-1.84,1.82,1.82,0,0,0-1.43-.62,2.79,2.79,0,0,0-1.45.41,8.62,8.62,0,0,0-1.64,1.48l-2.22-2.34a9.78,9.78,0,0,1,2.85-2.39A6.41,6.41,0,0,1,73.6,295a5.35,5.35,0,0,1,4.05,1.52,5.89,5.89,0,0,1,1.46,4.23,9.73,9.73,0,0,1-.27,2.33,10.86,10.86,0,0,1-.79,2.21,19,19,0,0,1-1.35,2.3c-.53.79-1.92,2.62-4.16,5.47v.12h7Z"/><path class="cls-3" d="M94.33,312.25H92.16v4.5H88.41v-4.5h-7V309l6.48-13.68h4.26V309h2.17ZM88.41,309v-4.51l.07-2,.1-1.9h-.11a25,25,0,0,1-1.12,2.89L84.78,309Z"/><path class="cls-3" d="M104.55,316.75V307c0-2.39-.6-3.58-1.8-3.58a1.92,1.92,0,0,0-1.89,1.41,11.88,11.88,0,0,0-.54,4.06v7.84h-3.9V294h3.9V299c0,.65-.06,1.82-.18,3.5h.21a3.81,3.81,0,0,1,3.6-2.4,4,4,0,0,1,3.38,1.51,7.28,7.28,0,0,1,1.15,4.46v10.65Z"/><path class="cls-3" d="M123.33,317a4,4,0,0,1-3.56-2.22,12.33,12.33,0,0,1-1.3-6.2,12.74,12.74,0,0,1,1.27-6.24,3.9,3.9,0,0,1,3.52-2.25,3.38,3.38,0,0,1,1.92.54,5,5,0,0,1,1.5,1.86h.24q-.18-2.23-.18-3.12V294h3.9v22.79h-2.9l-.66-2.12H127A3.91,3.91,0,0,1,123.33,317Zm1.26-3.29a1.66,1.66,0,0,0,1.58-1,9.33,9.33,0,0,0,.54-3.6v-.51a11,11,0,0,0-.5-4,1.72,1.72,0,0,0-1.66-1.16c-.73,0-1.25.45-1.58,1.33a11.58,11.58,0,0,0-.49,3.86,11,11,0,0,0,.5,3.8A1.69,1.69,0,0,0,124.59,313.75Z"/><path class="cls-3" d="M139.94,317a5.86,5.86,0,0,1-4.82-2.17,9.52,9.52,0,0,1-1.77-6.16,10.77,10.77,0,0,1,1.6-6.31,5.12,5.12,0,0,1,4.45-2.27,5,5,0,0,1,4.2,1.94,8.51,8.51,0,0,1,1.54,5.44v2.08H137.3a5.3,5.3,0,0,0,.9,3.24,2.82,2.82,0,0,0,2.34,1.06,7.61,7.61,0,0,0,3.9-1.18v3.21A8.59,8.59,0,0,1,139.94,317Zm-.57-13.91A1.58,1.58,0,0,0,138,304a6,6,0,0,0-.63,2.75h4a6,6,0,0,0-.54-2.71A1.58,1.58,0,0,0,139.37,303.13Z"/><path class="cls-3" d="M163.13,316.75l-.78-2.23h-.08a5.59,5.59,0,0,1-1.79,2,4.56,4.56,0,0,1-2.33.54,3.41,3.41,0,0,1-2.84-1.34,6.1,6.1,0,0,1-1-3.75,4.82,4.82,0,0,1,1.42-3.83,6.67,6.67,0,0,1,4.22-1.39l2.17-.09v-1.17q0-2.28-2-2.28a6.8,6.8,0,0,0-3.37,1.14l-1.34-2.7a9.72,9.72,0,0,1,5.28-1.53,5.07,5.07,0,0,1,3.95,1.48,6.05,6.05,0,0,1,1.36,4.21v11ZM159.75,314a2,2,0,0,0,1.7-1,4.52,4.52,0,0,0,.64-2.56V309.1l-1.2.06a2.79,2.79,0,0,0-2,.76,3,3,0,0,0-.62,2.06C158.31,313.32,158.79,314,159.75,314Z"/><path class="cls-3" d="M177.27,316.75V307a6.63,6.63,0,0,0-.43-2.68,1.42,1.42,0,0,0-1.38-.9,1.92,1.92,0,0,0-1.84,1.25,10.8,10.8,0,0,0-.59,4.22v7.84h-3.89V300.43h3.09l.47,2.1h.24a4.29,4.29,0,0,1,1.51-1.77,4.18,4.18,0,0,1,2.3-.63,3.85,3.85,0,0,1,3.34,1.52,7.57,7.57,0,0,1,1.1,4.45v10.65Z"/><path class="cls-3" d="M190,313.75a4.52,4.52,0,0,0,1.77-.41v3a5,5,0,0,1-2.85.66,3.81,3.81,0,0,1-3.15-1.26,5.92,5.92,0,0,1-1-3.8v-8.46h-1.58v-1.74l2-1.41,1-3.45h2.49v3.51h3v3.09h-3v8.59C188.69,313.2,189.13,313.75,190,313.75Z"/><path class="cls-3" d="M200.09,317a5.89,5.89,0,0,1-4.83-2.17,9.52,9.52,0,0,1-1.76-6.16,10.84,10.84,0,0,1,1.59-6.31,5.13,5.13,0,0,1,4.46-2.27,5.06,5.06,0,0,1,4.2,1.94,8.51,8.51,0,0,1,1.54,5.44v2.08h-7.84a5.37,5.37,0,0,0,.89,3.24,2.84,2.84,0,0,0,2.35,1.06,7.61,7.61,0,0,0,3.9-1.18v3.21A8.59,8.59,0,0,1,200.09,317Zm-.57-13.91a1.58,1.58,0,0,0-1.38.88,6,6,0,0,0-.63,2.75h4a5.94,5.94,0,0,0-.55-2.71A1.56,1.56,0,0,0,199.52,303.13Z"/><path class="cls-3" d="M213.26,317a5.1,5.1,0,0,1-4.44-2.12c-1-1.42-1.52-3.5-1.52-6.24s.48-5,1.44-6.43a5,5,0,0,1,4.46-2.12,7.23,7.23,0,0,1,1.9.26,6.27,6.27,0,0,1,1.79.76l-1.11,3a4.36,4.36,0,0,0-2.16-.72,1.87,1.87,0,0,0-1.79,1.3,10.42,10.42,0,0,0-.55,3.89,10.1,10.1,0,0,0,.54,3.79,1.83,1.83,0,0,0,1.77,1.25,5.68,5.68,0,0,0,3.07-1v3.43A6.3,6.3,0,0,1,213.26,317Z"/><path class="cls-3" d="M225,317a5.89,5.89,0,0,1-4.83-2.17,9.57,9.57,0,0,1-1.76-6.16A10.84,10.84,0,0,1,220,302.4a5.13,5.13,0,0,1,4.46-2.27,5,5,0,0,1,4.2,1.94,8.51,8.51,0,0,1,1.54,5.44v2.08h-7.84a5.3,5.3,0,0,0,.9,3.24,2.81,2.81,0,0,0,2.34,1.06,7.61,7.61,0,0,0,3.9-1.18v3.21A8.59,8.59,0,0,1,225,317Zm-.57-13.91a1.58,1.58,0,0,0-1.38.88,6,6,0,0,0-.63,2.75h4a5.82,5.82,0,0,0-.55-2.71A1.56,1.56,0,0,0,224.45,303.13Z"/><path class="cls-3" d="M237.09,317a4,4,0,0,1-3.56-2.22,12.33,12.33,0,0,1-1.3-6.2,12.74,12.74,0,0,1,1.27-6.24,3.9,3.9,0,0,1,3.52-2.25,3.38,3.38,0,0,1,1.92.54,5,5,0,0,1,1.5,1.86h.24q-.18-2.23-.18-3.12V294h3.9v22.79h-2.9l-.66-2.12h-.13A3.91,3.91,0,0,1,237.09,317Zm1.26-3.29a1.66,1.66,0,0,0,1.58-1,9.33,9.33,0,0,0,.54-3.6v-.51a11.25,11.25,0,0,0-.5-4,1.72,1.72,0,0,0-1.66-1.16c-.73,0-1.25.45-1.58,1.33a11.58,11.58,0,0,0-.49,3.86,11,11,0,0,0,.5,3.8A1.69,1.69,0,0,0,238.35,313.75Z"/><path class="cls-3" d="M253.7,317a5.86,5.86,0,0,1-4.82-2.17,9.52,9.52,0,0,1-1.77-6.16,10.77,10.77,0,0,1,1.6-6.31,5.12,5.12,0,0,1,4.45-2.27,5,5,0,0,1,4.2,1.94,8.51,8.51,0,0,1,1.54,5.44v2.08h-7.84a5.3,5.3,0,0,0,.9,3.24,2.82,2.82,0,0,0,2.34,1.06,7.61,7.61,0,0,0,3.9-1.18v3.21A8.59,8.59,0,0,1,253.7,317Zm2.21-18.47a18.5,18.5,0,0,1-2.77-2.61,21.46,21.46,0,0,1-2.72,2.61H248v-.39a35.75,35.75,0,0,0,3.18-4.41h4.06a35.93,35.93,0,0,0,3.17,4.41v.39Zm-2.78,4.56a1.58,1.58,0,0,0-1.38.88,6,6,0,0,0-.63,2.75h4a6,6,0,0,0-.54-2.71A1.58,1.58,0,0,0,253.13,303.13Z"/><path class="cls-3" d="M269.61,316.75V307a6.46,6.46,0,0,0-.43-2.68,1.42,1.42,0,0,0-1.37-.9,1.93,1.93,0,0,0-1.85,1.25,10.84,10.84,0,0,0-.58,4.22v7.84h-3.9V300.43h3.09l.47,2.1h.25a4,4,0,0,1,3.81-2.4,3.84,3.84,0,0,1,3.33,1.52,7.49,7.49,0,0,1,1.11,4.45v10.65Z"/><path class="cls-3" d="M282.08,317a5.1,5.1,0,0,1-4.44-2.12,10.64,10.64,0,0,1-1.53-6.24q0-4.31,1.45-6.43a5,5,0,0,1,4.46-2.12,7.23,7.23,0,0,1,1.9.26,6.27,6.27,0,0,1,1.79.76l-1.12,3a4.33,4.33,0,0,0-2.15-.72,1.86,1.86,0,0,0-1.79,1.3,10.42,10.42,0,0,0-.55,3.89,10.1,10.1,0,0,0,.54,3.79,1.83,1.83,0,0,0,1.77,1.25,5.62,5.62,0,0,0,3.06-1v3.43A6.24,6.24,0,0,1,282.08,317Z"/><path class="cls-3" d="M287.69,296.17a2.06,2.06,0,0,1,.56-1.53,2.11,2.11,0,0,1,1.57-.56,2.16,2.16,0,0,1,1.51,3.64,2.13,2.13,0,0,1-1.51.54,2.2,2.2,0,0,1-1.55-.54A2,2,0,0,1,287.69,296.17Zm4.05,20.58h-3.89V300.43h3.89Z"/><path class="cls-3" d="M303.08,316.75l-.78-2.23h-.08a5.5,5.5,0,0,1-1.79,2,4.56,4.56,0,0,1-2.33.54,3.39,3.39,0,0,1-2.83-1.34,6,6,0,0,1-1-3.75,4.82,4.82,0,0,1,1.42-3.83,6.67,6.67,0,0,1,4.22-1.39l2.17-.09v-1.17q0-2.28-2-2.28a6.8,6.8,0,0,0-3.37,1.14l-1.34-2.7a9.72,9.72,0,0,1,5.28-1.53,5.07,5.07,0,0,1,3.95,1.48,6,6,0,0,1,1.36,4.21v11ZM299.7,314a2,2,0,0,0,1.7-1,4.52,4.52,0,0,0,.64-2.56V309.1l-1.2.06a2.79,2.79,0,0,0-2,.76,3,3,0,0,0-.62,2.06C298.26,313.32,298.74,314,299.7,314Z"/><path class="cls-3" d="M313.73,313.6a46.08,46.08,0,0,1-2.58,7h-3c.63-2.6,1.13-5.05,1.48-7.36h3.87Z"/><path class="cls-3" d="M336.68,308.56a10.14,10.14,0,0,1-1.69,6.25,5.94,5.94,0,0,1-8,1.21,6.5,6.5,0,0,1-2.22-2.95,12.2,12.2,0,0,1-.77-4.51,10.13,10.13,0,0,1,1.68-6.2,5.53,5.53,0,0,1,4.68-2.23A5.44,5.44,0,0,1,335,302.4,10,10,0,0,1,336.68,308.56Zm-8.67,0a10.32,10.32,0,0,0,.56,3.86,1.88,1.88,0,0,0,1.79,1.3q2.34,0,2.34-5.16a10,10,0,0,0-.56-3.83,1.89,1.89,0,0,0-3.57,0A10,10,0,0,0,328,308.56Z"/><path class="cls-3" d="M354.12,317a3.58,3.58,0,0,1-1.87-.47,4.6,4.6,0,0,1-1.52-1.68h-.2c.15,1.33.23,2.13.23,2.4V324h-3.92V300.43h3l.68,2.13h.17a3.82,3.82,0,0,1,3.53-2.43,3.86,3.86,0,0,1,3.49,2.2,12.69,12.69,0,0,1,1.26,6.23,12.5,12.5,0,0,1-1.3,6.23A4,4,0,0,1,354.12,317Zm-1.2-13.6a1.69,1.69,0,0,0-1.65,1.06,9,9,0,0,0-.54,3.52v.51a10.77,10.77,0,0,0,.52,3.93,1.74,1.74,0,0,0,1.69,1.23q2.06,0,2.06-5.19a10.67,10.67,0,0,0-.51-3.8A1.68,1.68,0,0,0,352.92,303.44Z"/><path class="cls-3" d="M368.68,300.13a4.75,4.75,0,0,1,1.4.21l-.45,3.78a3.47,3.47,0,0,0-1.07-.14,2.46,2.46,0,0,0-2.18,1.12,5.78,5.78,0,0,0-.76,3.26v8.39h-3.9V300.43h3.21l.44,2.55h.13a6.09,6.09,0,0,1,1.4-2.2A2.63,2.63,0,0,1,368.68,300.13Z"/><path class="cls-3" d="M377.85,317a5.89,5.89,0,0,1-4.83-2.17,9.52,9.52,0,0,1-1.76-6.16,10.84,10.84,0,0,1,1.59-6.31,5.13,5.13,0,0,1,4.45-2.27,5.07,5.07,0,0,1,4.21,1.94,8.57,8.57,0,0,1,1.54,5.44v2.08h-7.84a5.37,5.37,0,0,0,.89,3.24,2.84,2.84,0,0,0,2.35,1.06,7.55,7.55,0,0,0,3.89-1.18v3.21A8.57,8.57,0,0,1,377.85,317Zm-.57-13.91a1.58,1.58,0,0,0-1.38.88,6,6,0,0,0-.63,2.75h4a6,6,0,0,0-.54-2.71A1.56,1.56,0,0,0,377.28,303.13Z"/><path class="cls-3" d="M392.91,317a3.58,3.58,0,0,1-1.87-.47,4.6,4.6,0,0,1-1.52-1.68h-.2c.15,1.33.23,2.13.23,2.4V324h-3.92V300.43h3l.68,2.13h.17a3.82,3.82,0,0,1,3.53-2.43,3.86,3.86,0,0,1,3.49,2.2,15.8,15.8,0,0,1,0,12.46A4,4,0,0,1,392.91,317Zm-1.21-13.6a1.69,1.69,0,0,0-1.64,1.06,9,9,0,0,0-.54,3.52v.51a11,11,0,0,0,.51,3.93,1.76,1.76,0,0,0,1.7,1.23q2.06,0,2-5.19a10.71,10.71,0,0,0-.5-3.8A1.68,1.68,0,0,0,391.7,303.44Z"/><path class="cls-3" d="M408.51,316.75l-.78-2.23h-.09a5.42,5.42,0,0,1-1.79,2,4.53,4.53,0,0,1-2.32.54,3.39,3.39,0,0,1-2.84-1.34,6,6,0,0,1-1-3.75,4.85,4.85,0,0,1,1.41-3.83,6.68,6.68,0,0,1,4.23-1.39l2.17-.09v-1.17q0-2.28-2-2.28a6.77,6.77,0,0,0-3.37,1.14l-1.35-2.7a9.76,9.76,0,0,1,5.29-1.53,5.09,5.09,0,0,1,3.95,1.48,6.05,6.05,0,0,1,1.35,4.21v11ZM405.12,314a2,2,0,0,0,1.71-1,4.6,4.6,0,0,0,.64-2.56V309.1l-1.21.06a2.76,2.76,0,0,0-1.95.76,3,3,0,0,0-.62,2.06C403.69,313.32,404.17,314,405.12,314Z"/><path class="cls-3" d="M421.47,300.13a4.82,4.82,0,0,1,1.41.21l-.46,3.78a3.47,3.47,0,0,0-1.07-.14,2.48,2.48,0,0,0-2.18,1.12,5.78,5.78,0,0,0-.76,3.26v8.39h-3.9V300.43h3.21l.44,2.55h.13a6,6,0,0,1,1.41-2.2A2.62,2.62,0,0,1,421.47,300.13Z"/><path class="cls-3" d="M436.7,308.56a10.14,10.14,0,0,1-1.69,6.25,5.94,5.94,0,0,1-8,1.21,6.5,6.5,0,0,1-2.22-2.95,12.2,12.2,0,0,1-.77-4.51,10.13,10.13,0,0,1,1.68-6.2,5.53,5.53,0,0,1,4.68-2.23A5.44,5.44,0,0,1,435,302.4,10.1,10.1,0,0,1,436.7,308.56Zm-8.67,0a10.32,10.32,0,0,0,.56,3.86,1.88,1.88,0,0,0,1.79,1.3q2.34,0,2.34-5.16a10,10,0,0,0-.56-3.83,1.89,1.89,0,0,0-3.57,0A10,10,0,0,0,428,308.56Z"/><path class="cls-3" d="M451.15,317a4,4,0,0,1-3.56-2.22,12.32,12.32,0,0,1-1.31-6.2,12.73,12.73,0,0,1,1.28-6.24,3.9,3.9,0,0,1,3.51-2.25,3.39,3.39,0,0,1,1.93.54,5.07,5.07,0,0,1,1.5,1.86h.24q-.18-2.23-.18-3.12V294h3.9v22.79h-2.9l-.66-2.12h-.13A3.91,3.91,0,0,1,451.15,317Zm1.26-3.29a1.66,1.66,0,0,0,1.58-1,9.33,9.33,0,0,0,.54-3.6v-.51a11.25,11.25,0,0,0-.5-4,1.73,1.73,0,0,0-1.67-1.16c-.72,0-1.24.45-1.57,1.33a11.58,11.58,0,0,0-.49,3.86,10.75,10.75,0,0,0,.5,3.8A1.69,1.69,0,0,0,452.41,313.75Z"/><path class="cls-3" d="M473.82,308.56a10.08,10.08,0,0,1-1.7,6.25,5.93,5.93,0,0,1-8,1.21,6.5,6.5,0,0,1-2.22-2.95,12.2,12.2,0,0,1-.77-4.51,10.13,10.13,0,0,1,1.68-6.2,5.51,5.51,0,0,1,4.67-2.23,5.44,5.44,0,0,1,4.6,2.27A10.1,10.1,0,0,1,473.82,308.56Zm-8.67,0a10.32,10.32,0,0,0,.56,3.86,1.88,1.88,0,0,0,1.79,1.3q2.34,0,2.34-5.16a9.81,9.81,0,0,0-.57-3.83,1.88,1.88,0,0,0-3.56,0A10,10,0,0,0,465.15,308.56Z"/><path class="cls-3" d="M492.73,312a4.9,4.9,0,0,1-1.39,3.72,5.74,5.74,0,0,1-4.13,1.34,7.62,7.62,0,0,1-4-1v-3.38a7.65,7.65,0,0,0,1.88.92,5.92,5.92,0,0,0,1.9.37,2,2,0,0,0,1.39-.45,1.57,1.57,0,0,0,.47-1.18,1.84,1.84,0,0,0-.5-1.3,8.2,8.2,0,0,0-1.83-1.36,7.74,7.74,0,0,1-2.54-2.25,5.14,5.14,0,0,1-.77-2.82,4.11,4.11,0,0,1,1.43-3.3,5.85,5.85,0,0,1,3.92-1.21,7.87,7.87,0,0,1,4.09,1.14l-1.28,2.8a5.89,5.89,0,0,0-2.75-.85,1.48,1.48,0,0,0-1.12.39,1.38,1.38,0,0,0-.38,1,1.69,1.69,0,0,0,.47,1.17,7.7,7.7,0,0,0,1.72,1.27,11.35,11.35,0,0,1,2.14,1.57,4.76,4.76,0,0,1,.95,1.47A5.07,5.07,0,0,1,492.73,312Z"/><path class="cls-3" d="M501.22,317a5.89,5.89,0,0,1-4.83-2.17,9.52,9.52,0,0,1-1.77-6.16,10.84,10.84,0,0,1,1.6-6.31,5.13,5.13,0,0,1,4.45-2.27,5.07,5.07,0,0,1,4.21,1.94,8.57,8.57,0,0,1,1.54,5.44v2.08h-7.84a5.37,5.37,0,0,0,.89,3.24,2.84,2.84,0,0,0,2.35,1.06,7.58,7.58,0,0,0,3.89-1.18v3.21A8.57,8.57,0,0,1,501.22,317Zm-.58-13.91a1.58,1.58,0,0,0-1.37.88,6,6,0,0,0-.63,2.75h3.95a6,6,0,0,0-.54-2.71A1.57,1.57,0,0,0,500.64,303.13Z"/><path class="cls-3" d="M517.81,316.75l-.48-2.09h-.21a4.11,4.11,0,0,1-3.83,2.38,3.89,3.89,0,0,1-3.33-1.49,7.4,7.4,0,0,1-1.13-4.47V300.43h3.94v9.71a6.67,6.67,0,0,0,.43,2.7,1.42,1.42,0,0,0,1.38.91,1.9,1.9,0,0,0,1.83-1.26,11,11,0,0,0,.58-4.24v-7.82h3.94v16.32Z"/><path class="cls-3" d="M537,317a5.12,5.12,0,0,1-4.44-2.12,10.72,10.72,0,0,1-1.52-6.24q0-4.31,1.44-6.43a5,5,0,0,1,4.46-2.12,7.3,7.3,0,0,1,1.91.26,6.21,6.21,0,0,1,1.78.76l-1.11,3a4.36,4.36,0,0,0-2.15-.72,1.88,1.88,0,0,0-1.8,1.3,10.63,10.63,0,0,0-.55,3.89,10.07,10.07,0,0,0,.55,3.79,1.83,1.83,0,0,0,1.77,1.25,5.62,5.62,0,0,0,3.06-1v3.43A6.28,6.28,0,0,1,537,317Z"/><path class="cls-3" d="M550.74,316.75l-.77-2.23h-.09a5.5,5.5,0,0,1-1.79,2,4.54,4.54,0,0,1-2.33.54,3.39,3.39,0,0,1-2.83-1.34,6,6,0,0,1-1-3.75,4.86,4.86,0,0,1,1.42-3.83,6.67,6.67,0,0,1,4.22-1.39l2.17-.09v-1.17q0-2.28-2-2.28a6.77,6.77,0,0,0-3.36,1.14l-1.35-2.7a9.73,9.73,0,0,1,5.29-1.53,5.06,5.06,0,0,1,3.94,1.48,6,6,0,0,1,1.36,4.21v11ZM547.36,314a2,2,0,0,0,1.71-1,4.6,4.6,0,0,0,.63-2.56V309.1l-1.2.06a2.74,2.74,0,0,0-2,.76,3,3,0,0,0-.63,2.06C545.92,313.32,546.4,314,547.36,314Z"/><path class="cls-3" d="M564,303.52h-2.7v13.23h-3.89V303.52h-1.89v-1.94l1.89-1.18v-1.23a6.12,6.12,0,0,1,1.13-4.05,4.52,4.52,0,0,1,3.63-1.32,6.67,6.67,0,0,1,2.94.66l-1,3a3.5,3.5,0,0,0-1.5-.35,1,1,0,0,0-1,.53,3.36,3.36,0,0,0-.31,1.62v1.2H564Z"/><path class="cls-3" d="M571.73,317a5.86,5.86,0,0,1-4.82-2.17,9.52,9.52,0,0,1-1.77-6.16,10.77,10.77,0,0,1,1.6-6.31,5.52,5.52,0,0,1,8.66-.33,8.57,8.57,0,0,1,1.53,5.44v2.08H569.1a5.3,5.3,0,0,0,.89,3.24,2.83,2.83,0,0,0,2.34,1.06,7.61,7.61,0,0,0,3.9-1.18v3.21A8.59,8.59,0,0,1,571.73,317Zm-2.57-18.47v-.39a18.27,18.27,0,0,0,1.39-2.22c.52-.95.9-1.68,1.13-2.19h4.65v.31a11.36,11.36,0,0,1-1.74,2,34.51,34.51,0,0,1-2.7,2.47Zm2,4.56a1.58,1.58,0,0,0-1.37.88,5.8,5.8,0,0,0-.63,2.75h4a6,6,0,0,0-.54-2.71A1.57,1.57,0,0,0,571.16,303.13Z"/><path class="cls-3" d="M579.48,314.74a2.17,2.17,0,0,1,2.42-2.4,2.48,2.48,0,0,1,1.82.62,2.43,2.43,0,0,1,.61,1.78,2.37,2.37,0,0,1-.64,1.78,2.42,2.42,0,0,1-4.21-1.78Z"/><path class="cls-3" d="M83.62,378c0,3.55-.67,6.27-2,8.18a7.14,7.14,0,0,1-11.41,0q-2-2.83-2-8.21t2-8.15A6.57,6.57,0,0,1,76,367a6.49,6.49,0,0,1,5.68,2.85Q83.62,372.7,83.62,378ZM72.3,378a13.16,13.16,0,0,0,.92,5.58,2.92,2.92,0,0,0,2.71,1.92q3.6,0,3.6-7.5T76,370.51a2.93,2.93,0,0,0-2.74,1.92A13.16,13.16,0,0,0,72.3,378Z"/><path class="cls-3" d="M101.2,389a3.58,3.58,0,0,1-1.87-.47,4.6,4.6,0,0,1-1.52-1.68h-.2c.15,1.33.23,2.13.23,2.4V396H93.92V372.43h3l.68,2.13h.17a3.82,3.82,0,0,1,3.53-2.43,3.86,3.86,0,0,1,3.49,2.2,12.69,12.69,0,0,1,1.26,6.23,12.5,12.5,0,0,1-1.3,6.23A4,4,0,0,1,101.2,389Zm-1.2-13.6a1.69,1.69,0,0,0-1.65,1.06,9,9,0,0,0-.54,3.52v.51a10.77,10.77,0,0,0,.52,3.93,1.74,1.74,0,0,0,1.69,1.23q2.06,0,2.06-5.19a10.67,10.67,0,0,0-.51-3.8A1.68,1.68,0,0,0,100,375.44Z"/><path class="cls-3" d="M115.76,372.13a4.75,4.75,0,0,1,1.4.21l-.45,3.78a3.47,3.47,0,0,0-1.07-.14,2.47,2.47,0,0,0-2.18,1.12,5.78,5.78,0,0,0-.76,3.26v8.39h-3.9V372.43H112l.44,2.55h.13a6.09,6.09,0,0,1,1.4-2.2A2.63,2.63,0,0,1,115.76,372.13Z"/><path class="cls-3" d="M124.93,389a5.89,5.89,0,0,1-4.83-2.17,9.52,9.52,0,0,1-1.76-6.16,10.84,10.84,0,0,1,1.59-6.31,5.13,5.13,0,0,1,4.45-2.27,5.07,5.07,0,0,1,4.21,1.94,8.57,8.57,0,0,1,1.54,5.44v2.08h-7.84a5.37,5.37,0,0,0,.89,3.24,2.84,2.84,0,0,0,2.35,1.06,7.55,7.55,0,0,0,3.89-1.18v3.21A8.55,8.55,0,0,1,124.93,389Zm-.57-13.91A1.58,1.58,0,0,0,123,376a6,6,0,0,0-.63,2.75h4a6,6,0,0,0-.54-2.71A1.56,1.56,0,0,0,124.36,375.13Z"/><path class="cls-3" d="M138.1,389a5.1,5.1,0,0,1-4.44-2.12,10.64,10.64,0,0,1-1.53-6.24q0-4.31,1.45-6.43a5,5,0,0,1,4.46-2.12,7.23,7.23,0,0,1,1.9.26,6.27,6.27,0,0,1,1.79.76l-1.11,3a4.4,4.4,0,0,0-2.16-.72,1.86,1.86,0,0,0-1.79,1.3,10.42,10.42,0,0,0-.55,3.89,10.1,10.1,0,0,0,.54,3.79,1.83,1.83,0,0,0,1.77,1.25,5.62,5.62,0,0,0,3.06-1v3.43A6.24,6.24,0,0,1,138.1,389Zm2.37,3.52a3.15,3.15,0,0,1-1,2.48,4.78,4.78,0,0,1-3.22.92,5.45,5.45,0,0,1-1.92-.31v-2.26a6.36,6.36,0,0,0,1.77.25q1.29,0,1.29-1c0-.82-.77-1.36-2.3-1.61l1.16-2.32h2.53l-.54,1.11a3.31,3.31,0,0,1,1.63.93A2.45,2.45,0,0,1,140.47,392.56Z"/><path class="cls-3" d="M155.92,380.56a10.08,10.08,0,0,1-1.7,6.25,5.93,5.93,0,0,1-8,1.21,6.5,6.5,0,0,1-2.22-2.95,12.2,12.2,0,0,1-.77-4.51,10.13,10.13,0,0,1,1.68-6.2,5.51,5.51,0,0,1,4.67-2.23,5.44,5.44,0,0,1,4.6,2.27A10.1,10.1,0,0,1,155.92,380.56Zm-8.67,0a10.32,10.32,0,0,0,.56,3.86,1.86,1.86,0,0,0,1.78,1.3q2.35,0,2.35-5.16a9.81,9.81,0,0,0-.57-3.83,1.88,1.88,0,0,0-3.56,0A10,10,0,0,0,147.25,380.56Z"/><path class="cls-3" d="M170.37,389a4,4,0,0,1-3.56-2.22,12.32,12.32,0,0,1-1.31-6.2,12.73,12.73,0,0,1,1.28-6.24,3.9,3.9,0,0,1,3.51-2.25,3.39,3.39,0,0,1,1.93.54,5.07,5.07,0,0,1,1.5,1.86H174q-.18-2.23-.18-3.12V366h3.9v22.79h-2.9l-.66-2.12H174A3.9,3.9,0,0,1,170.37,389Zm1.26-3.29a1.66,1.66,0,0,0,1.58-1,9.33,9.33,0,0,0,.54-3.6v-.51a11.25,11.25,0,0,0-.5-4,1.73,1.73,0,0,0-1.67-1.16c-.72,0-1.25.45-1.57,1.33a11.58,11.58,0,0,0-.49,3.86,11,11,0,0,0,.49,3.8A1.7,1.7,0,0,0,171.63,385.75Z"/><path class="cls-3" d="M189,388.75l-.78-2.23h-.09a5.5,5.5,0,0,1-1.79,2A4.54,4.54,0,0,1,184,389a3.39,3.39,0,0,1-2.83-1.34,6,6,0,0,1-1-3.75,4.85,4.85,0,0,1,1.41-3.83,6.68,6.68,0,0,1,4.23-1.39l2.17-.09v-1.17q0-2.28-2-2.28a6.77,6.77,0,0,0-3.37,1.14l-1.35-2.7a9.73,9.73,0,0,1,5.29-1.53,5.09,5.09,0,0,1,4,1.48,6.05,6.05,0,0,1,1.35,4.21v11ZM185.57,386a2,2,0,0,0,1.71-1,4.6,4.6,0,0,0,.64-2.56V381.1l-1.21.06a2.76,2.76,0,0,0-2,.76,3,3,0,0,0-.62,2.06C184.14,385.32,184.61,386,185.57,386Z"/><path class="cls-3" d="M207.76,389a5.09,5.09,0,0,1-4.43-2.12,10.64,10.64,0,0,1-1.53-6.24q0-4.31,1.45-6.43a5,5,0,0,1,4.46-2.12,7.23,7.23,0,0,1,1.9.26,6.4,6.4,0,0,1,1.79.76l-1.12,3a4.33,4.33,0,0,0-2.15-.72,1.86,1.86,0,0,0-1.79,1.3,10.42,10.42,0,0,0-.55,3.89,10.1,10.1,0,0,0,.54,3.79,1.83,1.83,0,0,0,1.77,1.25,5.62,5.62,0,0,0,3.06-1v3.43A6.28,6.28,0,0,1,207.76,389Z"/><path class="cls-3" d="M221.5,388.75l-.77-2.23h-.09a5.5,5.5,0,0,1-1.79,2,4.54,4.54,0,0,1-2.33.54,3.39,3.39,0,0,1-2.83-1.34,6,6,0,0,1-1-3.75,4.85,4.85,0,0,1,1.41-3.83,6.68,6.68,0,0,1,4.23-1.39l2.16-.09v-1.17c0-1.52-.66-2.28-2-2.28a6.77,6.77,0,0,0-3.37,1.14l-1.35-2.7a9.73,9.73,0,0,1,5.29-1.53,5.09,5.09,0,0,1,3.95,1.48,6.05,6.05,0,0,1,1.35,4.21v11ZM218.12,386a2,2,0,0,0,1.71-1,4.6,4.6,0,0,0,.63-2.56V381.1l-1.2.06a2.74,2.74,0,0,0-1.95.76,3,3,0,0,0-.63,2.06C216.68,385.32,217.16,386,218.12,386Z"/><path class="cls-3" d="M234.76,375.52h-2.69v13.23h-3.9V375.52h-1.89v-1.94l1.89-1.18v-1.23a6.17,6.17,0,0,1,1.13-4.05,4.52,4.52,0,0,1,3.63-1.32,6.63,6.63,0,0,1,2.94.66l-1,3a3.5,3.5,0,0,0-1.5-.35,1.05,1.05,0,0,0-1,.53,3.38,3.38,0,0,0-.3,1.62v1.2h2.69Z"/><path class="cls-3" d="M242.5,389a5.86,5.86,0,0,1-4.83-2.17,9.52,9.52,0,0,1-1.77-6.16,10.84,10.84,0,0,1,1.6-6.31,5.52,5.52,0,0,1,8.66-.33,8.57,8.57,0,0,1,1.54,5.44v2.08h-7.84a5.37,5.37,0,0,0,.89,3.24,2.84,2.84,0,0,0,2.35,1.06,7.58,7.58,0,0,0,3.89-1.18v3.21A8.57,8.57,0,0,1,242.5,389Zm-.58-13.91a1.58,1.58,0,0,0-1.37.88,6,6,0,0,0-.63,2.75h4a6,6,0,0,0-.54-2.71A1.57,1.57,0,0,0,241.92,375.13Z"/><path class="cls-3" d="M255.94,385.75a4.61,4.61,0,0,0,1.78-.41v3a5.06,5.06,0,0,1-2.86.66,3.81,3.81,0,0,1-3.15-1.26,6,6,0,0,1-1-3.8v-8.46H249.1v-1.74l2-1.41,1-3.45h2.49v3.51h3v3.09h-3v8.59C254.62,385.2,255.06,385.75,255.94,385.75Z"/><path class="cls-3" d="M266,389a5.89,5.89,0,0,1-4.83-2.17,9.57,9.57,0,0,1-1.76-6.16,10.77,10.77,0,0,1,1.6-6.31,5.11,5.11,0,0,1,4.45-2.27,5,5,0,0,1,4.2,1.94,8.51,8.51,0,0,1,1.54,5.44v2.08h-7.84a5.3,5.3,0,0,0,.9,3.24,2.82,2.82,0,0,0,2.34,1.06,7.61,7.61,0,0,0,3.9-1.18v3.21A8.59,8.59,0,0,1,266,389Zm-.57-13.91a1.58,1.58,0,0,0-1.38.88,6,6,0,0,0-.63,2.75h4a6,6,0,0,0-.54-2.71A1.58,1.58,0,0,0,265.45,375.13Z"/><path class="cls-3" d="M273.67,368.17a2.06,2.06,0,0,1,.56-1.53,2.12,2.12,0,0,1,1.58-.56,1.95,1.95,0,0,1,2.09,2.09,2,2,0,0,1-.59,1.55,2.12,2.12,0,0,1-1.5.54,2.21,2.21,0,0,1-1.56-.54A2,2,0,0,1,273.67,368.17Zm4.05,20.58h-3.89V372.43h3.89Z"/><path class="cls-3" d="M288,372.13a4.82,4.82,0,0,1,1.41.21l-.46,3.78a3.44,3.44,0,0,0-1.06-.14,2.49,2.49,0,0,0-2.19,1.12,5.86,5.86,0,0,0-.76,3.26v8.39h-3.9V372.43h3.21l.44,2.55h.13a6,6,0,0,1,1.41-2.2A2.62,2.62,0,0,1,288,372.13Z"/><path class="cls-3" d="M299.17,388.75l-.78-2.23h-.08a5.59,5.59,0,0,1-1.79,2,4.56,4.56,0,0,1-2.33.54,3.41,3.41,0,0,1-2.84-1.34,6.1,6.1,0,0,1-1-3.75,4.82,4.82,0,0,1,1.42-3.83,6.67,6.67,0,0,1,4.22-1.39l2.17-.09v-1.17q0-2.28-2-2.28a6.8,6.8,0,0,0-3.37,1.14l-1.34-2.7a9.72,9.72,0,0,1,5.28-1.53,5.07,5.07,0,0,1,3.95,1.48,6.05,6.05,0,0,1,1.36,4.21v11ZM295.79,386a2,2,0,0,0,1.7-1,4.52,4.52,0,0,0,.64-2.56V381.1l-1.2.06a2.79,2.79,0,0,0-2,.76,3,3,0,0,0-.62,2.06C294.35,385.32,294.83,386,295.79,386Z"/><path class="cls-3" d="M320.72,388.75V379a6.46,6.46,0,0,0-.43-2.68,1.42,1.42,0,0,0-1.37-.9,1.93,1.93,0,0,0-1.85,1.25,10.8,10.8,0,0,0-.59,4.22v7.84h-3.89V372.43h3.09l.47,2.1h.25a4,4,0,0,1,3.81-2.4,3.84,3.84,0,0,1,3.33,1.52,7.57,7.57,0,0,1,1.1,4.45v10.65Z"/><path class="cls-3" d="M339.88,380.56a10.14,10.14,0,0,1-1.7,6.25,5.94,5.94,0,0,1-8,1.21,6.48,6.48,0,0,1-2.21-2.95,12,12,0,0,1-.78-4.51,10.06,10.06,0,0,1,1.69-6.2,5.51,5.51,0,0,1,4.67-2.23,5.44,5.44,0,0,1,4.59,2.27A10,10,0,0,1,339.88,380.56Zm-8.67,0a10.35,10.35,0,0,0,.55,3.86,1.88,1.88,0,0,0,1.79,1.3q2.34,0,2.34-5.16a9.84,9.84,0,0,0-.56-3.83,1.89,1.89,0,0,0-3.57,0A10.07,10.07,0,0,0,331.21,380.56Z"/><path class="cls-3" d="M350.26,367.34h5.47c2.22,0,3.85.43,4.86,1.29a5.12,5.12,0,0,1,1.52,4.12,5.63,5.63,0,0,1-.8,3.12,3.25,3.25,0,0,1-2.2,1.51v.15a4.13,4.13,0,0,1,2.62,1.7,6,6,0,0,1,.81,3.31A6.37,6.37,0,0,1,361,387.1a5.59,5.59,0,0,1-4.27,1.65h-6.45ZM354,376h1.83a2.11,2.11,0,0,0,1.78-.68,3.26,3.26,0,0,0,.51-2,2.6,2.6,0,0,0-.59-1.91,2.51,2.51,0,0,0-1.84-.58H354Zm0,3.32v6h2a2.21,2.21,0,0,0,1.85-.76,3.71,3.71,0,0,0,.61-2.36c0-1.91-.84-2.87-2.52-2.87Z"/><path class="cls-3" d="M372.19,372.13a4.82,4.82,0,0,1,1.41.21l-.46,3.78a3.44,3.44,0,0,0-1.06-.14,2.49,2.49,0,0,0-2.19,1.12,5.78,5.78,0,0,0-.76,3.26v8.39h-3.9V372.43h3.21l.44,2.55H369a6,6,0,0,1,1.41-2.2A2.62,2.62,0,0,1,372.19,372.13Z"/><path class="cls-3" d="M383.34,388.75l-.78-2.23h-.08a5.59,5.59,0,0,1-1.79,2,4.56,4.56,0,0,1-2.33.54,3.41,3.41,0,0,1-2.84-1.34,6.1,6.1,0,0,1-1-3.75,4.82,4.82,0,0,1,1.42-3.83,6.67,6.67,0,0,1,4.22-1.39l2.17-.09v-1.17q0-2.28-2-2.28a6.8,6.8,0,0,0-3.37,1.14l-1.34-2.7a9.72,9.72,0,0,1,5.28-1.53,5.07,5.07,0,0,1,3.95,1.48,6.05,6.05,0,0,1,1.36,4.21v11ZM380,386a2,2,0,0,0,1.7-1,4.52,4.52,0,0,0,.64-2.56V381.1l-1.2.06a2.79,2.79,0,0,0-2,.76,3,3,0,0,0-.62,2.06C378.52,385.32,379,386,380,386Z"/><path class="cls-3" d="M398.11,384a4.91,4.91,0,0,1-1.4,3.72,5.74,5.74,0,0,1-4.13,1.34,7.62,7.62,0,0,1-4-1v-3.38a7.55,7.55,0,0,0,1.89.92,5.81,5.81,0,0,0,1.89.37,2,2,0,0,0,1.39-.45,1.57,1.57,0,0,0,.47-1.18,1.88,1.88,0,0,0-.49-1.3,8.57,8.57,0,0,0-1.84-1.36,7.74,7.74,0,0,1-2.54-2.25,5.14,5.14,0,0,1-.77-2.82,4.11,4.11,0,0,1,1.43-3.3,5.85,5.85,0,0,1,3.92-1.21,7.87,7.87,0,0,1,4.09,1.14l-1.28,2.8a5.89,5.89,0,0,0-2.75-.85,1.48,1.48,0,0,0-1.12.39,1.37,1.37,0,0,0-.37,1,1.68,1.68,0,0,0,.46,1.17,7.7,7.7,0,0,0,1.72,1.27,11.35,11.35,0,0,1,2.14,1.57,4.76,4.76,0,0,1,.95,1.47A5.07,5.07,0,0,1,398.11,384Z"/><path class="cls-3" d="M400.43,368.17a2.07,2.07,0,0,1,.57-1.53,2.1,2.1,0,0,1,1.57-.56,2.16,2.16,0,0,1,1.51,3.64,2.13,2.13,0,0,1-1.51.54,2.2,2.2,0,0,1-1.55-.54A2,2,0,0,1,400.43,368.17Zm4.06,20.58H400.6V372.43h3.89Z"/><path class="cls-3" d="M411.73,388.75h-3.9V366h3.9Z"/><path class="cls-3" d="M428.43,389a5.89,5.89,0,0,1-4.83-2.17,9.52,9.52,0,0,1-1.76-6.16,10.84,10.84,0,0,1,1.59-6.31,5.13,5.13,0,0,1,4.46-2.27,5.06,5.06,0,0,1,4.2,1.94,8.51,8.51,0,0,1,1.54,5.44v2.08h-7.84a5.37,5.37,0,0,0,.89,3.24,2.84,2.84,0,0,0,2.35,1.06,7.61,7.61,0,0,0,3.9-1.18v3.21A8.59,8.59,0,0,1,428.43,389Zm-2.58-18.47v-.39a18.27,18.27,0,0,0,1.39-2.22c.53-.95.9-1.68,1.13-2.19H433v.31a12,12,0,0,1-1.75,2,32.76,32.76,0,0,1-2.69,2.47Zm2,4.56a1.58,1.58,0,0,0-1.38.88,6,6,0,0,0-.63,2.75h3.95a5.83,5.83,0,0,0-.54-2.71A1.56,1.56,0,0,0,427.86,375.13Z"/><path class="cls-3" d="M447.84,380.42v8.33h-4V367.34h5.22A6.7,6.7,0,0,1,454,368.9a6.51,6.51,0,0,1,1.58,4.79c0,2.71-.92,4.6-2.74,5.67l4.11,9.39h-4.26l-3.38-8.33Zm0-3.43h1a2.39,2.39,0,0,0,2-.8,3.86,3.86,0,0,0,.62-2.38,3.43,3.43,0,0,0-.65-2.34,2.67,2.67,0,0,0-2-.69h-1Z"/><path class="cls-3" d="M469.77,382.06a5.23,5.23,0,0,1-1.31,3.72,5.67,5.67,0,0,1-3.73,1.65v3.06H463v-3a11.44,11.44,0,0,1-5-1.23v-3.6a13.48,13.48,0,0,0,2.47,1.13,9.43,9.43,0,0,0,2.51.49v-4.95l-.52-.23a9.55,9.55,0,0,1-3.47-2.46,5,5,0,0,1-1-3.18,4.84,4.84,0,0,1,1.3-3.54,5.84,5.84,0,0,1,3.68-1.6V366h1.7v2.33a11.56,11.56,0,0,1,4.51,1.26l-1.17,3.12a9.65,9.65,0,0,0-3.34-1v4.64a1.77,1.77,0,0,1,.45.21A11.5,11.5,0,0,1,468,378a4.75,4.75,0,0,1,1.37,1.72A5.62,5.62,0,0,1,469.77,382.06Zm-8.28-8.6a2,2,0,0,0,.35,1.21,2.8,2.8,0,0,0,1.19.79v-3.83A1.64,1.64,0,0,0,461.49,373.46Zm4.83,8.68a2,2,0,0,0-.28-1.09,3.56,3.56,0,0,0-1.31-.94v4.09A1.83,1.83,0,0,0,466.32,382.14Z"/><path class="cls-3" d="M483.42,388.75H471.93v-3l3.81-5.39a38.06,38.06,0,0,0,2.16-3.31,10.06,10.06,0,0,0,.86-2.06,7.35,7.35,0,0,0,.28-2,2.66,2.66,0,0,0-.55-1.84,1.83,1.83,0,0,0-1.43-.62,2.77,2.77,0,0,0-1.45.41A8.33,8.33,0,0,0,474,372.4l-2.23-2.34a9.93,9.93,0,0,1,2.86-2.39,6.41,6.41,0,0,1,2.86-.64,5.38,5.38,0,0,1,4.05,1.52,5.89,5.89,0,0,1,1.45,4.23,9.73,9.73,0,0,1-.26,2.33,10.91,10.91,0,0,1-.8,2.21,17.63,17.63,0,0,1-1.34,2.3c-.54.79-1.92,2.62-4.16,5.47v.12h7Z"/><path class="cls-3" d="M497.45,376.67q0,12.38-8.27,12.37a9.24,9.24,0,0,1-2.29-.23v-3.35a6.16,6.16,0,0,0,1.86.32,4.34,4.34,0,0,0,3.71-1.7,9.59,9.59,0,0,0,1.4-5.35h-.13a4.1,4.1,0,0,1-1.34,1.81,3.32,3.32,0,0,1-2.07.65,3.85,3.85,0,0,1-3.39-1.78,8.74,8.74,0,0,1-1.2-4.91,8.59,8.59,0,0,1,1.58-5.44,5.09,5.09,0,0,1,4.21-2,4.88,4.88,0,0,1,4.4,2.47Q497.45,372,497.45,376.67Zm-5.9-6.21a1.55,1.55,0,0,0-1.4,1,6.47,6.47,0,0,0-.52,3,6.25,6.25,0,0,0,.45,2.63,1.46,1.46,0,0,0,1.38.94,1.75,1.75,0,0,0,1.45-1,4,4,0,0,0,.62-2.19,7.94,7.94,0,0,0-.55-3.15C492.62,370.87,492.14,370.46,491.55,370.46Z"/><path class="cls-3" d="M511.34,376.67q0,12.38-8.28,12.37a9.1,9.1,0,0,1-2.28-.23v-3.35a6.16,6.16,0,0,0,1.86.32,4.34,4.34,0,0,0,3.71-1.7,9.67,9.67,0,0,0,1.4-5.35h-.13a4.18,4.18,0,0,1-1.34,1.81,3.33,3.33,0,0,1-2.08.65,3.84,3.84,0,0,1-3.38-1.78,8.74,8.74,0,0,1-1.2-4.91,8.58,8.58,0,0,1,1.57-5.44,5.11,5.11,0,0,1,4.22-2,4.88,4.88,0,0,1,4.4,2.47Q511.34,372,511.34,376.67Zm-5.91-6.21a1.54,1.54,0,0,0-1.39,1,6.47,6.47,0,0,0-.52,3A6.25,6.25,0,0,0,504,377a1.46,1.46,0,0,0,1.38.94,1.76,1.76,0,0,0,1.45-1,4,4,0,0,0,.61-2.19,8,8,0,0,0-.54-3.15Q506.33,370.46,505.43,370.46Z"/><path class="cls-3" d="M518.81,385.6a46.08,46.08,0,0,1-2.58,7h-3q.94-3.9,1.48-7.36h3.86Z"/><path class="cls-3" d="M533.41,378c0,3.88-.46,6.68-1.4,8.41a4.73,4.73,0,0,1-4.5,2.59,4.65,4.65,0,0,1-4.46-2.6c-.9-1.74-1.36-4.54-1.36-8.4s.48-6.67,1.43-8.42a5.14,5.14,0,0,1,8.92-.06Q533.41,372.13,533.41,378Zm-7.73,0a30.15,30.15,0,0,0,.39,6.06q.39,1.56,1.47,1.56a1.26,1.26,0,0,0,1.14-.67,6,6,0,0,0,.57-2.24,44.9,44.9,0,0,0,.18-4.71,29.13,29.13,0,0,0-.41-6c-.27-1.08-.77-1.61-1.48-1.61s-1.21.53-1.47,1.6A30.39,30.39,0,0,0,525.68,378Z"/><path class="cls-3" d="M547.3,378q0,5.82-1.4,8.41a4.73,4.73,0,0,1-4.5,2.59,4.65,4.65,0,0,1-4.46-2.6q-1.37-2.61-1.36-8.4t1.42-8.42a4.72,4.72,0,0,1,4.46-2.62,4.67,4.67,0,0,1,4.46,2.56Q547.3,372.13,547.3,378Zm-7.73,0a30.39,30.39,0,0,0,.38,6.06c.26,1,.75,1.56,1.48,1.56a1.26,1.26,0,0,0,1.13-.67,6,6,0,0,0,.58-2.24,44.9,44.9,0,0,0,.18-4.71,29.13,29.13,0,0,0-.41-6c-.28-1.08-.77-1.61-1.48-1.61s-1.22.53-1.48,1.6A30.63,30.63,0,0,0,539.57,378Z"/><path class="cls-3" d="M564.41,372.13a4.82,4.82,0,0,1,1.41.21l-.46,3.78a3.47,3.47,0,0,0-1.07-.14,2.47,2.47,0,0,0-2.18,1.12,5.78,5.78,0,0,0-.76,3.26v8.39h-3.9V372.43h3.21l.44,2.55h.13a6,6,0,0,1,1.41-2.2A2.6,2.6,0,0,1,564.41,372.13Z"/><path class="cls-3" d="M573.58,389a5.89,5.89,0,0,1-4.83-2.17,9.57,9.57,0,0,1-1.76-6.16,10.84,10.84,0,0,1,1.59-6.31,5.13,5.13,0,0,1,4.46-2.27,5.05,5.05,0,0,1,4.2,1.94,8.51,8.51,0,0,1,1.54,5.44v2.08h-7.84a5.3,5.3,0,0,0,.9,3.24,2.81,2.81,0,0,0,2.34,1.06,7.61,7.61,0,0,0,3.9-1.18v3.21A8.59,8.59,0,0,1,573.58,389ZM573,375.13a1.58,1.58,0,0,0-1.38.88,6,6,0,0,0-.63,2.75h4a5.82,5.82,0,0,0-.55-2.71A1.56,1.56,0,0,0,573,375.13Z"/><path class="cls-3" d="M589.36,388.75l-.78-2.23h-.09a5.42,5.42,0,0,1-1.79,2,4.53,4.53,0,0,1-2.32.54,3.39,3.39,0,0,1-2.84-1.34,6,6,0,0,1-1-3.75,4.85,4.85,0,0,1,1.41-3.83,6.68,6.68,0,0,1,4.23-1.39l2.17-.09v-1.17q0-2.28-2-2.28a6.77,6.77,0,0,0-3.37,1.14l-1.35-2.7a9.76,9.76,0,0,1,5.29-1.53,5.09,5.09,0,0,1,4,1.48,6.05,6.05,0,0,1,1.35,4.21v11ZM586,386a2,2,0,0,0,1.71-1,4.6,4.6,0,0,0,.64-2.56V381.1l-1.21.06a2.76,2.76,0,0,0-2,.76,3,3,0,0,0-.62,2.06C584.54,385.32,585,386,586,386Z"/><path class="cls-3" d="M595.23,368.17a1.94,1.94,0,0,1,2.14-2.09,2.17,2.17,0,0,1,1.51,3.64,2.15,2.15,0,0,1-1.51.54,2.18,2.18,0,0,1-1.55-.54A2,2,0,0,1,595.23,368.17Zm4.06,20.58h-3.9V372.43h3.9Z"/><path class="cls-3" d="M611.39,384a4.91,4.91,0,0,1-1.4,3.72,5.74,5.74,0,0,1-4.13,1.34,7.56,7.56,0,0,1-4-1v-3.38a7.32,7.32,0,0,0,1.88.92,5.86,5.86,0,0,0,1.89.37,2,2,0,0,0,1.39-.45,1.54,1.54,0,0,0,.48-1.18,1.89,1.89,0,0,0-.5-1.3,8.45,8.45,0,0,0-1.83-1.36,7.68,7.68,0,0,1-2.55-2.25,5.13,5.13,0,0,1-.76-2.82,4.11,4.11,0,0,1,1.42-3.3,5.87,5.87,0,0,1,3.92-1.21,7.87,7.87,0,0,1,4.09,1.14l-1.28,2.8a5.89,5.89,0,0,0-2.75-.85,1.48,1.48,0,0,0-1.12.39,1.37,1.37,0,0,0-.37,1,1.68,1.68,0,0,0,.46,1.17A8,8,0,0,0,608,379a11.35,11.35,0,0,1,2.14,1.57,4.59,4.59,0,0,1,.95,1.47A5.07,5.07,0,0,1,611.39,384Z"/><path class="cls-3" d="M613.82,386.74a2.43,2.43,0,0,1,.61-1.77,2.38,2.38,0,0,1,1.81-.63,2.17,2.17,0,0,1,2.43,2.4,2.41,2.41,0,0,1-.64,1.78,2.44,2.44,0,0,1-1.79.63,2.18,2.18,0,0,1-2.42-2.41Z"/></g></g></svg>