<svg xmlns="http://www.w3.org/2000/svg" class="w-75 div1-img2" viewBox="0 0 2755.38 2632.09"><defs><style>.div1-img2 .cls-1{fill:#fff;}.div1-img2 .cls-2{font-size:169.1px;font-family:OpenSans-CondensedBold, Open Sans Condensed;font-weight:700;letter-spacing:0.02em;}.div1-img2 .cls-2,.div1-img2 .cls-5,.div1-img2 tspan{fill:#676099;}.div1-img2 .cls-3{letter-spacing:0.02em;}.div1-img2 .cls-4{opacity:0.36;}</style></defs><title>div1-img2</title><g id="Camada_2" data-name="Camada 2"><g id="pág2"><path class="cls-1" d="M33.2,921.6c-175.39,639.65,371.32,1036.56,999.7,931.28,138.48-23.2,222.25-74.59,357.72,5.29,105.87,62.41,158.61,150.66,290.11,173.39,253.15,43.77,600.54-130.86,773.09-308.53,336.06-346,423.34-849.84,96.48-1226.26C2340.89,255.6,2085.76,221.24,1797,127.3,1555.52,48.75,1338.85.19,1082.53,0,851-.16,670.85,5,510.63,186.2,339,380.39,174.36,568.64,33.2,921.6Z"/></g><g id="Camada_9" data-name="Camada 9"><text class="cls-2" id="div1-img2" transform="translate(402.88 767.65)"></text><g class="cls-4"><path class="cls-5" d="M2560.22,1612.84c-27.76,0-41.88-18.14-54.33-34.15-12.21-15.7-22.76-29.26-44.32-29.26s-32.1,13.56-44.31,29.26c-12.46,16-26.57,34.15-54.33,34.15s-41.88-18.14-54.33-34.15c-12.21-15.7-22.76-29.26-44.32-29.26s-32.1,13.56-44.31,29.26c-12.45,16-26.56,34.15-54.32,34.15s-41.88-18.14-54.33-34.15c-12.21-15.7-22.75-29.26-44.31-29.26s-32.11,13.56-44.32,29.26c-12.45,16-26.56,34.15-54.32,34.15s-41.88-18.14-54.33-34.15c-12.21-15.7-22.76-29.26-44.31-29.26s-32.11,13.56-44.32,29.26c-12.45,16-26.56,34.15-54.33,34.15s-41.87-18.14-54.32-34.15c-12.21-15.7-22.76-29.26-44.32-29.26s-32.1,13.56-44.31,29.26c-12.45,16-26.56,34.15-54.32,34.15s-41.87-18.14-54.32-34.15c-12.21-15.7-22.76-29.26-44.32-29.26v-12.68c27.77,0,41.88,18.14,54.33,34.15,12.21,15.7,22.75,29.26,44.31,29.26s32.1-13.56,44.31-29.26c12.45-16,26.56-34.15,54.32-34.15s41.88,18.14,54.33,34.15c12.21,15.7,22.76,29.26,44.31,29.26s32.11-13.56,44.32-29.26c12.45-16,26.56-34.15,54.33-34.15s41.87,18.14,54.32,34.15c12.21,15.7,22.76,29.26,44.32,29.26s32.1-13.56,44.31-29.26c12.45-16,26.57-34.15,54.33-34.15s41.87,18.14,54.32,34.15c12.21,15.7,22.76,29.26,44.32,29.26s32.1-13.56,44.31-29.26c12.45-16,26.56-34.15,54.32-34.15s41.88,18.14,54.33,34.15c12.21,15.7,22.76,29.26,44.32,29.26s32.1-13.56,44.31-29.26c12.46-16,26.57-34.15,54.33-34.15s41.88,18.14,54.33,34.15c12.21,15.7,22.76,29.26,44.32,29.26s32.11-13.56,44.32-29.26c12.46-16,26.57-34.15,54.34-34.15v12.68c-21.56,0-32.11,13.56-44.32,29.26C2602.1,1594.7,2588,1612.84,2560.22,1612.84Z"/></g><g class="cls-4"><path class="cls-5" d="M2560.22,1700.56c-27.76,0-41.88-18.14-54.33-34.15-12.21-15.7-22.76-29.26-44.32-29.26s-32.1,13.56-44.31,29.26c-12.46,16-26.57,34.15-54.33,34.15s-41.88-18.14-54.33-34.15c-12.21-15.7-22.76-29.26-44.32-29.26s-32.1,13.56-44.31,29.26c-12.45,16-26.56,34.15-54.32,34.15s-41.88-18.14-54.33-34.15c-12.21-15.7-22.75-29.26-44.31-29.26s-32.11,13.56-44.32,29.26c-12.45,16-26.56,34.15-54.32,34.15s-41.88-18.14-54.33-34.15c-12.21-15.7-22.76-29.26-44.31-29.26s-32.11,13.56-44.32,29.26c-12.45,16-26.56,34.15-54.33,34.15s-41.87-18.14-54.32-34.15c-12.21-15.7-22.76-29.26-44.32-29.26s-32.1,13.56-44.31,29.26c-12.45,16-26.56,34.15-54.32,34.15s-41.87-18.14-54.32-34.15c-12.21-15.7-22.76-29.26-44.32-29.26v-12.68c27.77,0,41.88,18.14,54.33,34.15,12.21,15.7,22.75,29.26,44.31,29.26s32.1-13.56,44.31-29.26c12.45-16,26.56-34.15,54.32-34.15s41.88,18.14,54.33,34.15c12.21,15.7,22.76,29.26,44.31,29.26s32.11-13.56,44.32-29.26c12.45-16,26.56-34.15,54.33-34.15s41.87,18.14,54.32,34.15c12.21,15.7,22.76,29.26,44.32,29.26s32.1-13.56,44.31-29.26c12.45-16,26.57-34.15,54.33-34.15s41.87,18.14,54.32,34.15c12.21,15.7,22.76,29.26,44.32,29.26s32.1-13.56,44.31-29.26c12.45-16,26.56-34.15,54.32-34.15s41.88,18.14,54.33,34.15c12.21,15.7,22.76,29.26,44.32,29.26s32.1-13.56,44.31-29.26c12.46-16,26.57-34.15,54.33-34.15s41.88,18.14,54.33,34.15c12.21,15.7,22.76,29.26,44.32,29.26s32.11-13.56,44.32-29.26c12.46-16,26.57-34.15,54.34-34.15v12.68c-21.56,0-32.11,13.56-44.32,29.26C2602.1,1682.42,2588,1700.56,2560.22,1700.56Z"/></g><g class="cls-4"><path class="cls-5" d="M2560.22,1788.28c-27.76,0-41.88-18.14-54.33-34.15-12.21-15.7-22.76-29.26-44.32-29.26s-32.1,13.56-44.31,29.26c-12.46,16-26.57,34.15-54.33,34.15s-41.88-18.14-54.33-34.15c-12.21-15.7-22.76-29.26-44.32-29.26s-32.1,13.56-44.31,29.26c-12.45,16-26.56,34.15-54.32,34.15s-41.88-18.14-54.33-34.15c-12.21-15.7-22.75-29.26-44.31-29.26s-32.11,13.56-44.32,29.26c-12.45,16-26.56,34.15-54.32,34.15s-41.88-18.14-54.33-34.15c-12.21-15.7-22.76-29.26-44.31-29.26s-32.11,13.56-44.32,29.26c-12.45,16-26.56,34.15-54.33,34.15s-41.87-18.14-54.32-34.15c-12.21-15.7-22.76-29.26-44.32-29.26s-32.1,13.56-44.31,29.26c-12.45,16-26.56,34.15-54.32,34.15s-41.87-18.14-54.32-34.15c-12.21-15.7-22.76-29.26-44.32-29.26v-12.68c27.77,0,41.88,18.14,54.33,34.15,12.21,15.7,22.75,29.26,44.31,29.26s32.1-13.56,44.31-29.26c12.45-16,26.56-34.15,54.32-34.15s41.88,18.14,54.33,34.15c12.21,15.7,22.76,29.26,44.31,29.26s32.11-13.56,44.32-29.26c12.45-16,26.56-34.15,54.33-34.15s41.87,18.14,54.32,34.15c12.21,15.7,22.76,29.26,44.32,29.26s32.1-13.56,44.31-29.26c12.45-16,26.57-34.15,54.33-34.15s41.87,18.14,54.32,34.15c12.21,15.7,22.76,29.26,44.32,29.26s32.1-13.56,44.31-29.26c12.45-16,26.56-34.15,54.32-34.15s41.88,18.14,54.33,34.15c12.21,15.7,22.76,29.26,44.32,29.26s32.1-13.56,44.31-29.26c12.46-16,26.57-34.15,54.33-34.15s41.88,18.14,54.33,34.15c12.21,15.7,22.76,29.26,44.32,29.26s32.11-13.56,44.32-29.26c12.46-16,26.57-34.15,54.34-34.15v12.68c-21.56,0-32.11,13.56-44.32,29.26C2602.1,1770.14,2588,1788.28,2560.22,1788.28Z"/></g><g class="cls-4"><path class="cls-5" d="M2560.22,1876c-27.76,0-41.88-18.14-54.33-34.15-12.21-15.7-22.76-29.26-44.32-29.26s-32.1,13.56-44.31,29.26c-12.46,16-26.57,34.15-54.33,34.15s-41.88-18.14-54.33-34.15c-12.21-15.7-22.76-29.26-44.32-29.26s-32.1,13.56-44.31,29.26c-12.45,16-26.56,34.15-54.32,34.15s-41.88-18.14-54.33-34.15c-12.21-15.7-22.75-29.26-44.31-29.26s-32.11,13.56-44.32,29.26c-12.45,16-26.56,34.15-54.32,34.15s-41.88-18.14-54.33-34.15c-12.21-15.7-22.76-29.26-44.31-29.26s-32.11,13.56-44.32,29.26c-12.45,16-26.56,34.15-54.33,34.15s-41.87-18.14-54.32-34.15c-12.21-15.7-22.76-29.26-44.32-29.26s-32.1,13.56-44.31,29.26c-12.45,16-26.56,34.15-54.32,34.15s-41.87-18.14-54.32-34.15c-12.21-15.7-22.76-29.26-44.32-29.26v-12.68c27.77,0,41.88,18.14,54.33,34.15,12.21,15.7,22.75,29.26,44.31,29.26s32.1-13.56,44.31-29.26c12.45-16,26.56-34.15,54.32-34.15s41.88,18.14,54.33,34.15c12.21,15.7,22.76,29.26,44.31,29.26s32.11-13.56,44.32-29.26c12.45-16,26.56-34.15,54.33-34.15s41.87,18.14,54.32,34.15c12.21,15.7,22.76,29.26,44.32,29.26s32.1-13.56,44.31-29.26c12.45-16,26.57-34.15,54.33-34.15s41.87,18.14,54.32,34.15c12.21,15.7,22.76,29.26,44.32,29.26s32.1-13.56,44.31-29.26c12.45-16,26.56-34.15,54.32-34.15s41.88,18.14,54.33,34.15c12.21,15.7,22.76,29.26,44.32,29.26s32.1-13.56,44.31-29.26c12.46-16,26.57-34.15,54.33-34.15s41.88,18.14,54.33,34.15c12.21,15.7,22.76,29.26,44.32,29.26s32.11-13.56,44.32-29.26c12.46-16,26.57-34.15,54.34-34.15v12.68c-21.56,0-32.11,13.56-44.32,29.26C2602.1,1857.86,2588,1876,2560.22,1876Z"/></g><g class="cls-4"><path class="cls-5" d="M2560.22,1963.72c-27.76,0-41.88-18.14-54.33-34.15-12.21-15.7-22.76-29.26-44.32-29.26s-32.1,13.56-44.31,29.26c-12.46,16-26.57,34.15-54.33,34.15s-41.88-18.14-54.33-34.15c-12.21-15.7-22.76-29.26-44.32-29.26s-32.1,13.56-44.31,29.26c-12.45,16-26.56,34.15-54.32,34.15s-41.88-18.14-54.33-34.15c-12.21-15.7-22.75-29.26-44.31-29.26s-32.11,13.56-44.32,29.26c-12.45,16-26.56,34.15-54.32,34.15s-41.88-18.14-54.33-34.15c-12.21-15.7-22.76-29.26-44.31-29.26s-32.11,13.56-44.32,29.26c-12.45,16-26.56,34.15-54.33,34.15s-41.87-18.14-54.32-34.15c-12.21-15.7-22.76-29.26-44.32-29.26s-32.1,13.56-44.31,29.26c-12.45,16-26.56,34.15-54.32,34.15s-41.87-18.14-54.32-34.15c-12.21-15.7-22.76-29.26-44.32-29.26v-12.68c27.77,0,41.88,18.14,54.33,34.15,12.21,15.7,22.75,29.26,44.31,29.26s32.1-13.56,44.31-29.26c12.45-16,26.56-34.15,54.32-34.15s41.88,18.14,54.33,34.15c12.21,15.7,22.76,29.26,44.31,29.26s32.11-13.56,44.32-29.26c12.45-16,26.56-34.15,54.33-34.15s41.87,18.14,54.32,34.15c12.21,15.7,22.76,29.26,44.32,29.26s32.1-13.56,44.31-29.26c12.45-16,26.57-34.15,54.33-34.15s41.87,18.14,54.32,34.15c12.21,15.7,22.76,29.26,44.32,29.26s32.1-13.56,44.31-29.26c12.45-16,26.56-34.15,54.32-34.15s41.88,18.14,54.33,34.15c12.21,15.7,22.76,29.26,44.32,29.26s32.1-13.56,44.31-29.26c12.46-16,26.57-34.15,54.33-34.15s41.88,18.14,54.33,34.15c12.21,15.7,22.76,29.26,44.32,29.26s32.11-13.56,44.32-29.26c12.46-16,26.57-34.15,54.34-34.15v12.68c-21.56,0-32.11,13.56-44.32,29.26C2602.1,1945.58,2588,1963.72,2560.22,1963.72Z"/></g><g class="cls-4"><path class="cls-5" d="M2560.22,2051.45c-27.76,0-41.88-18.15-54.33-34.16-12.21-15.7-22.76-29.26-44.32-29.26s-32.1,13.56-44.31,29.26c-12.46,16-26.57,34.16-54.33,34.16s-41.88-18.15-54.33-34.16c-12.21-15.7-22.76-29.26-44.32-29.26s-32.1,13.56-44.31,29.26c-12.45,16-26.56,34.16-54.32,34.16s-41.88-18.15-54.33-34.16c-12.21-15.7-22.75-29.26-44.31-29.26s-32.11,13.56-44.32,29.26c-12.45,16-26.56,34.16-54.32,34.16s-41.88-18.15-54.33-34.16c-12.21-15.7-22.76-29.26-44.31-29.26s-32.11,13.56-44.32,29.26c-12.45,16-26.56,34.16-54.33,34.16s-41.87-18.15-54.32-34.16c-12.21-15.7-22.76-29.26-44.32-29.26s-32.1,13.56-44.31,29.26c-12.45,16-26.56,34.16-54.32,34.16s-41.87-18.15-54.32-34.16c-12.21-15.7-22.76-29.26-44.32-29.26v-12.68c27.77,0,41.88,18.15,54.33,34.15,12.21,15.7,22.75,29.26,44.31,29.26s32.1-13.56,44.31-29.26c12.45-16,26.56-34.15,54.32-34.15s41.88,18.15,54.33,34.15c12.21,15.7,22.76,29.26,44.31,29.26s32.11-13.56,44.32-29.26c12.45-16,26.56-34.15,54.33-34.15s41.87,18.15,54.32,34.15c12.21,15.7,22.76,29.26,44.32,29.26s32.1-13.56,44.31-29.26c12.45-16,26.57-34.15,54.33-34.15s41.87,18.15,54.32,34.15c12.21,15.7,22.76,29.26,44.32,29.26s32.1-13.56,44.31-29.26c12.45-16,26.56-34.15,54.32-34.15s41.88,18.15,54.33,34.15c12.21,15.7,22.76,29.26,44.32,29.26s32.1-13.56,44.31-29.26c12.46-16,26.57-34.15,54.33-34.15s41.88,18.15,54.33,34.15c12.21,15.7,22.76,29.26,44.32,29.26s32.11-13.56,44.32-29.26c12.46-16,26.57-34.15,54.34-34.15V1988c-21.56,0-32.11,13.56-44.32,29.26C2602.1,2033.3,2588,2051.45,2560.22,2051.45Z"/></g><g class="cls-4"><path class="cls-5" d="M2560.22,2139.17c-27.76,0-41.88-18.15-54.33-34.16-12.21-15.7-22.76-29.26-44.32-29.26s-32.1,13.56-44.31,29.26c-12.46,16-26.57,34.16-54.33,34.16S2321.05,2121,2308.6,2105c-12.21-15.7-22.76-29.26-44.32-29.26s-32.1,13.56-44.31,29.26c-12.45,16-26.56,34.16-54.32,34.16s-41.88-18.15-54.33-34.16c-12.21-15.7-22.75-29.26-44.31-29.26s-32.11,13.56-44.32,29.26c-12.45,16-26.56,34.16-54.32,34.16S1926.49,2121,1914,2105c-12.21-15.7-22.76-29.26-44.31-29.26s-32.11,13.56-44.32,29.26c-12.45,16-26.56,34.16-54.33,34.16s-41.87-18.15-54.32-34.16c-12.21-15.7-22.76-29.26-44.32-29.26s-32.1,13.56-44.31,29.26c-12.45,16-26.56,34.16-54.32,34.16s-41.87-18.15-54.32-34.16c-12.21-15.7-22.76-29.26-44.32-29.26v-12.68c27.77,0,41.88,18.15,54.33,34.16,12.21,15.7,22.75,29.25,44.31,29.25s32.1-13.55,44.31-29.25c12.45-16,26.56-34.16,54.32-34.16s41.88,18.15,54.33,34.16c12.21,15.7,22.76,29.25,44.31,29.25s32.11-13.55,44.32-29.25c12.45-16,26.56-34.16,54.33-34.16s41.87,18.15,54.32,34.16c12.21,15.7,22.76,29.25,44.32,29.25s32.1-13.55,44.31-29.25c12.45-16,26.57-34.16,54.33-34.16s41.87,18.15,54.32,34.16c12.21,15.7,22.76,29.25,44.32,29.25s32.1-13.55,44.31-29.25c12.45-16,26.56-34.16,54.32-34.16s41.88,18.15,54.33,34.16c12.21,15.7,22.76,29.25,44.32,29.25s32.1-13.55,44.31-29.25c12.46-16,26.57-34.16,54.33-34.16s41.88,18.15,54.33,34.15c12.21,15.71,22.76,29.26,44.32,29.26s32.11-13.55,44.32-29.25c12.46-16,26.57-34.16,54.34-34.16v12.68c-21.56,0-32.11,13.56-44.32,29.26C2602.1,2121,2588,2139.17,2560.22,2139.17Z"/></g></g><g id="personagem"><path d="M1647.83,2599.8c-25.86-17.63-33.34-35.43-40.24-40.83a11.11,11.11,0,0,1-3.27-4.12,36.58,36.58,0,0,0-2-3.81l-9.32-22.41h11.86l-25.2-262.41V2075h-1.48l6.83-76.49a53.77,53.77,0,0,0,15.11-8.48h0c18-19.36,18.7-36.78,18.08-69.22l-7.41-73.85-12.39,1.69.15-1.71,23.28-3.17-12.86-94.45a30.42,30.42,0,0,0-34.24-26l-5.87.8a30.38,30.38,0,0,0-8.77,2.57q-1.21-.06-2.43-.06h-54a29,29,0,0,0-.62-6l-7.76-36.75a93.4,93.4,0,0,0,12.83-13.64,26.66,26.66,0,0,0,33.32-40,26.55,26.55,0,0,0,5.59-16.3,26.88,26.88,0,0,0-.89-6.76,32.61,32.61,0,0,0,6.8-44.64,32.5,32.5,0,0,0-4.35-15.32,32.61,32.61,0,0,0-40.27-46.62,28.81,28.81,0,0,0-34.56-8.69,32.62,32.62,0,0,0-59.86-10.55,28.69,28.69,0,0,0-14.73.23,32.62,32.62,0,0,0-48.14,40,32.61,32.61,0,0,0,3.24,56.17,29.43,29.43,0,0,0,2.53,5.56,109.19,109.19,0,0,0-2.5,23.22c0,53.57,38.49,97.06,86.21,97.82l4.71,22.27h-17a47.2,47.2,0,0,0-13.58,2,32.09,32.09,0,0,0-37.19,10.47l-56,73.58,57.71,43.88,1.77-2.33v41.75c-5.44-6.64-11.2-13.17-15.09-17.49a2.41,2.41,0,0,0-4.19,1.93,58.31,58.31,0,0,0,8.54,23.56,2.42,2.42,0,0,1-2.6,3.66l-34.66-8.41,37.75-48.77-38.15-29L1282.49,1899a13.82,13.82,0,0,1-23,.35l-85-100.23a2.65,2.65,0,0,0,0-1.22c-1.87-6.71-9.82-36.46-8.51-53.49,1-13.12.64-31,.31-41.15a2.71,2.71,0,0,0-5-1.38,65.32,65.32,0,0,0-9.68,26.36,2.71,2.71,0,0,1-4.87,1.26l-26.4-36a2.71,2.71,0,0,0-4.16-.26c-3.66,3.84-9.89,12.22-5.8,21.52a2.67,2.67,0,0,1-.39,2.79c-3,3.64-10.75,14-8.16,20.15a2.46,2.46,0,0,1,0,1.79c-1.19,3.38-4.59,14.36-1.48,21.86a2.88,2.88,0,0,1,.19,1.64c-.51,2.54-1.54,10.57,4.63,15.51l43.87,46.7a2.72,2.72,0,0,0,.77.55l-.16.19,87.08,107.27a45.74,45.74,0,0,0,35.79,17.26,43.42,43.42,0,0,0,37.84-22.11l16-20.71c.88,4.09,3,8.4,7.91,10.8a2.38,2.38,0,0,1,1.34,2.13c0,4.2.68,15.7,6,18.45a2.21,2.21,0,0,1,1,1.21c1.13,3,5.12,12.44,11.55,15.78a2.52,2.52,0,0,1,1.07,1c1.11,2,5,8.1,12.08,7.93l13.54,1.59V2075l-25.21,241.65,11.86,212H1375c-1.57,3.23-11,37.09-28.21,46.77s-39.18,8.06-53.28,22.58c-2.22,2.28,11,22.57,34.48,22.57s54.84-25.8,54.84-25.8l6.64-2.1a20,20,0,0,0,13.74-19.13v-44.89h3L1424,2301.81l55.34-182,41,158.31,25.2,250.55h12l-.11,37.67c0,10.53-6,23.13,3.47,27.84l8.34,4.17,32.91,26.54a32.52,32.52,0,0,0,31.27,5.38C1649.85,2624.42,1668.5,2613.9,1647.83,2599.8Z"/></g></g></svg>