<svg xmlns="http://www.w3.org/2000/svg" viewBox="0 0 2938.84 2978.5" class="w-75 div3-img1"><defs><style>.div3-img1 .cls-1{opacity:0.36;}.div3-img1 .cls-2,.div3-img1 .cls-9{fill:#676099;}.div3-img1 .cls-3{fill:#fff;}.div3-img1 .cls-4{fill:#759eef;}.div3-img1 .cls-5{fill:#b3deef;}.div3-img1 .cls-6{fill:#d26f31;}.div3-img1 .cls-7{fill:#b0003f;}.div3-img1 .cls-8{opacity:0.11;}.div3-img1 .cls-9{font-size:163.98px;font-family:OpenSans-CondensedBold, Open Sans Condensed;font-weight:700;letter-spacing:0.02em;}.div3-img1 .cls-10{letter-spacing:0.02em;}</style></defs><title>div3-img1_1</title><g id="Camada_2" data-name="Camada 2"><g id="pág2"><g class="cls-1"><path class="cls-2" d="M2751.51,171.86c-31.92,0-48.15-20.86-62.47-39.27-14-18-26.17-33.64-51-33.64s-36.91,15.59-50.95,33.64c-14.32,18.41-30.55,39.27-62.47,39.27s-48.15-20.86-62.46-39.27c-14-18-26.17-33.64-51-33.64s-36.91,15.59-50.95,33.64c-14.32,18.41-30.54,39.27-62.46,39.27s-48.15-20.86-62.46-39.27c-14-18-26.17-33.64-50.95-33.64s-36.92,15.59-51,33.64c-14.32,18.41-30.54,39.27-62.46,39.27s-48.15-20.86-62.47-39.27c-14-18-26.16-33.64-51-33.64s-36.91,15.59-50.95,33.64c-14.32,18.41-30.55,39.27-62.47,39.27S1796,151,1781.7,132.59c-14-18-26.17-33.64-51-33.64s-36.91,15.59-51,33.64c-14.32,18.41-30.55,39.27-62.46,39.27s-48.15-20.86-62.46-39.27c-14-18-26.16-33.64-51-33.64V84.37c31.92,0,48.14,20.86,62.46,39.27,14,18,26.16,33.64,50.95,33.64s36.91-15.59,51-33.64c14.31-18.41,30.54-39.27,62.46-39.27s48.14,20.86,62.46,39.27c14,18,26.17,33.64,51,33.64s36.92-15.59,51-33.64c14.31-18.41,30.54-39.27,62.46-39.27s48.15,20.86,62.46,39.27c14,18,26.17,33.64,51,33.64s36.91-15.59,50.95-33.64c14.32-18.41,30.54-39.27,62.47-39.27s48.14,20.86,62.46,39.27c14,18,26.16,33.64,50.95,33.64s36.91-15.59,51-33.64c14.32-18.41,30.54-39.27,62.46-39.27s48.15,20.86,62.47,39.27c14,18,26.16,33.64,50.95,33.64s36.91-15.59,51-33.64c14.32-18.41,30.55-39.27,62.47-39.27s48.15,20.86,62.47,39.27c14,18,26.17,33.64,51,33.64s36.92-15.59,51-33.64c14.32-18.41,30.55-39.27,62.47-39.27V99c-24.79,0-36.92,15.59-51,33.64C2799.66,151,2783.43,171.86,2751.51,171.86Z"/></g><g class="cls-1"><path class="cls-2" d="M2751.51,272.72c-31.92,0-48.15-20.86-62.47-39.27-14-18-26.17-33.64-51-33.64s-36.91,15.59-50.95,33.64c-14.32,18.41-30.55,39.27-62.47,39.27s-48.15-20.86-62.46-39.27c-14-18-26.17-33.64-51-33.64s-36.91,15.59-50.95,33.64c-14.32,18.41-30.54,39.27-62.46,39.27s-48.15-20.86-62.46-39.27c-14-18-26.17-33.64-50.95-33.64s-36.92,15.59-51,33.64c-14.32,18.41-30.54,39.27-62.46,39.27s-48.15-20.86-62.47-39.27c-14-18-26.16-33.64-51-33.64s-36.91,15.59-50.95,33.64c-14.32,18.41-30.55,39.27-62.47,39.27s-48.14-20.86-62.46-39.27c-14-18-26.17-33.64-51-33.64s-36.91,15.59-51,33.64c-14.32,18.41-30.55,39.27-62.46,39.27s-48.15-20.86-62.46-39.27c-14-18-26.16-33.64-51-33.64V185.23c31.92,0,48.14,20.86,62.46,39.27,14,18.05,26.16,33.64,50.95,33.64s36.91-15.59,51-33.64c14.31-18.41,30.54-39.27,62.46-39.27s48.14,20.86,62.46,39.27c14,18.05,26.17,33.64,51,33.64s36.92-15.59,51-33.64c14.31-18.41,30.54-39.27,62.46-39.27s48.15,20.86,62.46,39.27c14,18.05,26.17,33.64,51,33.64s36.91-15.59,50.95-33.64c14.32-18.41,30.54-39.27,62.47-39.27s48.14,20.86,62.46,39.27c14,18.05,26.16,33.64,50.95,33.64s36.91-15.59,51-33.64c14.32-18.41,30.54-39.27,62.46-39.27s48.15,20.86,62.47,39.27c14,18.05,26.16,33.64,50.95,33.64s36.91-15.59,51-33.64c14.32-18.41,30.55-39.27,62.47-39.27s48.15,20.86,62.47,39.27c14,18.05,26.17,33.64,51,33.64s36.92-15.59,51-33.64c14.32-18.41,30.55-39.27,62.47-39.27v14.58c-24.79,0-36.92,15.59-51,33.64C2799.66,251.86,2783.43,272.72,2751.51,272.72Z"/></g><g class="cls-1"><path class="cls-2" d="M2751.51,373.58c-31.92,0-48.15-20.86-62.47-39.27-14-18.05-26.17-33.64-51-33.64s-36.91,15.59-50.95,33.64c-14.32,18.41-30.55,39.27-62.47,39.27s-48.15-20.86-62.46-39.27c-14-18.05-26.17-33.64-51-33.64s-36.91,15.59-50.95,33.64c-14.32,18.41-30.54,39.27-62.46,39.27s-48.15-20.86-62.46-39.27c-14-18.05-26.17-33.64-50.95-33.64s-36.92,15.59-51,33.64c-14.32,18.41-30.54,39.27-62.46,39.27s-48.15-20.86-62.47-39.27c-14-18.05-26.16-33.64-51-33.64s-36.91,15.59-50.95,33.64c-14.32,18.41-30.55,39.27-62.47,39.27s-48.14-20.86-62.46-39.27c-14-18.05-26.17-33.64-51-33.64s-36.91,15.59-51,33.64c-14.32,18.41-30.55,39.27-62.46,39.27s-48.15-20.86-62.46-39.27c-14-18.05-26.16-33.64-51-33.64V286.09c31.92,0,48.14,20.86,62.46,39.27,14,18.05,26.16,33.64,50.95,33.64s36.91-15.59,51-33.64c14.31-18.41,30.54-39.27,62.46-39.27s48.14,20.86,62.46,39.27c14,18.05,26.17,33.64,51,33.64s36.92-15.59,51-33.64c14.31-18.41,30.54-39.27,62.46-39.27S2005.73,307,2020,325.36c14,18.05,26.17,33.64,51,33.64s36.91-15.59,50.95-33.64c14.32-18.41,30.54-39.27,62.47-39.27s48.14,20.86,62.46,39.27c14,18.05,26.16,33.64,50.95,33.64s36.91-15.59,51-33.64c14.32-18.41,30.54-39.27,62.46-39.27s48.15,20.86,62.47,39.27c14,18.05,26.16,33.64,50.95,33.64s36.91-15.59,51-33.64c14.32-18.41,30.55-39.27,62.47-39.27s48.15,20.86,62.47,39.27c14,18.05,26.17,33.64,51,33.64s36.92-15.59,51-33.64c14.32-18.41,30.55-39.27,62.47-39.27v14.58c-24.79,0-36.92,15.59-51,33.64C2799.66,352.72,2783.43,373.58,2751.51,373.58Z"/></g><g class="cls-1"><path class="cls-2" d="M2751.51,474.44c-31.92,0-48.15-20.86-62.47-39.27-14-18.05-26.17-33.64-51-33.64s-36.91,15.59-50.95,33.64c-14.32,18.41-30.55,39.27-62.47,39.27s-48.15-20.86-62.46-39.27c-14-18.05-26.17-33.64-51-33.64s-36.91,15.59-50.95,33.64c-14.32,18.41-30.54,39.27-62.46,39.27s-48.15-20.86-62.46-39.27c-14-18.05-26.17-33.64-50.95-33.64s-36.92,15.59-51,33.64c-14.32,18.41-30.54,39.27-62.46,39.27s-48.15-20.86-62.47-39.27c-14-18.05-26.16-33.64-51-33.64s-36.91,15.59-50.95,33.64c-14.32,18.41-30.55,39.27-62.47,39.27s-48.14-20.86-62.46-39.27c-14-18.05-26.17-33.64-51-33.64s-36.91,15.59-51,33.64c-14.32,18.41-30.55,39.27-62.46,39.27s-48.15-20.86-62.46-39.27c-14-18.05-26.16-33.64-51-33.64V387c31.92,0,48.14,20.86,62.46,39.27,14,18,26.16,33.64,50.95,33.64s36.91-15.59,51-33.64c14.31-18.41,30.54-39.27,62.46-39.27s48.14,20.86,62.46,39.27c14,18,26.17,33.64,51,33.64s36.92-15.59,51-33.64c14.31-18.41,30.54-39.27,62.46-39.27s48.15,20.86,62.46,39.27c14,18,26.17,33.64,51,33.64s36.91-15.59,50.95-33.64c14.32-18.41,30.54-39.27,62.47-39.27s48.14,20.86,62.46,39.27c14,18,26.16,33.64,50.95,33.64s36.91-15.59,51-33.64c14.32-18.41,30.54-39.27,62.46-39.27s48.15,20.86,62.47,39.27c14,18,26.16,33.64,50.95,33.64s36.91-15.59,51-33.64c14.32-18.41,30.55-39.27,62.47-39.27s48.15,20.86,62.47,39.27c14,18,26.17,33.64,51,33.64s36.92-15.59,51-33.64C2816.79,407.81,2833,387,2864.94,387v14.58c-24.79,0-36.92,15.59-51,33.64C2799.66,453.58,2783.43,474.44,2751.51,474.44Z"/></g><g class="cls-1"><path class="cls-2" d="M2751.51,575.3c-31.92,0-48.15-20.86-62.47-39.27-14-18-26.17-33.64-51-33.64S2601.17,518,2587.13,536c-14.32,18.41-30.55,39.27-62.47,39.27s-48.15-20.86-62.46-39.27c-14-18-26.17-33.64-51-33.64S2374.33,518,2360.29,536c-14.32,18.41-30.54,39.27-62.46,39.27s-48.15-20.86-62.46-39.27c-14-18-26.17-33.64-50.95-33.64s-36.92,15.59-51,33.64c-14.32,18.41-30.54,39.27-62.46,39.27s-48.15-20.86-62.47-39.27c-14-18-26.16-33.64-51-33.64S1920.67,518,1906.63,536c-14.32,18.41-30.55,39.27-62.47,39.27S1796,554.44,1781.7,536c-14-18-26.17-33.64-51-33.64s-36.91,15.59-51,33.64c-14.32,18.41-30.55,39.27-62.46,39.27s-48.15-20.86-62.46-39.27c-14-18-26.16-33.64-51-33.64V487.81c31.92,0,48.14,20.86,62.46,39.27,14,18,26.16,33.64,50.95,33.64s36.91-15.59,51-33.64c14.31-18.41,30.54-39.27,62.46-39.27s48.14,20.86,62.46,39.27c14,18,26.17,33.64,51,33.64s36.92-15.59,51-33.64c14.31-18.41,30.54-39.27,62.46-39.27s48.15,20.86,62.46,39.27c14,18,26.17,33.64,51,33.64s36.91-15.59,50.95-33.64c14.32-18.41,30.54-39.27,62.47-39.27s48.14,20.86,62.46,39.27c14,18,26.16,33.64,50.95,33.64s36.91-15.59,51-33.64c14.32-18.41,30.54-39.27,62.46-39.27s48.15,20.86,62.47,39.27c14,18,26.16,33.64,50.95,33.64s36.91-15.59,51-33.64c14.32-18.41,30.55-39.27,62.47-39.27s48.15,20.86,62.47,39.27c14,18,26.17,33.64,51,33.64s36.92-15.59,51-33.64c14.32-18.41,30.55-39.27,62.47-39.27v14.58c-24.79,0-36.92,15.59-51,33.64C2799.66,554.44,2783.43,575.3,2751.51,575.3Z"/></g><g class="cls-1"><path class="cls-2" d="M2751.51,676.16c-31.92,0-48.15-20.86-62.47-39.27-14-18-26.17-33.64-51-33.64s-36.91,15.59-50.95,33.64c-14.32,18.41-30.55,39.27-62.47,39.27s-48.15-20.86-62.46-39.27c-14-18-26.17-33.64-51-33.64s-36.91,15.59-50.95,33.64c-14.32,18.41-30.54,39.27-62.46,39.27s-48.15-20.86-62.46-39.27c-14-18-26.17-33.64-50.95-33.64s-36.92,15.59-51,33.64c-14.32,18.41-30.54,39.27-62.46,39.27s-48.15-20.86-62.47-39.27c-14-18-26.16-33.64-51-33.64s-36.91,15.59-50.95,33.64c-14.32,18.41-30.55,39.27-62.47,39.27S1796,655.3,1781.7,636.89c-14-18-26.17-33.64-51-33.64s-36.91,15.59-51,33.64c-14.32,18.41-30.55,39.27-62.46,39.27s-48.15-20.86-62.46-39.27c-14-18-26.16-33.64-51-33.64V588.67c31.92,0,48.14,20.86,62.46,39.27,14,18,26.16,33.64,50.95,33.64s36.91-15.59,51-33.64c14.31-18.41,30.54-39.27,62.46-39.27s48.14,20.86,62.46,39.27c14,18,26.17,33.64,51,33.64s36.92-15.59,51-33.64c14.31-18.41,30.54-39.27,62.46-39.27s48.15,20.86,62.46,39.27c14,18,26.17,33.64,51,33.64S2107.91,646,2122,627.94c14.32-18.41,30.54-39.27,62.47-39.27s48.14,20.86,62.46,39.27c14,18,26.16,33.64,50.95,33.64s36.91-15.59,51-33.64c14.32-18.41,30.54-39.27,62.46-39.27s48.15,20.86,62.47,39.27c14,18,26.16,33.64,50.95,33.64s36.91-15.59,51-33.64c14.32-18.41,30.55-39.27,62.47-39.27s48.15,20.86,62.47,39.27c14,18,26.17,33.64,51,33.64s36.92-15.59,51-33.64c14.32-18.41,30.55-39.27,62.47-39.27v14.58c-24.79,0-36.92,15.59-51,33.65C2799.66,655.3,2783.43,676.16,2751.51,676.16Z"/></g><g class="cls-1"><path class="cls-2" d="M2751.51,777c-31.92,0-48.15-20.87-62.47-39.28-14-18-26.17-33.64-51-33.64s-36.91,15.59-50.95,33.64c-14.32,18.41-30.55,39.28-62.47,39.28s-48.15-20.87-62.46-39.28c-14-18-26.17-33.64-51-33.64s-36.91,15.59-50.95,33.64C2346,756.16,2329.75,777,2297.83,777s-48.15-20.87-62.46-39.28c-14-18-26.17-33.64-50.95-33.64s-36.92,15.59-51,33.64C2119.14,756.16,2102.92,777,2071,777s-48.15-20.87-62.47-39.28c-14-18-26.16-33.64-51-33.64s-36.91,15.59-50.95,33.64c-14.32,18.41-30.55,39.28-62.47,39.28s-48.14-20.87-62.46-39.28c-14-18-26.17-33.64-51-33.64s-36.91,15.59-51,33.64c-14.32,18.41-30.55,39.28-62.46,39.28s-48.15-20.87-62.46-39.28c-14-18-26.16-33.64-51-33.64V689.53c31.92,0,48.14,20.87,62.46,39.27,14,18.05,26.16,33.64,50.95,33.64s36.91-15.59,51-33.64c14.31-18.4,30.54-39.27,62.46-39.27s48.14,20.87,62.46,39.27c14,18.05,26.17,33.64,51,33.64s36.92-15.59,51-33.64c14.31-18.4,30.54-39.27,62.46-39.27s48.15,20.87,62.46,39.27c14,18.05,26.17,33.64,51,33.64s36.91-15.59,50.95-33.64c14.32-18.4,30.54-39.27,62.47-39.27s48.14,20.87,62.46,39.27c14,18.05,26.16,33.64,50.95,33.64s36.91-15.59,51-33.64c14.32-18.4,30.54-39.27,62.46-39.27s48.15,20.87,62.47,39.27c14,18.05,26.16,33.64,50.95,33.64s36.91-15.59,51-33.64c14.32-18.4,30.55-39.27,62.47-39.27s48.15,20.87,62.47,39.27c14,18.05,26.17,33.64,51,33.64s36.92-15.59,51-33.64c14.32-18.4,30.55-39.27,62.47-39.27v14.58c-24.79,0-36.92,15.59-51,33.65C2799.66,756.16,2783.43,777,2751.51,777Z"/></g><path class="cls-3" d="M35.41,983c-187.07,682.24,396,1105.58,1066.27,993.29,147.69-24.74,237-79.56,381.54,5.64,112.91,66.57,169.16,160.69,309.42,184.94,270,46.68,640.52-139.58,824.56-329.08,358.43-369,451.53-906.42,102.91-1307.91C2496.76,272.62,2224.63,236,1916.64,135.78,1659.09,52,1428,.2,1154.61,0c-246.95-.17-439.09,5.3-610,198.6C361.54,405.71,186,606.5,35.41,983Z"/></g><g id="personagem"><path class="cls-4" d="M1116,1914.91h81.56a0,0,0,0,1,0,0v131.3a8.81,8.81,0,0,1-8.81,8.81H1124.8a8.81,8.81,0,0,1-8.81-8.81v-131.3a0,0,0,0,1,0,0Z" transform="translate(3278.96 2865.05) rotate(142.76)"/><path class="cls-5" d="M942.88,2311.23h221.84V1972.4a53.16,53.16,0,0,0-53.15-53.15H966A53.16,53.16,0,0,0,913,1977.14Z"/><path class="cls-6" d="M1042.55,1810.83h49.18a7.93,7.93,0,0,1,7.93,7.93v133.85a0,0,0,0,1,0,0h-65.05a0,0,0,0,1,0,0V1818.76A7.93,7.93,0,0,1,1042.55,1810.83Z" transform="translate(1722.21 3943.41) rotate(-168.07)"/><ellipse class="cls-6" cx="1096.33" cy="1784.14" rx="98.41" ry="110.09"/><path class="cls-4" d="M903,1915.33h75.09a0,0,0,0,1,0,0v133.12a8.35,8.35,0,0,1-8.35,8.35h-58.4a8.35,8.35,0,0,1-8.35-8.35V1915.33a0,0,0,0,1,0,0Z" transform="translate(1604.38 4080.89) rotate(-172.24)"/><path class="cls-6" d="M1219.17,2025.94l56.35,87.25a15.54,15.54,0,0,0,25.85.4l96.87-114.28,26.69,31.7-98,120.69a51.48,51.48,0,0,1-40.27,19.42h0a48.87,48.87,0,0,1-42.58-24.88l-67.85-87.68Z"/><path class="cls-6" d="M955.66,2061.41l-49.48-6.74-8.34,83.09c-.69,36.49.13,56.09,20.34,77.88h0c6.35,5.52,24.53,15.26,38.68,12.26l157.82-33.43v-33.36L957.6,2176.57a6.64,6.64,0,0,1-7.63-6.91Z"/><path class="cls-6" d="M1397.62,2002.22a3,3,0,0,1-.61-2.77c2.1-7.55,11-41,9.57-60.18-1.13-14.76-.72-34.92-.35-46.3a3.05,3.05,0,0,1,5.62-1.55,73.65,73.65,0,0,1,10.89,29.66,3,3,0,0,0,5.48,1.41l29.69-40.49a3.06,3.06,0,0,1,4.69-.29c4.12,4.32,11.13,13.75,6.52,24.21a3,3,0,0,0,.44,3.14c3.36,4.09,12.09,15.7,9.18,22.67a2.81,2.81,0,0,0,0,2c1.34,3.8,5.16,16.15,1.67,24.59a3.23,3.23,0,0,0-.22,1.84c.58,2.86,1.74,11.89-5.21,17.45l-49.36,52.54a3,3,0,0,1-4.56-.12Z"/><path class="cls-6" d="M1113,2159.73a2.73,2.73,0,0,1,1.18-2.25c5.77-3.93,31.12-21.65,41.13-35.57,7.7-10.73,19.57-24.26,26.37-31.81a2.72,2.72,0,0,1,4.72,2.17,65.55,65.55,0,0,1-9.61,26.51,2.72,2.72,0,0,0,2.93,4.12l43.54-10.58a2.73,2.73,0,0,1,3.37,2.5c.33,5.31-.3,15.78-9.46,20.27a2.68,2.68,0,0,0-1.51,2.39c-.05,4.73-.77,17.67-6.76,20.76a2.51,2.51,0,0,0-1.17,1.37c-1.27,3.36-5.76,14-13,17.75a2.81,2.81,0,0,0-1.21,1.13c-1.25,2.28-5.65,9.11-13.59,8.91l-63.9,7.5a2.72,2.72,0,0,1-3-2.7Z"/><path class="cls-7" d="M978.91,1784.89a29.64,29.64,0,0,0,5.29,25.94,30,30,0,1,0,53.75,18.35c0-.46,0-.9-.07-1.35a32.5,32.5,0,0,0,41.77-31.18,32.37,32.37,0,0,0-2.79-13.14,32.51,32.51,0,0,0,19.33-12,32.45,32.45,0,0,0,50.51-2.3,32.47,32.47,0,0,0,48.08-17.43,36.7,36.7,0,0,0,3.65-63.2,36.7,36.7,0,0,0-54.16-45,32.15,32.15,0,0,0-16.57-.26,36.7,36.7,0,0,0-67.36,11.88,32.39,32.39,0,0,0-38.88,9.77,36.69,36.69,0,0,0-45.31,52.45,36.54,36.54,0,0,0-4.89,17.24,36.68,36.68,0,0,0,7.65,50.23Zm153.65-65.14c.16-.42.33-.84.47-1.27.19.59.41,1.16.63,1.73Z"/><polygon class="cls-2" points="1164.72 2311.23 1193.08 2583.12 1179.73 2821.64 1136.36 2821.64 1116.35 2566.44 1038.76 2311.23 1164.72 2311.23"/><polygon class="cls-2" points="941.21 2311.23 941.21 2526.41 912.85 2821.64 979.57 2821.64 1007.93 2539.75 1067.14 2311.23 941.21 2311.23"/><path d="M1171.44,2821.64c1.76,3.63,12.34,41.73,31.73,52.62s44.08,9.07,59.95,25.4c2.49,2.56-12.34,25.4-38.79,25.4s-61.71-29-61.71-29l-7.47-2.37a22.45,22.45,0,0,1-15.45-21.52v-50.5Z"/><path d="M966.05,2821.64l.12,42.38c0,11.85,6.7,26-3.9,31.32l-9.39,4.7-37,29.85a36.59,36.59,0,0,1-35.18,6.06c-18.48-6.54-39.47-18.38-16.2-34.24,29.09-19.84,37.5-39.87,45.27-45.93a12.69,12.69,0,0,0,3.68-4.64,40.94,40.94,0,0,1,2.28-4.29l10.49-25.21Z"/><ellipse class="cls-8" cx="1066.95" cy="2926.46" rx="260.16" ry="52.03"/><text class="cls-9" transform="translate(332.74 694.57)" id="div3-img1"></text></g></g></svg>