<svg xmlns="http://www.w3.org/2000/svg" viewBox="0 0 980.73 1042.65" class="div3-img2"><defs><style>.div3-img2 .cls-1{opacity:0.2;}.div3-img2 .cls-2{fill:#dcfffe;} .div3-img2 .cls-3,.div3-img2 .cls-4{font-size:50px;font-family:OpenSans-CondensedBold, Open Sans Condensed;font-weight:700;letter-spacing:0.02em;} .div3-img2 .cls-3{fill:#fff;} .div3-img2 .cls-4{fill:#676099;}.div3-img2 .cls-5{fill:#fce7e9;}.div3-img2 .cls-6{fill:#a2a5a5;}.div3-img2 .cls-10,.div3-img2 .cls-11,.div3-img2 .cls-12,.div3-img2 .cls-7,.div3-img2 .cls-8,.div3-img2 .cls-9{fill:none;stroke:#dcfffe;stroke-miterlimit:10;stroke-width:3px;}.div3-img2 .cls-8{stroke-dasharray:9.17 9.17;}.div3-img2 .cls-9{stroke-dasharray:8.81 8.81;}.div3-img2 .cls-10{stroke-dasharray:9.21 9.21;}.div3-img2 .cls-11{stroke-dasharray:9.1 9.1;}.div3-img2 .cls-12{stroke-dasharray:9.3 9.3;}</style></defs><title>div3-img2</title><g id="Camada_2" data-name="Camada 2"><g id="pág2"><g class="cls-1"><path class="cls-2" d="M829.5,525.08l-33.76-25.85C615.07,360.9,391.47,302.15,166.14,333.79L124,339.7c-14.93,2.11-26.65,17.86-26.17,35.19s13,29.69,27.91,27.6l42.11-5.92C381,366.63,592.48,422.2,763.36,553.05l33.76,25.85a22.71,22.71,0,0,0,8.07,4c10.66,2.8,22.74-2.55,29.8-14.29C843.93,553.74,841.47,534.25,829.5,525.08Z"/><path class="cls-2" d="M695.37,678.25,671.57,655c-130-126.9-298.3-171.13-473.89-124.53L165.54,539c-14.81,3.92-25.13,20.89-23.07,37.91s15.74,27.64,30.54,23.69l32.15-8.53C364.34,549.88,516.91,590,634.77,705l23.8,23.24a23.08,23.08,0,0,0,10.27,5.9c9.65,2.53,20.63-1.55,28-11.52C707,708.8,706.33,688.94,695.37,678.25Z"/><path class="cls-2" d="M566.58,834.49l-14.31-20.75c-82.08-118.86-198.82-149.55-328.73-86.37l-22.66,11c-14.2,6.89-21.92,25.5-17.24,41.54s20,23.44,34.16,16.53l22.67-11C348.12,733.1,441,757.51,509,856l14.32,20.74a23.72,23.72,0,0,0,13.51,9.75c8,2.12,17.13-.28,24.37-7.35C573.13,867.48,575.55,847.48,566.58,834.49Z"/><ellipse class="cls-2" cx="347.63" cy="941.33" rx="74.5" ry="62.28" transform="translate(-651.14 1038.31) rotate(-75.28)"/></g><text class="cls-3" transform="translate(66 956.19)">segurança</text><text class="cls-3" transform="translate(673 956.19)">sistema<tspan x="0" y="60">hidráulico</tspan></text><text class="cls-3" transform="translate(715 532.19)">temperatura</text><text class="cls-3" transform="translate(381 280.19)">comodidades</text><text class="cls-3" transform="translate(0 552.19)">serviços</text><text class="cls-4" transform="translate(73 968.19)">segurança</text><text class="cls-4" transform="translate(680 968.19)">sistema<tspan x="0" y="60">hidráulico</tspan></text><text class="cls-4" transform="translate(388 292.19)">comodidades</text><text class="cls-4" transform="translate(7 564.19)">serviços</text><text class="cls-4" transform="translate(722 544.19)">temperatura</text></g><g id="Camada_9" data-name="Camada 9"><circle class="cls-2" cx="381.23" cy="693.02" r="160.68"/><path class="cls-5" d="M317.77,584h16.9l.82,211.45,168.88,34.67v.76l94-16.74-1.81-1.62V628.93c0-2.12-.17-4.72-.37-7.72-.81-12.36-2-31,9-32.33l.25,0h0l.18,0,3-.24-91.76-98.05-110.09,1L317.61,581.8Zm193,8.49.54-.53-97.56-97.56,101.87-.92,86.77,92.72ZM507.24,827.4,505.5,595.72l92.4-6.34c-6.28,6.65-5.31,21.43-4.61,32,.2,3,.37,5.51.37,7.53V812Zm-7-158.9v14.33L340.3,666l80.82-6.22ZM422.4,682.26l77.84,8.18V792.26L422.4,779.11Zm77.84,144L344,794.2l77.16-12.37,79.1,13.37ZM338.37,792.17l-.46-118.8,81.6,8.58v97.22Zm-.48-123.51,162.35,17.08v1.79L337.9,670.46Zm-.33-86,7.95-7.95h74.92L419.7,657l-81.83,6.29Zm10.85-10.84,65.5-65.51,37,37L421.35,571.8Zm151.83,20.82v73L422.6,657l.73-83.14,29.61-28.58Zm4.11,234.51-1.21-.25V667Zm-182-246.06L408,494.42l1.84,0-.07.07,98.18,98.18-3.3.23L413.91,502.2l-1,1L335,581.07Z"/><path class="cls-5" d="M364.59,699.22v46.87l29.18-3.17V696.1Zm2.89,2.61,19.11-2.05.17,39.29-19.28,2.14Zm23.39-2.51V739.7l-1.21-.33-.18-39.9Z"/><path class="cls-5" d="M466.5,745.41V699.26l-26.65-3.57V741.8ZM442.74,699l3,.4-.17,38-2.83,1.12Zm20.86,2.79v38.05l-15.14-2.57.17-37.48Z"/><path class="cls-5" d="M466.5,620.05V573.72l-26.65-.89v46.06Zm-23.76-44.23,1.88.06V616.2l-1.88-.08ZM463.6,617l-16.09-.69V576l16.09.54Z"/><path class="cls-6" d="M298.06,594.58H315L315.78,806,484.66,840.7v.76l94-16.74-1.8-1.62V639.54c0-2.12-.18-4.72-.37-7.72-.82-12.36-2.05-31,9-32.33l.26,0h.18l3-.25-91.75-98-110.1,1-89.11,90.26Zm193,8.49.53-.53L394,505l101.86-.92,86.77,92.72ZM487.54,838l-1.75-231.68,92.4-6.34c-6.28,6.65-5.3,21.43-4.6,32,.19,3,.36,5.51.36,7.53V822.61Zm-7-158.9v14.33L320.6,676.62l80.81-6.22ZM402.7,692.87l77.84,8.19V802.87L402.7,789.72Zm77.84,144L324.27,804.82l77.17-12.37,79.1,13.36ZM318.66,802.78,318.2,684l81.6,8.58v97.22Zm-.47-123.5,162.35,17.07v1.79L318.19,681.07Zm-.34-86,8-8h74.92L400,667.61l-81.83,6.29Zm10.85-10.85,65.51-65.51,37,37-29.55,28.52Zm151.84,20.82v73l-77.65-8.55.74-83.14,29.61-28.58Zm4.1,234.51-1.21-.25V677.63ZM302.7,591.68,388.24,505h1.84l-.06.06,98.18,98.19-3.31.22-90.68-90.68-1,1-77.85,77.85Z"/><path class="cls-6" d="M344.88,709.84V756.7l29.18-3.17V706.71Zm2.89,2.6,19.12-2.05.16,39.29-19.28,2.14Zm23.4-2.51v40.38L370,750l-.17-39.9Z"/><path class="cls-6" d="M446.79,756V709.87l-26.65-3.57v46.11ZM423,709.61l3,.4-.17,38L423,749.1Zm20.86,2.79v38.06l-15.14-2.58.17-37.48Z"/><path class="cls-6" d="M446.79,630.66V584.33l-26.65-.89v46.07ZM423,586.43l1.87.06v40.32l-1.87-.08Zm20.86,41.21-16.09-.7V586.59l16.09.54Z"/><line class="cls-7" x1="413.54" y1="309.54" x2="409.83" y2="312.09"/><line class="cls-8" x1="402.27" y1="317.28" x2="134.03" y2="501.4"/><line class="cls-7" x1="130.25" y1="504" x2="126.54" y2="506.54"/><line class="cls-7" x1="118.54" y1="582.54" x2="119.58" y2="586.92"/><line class="cls-9" x1="121.6" y1="595.5" x2="189.49" y2="882.88"/><line class="cls-7" x1="190.51" y1="887.17" x2="191.54" y2="891.54"/><line class="cls-7" x1="270.54" y1="962.54" x2="275" y2="961.95"/><line class="cls-10" x1="284.13" y1="960.72" x2="626.52" y2="914.76"/><line class="cls-7" x1="631.08" y1="914.14" x2="635.54" y2="913.54"/><line class="cls-7" x1="692.53" y1="869.04" x2="693.61" y2="864.67"/><line class="cls-11" x1="695.81" y1="855.84" x2="769.37" y2="559.84"/><line class="cls-7" x1="770.47" y1="555.42" x2="771.56" y2="551.05"/><line class="cls-7" x1="728.54" y1="471.54" x2="724.93" y2="468.87"/><line class="cls-12" x1="717.45" y1="463.33" x2="511.89" y2="310.99"/><line class="cls-7" x1="508.16" y1="308.22" x2="504.54" y2="305.54"/><text/></g></g></svg>